<?xml version="1.0" encoding="UTF-8" standalone="no"?>
<!-- Created with Inkscape (http://www.inkscape.org/) -->

<svg
   width="102.49809mm"
   height="17.186537mm"
   viewBox="0 0 102.49809 17.186537"
   version="1.1"
   id="svg324455"
   sodipodi:docname="Plane_Red_Prognosis.svg"
   inkscape:version="1.1 (c68e22c387, 2021-05-23)"
   xmlns:inkscape="http://www.inkscape.org/namespaces/inkscape"
   xmlns:sodipodi="http://sodipodi.sourceforge.net/DTD/sodipodi-0.dtd"
   xmlns="http://www.w3.org/2000/svg"
   xmlns:svg="http://www.w3.org/2000/svg">
  <sodipodi:namedview
     id="namedview324457"
     pagecolor="#ffffff"
     bordercolor="#666666"
     borderopacity="1.0"
     inkscape:pageshadow="2"
     inkscape:pageopacity="0.0"
     inkscape:pagecheckerboard="0"
     inkscape:document-units="mm"
     showgrid="false"
     fit-margin-top="0"
     fit-margin-left="0"
     fit-margin-right="0"
     fit-margin-bottom="0"
     inkscape:zoom="3.0574074"
     inkscape:cx="219.46699"
     inkscape:cy="92.071472"
     inkscape:window-width="1920"
     inkscape:window-height="1017"
     inkscape:window-x="-8"
     inkscape:window-y="-8"
     inkscape:window-maximized="1"
     inkscape:current-layer="layer1" />
  <defs
     id="defs324452">
    <clipPath
       clipPathUnits="userSpaceOnUse"
       id="clipPath297720">
      <g
         id="g297730">
        <path
           id="path297722"
           style="fill:#ffcd5f;fill-opacity:1;stroke:none;stroke-width:0.885238;stroke-linecap:round;stroke-linejoin:round;stroke-opacity:1;paint-order:markers stroke fill;stop-color:#000000"
           d="m 217.89258,19.371094 c -1.68357,0.146021 -3.28438,0.831663 -4.76953,1.601562 -1.28821,0.708648 -1.59927,2.511206 -0.74645,3.675028 0.66287,0.882664 1.04041,1.990775 0.74993,3.090021 -0.59495,2.71566 -1.51752,5.359854 -2.58257,7.925325 -0.63458,1.465516 -1.55564,3.130717 -3.29787,3.389704 -1.51138,0.179893 -3.01085,0.197783 -4.41797,0.253907 -7.0599,0.24761 -14.13823,-0.122218 -21.18681,0.4224 -2.48102,0.225367 -4.64918,1.693088 -6.52998,3.22799 -1.55879,1.299129 -2.77605,2.955351 -3.9003,4.620415 -0.56892,1.191665 -0.29664,2.517703 -0.35751,3.790523 0.0698,3.937859 -0.20522,7.90755 0.375,11.817578 0.38041,2.667787 1.98031,4.947769 3.8586,6.799062 5.3662,5.695698 12.57101,9.252267 19.8914,11.741953 6.67166,2.18141 13.63129,3.599978 20.6558,3.850375 0.89477,-0.06145 1.85148,0.187687 2.70523,-0.07942 0.6043,-0.299231 1.39033,-0.400218 1.57635,-1.155737 0.52685,-1.402454 0.67577,-2.978024 1.5863,-4.228585 0.75423,-1.099142 1.57624,-2.307836 2.82592,-2.869055 1.69746,-0.51971 3.50746,-0.521501 5.23057,-0.824418 0.63518,-0.428902 1.53064,-0.656644 1.6657,-1.52447 3.46267,-10.944995 6.92564,-21.889895 10.38889,-32.834706 -0.16116,-0.561124 0.0324,-1.338186 -0.36272,-1.756884 -0.63612,-0.407816 -1.2186,-1.028347 -2.04353,-0.846741 -6.114,-0.05652 -12.24634,0.177791 -18.34375,-0.372938 -1.19655,-0.291012 -2.30012,-1.173555 -2.84766,-2.27539 -0.17281,-3.541203 0.60944,-7.136246 2.18762,-10.309858 0.45066,-0.970798 1.56548,-1.5442 1.64051,-2.703814 0.15206,-1.9502 -1.18563,-4.176437 -3.25195,-4.398438 -0.23221,-0.0248 -0.46582,-0.03426 -0.69922,-0.02539 z" />
        <path
           id="path297724"
           style="fill:#ffcd5f;fill-opacity:1;stroke:none;stroke-width:0.885238;stroke-linecap:round;stroke-linejoin:round;stroke-opacity:1;paint-order:markers stroke fill;stop-color:#000000"
           d="m 257.61914,30.648438 c -0.58681,-0.01558 -1.18407,0.01462 -1.58582,0.503881 -0.53945,0.419715 -1.18585,0.772218 -1.28517,1.514089 -2.08709,6.320364 -4.11649,12.661987 -6.01182,19.042576 -0.35546,1.083672 0.1701,2.445625 1.32348,2.759237 1.33107,0.537291 2.52674,-0.605913 3.52404,-1.338846 6.24329,-5.006185 12.33004,-10.202749 18.49501,-15.3045 1.40132,-1.204462 2.89243,-2.338889 4.23797,-3.586843 0.14363,-0.560196 0.81206,-1.108888 0.55714,-1.67782 -0.30637,-0.548171 -0.3314,-1.385553 -1.09189,-1.466885 -1.03478,-0.546545 -2.24044,-0.231522 -3.36229,-0.339079 -4.93314,-0.05779 -9.8671,-0.181986 -14.80065,-0.10581 z" />
        <path
           id="path297726"
           style="fill:#ffcd5f;fill-opacity:1;stroke:none;stroke-width:0.885238;stroke-linecap:round;stroke-linejoin:round;stroke-opacity:1;paint-order:markers stroke fill;stop-color:#000000"
           d="m 270.51953,51.052734 c -2.15457,1.570304 -4.11135,3.404476 -6.16343,5.107591 -6.31817,5.435337 -12.65195,10.857158 -18.83657,16.445144 -0.84681,0.760979 -1.06025,2.214921 -0.20638,3.051152 0.92094,1.123402 2.56173,0.886466 3.86107,0.982905 5.23981,0.03224 10.47898,-0.105065 15.71836,-0.157104 0.65863,-0.389566 1.59903,-0.479207 1.83506,-1.318612 2.15544,-6.768378 4.35532,-13.532324 6.32654,-20.360131 0.21522,-0.892807 0.7289,-1.88853 0.10103,-2.729205 -0.13132,-0.706309 -0.65256,-0.965732 -1.31245,-1.06625 -0.47701,-0.234667 -0.85242,-0.168327 -1.32323,0.04451 z" />
        <path
           id="path297728"
           style="fill:#ffcd5f;fill-opacity:1;stroke:none;stroke-width:0.885238;stroke-linecap:round;stroke-linejoin:round;stroke-opacity:1;paint-order:markers stroke fill;stop-color:#000000"
           d="m 381.88672,12.859375 c -2.49381,0.316702 -4.70135,1.645358 -6.96096,2.656693 -3.0323,1.460383 -6.25878,3.04254 -8.11912,5.985885 -1.62751,2.533661 -2.65657,5.391905 -3.85486,8.141206 -0.95828,2.461508 -2.08506,4.886583 -2.67926,7.4683 -0.0972,0.625252 0.0944,1.213887 0.60244,1.605862 0.35692,0.539525 0.86677,0.911404 1.53248,0.928654 0.7796,0.129509 1.56565,0.214782 2.35233,0.287619 -14.69019,-0.315495 -29.42709,-1.068825 -44.14351,-1.637081 -1.35249,-0.08246 -2.73167,-0.05891 -4.06754,-0.207383 -2.42014,-1.254227 -5.16556,-2.159381 -6.96308,-4.324152 -1.56622,-1.643757 -2.80015,-3.622186 -4.60322,-5.026697 -1.06199,-0.801702 -2.64487,-0.57835 -3.48047,0.441407 -2.3727,1.261456 -5.14189,1.397026 -7.77625,1.408209 -0.98101,0.05995 -2.12701,-0.01398 -2.81089,0.831696 -0.73727,0.622557 -0.73101,1.806714 -1.07777,2.593635 -4.10179,13.192227 -8.30981,26.352417 -12.42493,39.539506 -0.29824,1.386038 0.8326,2.720995 2.19976,2.876307 3.09138,0.413966 6.22716,0.286675 9.33914,0.393649 2.47346,0.09882 4.98064,-0.04247 7.42474,0.397067 2.22882,0.777148 3.17073,3.133992 4.11158,5.093829 0.40514,0.764226 0.6696,1.754548 1.62109,1.983004 0.51161,0.367113 1.10364,0.449389 1.68547,0.194941 18.11833,-6.524226 36.22653,-13.076898 54.31173,-19.69212 0.89579,-0.163575 1.4053,-0.91447 2.01547,-1.512302 0.23662,-1.428168 -0.40335,-2.778513 -0.65497,-4.163336 -0.4134,-1.833216 -0.92298,-3.674493 -0.94268,-5.565179 5.17983,-0.35861 10.37937,-0.225575 15.56836,-0.263672 3.82552,0 7.65104,0 11.47656,0 0.49373,-0.320817 1.26958,-0.379205 1.57722,-0.873117 0.33301,-0.713369 0.51601,-1.452986 0.414,-2.242473 -0.0895,-11.216678 -0.17904,-22.433357 -0.26856,-33.650035 -0.39999,-0.765597 -0.62303,-1.671347 -1.44183,-2.105199 -1.09272,-0.975948 -2.44753,-1.729391 -3.96247,-1.564723 z m -83.6543,32.005859 c 1.84053,0.03577 3.83026,0.681335 4.81295,2.351783 2.04279,3.056055 0.80401,7.975949 -2.79063,9.230621 -2.93037,1.098903 -6.6814,-0.310836 -7.88894,-3.256311 -0.24167,-1.618057 -0.26832,-3.314433 0.0867,-4.919024 0.4212,-1.412828 1.72309,-2.364991 2.97128,-3.02035 0.89369,-0.332163 1.86168,-0.41546 2.80859,-0.386719 z" />
      </g>
    </clipPath>
  </defs>
  <g
     inkscape:label="Layer 1"
     inkscape:groupmode="layer"
     id="layer1"
     transform="translate(-7.2238433,-157.83655)">
    <g
       id="g7474">
      <g
         id="g17236"
         transform="translate(0,-2.1166667)">
        <path
           style="fill:none;stroke:#000000;stroke-width:0.535641;stroke-linecap:round;stroke-linejoin:miter;stroke-miterlimit:4;stroke-dasharray:none;stroke-opacity:1"
           d="M 27.647525,168.4949 H 37.078"
           id="path313325"
           sodipodi:nodetypes="cc" />
        <path
           style="fill:none;stroke:#000000;stroke-width:0.535641;stroke-linecap:round;stroke-linejoin:miter;stroke-miterlimit:4;stroke-dasharray:none;stroke-opacity:1"
           d="m 37.078,168.4949 4.4336,-6.09664"
           id="path313327"
           sodipodi:nodetypes="cc" />
        <path
           style="fill:none;stroke:#000000;stroke-width:0.535641;stroke-linecap:round;stroke-linejoin:miter;stroke-miterlimit:4;stroke-dasharray:none;stroke-opacity:1"
           d="m 37.078,168.59812 4.4336,6.09665"
           id="path313445"
           sodipodi:nodetypes="cc" />
      </g>
      <path
         style="fill:#ff4e33;fill-opacity:1;stroke:#000000;stroke-width:0.753945;stroke-linecap:round;stroke-linejoin:round;stroke-miterlimit:4;stroke-dasharray:none;stroke-opacity:1;paint-order:markers stroke fill;stop-color:#000000"
         d="m 41.361237,159.19916 c 3.776799,-0.42769 7.553903,-0.83635 11.330727,-0.95101 3.776801,-0.11485 7.553625,0.0757 11.330422,0.44214 3.777125,0.36634 7.553928,0.87694 11.330725,1.18765 3.776824,0.31069 7.553647,0.39333 11.330746,0.19315 3.777104,-0.20006 7.553324,-0.66646 11.329545,-1.08419 3.779158,-0.41776 7.555378,-0.74996 11.331598,-0.77338 l -0.10287,0.14648 -3.42892,7.1397 v 0 l 3.42892,7.13971 0.10287,0.0404 c -3.77622,0.0238 -7.55244,0.3556 -11.331598,0.77335 -3.776221,0.41776 -7.552441,0.8841 -11.329545,1.0842 -3.777099,0.20007 -7.553922,0.11744 -11.330746,-0.19317 -3.776797,-0.31067 -7.5536,-0.82129 -11.330725,-1.1876 -3.776797,-0.36633 -7.553621,-0.55685 -11.330422,-0.44217 -3.776824,0.11484 -7.553928,0.52331 -11.330727,0.951 l -0.153331,0.007 v -14.27944"
         title="t sin(6*t)"
         id="path315727"
         sodipodi:nodetypes="ccccsccccccccscccccc" />
      <g
         id="g990"
         transform="matrix(0.91893172,0,0,0.91893172,6.4469263,15.49759)">
        <path
           id="path162447"
           style="fill:#ff4e33;fill-opacity:1;stroke:none;stroke-width:0.0480072;stroke-linecap:round;stroke-linejoin:round;stroke-opacity:1;paint-order:markers stroke fill;stop-color:#000000"
           d="m 3.4539037,164.02703 c -0.3072468,0.0703 -0.6221434,0.27055 -0.6997607,0.59467 -0.1025949,0.31911 0.1003715,0.66774 0.3906494,0.80657 0.135025,0.0825 0.2910329,0.1427 0.4515908,0.11842 0.1804552,-0.006 0.3092024,-0.16858 0.363393,-0.32657 0.03045,-0.14118 0.00442,-0.28688 0.013324,-0.43012 -0.00335,-0.17145 0.022355,-0.35155 -0.054959,-0.51087 -0.036002,-0.11596 -0.1368124,-0.20213 -0.2556039,-0.22338 -0.065979,-0.0263 -0.1377983,-0.0402 -0.2086337,-0.0287 z" />
        <path
           id="path1258"
           style="fill:#000000;stroke:none;stroke-width:0.0193123;stroke-linecap:round;stroke-linejoin:round;stroke-opacity:1;paint-order:markers stroke fill;stop-color:#000000"
           d="m 2.9738765,165.52326 c -0.087508,0.12767 -0.07233,0.29217 -0.1050093,0.43796 -0.1104204,0.80022 -0.1949836,1.61094 -0.1360108,2.41911 0.032709,0.32726 0.072844,0.67427 0.2609336,0.9537 0.1127774,0.16841 0.3230605,0.28999 0.5279022,0.22667 0.21337,-0.0711 0.2967575,-0.30914 0.3448743,-0.5082 0.093046,-0.45914 0.056462,-0.9319 0.021168,-1.3954 -0.058663,-0.6524 -0.1668562,-1.29959 -0.301008,-1.94044 -0.030914,-0.10432 -0.1207753,-0.17386 -0.2236164,-0.20018 -0.094281,-0.0294 -0.2003742,-0.10614 -0.2948084,-0.0361 -0.031475,0.0143 -0.06295,0.0286 -0.094426,0.0429 z" />
        <path
           id="path7867"
           style="fill:#000000;stroke:none;stroke-width:0.0960146;stroke-linecap:round;stroke-linejoin:round;stroke-opacity:1;paint-order:markers stroke fill;stop-color:#000000"
           d="m 3.3589998,160.03112 c -0.2413553,0.0457 -0.3793933,0.28166 -0.4677407,0.49019 -0.1173261,0.34919 -0.1226777,0.72329 -0.1359891,1.08796 -0.011925,0.72317 0.048708,1.44675 0.1592921,2.16102 0.018537,0.13888 0.1068889,0.28856 0.2591397,0.30164 0.096166,0.007 0.195232,-0.0277 0.2781943,-0.0723 0.074379,-0.0461 0.1286788,-0.11528 0.1394805,-0.20418 0.1026459,-0.50449 0.1605861,-1.01709 0.2217812,-1.52798 0.06049,-0.51877 0.1047664,-1.04414 0.056101,-1.56575 -0.027982,-0.22169 -0.087903,-0.46679 -0.269987,-0.61298 -0.068388,-0.0499 -0.1567943,-0.0699 -0.2402717,-0.0576 z" />
        <path
           id="path297849"
           style="fill:#e1f4ff;fill-opacity:1;stroke:none;stroke-width:0.0480072;stroke-linecap:round;stroke-linejoin:round;stroke-opacity:1;paint-order:markers stroke fill;stop-color:#000000"
           d="m 8.0664885,161.34579 c -0.276741,0.27892 -0.4926489,0.61098 -0.6668797,0.96174 -0.053648,0.11458 -0.1230147,0.2211 -0.1834039,0.33105 -0.03032,0.0657 0.00693,0.13706 0.013517,0.20449 0.055104,0.0686 0.1318469,0.11569 0.2220894,0.11482 0.1811946,0.006 0.3718877,0.0317 0.5460651,-0.0311 0.2149392,-0.0877 0.2785555,-0.33269 0.3516159,-0.53015 0.07527,-0.23011 0.1668021,-0.45705 0.2186587,-0.69349 0.014594,-0.14504 -0.09238,-0.26812 -0.1900245,-0.36 -0.06805,-0.0165 -0.1363745,-0.0955 -0.2041326,-0.0456 -0.035837,0.0161 -0.071672,0.0322 -0.1075071,0.0483 z" />
        <path
           id="path297888"
           style="fill:#e1f4ff;fill-opacity:1;stroke:none;stroke-width:0.0480072;stroke-linecap:round;stroke-linejoin:round;stroke-opacity:1;paint-order:markers stroke fill;stop-color:#000000"
           d="m 9.4980973,161.4962 c -0.1837762,0.0469 -0.2382721,0.25353 -0.2970365,0.40937 -0.06988,0.22667 -0.1417376,0.46265 -0.1257946,0.70236 0.019573,0.23548 0.2643229,0.38588 0.4859587,0.37241 0.6787741,0.0135 1.3577481,0.009 2.0366201,0.0116 0.07191,-0.0412 0.174617,-0.049 0.200323,-0.14036 0.05866,-0.17796 0.114708,-0.35922 0.163581,-0.54023 0.01411,-0.0709 -0.04407,-0.13534 -0.06648,-0.1996 -0.127694,-0.10245 -0.302615,-0.072 -0.454935,-0.0861 -0.333455,-0.0143 -0.669049,10e-4 -1.000969,-0.0373 -0.287114,-0.0555 -0.5283145,-0.23904 -0.7351478,-0.43657 -0.058311,-0.0529 -0.1323641,-0.0522 -0.2061189,-0.0557 z" />
        <g
           id="g95504"
           transform="matrix(0.10846161,0,0,0.10846161,-14.559832,158.72322)">
          <path
             id="path8125"
             style="fill:#ffcd5f;fill-opacity:1;stroke:none;stroke-width:0.885238;stroke-linecap:round;stroke-linejoin:round;stroke-opacity:1;paint-order:markers stroke fill;stop-color:#000000"
             d="m 217.89258,19.371094 c -1.68357,0.146021 -3.28438,0.831663 -4.76953,1.601562 -1.28821,0.708648 -1.59927,2.511206 -0.74645,3.675028 0.66287,0.882664 1.04041,1.990775 0.74993,3.090021 -0.59495,2.71566 -1.51752,5.359854 -2.58257,7.925325 -0.63458,1.465516 -1.55564,3.130717 -3.29787,3.389704 -1.51138,0.179893 -3.01085,0.197783 -4.41797,0.253907 -7.0599,0.24761 -14.13823,-0.122218 -21.18681,0.4224 -2.48102,0.225367 -4.64918,1.693088 -6.52998,3.22799 -1.55879,1.299129 -2.77605,2.955351 -3.9003,4.620415 -0.56892,1.191665 -0.29664,2.517703 -0.35751,3.790523 0.0698,3.937859 -0.20522,7.90755 0.375,11.817578 0.38041,2.667787 1.98031,4.947769 3.8586,6.799062 5.3662,5.695698 12.57101,9.252267 19.8914,11.741953 6.67166,2.18141 13.63129,3.599978 20.6558,3.850375 0.89477,-0.06145 1.85148,0.187687 2.70523,-0.07942 0.6043,-0.299231 1.39033,-0.400218 1.57635,-1.155737 0.52685,-1.402454 0.67577,-2.978024 1.5863,-4.228585 0.75423,-1.099142 1.57624,-2.307836 2.82592,-2.869055 1.69746,-0.51971 3.50746,-0.521501 5.23057,-0.824418 0.63518,-0.428902 1.53064,-0.656644 1.6657,-1.52447 3.46267,-10.944995 6.92564,-21.889895 10.38889,-32.834706 -0.16116,-0.561124 0.0324,-1.338186 -0.36272,-1.756884 -0.63612,-0.407816 -1.2186,-1.028347 -2.04353,-0.846741 -6.114,-0.05652 -12.24634,0.177791 -18.34375,-0.372938 -1.19655,-0.291012 -2.30012,-1.173555 -2.84766,-2.27539 -0.17281,-3.541203 0.60944,-7.136246 2.18762,-10.309858 0.45066,-0.970798 1.56548,-1.5442 1.64051,-2.703814 0.15206,-1.9502 -1.18563,-4.176437 -3.25195,-4.398438 -0.23221,-0.0248 -0.46582,-0.03426 -0.69922,-0.02539 z" />
          <path
             id="path8164"
             style="fill:#ffcd5f;fill-opacity:1;stroke:none;stroke-width:0.885238;stroke-linecap:round;stroke-linejoin:round;stroke-opacity:1;paint-order:markers stroke fill;stop-color:#000000"
             d="m 257.61914,30.648438 c -0.58681,-0.01558 -1.18407,0.01462 -1.58582,0.503881 -0.53945,0.419715 -1.18585,0.772218 -1.28517,1.514089 -2.08709,6.320364 -4.11649,12.661987 -6.01182,19.042576 -0.35546,1.083672 0.1701,2.445625 1.32348,2.759237 1.33107,0.537291 2.52674,-0.605913 3.52404,-1.338846 6.24329,-5.006185 12.33004,-10.202749 18.49501,-15.3045 1.40132,-1.204462 2.89243,-2.338889 4.23797,-3.586843 0.14363,-0.560196 0.81206,-1.108888 0.55714,-1.67782 -0.30637,-0.548171 -0.3314,-1.385553 -1.09189,-1.466885 -1.03478,-0.546545 -2.24044,-0.231522 -3.36229,-0.339079 -4.93314,-0.05779 -9.8671,-0.181986 -14.80065,-0.10581 z" />
          <path
             id="path8203"
             style="fill:#ffcd5f;fill-opacity:1;stroke:none;stroke-width:0.885238;stroke-linecap:round;stroke-linejoin:round;stroke-opacity:1;paint-order:markers stroke fill;stop-color:#000000"
             d="m 270.51953,51.052734 c -2.15457,1.570304 -4.11135,3.404476 -6.16343,5.107591 -6.31817,5.435337 -12.65195,10.857158 -18.83657,16.445144 -0.84681,0.760979 -1.06025,2.214921 -0.20638,3.051152 0.92094,1.123402 2.56173,0.886466 3.86107,0.982905 5.23981,0.03224 10.47898,-0.105065 15.71836,-0.157104 0.65863,-0.389566 1.59903,-0.479207 1.83506,-1.318612 2.15544,-6.768378 4.35532,-13.532324 6.32654,-20.360131 0.21522,-0.892807 0.7289,-1.88853 0.10103,-2.729205 -0.13132,-0.706309 -0.65256,-0.965732 -1.31245,-1.06625 -0.47701,-0.234667 -0.85242,-0.168327 -1.32323,0.04451 z" />
          <path
             id="path8242"
             style="fill:#ffcd5f;fill-opacity:1;stroke:none;stroke-width:0.885238;stroke-linecap:round;stroke-linejoin:round;stroke-opacity:1;paint-order:markers stroke fill;stop-color:#000000"
             d="m 381.88672,12.859375 c -2.49381,0.316702 -4.70135,1.645358 -6.96096,2.656693 -3.0323,1.460383 -6.25878,3.04254 -8.11912,5.985885 -1.62751,2.533661 -2.65657,5.391905 -3.85486,8.141206 -0.95828,2.461508 -2.08506,4.886583 -2.67926,7.4683 -0.0972,0.625252 0.0944,1.213887 0.60244,1.605862 0.35692,0.539525 0.86677,0.911404 1.53248,0.928654 0.7796,0.129509 1.56565,0.214782 2.35233,0.287619 -14.69019,-0.315495 -29.42709,-1.068825 -44.14351,-1.637081 -1.35249,-0.08246 -2.73167,-0.05891 -4.06754,-0.207383 -2.42014,-1.254227 -5.16556,-2.159381 -6.96308,-4.324152 -1.56622,-1.643757 -2.80015,-3.622186 -4.60322,-5.026697 -1.06199,-0.801702 -2.64487,-0.57835 -3.48047,0.441407 -2.3727,1.261456 -5.14189,1.397026 -7.77625,1.408209 -0.98101,0.05995 -2.12701,-0.01398 -2.81089,0.831696 -0.73727,0.622557 -0.73101,1.806714 -1.07777,2.593635 -4.10179,13.192227 -8.30981,26.352417 -12.42493,39.539506 -0.29824,1.386038 0.8326,2.720995 2.19976,2.876307 3.09138,0.413966 6.22716,0.286675 9.33914,0.393649 2.47346,0.09882 4.98064,-0.04247 7.42474,0.397067 2.22882,0.777148 3.17073,3.133992 4.11158,5.093829 0.40514,0.764226 0.6696,1.754548 1.62109,1.983004 0.51161,0.367113 1.10364,0.449389 1.68547,0.194941 18.11833,-6.524226 36.22653,-13.076898 54.31173,-19.69212 0.89579,-0.163575 1.4053,-0.91447 2.01547,-1.512302 0.23662,-1.428168 -0.40335,-2.778513 -0.65497,-4.163336 -0.4134,-1.833216 -0.92298,-3.674493 -0.94268,-5.565179 5.17983,-0.35861 10.37937,-0.225575 15.56836,-0.263672 3.82552,0 7.65104,0 11.47656,0 0.49373,-0.320817 1.26958,-0.379205 1.57722,-0.873117 0.33301,-0.713369 0.51601,-1.452986 0.414,-2.242473 -0.0895,-11.216678 -0.17904,-22.433357 -0.26856,-33.650035 -0.39999,-0.765597 -0.62303,-1.671347 -1.44183,-2.105199 -1.09272,-0.975948 -2.44753,-1.729391 -3.96247,-1.564723 z m -83.6543,32.005859 c 1.84053,0.03577 3.83026,0.681335 4.81295,2.351783 2.04279,3.056055 0.80401,7.975949 -2.79063,9.230621 -2.93037,1.098903 -6.6814,-0.310836 -7.88894,-3.256311 -0.24167,-1.618057 -0.26832,-3.314433 0.0867,-4.919024 0.4212,-1.412828 1.72309,-2.364991 2.97128,-3.02035 0.89369,-0.332163 1.86168,-0.41546 2.80859,-0.386719 z" />
        </g>
        <path
           id="path1297"
           style="fill:#000000;stroke:none;stroke-width:0.0386246;stroke-linecap:round;stroke-linejoin:round;stroke-opacity:1;paint-order:markers stroke fill;stop-color:#000000"
           d="m 10.485353,172.63126 c -16.6967898,-9.27202 -8.3483956,-4.63601 0,0 z"
           sodipodi:nodetypes="cc" />
        <path
           id="path51291"
           style="fill:#ffa953;fill-opacity:1;stroke:none;stroke-width:0.0678923;stroke-linecap:round;stroke-linejoin:round;stroke-opacity:1;paint-order:markers stroke fill;stop-color:#000000"
           d="m 9.4892,159.86461 c -0.1023869,0.11444 -0.1920529,0.2541 -0.181722,0.4144 0.014896,0.24386 0.062226,0.48686 0.1343999,0.72022 0.1346543,0.42554 0.4501368,0.80963 0.8828191,0.95149 0.260915,0.0965 0.542913,0.0622 0.815054,0.0742 2.205436,0.0192 4.410986,0.006 6.616469,0.005 0.144726,-0.0278 0.2722,-0.11002 0.398782,-0.18211 0.220249,-0.13561 0.373156,-0.38281 0.384703,-0.64182 -0.02168,-0.22903 -0.191555,-0.40713 -0.341378,-0.56743 -0.290124,-0.28482 -0.606746,-0.55078 -0.967737,-0.7412 -0.216347,-0.11627 -0.470581,-0.0837 -0.7068,-0.1004 -1.351035,-0.0218 -2.702346,-0.0119 -4.053506,-0.0151 -0.936852,0 -1.873703,0 -2.8105539,0 -0.056844,0.0276 -0.1136875,0.0552 -0.1705301,0.0828 z" />
        <path
           id="path51369"
           style="fill:#ffa953;fill-opacity:1;stroke:none;stroke-width:0.0339462;stroke-linecap:round;stroke-linejoin:round;stroke-opacity:1;paint-order:markers stroke fill;stop-color:#000000"
           d="m 9.8728397,167.06121 c -0.1970718,0.0826 -0.3754476,0.2241 -0.4602753,0.42497 -0.099172,0.17907 -0.06174,0.39145 -0.040513,0.58487 0.043245,0.22335 0.2136845,0.40891 0.4111793,0.51159 0.1894303,0.0789 0.3980733,0.0459 0.5978083,0.0552 2.353583,0.0118 4.707209,0.003 7.06081,0.002 0.253477,-0.055 0.463974,-0.25842 0.557348,-0.4974 0.05171,-0.16487 0.03852,-0.34298 0.02468,-0.51275 -0.05548,-0.25449 -0.260874,-0.46968 -0.504971,-0.55428 -0.217963,-0.043 -0.442999,-0.0237 -0.664021,-0.0327 -2.295275,-0.008 -4.590583,-0.003 -6.8858719,-0.004 -0.032061,0.007 -0.064116,0.015 -0.096175,0.0225 z" />
        <path
           id="rect95528"
           clip-path="none"
           style="fill:#ffffff;stroke-width:0.152625;stroke-linecap:round;stroke-linejoin:round;paint-order:markers stroke fill;stop-color:#000000"
           d="m 3.918999,163.76932 h 23.659497 v 1.95218 H 3.918999 Z"
           sodipodi:nodetypes="ccccc" />
        <path
           id="rect119313"
           clip-path="none"
           style="fill:#ff4e33;stroke-width:0.150354;stroke-linecap:round;stroke-linejoin:round;paint-order:markers stroke fill;stop-color:#000000"
           d="m 3.918999,164.43963 h 23.510876 v 0.61156 H 3.918999 Z"
           sodipodi:nodetypes="ccccc" />
        <path
           id="path31003"
           style="fill:#fff0d4;fill-opacity:1;stroke:none;stroke-width:0.0240037;stroke-linecap:round;stroke-linejoin:round;stroke-opacity:1;paint-order:markers stroke fill;stop-color:#000000"
           d="m 15.351422,162.50243 c -1.052624,0.86639 -2.10045,1.73868 -3.145671,2.61396 -0.132636,0.11047 -0.14548,0.29534 -0.206179,0.44704 -0.07848,0.25182 -0.168121,0.50155 -0.234287,0.75638 -0.0092,0.0668 -6.46e-4,0.129 0.05165,0.17622 0.02521,0.0714 0.09228,0.0743 0.1571,0.0784 0.113494,0.0351 0.190644,-0.0807 0.271461,-0.14048 1.041797,-0.90679 2.0781,-1.81988 3.117365,-2.72957 0.09873,-0.12654 0.115895,-0.29182 0.17197,-0.43861 0.05552,-0.18134 0.116943,-0.3611 0.164431,-0.54474 -0.02188,-0.0593 -0.007,-0.14482 -0.05309,-0.18691 -0.06548,-0.0276 -0.124938,-0.10656 -0.199046,-0.0604 -0.0319,0.01 -0.0638,0.0192 -0.0957,0.0287 z" />
        <path
           id="path90522"
           style="fill:#ffcd5f;fill-opacity:1;stroke:none;stroke-width:0.0678923;stroke-linecap:round;stroke-linejoin:round;stroke-opacity:1;paint-order:markers stroke fill;stop-color:#000000"
           d="m 24.272014,164.45017 c -0.02068,0.0853 0.05866,0.31731 0.09474,0.40562 0.07594,0.37596 0.208596,0.74028 0.375934,1.08487 0.234623,0.43578 0.546392,0.82875 0.899674,1.17423 0.176999,0.17366 0.390049,0.33319 0.645672,0.35432 0.42001,0.0498 0.849933,-0.18726 1.042818,-0.56183 0.07256,-0.10219 0.124076,-0.22194 0.108739,-0.34971 v -1.81674 c -0.03478,-0.0536 -0.04117,-0.28579 -0.09467,-0.31934 -0.0767,-0.0364 -0.15644,-0.0559 -0.24156,-0.0458 h -2.667812 c -0.05451,0.0248 -0.109026,0.0496 -0.163539,0.0744 z"
           sodipodi:nodetypes="cccccccccccc" />
        <path
           id="path305253"
           style="fill:#ffa953;fill-opacity:1;stroke:none;stroke-width:0.0678923;stroke-linecap:round;stroke-linejoin:round;stroke-opacity:1;paint-order:markers stroke fill;stop-color:#000000"
           d="m 17.701778,163.58472 c -0.312928,0.0162 -0.564123,0.29957 -0.581499,0.60543 -0.02954,0.27775 0.146992,0.5614 0.415559,0.64606 0.268193,0.1157 0.596312,-0.001 0.753909,-0.24104 0.127829,-0.16151 0.173002,-0.3885 0.08712,-0.58 -0.10443,-0.26661 -0.38704,-0.45452 -0.675087,-0.43045 z" />
        <path
           id="path31042"
           style="fill:#fff0d4;fill-opacity:1;stroke:none;stroke-width:0.0240037;stroke-linecap:round;stroke-linejoin:round;stroke-opacity:1;paint-order:markers stroke fill;stop-color:#000000"
           d="m 15.902839,162.09274 c -0.08419,0.14463 -0.1093,0.31475 -0.16721,0.47076 -0.441675,1.4006 -0.885846,2.80263 -1.327738,4.2041 0.0174,0.0609 -0.0037,0.14509 0.0391,0.1906 0.06902,0.0447 0.132314,0.11211 0.2221,0.0922 0.199259,-0.003 0.401153,0.006 0.598779,-0.005 0.06957,-0.0389 0.16587,-0.0487 0.190719,-0.13622 0.285575,-0.88504 0.560906,-1.77453 0.842439,-2.66131 0.20473,-0.64906 0.409461,-1.29813 0.614192,-1.94719 -0.01762,-0.0608 0.0032,-0.14501 -0.03976,-0.19034 -0.06895,-0.0441 -0.132038,-0.11153 -0.221432,-0.0918 -0.198839,0.003 -0.400297,-0.006 -0.597515,0.004 -0.05122,0.0233 -0.102444,0.0466 -0.153667,0.0699 z" />
        <path
           id="path30964"
           style="fill:#fff0d4;fill-opacity:1;stroke:none;stroke-width:0.0240037;stroke-linecap:round;stroke-linejoin:round;stroke-opacity:1;paint-order:markers stroke fill;stop-color:#000000"
           d="m 12.040589,162.09274 c -0.08295,0.14436 -0.108534,0.31334 -0.166009,0.46871 -0.440341,1.40144 -0.885367,2.80003 -1.324885,4.20161 -0.02442,0.0682 0.02305,0.13087 0.04064,0.19456 0.06604,0.0576 0.145152,0.0975 0.235183,0.0893 0.192788,1.6e-4 0.388328,0.004 0.579419,-0.007 0.06925,-0.0395 0.165402,-0.0502 0.189628,-0.13789 0.486198,-1.52239 0.96395,-3.04827 1.445689,-4.57242 0.02176,-0.0703 -0.01496,-0.14344 -0.01949,-0.21502 -0.07821,-0.0428 -0.148255,-0.1167 -0.244927,-0.0957 -0.193525,0.003 -0.389684,-0.006 -0.581586,0.004 -0.05122,0.0233 -0.102444,0.0466 -0.153666,0.0699 z" />
        <g
           id="g6"
           transform="matrix(0.19945571,0,0,0.19945571,2.5220244,159.06708)">
          <path
             d="m 43.388,49.026 h 30.626 c 2.104,0 3.873,-1.38 4.503,-3.274 L 110.17,34.269 c 1.284,2.743 3.179,5.241 5.72,7.451 1.12,0.973 2.503,1.477 3.917,1.477 0.857,0 1.725,-0.186 2.552,-0.563 2.252,-1.026 3.651,-3.191 3.651,-5.649 V 27.347 7.986 c 0,-1.279 -0.631,-2.47 -1.688,-3.186 -1.063,-0.721 -2.41,-0.866 -3.604,-0.39 -3.701,1.473 -6.125,2.866 -7.204,4.141 -1.926,2.276 -3.891,8.237 -4.545,10.34 L 87.947,18.041 C 86.088,17.966 84.358,17.087 83.199,15.63 L 80.868,12.7 c 0.33,-0.648 0.498,-1.317 0.498,-1.996 0,-0.344 -0.001,-1.086 -1.026,-2.42 L 78.689,6.518 C 78.341663,6.194036 77.948234,5.8485034 77.503734,5.4804384 77.130482,5.1713703 76.72122,4.8464144 76.273,4.505 L 74.521,3.355 C 73.458,2.827 72.288,2.544 71.07,2.544 L 36.275,2.543 c -0.886,0 -1.715,0.35 -2.335,0.983 -0.615,0.629 -0.943,1.457 -0.923,2.332 0.014,0.615 0.067,1.215 0.15,1.801 -5.117,0.597 -8.182,4.994 -9.88,8.729 -0.602,1.323 -1.976,2.234 -3.307,2.198 -3.325,-0.069 -6.728,-0.074 -8.585,0.648 -2.544,0.991 -4.144,3.228 -4.77,4.254 C 6.556,23.492 6.484,23.499 6.413,23.505 7.359,18.964 9.347,7.686 6.499,4.62 5.841,3.912 4.97,3.616 3.983,3.766 3.031,3.909 2.234,4.427 1.615,5.304 -1.436,9.622 0.669,22.507 1.236,25.624 c -0.718,0.759 -1.188,1.758 -1.188,3.062 0,1.304 0.469,2.303 1.188,3.062 -0.566,3.117 -2.672,16.003 0.379,20.32 0.62,0.877 1.417,1.395 2.369,1.538 0.167,0.025 0.331,0.038 0.49,0.038 0.785,0 1.479,-0.304 2.025,-0.892 2.848,-3.066 0.86,-14.345 -0.086,-18.887 0.056,0.005 0.112,0.009 0.167,0.013 1.866,3.938 6.256,7.255 12.038,9.417 l 1.929,0.666 c 0.986724,0.30974 2.007228,0.585888 3.055727,0.827453 1.358304,0.312941 2.76359,0.567843 4.203273,0.762547 l 1.989,0.232 c 1.235,0.115 2.492,0.178 3.764,0.198 0.433,1.111 1.345921,1.948608 2.333,2.536 0.584559,0.34786 1.309031,0.380279 1.979,0.498 0.03894,0.0068 0.07851,0.01 0.118,0.012 1.131546,0.05739 3.399,0 3.399,0 z M 35.37,4.925 C 35.611,4.679 35.932,4.543 36.275,4.543 L 71.07,4.544 c 1.245,0 2.426,0.386 3.416,1.115 3.852,2.836 4.879,4.506 4.879,5.045 0,0.493 -0.179,1 -0.531,1.507 -0.715,1.028 -1.966,1.642 -3.346,1.642 H 41.235 c -2.014,0 -3.868,-1.037 -4.839,-2.706 C 35.54,9.674 35.063,7.831 35.017,5.814 35.009,5.482 35.134,5.166 35.37,4.925 Z m 25.206,34.06 4.904,-15.53 c 0.044,-0.083 0.064,-0.171 0.083,-0.261 l 2.318,-7.341 h 3.292 L 63.869,38.985 Z M 35.217,12.965 c 1.409,1.802 3.634,2.888 6.018,2.888 h 5.191 l -0.864,2.734 H 34.929 c -0.32,0 -0.614,-0.132 -0.83,-0.37 -0.216,-0.24 -0.317,-0.55 -0.284,-0.87 0.189,-1.827 0.643,-3.25 1.402,-4.382 z m 13.306,2.888 h 3.269 L 44.487,38.985 H 41.218 Z M 63.7,22.451 47.251,36.874 49.004,31.324 65.158,17.837 Z M 50.121,27.785 53.889,15.853 H 64.412 Z M 62.538,26.13 58.478,38.985 H 47.877 Z M 25.107,17.217 c 0.79,-1.737 1.905,-3.64 3.417,-5.111 l 0.035,0.01 c 0.277,0.081 0.503,0.267 0.636,0.522 0.133,0.257 0.154,0.548 0.061,0.82 l -1.457,4.228 c -0.186,0.539 -0.693,0.9 -1.262,0.9 H 24.23 c 0.35,-0.408 0.649,-0.866 0.877,-1.369 z M 5.303,31.666 c -0.002,0 -0.003,-0.001 -0.005,-0.001 -1.471,-0.33 -3.25,-1.114 -3.25,-2.979 0,-1.863 1.774,-2.647 3.244,-2.978 0.007,-10e-4 0.014,-0.003 0.021,-0.004 0.324,-0.072 0.634,-0.123 0.905,-0.158 v 6.279 C 5.943,31.79 5.631,31.739 5.303,31.666 Z M 3.248,6.458 C 3.644,5.897 4.028,5.781 4.282,5.742 4.609,5.695 4.829,5.762 5.033,5.98 6.92,8.013 5.615,17.792 4.282,23.9 3.864,24.023 3.449,24.177 3.048,24.363 2.213,19.366 1.108,9.487 3.248,6.458 Z M 5.034,51.391 C 4.831,51.61 4.614,51.676 4.283,51.629 4.029,51.59 3.645,51.474 3.249,50.913 1.109,47.885 2.214,38.006 3.049,33.007 c 0.4,0.187 0.815,0.341 1.233,0.463 1.334,6.109 2.64,15.888 0.752,17.921 z M 8.217,32.678 v -7.954 c 0.368,-0.644 1.719,-2.775 3.903,-3.625 1.643,-0.639 5.508,-0.561 7.818,-0.512 0.005,0 0.011,-0.001 0.016,-0.001 0.002,0 0.003,0.001 0.005,0.001 h 6.578 c 1.422,0 2.689,-0.903 3.153,-2.248 l 1.457,-4.229 c 0.274,-0.795 0.212,-1.645 -0.175,-2.392 -0.19,-0.367 -0.447,-0.683 -0.754,-0.939 0.997,-0.616 2.122,-1.035 3.392,-1.154 0.15,0.505 0.327,0.99 0.533,1.454 -1.29,1.524 -2.053,3.512 -2.317,6.059 -0.091,0.879 0.196,1.76 0.788,2.416 0.591,0.655 1.435,1.031 2.315,1.031 h 10.002 l -5.81,18.397 H 37.99 c -2.627,0 -4.765,2.138 -4.765,4.766 v 0.224 C 21.444,43.686 10.862,38.943 8.217,32.678 Z M 74.014,47.027 H 37.99 c -0.179,0 -0.353,-0.02 -0.523,-0.053 -0.159,-0.106 -0.339,-0.183 -0.545,-0.183 -0.011,0 -0.02,0.006 -0.031,0.006 -0.747,-0.325 -1.313,-0.974 -1.544,-1.765 0,-0.01 0.006,-0.019 0.006,-0.029 0,-0.149 -0.037,-0.287 -0.095,-0.414 -0.013,-0.108 -0.033,-0.214 -0.033,-0.326 V 43.75 c 0,-1.525 1.24,-2.766 2.765,-2.766 h 36.024 c 1.525,0 2.765,1.24 2.765,2.766 v 0.512 c 0,0.108 -0.02,0.21 -0.032,0.315 -0.064,0.135 -0.087,0.284 -0.085,0.437 -0.33,1.157 -1.385,2.013 -2.648,2.013 z m 49.995,-18.679 v 8.637 h 0.001 c 0,1.665 -0.951,3.133 -2.481,3.83 -1.492,0.679 -3.11,0.454 -4.327,-0.604 -3.811,-3.313 -5.93443,-7.324973 -6.769,-11.863 -0.18195,-0.989375 -0.0228,-2.001 -1.129,-2.001 -0.281,0 -0.55,0.118 -0.739,0.326 -0.189,0.208 -0.283,0.486 -0.256,0.767 0.162,1.736 0.546,3.39 1.103,4.976 L 78.758,43.537 C 78.644,41.01 76.569,38.985 74.014,38.985 h -8.049 l 7.304,-23.132 h 2.218 c 1.566,0 3.028,-0.558 4.116,-1.527 l 2.029,2.55 c 1.521,1.912 3.792,3.065 6.232,3.164 l 26.843,1.085 c 0.014,0.001 0.027,0.001 0.041,0.001 0.534,0 0.977,-0.422 0.999,-0.96 0.022,-0.552 -0.407,-1.017 -0.958,-1.039 l -3.751,-0.152 c 0.872,-2.726 2.566,-7.434 4.002,-9.131 0.841,-0.993 3.12,-2.264 6.417,-3.576 0.587,-0.231 1.222,-0.165 1.742,0.188 0.515,0.349 0.81,0.906 0.81,1.53 v 18.361"
             id="path2"
             sodipodi:nodetypes="cscccscscscccccccsccsccccccccccccccccscccscccccscccaaaccccccscsscccccccccccsccscccccccccccccccccccccccccccsccccscccccccccccccccccccccsssccccccccsccssccsscsccscssssssccscccccscscccsccsccccsccccccsc" />
          <path
             d="m 76.411,21.575 c -2.374,0 -4.305,1.931 -4.305,4.305 0,2.373 1.931,4.304 4.305,4.304 2.374,0 4.304,-1.931 4.304,-4.304 10e-4,-2.374 -1.93,-4.305 -4.304,-4.305 z m 0,6.609 c -1.271,0 -2.305,-1.033 -2.305,-2.304 0,-1.271 1.034,-2.305 2.305,-2.305 1.271,0 2.304,1.034 2.304,2.305 0,1.271 -1.033,2.304 -2.304,2.304 z"
             id="path4" />
        </g>
      </g>
      <g
         aria-label="News"
         id="text1876"
         style="font-size:15.5222px;line-height:1.25;font-family:rookie;-inkscape-font-specification:rookie;word-spacing:0px;fill:#ffffff;stroke-width:0.264583" />
    </g>
    <g
       aria-label="Prognosis Death"
       id="text2951"
       style="font-size:9.87778px;line-height:1.05;font-family:Montserrat;-inkscape-font-specification:Montserrat;letter-spacing:-0.3175px;word-spacing:0px;fill:#ffffff;stroke-width:0.264583">
      <path
         d="m 42.892053,162.0589 0.296333,0.01 q 0.345722,0 0.651933,-0.0296 0.306212,-0.0296 0.602545,-0.0593 0.296333,-0.0296 0.553156,-0.0494 0.2667,-0.0198 0.503766,-0.0198 1.274234,0 2.123723,0.45438 1.076678,0.58279 1.076678,1.74837 0,0.77047 -0.612422,1.28411 -0.513645,0.43462 -1.343378,0.60254 -0.246945,0.0395 -0.750712,0.0691 -0.503766,0.0296 -1.145822,0.0296 h -0.04939 v 1.79776 q 0,0.85937 0.395111,0.94827 v 0.1778 H 42.90193 v -0.16793 q 0.2667,-0.16792 0.3556,-0.4445 0.01976,-0.0988 0.02963,-0.20743 0.0099,-0.11853 0.0099,-0.36548 v -4.61292 q 0,-0.84949 -0.404989,-0.96802 z m 1.906411,3.50661 0.256822,0.01 0.2667,0.01 q 1.73849,0 1.73849,-1.59032 0,-1.57057 -1.550812,-1.57057 -0.256822,0 -0.345722,0.0197 -0.0889,0.01 -0.167922,0.0593 -0.207434,0.11853 -0.207434,0.4445 z"
         style="font-family:rookie;-inkscape-font-specification:rookie"
         id="path13530" />
      <path
         d="m 48.39256,164.38441 q 0.187678,-0.0692 0.454378,-0.18768 0.2667,-0.11853 0.632178,-0.30621 0.227189,-0.14817 0.306211,-0.21731 0.01976,-0.01 0.03951,-0.0395 h 0.197555 v 0.92851 l 0.563034,-0.63218 q 0.385233,-0.36548 0.7112,-0.36548 0.286455,0 0.493889,0.21731 0.207433,0.20744 0.207433,0.50377 0,0.29633 -0.207433,0.50377 -0.197556,0.20743 -0.503767,0.20743 -0.138289,0 -0.385233,-0.10865 -0.246945,-0.10866 -0.424745,-0.10866 -0.454378,0 -0.454378,0.92851 v 1.93605 q 0,0.58279 0.335845,0.70132 v 0.14817 h -1.847145 v -0.14817 q 0.316089,-0.15805 0.316089,-0.56303 v -2.40031 q 0,-0.37535 -0.04939,-0.51364 -0.0889,-0.25682 -0.385234,-0.32597 z"
         style="font-family:rookie;-inkscape-font-specification:rookie"
         id="path13532" />
      <path
         d="m 53.764653,163.50529 q 0.948266,0 1.590322,0.79022 0.582789,0.73095 0.582789,1.70886 0,0.99765 -0.563033,1.76812 -0.632178,0.83961 -1.600201,0.83961 -0.987778,0 -1.619956,-0.79022 -0.592666,-0.73096 -0.592666,-1.74837 0,-0.96802 0.612422,-1.73849 0.651933,-0.82973 1.590323,-0.82973 z m -0.0099,4.73145 q 0.612422,0 0.780344,-0.94826 0.04939,-0.32597 0.04939,-1.43228 0,-1.97556 -0.819855,-1.97556 -0.563034,0 -0.750712,0.89888 -0.03951,0.20743 -0.06914,0.56303 -0.02963,0.3556 -0.02963,0.78035 0,2.11384 0.839612,2.11384 z"
         style="font-family:rookie;-inkscape-font-specification:rookie"
         id="path13534" />
      <path
         d="m 55.847443,167.26307 q 0,-0.48401 1.274233,-1.04704 -0.414866,-0.0889 -0.740833,-0.58279 -0.316089,-0.50377 -0.316089,-0.93839 0,-0.75071 0.6223,-1.25448 0.572911,-0.46425 1.353256,-0.46425 0.424744,0 0.721078,0.12841 l 0.632178,0.33584 0.424744,-0.32596 q 0.276578,-0.16793 0.493889,-0.16793 0.227189,0 0.395111,0.14817 0.1778,0.14817 0.1778,0.39511 0,0.16792 -0.148166,0.31609 -0.158045,0.12841 -0.335845,0.12841 -0.07902,0 -0.227189,-0.10865 -0.148166,-0.10866 -0.148166,-0.1778 -0.04939,-0.0296 -0.138289,-0.0494 l -0.118534,0.0691 -0.118533,0.0593 q 0.335844,0.6223 0.335844,0.99765 0,0.77047 -0.592666,1.2446 -0.553156,0.4445 -1.343378,0.4445 -0.345723,0 -0.553156,-0.0691 -0.197556,0.13829 -0.306211,0.29633 l -0.0099,0.0889 q 0.03951,0.1778 0.879122,0.36548 1.086556,0.22719 1.481667,0.42475 0.780345,0.37535 0.780345,1.0668 0,0.70132 -0.8001,1.05692 -0.276578,0.10865 -0.651934,0.1778 -0.365478,0.0691 -0.760589,0.0691 -0.730955,0 -1.471789,-0.20743 -1.007534,-0.29633 -1.007534,-0.83961 0,-0.31609 0.424745,-0.61242 0.286456,-0.19756 0.721078,-0.33585 l -0.572911,-0.20743 q -0.3556,-0.1778 -0.3556,-0.42475 z m 2.182989,-1.20509 q 0.730956,0 0.730956,-1.37301 0,-0.59266 -0.09878,-0.87912 -0.167922,-0.47413 -0.642056,-0.47413 -0.7112,0 -0.7112,1.50142 0,1.22484 0.721078,1.22484 z m -0.908756,1.96568 q -0.1778,0.0692 -0.316089,0.28646 -0.138289,0.21731 -0.138289,0.41486 0,0.8001 1.481667,0.8001 0.345723,0 0.671689,-0.11853 0.414867,-0.14817 0.414867,-0.45438 0,-0.30621 -0.908756,-0.61242 z"
         style="font-family:rookie;-inkscape-font-specification:rookie"
         id="path13536" />
      <path
         d="m 60.251511,164.36465 0.602545,-0.19755 q 0.158044,-0.0593 0.424744,-0.2667 0.2667,-0.20744 0.404989,-0.27658 h 0.187678 v 0.90876 q 0.9779,-0.9779 1.708856,-0.9779 0.306211,0 0.5334,0.24694 0.237067,0.23707 0.237067,0.54328 v 3.49673 q 0,0.4445 0.2667,0.49389 v 0.15805 h -1.817512 v -0.15805 l 0.04939,-0.01 q 0.276578,-0.11853 0.276578,-0.47413 v -2.67688 q 0,-0.63218 -0.385233,-0.63218 -0.227189,0 -0.454378,0.10866 l -0.424745,0.20743 v 2.95346 q 0,0.23707 0.05927,0.32597 l 0.237067,0.20743 v 0.14817 h -1.797756 v -0.15805 l 0.108655,-0.0395 q 0.197556,-0.1778 0.197556,-0.47413 v -2.56823 q 0,-0.57291 -0.414867,-0.72107 z"
         style="font-family:rookie;-inkscape-font-specification:rookie"
         id="path13538" />
      <path
         d="m 66.848454,164.03446 q 0.948267,0 1.590322,0.79022 0.582789,0.73095 0.582789,1.70886 0,0.99765 -0.563033,1.76812 -0.632178,0.83961 -1.6002,0.83961 -0.987778,0 -1.619956,-0.79022 -0.592667,-0.73096 -0.592667,-1.74837 0,-0.96802 0.612422,-1.73849 0.651934,-0.82973 1.590323,-0.82973 z m -0.0099,4.73145 q 0.612422,0 0.780345,-0.94826 0.04939,-0.32597 0.04939,-1.43228 0,-1.97556 -0.819856,-1.97556 -0.563034,0 -0.750711,0.89888 -0.03951,0.20743 -0.06914,0.56303 -0.02963,0.3556 -0.02963,0.78035 0,2.11384 0.839611,2.11384 z"
         style="font-family:rookie;-inkscape-font-specification:rookie"
         id="path13540" />
      <path
         d="m 69.375744,167.84305 0.227189,0.0988 q 0.108656,0.51364 0.503767,0.90875 0.404989,0.39511 0.889,0.39511 0.316089,0 0.513644,-0.16792 0.207434,-0.1778 0.207434,-0.48401 0,-0.43462 -0.671689,-0.78034 l -1.264356,-0.60255 q -0.671689,-0.41487 -0.671689,-1.07668 0,-0.72107 0.553156,-1.17545 0.503766,-0.41487 1.254478,-0.41487 0.414866,0 0.839611,0.16792 l 0.770467,0.3556 -0.306211,1.0668 -0.237067,-0.0494 q -0.0889,-0.45437 -0.424745,-0.77046 -0.365477,-0.34572 -0.8001,-0.34572 -0.246944,0 -0.4445,0.15804 -0.187678,0.14817 -0.187678,0.38523 0,0.3556 0.7112,0.7112 1.224845,0.59267 1.323623,0.67169 0.7112,0.47414 0.7112,1.17546 0,0.73095 -0.592667,1.19521 -0.543278,0.42474 -1.303867,0.42474 -0.997655,0 -1.995311,-0.56303 z"
         style="font-family:rookie;-inkscape-font-specification:rookie"
         id="path13542" />
      <path
         d="m 73.819318,163.2259 q 0.296333,0 0.513644,0.21731 0.217311,0.21731 0.217311,0.50376 0,0.28646 -0.227189,0.51365 -0.207433,0.22719 -0.493889,0.22719 -0.296333,0 -0.523522,-0.21731 -0.217311,-0.23707 -0.217311,-0.5334 0,-0.29634 0.207433,-0.50377 0.207434,-0.20743 0.523523,-0.20743 z m -1.076678,2.73614 0.05927,0.01 q 0.256823,0 0.721078,-0.27658 0.375356,-0.22719 0.632178,-0.47413 h 0.237067 v 4.16842 q 0,0.16792 0.05927,0.34572 0.0889,0.20744 0.246944,0.19756 v 0.14817 h -1.827389 v -0.13829 q 0.227189,-0.14817 0.2667,-0.24695 0.03951,-0.0988 0.03951,-0.21731 0.0099,-0.11853 0.0099,-0.18768 v -2.54846 q 0,-0.32597 -0.07902,-0.40499 l -0.365477,-0.20744 z"
         style="font-family:rookie;-inkscape-font-specification:rookie"
         id="path13544" />
      <path
         d="m 75.062498,168.90139 0.227189,0.0988 q 0.108656,0.51364 0.503767,0.90875 0.404989,0.39511 0.889,0.39511 0.316089,0 0.513645,-0.16792 0.207433,-0.1778 0.207433,-0.48401 0,-0.43462 -0.671689,-0.78034 l -1.264356,-0.60255 q -0.671689,-0.41487 -0.671689,-1.07668 0,-0.72107 0.553156,-1.17545 0.503767,-0.41487 1.254478,-0.41487 0.414867,0 0.839611,0.16792 l 0.770467,0.3556 -0.306211,1.0668 -0.237067,-0.0494 q -0.0889,-0.45437 -0.424744,-0.77046 -0.365478,-0.34572 -0.800101,-0.34572 -0.246944,0 -0.4445,0.15804 -0.187677,0.14817 -0.187677,0.38523 0,0.3556 0.7112,0.7112 1.224844,0.59267 1.323622,0.67169 0.7112,0.47414 0.7112,1.17546 0,0.73095 -0.592666,1.19521 -0.543278,0.42474 -1.303867,0.42474 -0.997656,0 -1.995312,-0.56303 z"
         style="font-family:rookie;-inkscape-font-specification:rookie"
         id="path13546" />
      <path
         d="m 81.203624,170.97149 q 0.395111,-0.22719 0.395111,-0.69144 v -5.35376 q 0,-0.42474 -0.395111,-0.55315 v -0.19756 h 0.148167 q 0.414866,0 1.116189,-0.0691 l 1.106311,-0.0691 q 1.807634,0 2.884312,0.89888 1.145822,0.96802 1.145822,2.74602 0,1.53106 -0.948266,2.49908 -0.948267,0.95815 -2.499079,0.95815 h -2.953456 z m 1.896534,-1.26435 q 0,0.54328 0.138289,0.73095 0.138289,0.18768 0.661811,0.18768 1.975556,0 1.975556,-2.90407 0,-1.41252 -0.325967,-2.14347 -0.474133,-1.04705 -1.718733,-1.04705 -0.365478,0 -0.553156,0.12841 -0.1778,0.11854 -0.1778,0.49389 z"
         style="font-family:rookie;-inkscape-font-specification:rookie"
         id="path13548" />
      <path
         d="m 88.97601,167.45359 v 0.0691 q 0,0.73096 0.454378,1.23472 0.454378,0.50377 1.185333,0.50377 0.7112,0 1.195212,-0.54328 l 0.1778,0.12841 q -0.790223,1.35326 -2.103967,1.35326 -0.997656,0 -1.600201,-0.81986 -0.543278,-0.74083 -0.543278,-1.75824 0,-0.99766 0.553156,-1.73849 0.602545,-0.80998 1.570567,-0.80998 0.958145,0 1.5113,0.73096 0.493889,0.66181 0.493889,1.64959 z m 1.017411,-0.34573 q 0.395111,0 0.543278,-0.079 0.158044,-0.079 0.158044,-0.46425 0,-1.08656 -0.889,-1.08656 -0.543278,0 -0.740833,0.59267 -0.108656,0.34572 -0.108656,1.03716 z"
         style="font-family:rookie;-inkscape-font-specification:rookie"
         id="path13550" />
      <path
         d="m 94.308593,166.32187 0.0099,-0.20743 V 165.907 q 0,-0.99765 -0.543278,-0.99765 -0.316089,0 -0.4445,0.36548 l -0.187678,0.68156 q -0.148167,0.36548 -0.5334,0.36548 -0.256822,0 -0.424745,-0.15804 -0.167922,-0.16793 -0.167922,-0.42475 0,-0.56303 0.651934,-0.91863 0.5334,-0.29633 1.1557,-0.29633 1.6891,0 1.6891,1.23472 l -0.0099,0.87912 v 0.87912 l 0.0099,0.84949 q 0,0.55316 0.306211,0.55316 0.09878,0 0.2667,-0.0988 l 0.118534,0.22719 -0.217311,0.19755 q -0.543278,0.42475 -0.977901,0.42475 -0.335844,0 -0.523522,-0.20743 -0.1778,-0.21732 -0.1778,-0.57292 -0.217311,0.25683 -0.7112,0.51365 -0.484011,0.25682 -0.790223,0.25682 -0.503766,0 -0.8001,-0.32597 -0.296333,-0.32596 -0.296333,-0.83961 0,-0.73095 0.8001,-1.29399 0.256822,-0.1778 1.452034,-0.7112 z m 0,0.3556 q -0.780345,0.42475 -0.928511,0.55316 -0.484012,0.39511 -0.484012,0.90875 0,0.30621 0.1778,0.50377 0.187678,0.19756 0.484012,0.19756 0.385233,0 0.750711,-0.36548 z"
         style="font-family:rookie;-inkscape-font-specification:rookie"
         id="path13552" />
      <path
         d="m 95.581401,164.43945 q 0.523522,-0.22719 0.948267,-0.92852 0.197556,-0.34572 0.582789,-1.2446 h 0.325967 v 1.89654 h 1.0668 v 0.54328 h -1.056923 v 2.94357 q 0,0.75072 0.404989,0.75072 0.138289,0 0.404989,-0.20744 l 0.04939,-0.079 0.207434,0.11853 q -0.02963,0.0296 -0.02963,0.0494 -0.563033,0.81986 -1.274233,0.81986 -0.464256,0 -0.721078,-0.31609 -0.246945,-0.32597 -0.246945,-0.79022 l -0.0099,-3.2893 h -0.651934 z"
         style="font-family:rookie;-inkscape-font-specification:rookie"
         id="path13554" />
      <path
         d="m 98.098808,162.3891 0.04939,-0.01 q 0.325967,0 0.750712,-0.22719 0.434622,-0.22719 0.582789,-0.50377 h 0.207433 v 2.76578 l 0.790218,-0.55315 q 0.50377,-0.30621 0.87912,-0.30621 0.86925,0 0.86925,0.96802 v 3.13125 q 0,0.60255 0.30621,0.69145 v 0.14817 h -1.83727 v -0.14817 q 0.15805,0 0.24695,-0.18768 0.0691,-0.1778 0.0691,-0.31609 v -2.59785 q 0,-0.78035 -0.51364,-0.78035 -0.12841,0 -0.18768,0.01 -0.0593,0.01 -0.29633,0.0889 -0.22719,0.0691 -0.31609,0.15804 l -0.01976,3.03248 q 0,0.51365 0.32597,0.59267 v 0.14817 h -1.817514 l 0.0099,-0.15805 q 0.138289,0 0.227189,-0.1778 0.05927,-0.13829 0.05927,-0.28645 v -4.82036 q 0,-0.16792 -0.108656,-0.32597 -0.09878,-0.16792 -0.276577,-0.16792 z"
         style="font-family:rookie;-inkscape-font-specification:rookie"
         id="path13556" />
    </g>
  </g>
</svg>
