<?xml version="1.0" encoding="UTF-8" standalone="no"?>
<!-- Created with Inkscape (http://www.inkscape.org/) -->

<svg
   width="127.00001mm"
   height="94.362244mm"
   viewBox="0 0 127.00001 94.362244"
   version="1.1"
   id="svg1655"
   sodipodi:docname="FlyingMan_NoBG.svg"
   inkscape:version="1.1 (c68e22c387, 2021-05-23)"
   xmlns:inkscape="http://www.inkscape.org/namespaces/inkscape"
   xmlns:sodipodi="http://sodipodi.sourceforge.net/DTD/sodipodi-0.dtd"
   xmlns="http://www.w3.org/2000/svg"
   xmlns:svg="http://www.w3.org/2000/svg">
  <sodipodi:namedview
     id="namedview81"
     pagecolor="#ffffff"
     bordercolor="#666666"
     borderopacity="1.0"
     inkscape:pageshadow="2"
     inkscape:pageopacity="0.0"
     inkscape:pagecheckerboard="0"
     inkscape:document-units="px"
     showgrid="false"
     inkscape:zoom="0.76435184"
     inkscape:cx="239.41854"
     inkscape:cy="366.9776"
     inkscape:window-width="1920"
     inkscape:window-height="1017"
     inkscape:window-x="-8"
     inkscape:window-y="-8"
     inkscape:window-maximized="1"
     inkscape:current-layer="svg1655"
     fit-margin-top="0"
     fit-margin-left="0"
     fit-margin-right="0"
     fit-margin-bottom="0" />
  <defs
     id="defs1652">
    <mask
       maskUnits="userSpaceOnUse"
       id="mask3057">
      <rect
         style="fill:#a8e5ff;fill-opacity:0.997602;stroke:none;stroke-width:0.601028;stroke-linecap:round;stroke-linejoin:round;stroke-miterlimit:4;stroke-dasharray:none;paint-order:markers stroke fill;stop-color:#000000"
         id="rect3059"
         width="59.12896"
         height="25.631119"
         x="265.392"
         y="169.08379"
         ry="0" />
    </mask>
    <clipPath
       clipPathUnits="userSpaceOnUse"
       id="clipPath3063">
      <rect
         style="fill:#a8e5ff;fill-opacity:0.997602;stroke:none;stroke-width:2.21938;stroke-linecap:round;stroke-linejoin:round;stroke-miterlimit:4;stroke-dasharray:none;paint-order:markers stroke fill;stop-color:#000000"
         id="rect3065"
         width="216.95833"
         height="95.25"
         x="352.01245"
         y="136.82024"
         ry="0" />
    </clipPath>
    <clipPath
       clipPathUnits="userSpaceOnUse"
       id="clipPath3071">
      <rect
         style="fill:#a8e5ff;fill-opacity:0.997602;stroke:none;stroke-width:2.21938;stroke-linecap:round;stroke-linejoin:round;stroke-miterlimit:4;stroke-dasharray:none;paint-order:markers stroke fill;stop-color:#000000"
         id="rect3073"
         width="216.95833"
         height="95.25"
         x="352.01245"
         y="136.82024"
         ry="0" />
    </clipPath>
  </defs>
  <g
     id="g1201"
     transform="translate(-32.613664,-17.139577)">
    <g
       id="g2402"
       transform="matrix(2.8131397,0,0,2.8131397,-504.25779,-658.64308)">
      <path
         style="display:inline;fill:#ffffff;stroke:#000000;stroke-width:0.209424;stroke-linecap:butt;stroke-linejoin:miter;stroke-miterlimit:4;stroke-dasharray:none;stroke-opacity:1"
         d="m 212.50336,259.3953 c 0.0483,0.22599 0.14492,0.67788 0.2173,1.2056 0.0724,0.52771 0.12053,1.13125 0.13855,1.64802 0.018,0.51677 0.006,0.94677 -0.0213,1.28838 -0.0272,0.34161 -0.0696,0.59483 -0.15042,0.78751 -0.0809,0.19268 -0.20024,0.32485 -0.2934,0.38023 -0.0932,0.0554 -0.16026,0.0339 -0.21978,-10e-4 -0.0595,-0.0351 -0.11144,-0.0838 -0.20157,-0.20902 -0.0901,-0.12521 -0.21849,-0.32692 -0.34041,-0.59407 -0.12193,-0.26716 -0.23739,-0.59973 -0.30888,-1.05485 -0.0715,-0.45512 -0.099,-1.03276 -0.10616,-1.53321 -0.007,-0.50045 0.006,-0.92368 0.0252,-1.29037 0.0192,-0.36669 0.0444,-0.67682 0.11071,-0.83404 0.0663,-0.15722 0.17372,-0.16148 0.32843,-0.17794 0.15471,-0.0165 0.3567,-0.0451 0.47871,-0.0446 0.122,4.4e-4 0.16402,0.0299 0.19982,0.0687 0.0358,0.0388 0.0655,0.0868 0.0803,0.1108 0.0148,0.024 0.0146,0.0241 0.0629,0.25007 z"
         id="path1624" />
      <path
         style="display:inline;fill:#ffffff;stroke:#000000;stroke-width:0.209424;stroke-linecap:butt;stroke-linejoin:miter;stroke-miterlimit:4;stroke-dasharray:none;stroke-opacity:1"
         d="m 213.34213,259.30959 c 0.0548,0.22451 0.16429,0.67344 0.25175,1.19887 0.0875,0.52544 0.15289,1.12732 0.18571,1.64337 0.0328,0.51605 0.033,0.94622 0.0156,1.28847 -0.0174,0.34224 -0.0525,0.59657 -0.12782,0.79149 -0.0753,0.19492 -0.19086,0.33046 -0.28246,0.38847 -0.0916,0.058 -0.15918,0.0385 -0.21967,0.005 -0.0605,-0.0334 -0.11375,-0.0806 -0.20745,-0.20315 -0.0937,-0.12258 -0.22778,-0.32053 -0.35731,-0.58408 -0.12953,-0.26354 -0.25447,-0.59268 -0.33897,-1.04556 -0.0845,-0.45288 -0.12854,-1.02948 -0.15007,-1.52953 -0.0215,-0.50004 -0.0205,-0.92349 -0.0119,-1.29057 0.009,-0.36709 0.025,-0.67779 0.0867,-0.83685 0.0618,-0.15906 0.16905,-0.1664 0.32321,-0.18727 0.15416,-0.0209 0.35525,-0.0553 0.4772,-0.0583 0.12195,-0.003 0.16483,0.0253 0.20174,0.063 0.0369,0.0378 0.0679,0.0849 0.0834,0.10846 0.0155,0.0235 0.0156,0.0235 0.0703,0.24798 z"
         id="path1626" />
      <path
         id="path1628"
         style="display:inline;fill:#fff0d3;fill-opacity:1;stroke:#000000;stroke-width:0.209424;stroke-linecap:butt;stroke-linejoin:miter;stroke-miterlimit:4;stroke-dasharray:none;stroke-opacity:1"
         d="m 208.05723,258.60384 c -0.0393,6.2e-4 -0.066,0.0116 -0.0918,0.0263 -0.0459,0.0261 -0.0888,0.0629 -0.22499,0.28177 -0.13622,0.21889 -0.3658,0.61978 -0.59541,1.10042 -0.22959,0.48063 -0.45921,1.04085 -0.6337,1.5276 -0.1745,0.48676 -0.29392,0.90014 -0.37198,1.23382 -0.0781,0.33369 -0.11469,0.58768 -0.0964,0.79584 0.0184,0.20815 0.0918,0.37045 0.16369,0.45155 0.0719,0.0812 0.14233,0.0812 0.20967,0.0659 0.0673,-0.0153 0.13166,-0.0459 0.25565,-0.13775 0.12398,-0.0918 0.30773,-0.24483 0.50519,-0.46219 0.0656,-0.0723 0.13275,-0.15192 0.20079,-0.24084 -0.0244,0.3374 -0.0208,0.59171 0.0294,0.79272 0.0507,0.20273 0.14845,0.35148 0.23214,0.42038 0.0837,0.0689 0.15319,0.0578 0.21733,0.0322 0.0642,-0.0256 0.12295,-0.0659 0.23109,-0.17588 0.10814,-0.11006 0.2657,-0.28999 0.42683,-0.5355 0.16113,-0.2455 0.3258,-0.55663 0.46567,-0.99558 0.13985,-0.43896 0.25482,-1.00568 0.33801,-1.49923 0.0832,-0.49353 0.13455,-0.91375 0.17136,-1.27908 0.0368,-0.36535 0.0591,-0.67566 0.0174,-0.84113 -0.0417,-0.16547 -0.14721,-0.18609 -0.29761,-0.22587 -0.1504,-0.0398 -0.34571,-0.0987 -0.46636,-0.11685 -0.0488,-0.007 -0.0851,-0.008 -0.11407,-0.004 -0.003,-0.002 -0.006,-0.003 -0.0106,-0.004 -0.14234,-0.0628 -0.32597,-0.15152 -0.44232,-0.18825 -0.0509,-0.016 -0.089,-0.0222 -0.11947,-0.0217 z m 6.11615,0 c -0.0305,-4.2e-4 -0.0684,0.005 -0.11928,0.0217 -0.11636,0.0367 -0.30016,0.12549 -0.44251,0.18824 -0.003,0.002 -0.006,0.003 -0.0105,0.004 -0.029,-0.004 -0.0654,-0.003 -0.11407,0.004 -0.12066,0.0181 -0.31595,0.077 -0.46637,0.11685 -0.1504,0.0398 -0.25578,0.0604 -0.29743,0.22586 -0.0417,0.16547 -0.0194,0.47578 0.0174,0.84111 0.0368,0.36535 0.0881,0.78557 0.17136,1.27911 0.0832,0.49353 0.19815,1.06025 0.33802,1.49921 0.13985,0.43895 0.30453,0.75008 0.46566,0.99558 0.16112,0.24551 0.31869,0.42544 0.42683,0.53551 0.10813,0.11005 0.16678,0.15027 0.23092,0.17588 0.0642,0.0256 0.13382,0.0367 0.21751,-0.0322 0.0837,-0.0689 0.1815,-0.21765 0.23212,-0.42039 0.0502,-0.20096 0.0537,-0.45523 0.0294,-0.79254 0.068,0.0889 0.13516,0.16844 0.20078,0.24067 0.19747,0.21735 0.38121,0.37035 0.5052,0.46219 0.12399,0.0918 0.1883,0.12245 0.25565,0.13774 0.0673,0.0153 0.13776,0.0153 0.20967,-0.0659 0.0719,-0.0812 0.14531,-0.2434 0.1637,-0.45155 0.0184,-0.20816 -0.0184,-0.46216 -0.0965,-0.79584 -0.0781,-0.33369 -0.19731,-0.74707 -0.3718,-1.23382 -0.17449,-0.48676 -0.40412,-1.04697 -0.63372,-1.52761 -0.22959,-0.48063 -0.45918,-0.88152 -0.5954,-1.10042 -0.13622,-0.21889 -0.17908,-0.25572 -0.225,-0.28176 -0.0259,-0.0147 -0.0528,-0.0258 -0.0919,-0.0263 z m -2.82794,0.48569 c -0.103,-9e-5 -0.21902,0.004 -0.31625,0.005 -0.15556,0.002 -0.26288,-0.004 -0.34394,0.14559 -0.0811,0.15015 -0.13584,0.45652 -0.18998,0.8197 -0.0541,0.36317 -0.10767,0.78322 -0.14838,1.28206 -0.0407,0.49884 -0.0686,1.07643 -0.041,1.53631 0.0277,0.45986 0.11089,0.80193 0.20672,1.07952 0.0958,0.27759 0.20417,0.4907 0.28194,0.62396 0.0778,0.13327 0.12489,0.18666 0.18075,0.22726 0.0558,0.0406 0.12051,0.0683 0.21856,0.0221 0.098,-0.0462 0.22951,-0.16632 0.32844,-0.35038 0.0989,-0.18407 0.1654,-0.43211 0.22518,-0.76955 0.0597,-0.33744 0.11289,-0.76419 0.14436,-1.28032 0.0315,-0.51613 0.0413,-1.12146 0.0197,-1.65369 -0.0216,-0.53221 -0.0745,-0.99136 -0.10099,-1.22092 -0.0265,-0.22957 -0.0266,-0.22949 -0.0391,-0.25478 -0.0125,-0.0253 -0.0374,-0.0761 -0.0693,-0.11807 -0.032,-0.042 -0.0708,-0.0754 -0.19226,-0.0874 -0.0455,-0.004 -0.10279,-0.006 -0.16456,-0.006 z" />
      <path
         style="display:inline;fill:#ffffff;stroke:#000000;stroke-width:0.209424;stroke-linecap:butt;stroke-linejoin:miter;stroke-miterlimit:4;stroke-dasharray:none;stroke-opacity:1"
         d="m 213.10347,256.81479 c 0.0934,0.12402 0.28013,0.37199 0.45463,0.61537 0.1745,0.24338 0.33675,0.48217 0.48522,0.71024 0.14848,0.22807 0.28317,0.44541 0.33517,0.56326 0.052,0.11784 0.0214,0.13619 -0.0459,0.17904 -0.0673,0.0428 -0.17139,0.11019 -0.23713,0.14692 -0.0658,0.0367 -0.0934,0.0429 -0.12865,0.0689 -0.0352,0.026 -0.0781,0.072 -0.12549,0.0781 -0.0474,0.006 -0.0995,-0.0275 -0.16227,-0.0291 -0.0628,-0.002 -0.1362,0.029 -0.20205,0.0673 -0.0659,0.0383 -0.12395,0.0841 -0.17909,0.14388 -0.0551,0.0597 -0.10714,0.13316 -0.15,0.16069 -0.0429,0.0275 -0.0764,0.009 -0.15756,-0.0107 -0.0811,-0.0199 -0.20971,-0.0413 -0.30921,-0.0704 -0.0995,-0.0291 -0.16991,-0.0658 -0.18983,-0.48521 -0.0199,-0.41939 0.0107,-1.22144 0.1056,-1.66232 0.0949,-0.44087 0.25409,-0.52045 0.33367,-0.56024 0.0796,-0.0398 0.0795,-0.0398 0.17289,0.0842 z"
         id="path1630" />
      <path
         style="display:inline;fill:#ffffff;stroke:#000000;stroke-width:0.209424;stroke-linecap:butt;stroke-linejoin:miter;stroke-miterlimit:4;stroke-dasharray:none;stroke-opacity:1"
         d="m 209.7274,259.3953 c -0.0483,0.22599 -0.14492,0.67789 -0.2173,1.2056 -0.0724,0.52771 -0.12053,1.13125 -0.13855,1.64802 -0.018,0.51677 -0.006,0.94677 0.0213,1.28838 0.0272,0.34161 0.0696,0.59483 0.15042,0.78751 0.0809,0.19268 0.20024,0.32485 0.2934,0.38023 0.0932,0.0554 0.16026,0.0339 0.21978,-10e-4 0.0595,-0.0351 0.11144,-0.0838 0.20157,-0.20901 0.0901,-0.12521 0.21849,-0.32692 0.34041,-0.59407 0.12193,-0.26716 0.23739,-0.59973 0.30888,-1.05485 0.0715,-0.45512 0.099,-1.03276 0.10616,-1.53321 0.007,-0.50045 -0.006,-0.92368 -0.0252,-1.29037 -0.0192,-0.36669 -0.0444,-0.67681 -0.11071,-0.83403 -0.0663,-0.15723 -0.17372,-0.16149 -0.32843,-0.17795 -0.15471,-0.0165 -0.35669,-0.0451 -0.47871,-0.0446 -0.12201,4.4e-4 -0.16402,0.0299 -0.19983,0.0687 -0.0358,0.0387 -0.0655,0.0868 -0.0803,0.11079 -0.0148,0.024 -0.0146,0.0241 -0.0629,0.25007 z"
         id="path1632" />
      <path
         style="display:inline;fill:#ffffff;stroke:#000000;stroke-width:0.209424;stroke-linecap:butt;stroke-linejoin:miter;stroke-miterlimit:4;stroke-dasharray:none;stroke-opacity:1"
         d="m 208.88863,259.30959 c -0.0548,0.2245 -0.16429,0.67344 -0.25176,1.19888 -0.0875,0.52543 -0.15289,1.12731 -0.18571,1.64336 -0.0328,0.51605 -0.033,0.94622 -0.0156,1.28847 0.0174,0.34224 0.0525,0.59657 0.12781,0.79149 0.0753,0.19492 0.19085,0.33046 0.28241,0.38849 0.0915,0.058 0.15922,0.0385 0.21971,0.005 0.0605,-0.0334 0.11376,-0.0806 0.20745,-0.20315 0.0937,-0.12258 0.22779,-0.32053 0.35732,-0.58408 0.12953,-0.26354 0.25447,-0.59267 0.33897,-1.04556 0.0845,-0.45288 0.12854,-1.02948 0.15006,-1.52953 0.0215,-0.50004 0.0205,-0.92349 0.0119,-1.29057 -0.009,-0.36709 -0.0249,-0.67779 -0.0867,-0.83685 -0.0618,-0.15906 -0.16905,-0.1664 -0.3232,-0.18727 -0.15416,-0.0209 -0.35527,-0.0553 -0.47725,-0.0583 -0.12197,-0.003 -0.16478,0.0253 -0.20169,0.063 -0.0369,0.0378 -0.0679,0.0849 -0.0834,0.10845 -0.0155,0.0236 -0.0155,0.0235 -0.0703,0.248 z"
         id="path1634" />
      <path
         id="path1636"
         style="display:inline;fill:#fff0d3;fill-opacity:1;stroke:#000000;stroke-width:0.209424;stroke-linecap:butt;stroke-linejoin:miter;stroke-miterlimit:4;stroke-dasharray:none;stroke-opacity:1"
         d="m 227.18186,245.79529 c -0.14794,8.2e-4 -0.29009,0.004 -0.42249,0.008 -0.52965,0.0185 -0.90297,0.0656 -1.08963,0.0892 -0.18666,0.0235 -0.18676,0.0234 -0.21698,0.0251 -0.0303,0.002 -0.0908,0.005 -0.10589,0.0624 -0.0152,0.0572 0.0152,0.16811 0,0.30093 -0.0105,0.0932 -0.0434,0.19718 -0.0458,0.28403 -0.092,0.0109 -0.17436,0.0249 -0.24503,0.0421 -0.29594,0.0723 -0.39353,0.20008 -0.41706,0.32286 -0.009,0.0474 -0.006,0.094 0.008,0.14001 -0.15289,0.0263 -0.28786,0.077 -0.37844,0.13984 -0.10578,-0.0318 -0.20223,-0.0481 -0.28854,-0.0444 -0.27242,0.0117 -0.44408,0.22355 -0.47262,0.40854 -0.0106,0.0654 -0.003,0.12747 0.0215,0.18929 -0.0537,0.0709 -0.0819,0.16454 -0.0627,0.28142 0.0105,0.0626 0.0342,0.13195 0.0685,0.20584 -0.17045,-0.15658 -0.31876,-0.21547 -0.47663,-0.19696 -0.18441,0.0216 -0.38192,0.1484 -0.36379,0.4068 0,0.0181 0.004,0.0367 0.007,0.0559 -0.2329,0.022 -0.5892,0.0552 -0.77269,0.12364 -0.1076,0.0401 -0.1537,0.0922 -0.14888,0.18076 -0.0263,0.003 -0.0526,0.007 -0.078,0.0126 -0.19674,0.0386 -0.3615,0.11945 -0.52628,0.20688 -0.0991,0.0526 -0.19802,0.10756 -0.27479,0.16718 -0.39407,-0.0745 -0.71924,0.10977 -0.89545,0.36257 -0.20516,0.29428 -0.20853,0.68088 -0.21021,0.87422 0,0.003 3e-5,0.006 0,0.009 -0.37558,0.008 -0.63382,0.43205 -0.72982,0.77425 -0.0232,0.0834 -0.0368,0.16172 -0.0416,0.23737 -0.0946,-0.0653 -0.18275,-0.0973 -0.27553,-0.097 -0.26177,6.2e-4 -0.56004,0.25814 -0.73157,0.4061 -0.0105,0.01 -0.0189,0.0166 -0.0283,0.0249 -0.19971,-0.19008 -0.33424,-0.22672 -0.4782,-0.13758 -0.21005,0.13008 -0.44042,0.52725 -0.56058,0.76989 -0.28097,-0.11503 -0.48066,0.0203 -0.6499,0.12453 -0.20378,0.12551 -0.36334,0.20574 -0.39008,0.40453 -0.0911,-0.12681 -0.16929,-0.2048 -0.26227,-0.25982 -0.20176,-0.11942 -0.47412,-0.13301 -0.62883,-0.0825 -0.0985,0.0321 -0.14931,0.0901 -0.17798,0.1428 -0.12025,-0.0231 -0.23552,0.0202 -0.35003,0.0657 -0.24549,0.0975 -0.48756,0.20514 -0.59854,0.2539 -0.0461,0.0203 -0.0605,0.0263 -0.0713,0.0308 6.2e-4,6.3e-4 6.2e-4,0.002 6.2e-4,0.004 0,0.006 7e-5,0.0203 0.006,0.16824 0.006,0.14796 0.02,0.43036 0.12764,0.91966 0.10762,0.48929 0.30949,1.18543 0.49109,1.69825 0.18161,0.51284 0.34294,0.84236 0.54473,1.0811 0.20178,0.23875 0.44388,0.3867 0.61369,0.44216 0.1698,0.0554 0.26732,0.0185 0.35473,-0.052 0.0874,-0.0706 0.16474,-0.17487 0.2135,-0.33123 0.0488,-0.15635 0.0691,-0.36473 0.0775,-0.52277 0.002,-0.0313 0.003,-0.061 0.002,-0.093 0.0986,0.12092 0.197,0.22997 0.29203,0.32164 0.28586,0.27574 0.5413,0.39668 0.72286,0.45888 0.18161,0.0622 0.28934,0.0656 0.36328,-0.006 0.074,-0.0723 0.1142,-0.22027 0.13776,-0.39514 0.0158,-0.11824 0.024,-0.24928 -0.0589,-0.50501 0.0993,0.10448 0.20085,0.19925 0.30945,0.28141 0.19337,0.14628 0.40864,0.25389 0.59193,0.32113 0.18326,0.0672 0.33464,0.094 0.43883,0.0788 0.10427,-0.0151 0.16125,-0.0722 0.19994,-0.13775 0.0386,-0.0655 0.059,-0.13955 0.0624,-0.22866 0.003,-0.0891 -0.0105,-0.19335 -0.032,-0.33627 -0.0206,-0.13365 -0.0482,-0.30038 -0.0765,-0.44529 0.1729,0.1273 0.32873,0.21735 0.45992,0.28891 0.20344,0.11097 0.34805,0.17819 0.47752,0.1933 0.12943,0.0151 0.24385,-0.022 0.31276,-0.0892 0.0689,-0.0672 0.0924,-0.16463 0.094,-0.30249 0,-0.13787 -0.0186,-0.31624 -0.0589,-0.50119 -0.0106,-0.0477 -0.0223,-0.0958 -0.0405,-0.15116 0.0178,0.0115 0.0351,0.0227 0.0525,0.0335 0.27071,0.16812 0.49269,0.24217 0.65913,0.264 0.16647,0.0219 0.27748,-0.008 0.35145,-0.074 0.074,-0.0655 0.1108,-0.16637 0.11754,-0.29919 0.006,-0.13281 -0.0169,-0.29761 -0.0622,-0.44389 -0.004,-0.0154 -0.009,-0.0307 -0.0155,-0.0461 0.20532,0.10578 0.39899,0.15807 0.53514,0.15534 0.16813,-0.003 0.2488,-0.0908 0.30093,-0.18495 0.0521,-0.0941 0.0756,-0.19495 0.052,-0.35804 -0.0226,-0.1564 -0.0883,-0.37011 -0.16195,-0.58757 0.21247,0.15877 0.38828,0.25248 0.53201,0.30337 0.16142,0.0571 0.28242,0.0606 0.37322,0.0303 0.0908,-0.0303 0.15131,-0.0942 0.18493,-0.21019 0.0337,-0.11598 0.0403,-0.28421 0.0203,-0.4742 -0.008,-0.0821 -0.0229,-0.16966 -0.0455,-0.27846 0.19252,0.13076 0.37493,0.22658 0.50953,0.27672 0.17148,0.0639 0.26574,0.0539 0.33298,0.0236 0.0672,-0.0303 0.10742,-0.0807 0.13095,-0.17658 0.0235,-0.0958 0.0303,-0.23702 0.006,-0.427 -0.0195,-0.15884 -0.0597,-0.3477 -0.0883,-0.47647 0.22979,0.19238 0.40839,0.30369 0.54909,0.35526 0.15131,0.0554 0.25894,0.0421 0.32112,0.006 0.0622,-0.0352 0.0789,-0.0926 0.0756,-0.2304 -0.003,-0.13786 -0.027,-0.35635 -0.11094,-0.6405 -0.0229,-0.078 -0.051,-0.161 -0.0839,-0.24921 0.10959,0.0888 0.21706,0.16777 0.32061,0.23563 0.21325,0.13977 0.41056,0.23259 0.54368,0.27201 0.13307,0.0395 0.20192,0.0254 0.25547,-0.0421 0.0535,-0.0676 0.0918,-0.18885 0.0808,-0.34185 -0.0111,-0.153 -0.0716,-0.33767 -0.18757,-0.57816 -0.0515,-0.10683 -0.11411,-0.22469 -0.19296,-0.35021 0.19866,0.14795 0.39141,0.27254 0.5712,0.36779 0.22531,0.11938 0.43051,0.19341 0.56668,0.2203 0.13618,0.0269 0.20334,0.006 0.25042,-0.0656 0.0471,-0.0723 0.074,-0.19663 0.0488,-0.34795 -0.0252,-0.15132 -0.10269,-0.32946 -0.24052,-0.55813 -0.0528,-0.0876 -0.11448,-0.18273 -0.18824,-0.28264 0.16674,0.0566 0.30508,0.0881 0.4263,0.10258 0.18329,0.0219 0.32788,0.005 0.44391,-0.008 0.11603,-0.0134 0.20347,-0.0235 0.25389,-0.0622 0.0504,-0.0386 0.0639,-0.10597 0.0186,-0.21524 -0.0454,-0.10929 -0.14959,-0.26065 -0.33958,-0.4641 -0.10993,-0.11774 -0.2479,-0.25179 -0.38137,-0.37999 0.16438,0.0491 0.32104,0.0916 0.46042,0.12434 0.33629,0.079 0.57498,0.10258 0.79689,0.10258 0.22194,0 0.42717,-0.0235 0.52803,-0.0723 0.1009,-0.0488 0.0974,-0.12258 0.0705,-0.21002 -0.0269,-0.0874 -0.0772,-0.18829 -0.20671,-0.32617 -0.12607,-0.13429 -0.32567,-0.30246 -0.43243,-0.392 0.24665,0.0185 0.48166,0.0285 0.67621,0.0321 0.37328,0.006 0.59863,-0.0105 0.75162,-0.042 0.153,-0.032 0.23361,-0.079 0.27897,-0.14123 0.0454,-0.0622 0.0555,-0.13964 0.027,-0.21698 -0.0287,-0.0774 -0.0958,-0.15459 -0.23196,-0.26053 -0.13586,-0.1057 -0.34035,-0.23976 -0.44317,-0.30719 0.1136,-0.001 0.22195,-0.004 0.32372,-0.0107 0.20849,-0.0135 0.39003,-0.0404 0.57834,-0.0892 0.18831,-0.0488 0.38339,-0.11936 0.528,-0.17485 0.14461,-0.0555 0.23872,-0.0958 0.29082,-0.15464 0.0521,-0.0588 0.0622,-0.13627 0.0386,-0.20688 -0.0236,-0.0706 -0.0806,-0.13449 -0.27896,-0.23875 -0.19842,-0.10427 -0.53801,-0.24876 -0.94998,-0.36814 -0.41193,-0.1194 -0.89629,-0.21362 -1.48144,-0.26576 -0.43884,-0.039 -0.93438,-0.0546 -1.3782,-0.052 z m -13.36164,7.31618 c -0.001,-0.001 -0.003,-4.1e-4 -0.01,0.003 -0.006,0.003 -0.006,0.003 0.01,-0.003 z" />
      <path
         style="display:inline;fill:#ffcc5f;fill-opacity:1;stroke:#000000;stroke-width:0.209424;stroke-linecap:butt;stroke-linejoin:miter;stroke-miterlimit:4;stroke-dasharray:none;stroke-opacity:1"
         d="m 212.88745,249.06479 c 0.0624,-0.0951 0.18731,-0.28542 0.42814,-0.52624 0.24082,-0.24083 0.59758,-0.53218 1.08815,-0.84436 0.49057,-0.31218 1.11491,-0.64516 1.68872,-0.87112 0.57381,-0.22595 1.09706,-0.34487 1.84034,-0.46677 0.74329,-0.1219 1.70655,-0.24677 2.32793,-0.31515 0.62138,-0.0684 0.90085,-0.0803 1.73035,-0.10705 0.8295,-0.0268 2.20898,-0.0684 2.89823,-0.0836 0.68926,-0.0152 0.68824,-0.004 0.69459,0.0203 0.006,0.024 0.02,0.0608 0.051,0.14169 0.031,0.0809 0.0794,0.20603 0.0994,0.27582 0.02,0.0698 0.0114,0.0848 -0.0317,0.12204 -0.0431,0.0373 -0.12086,0.0972 -0.17133,0.1582 -0.0505,0.061 -0.0735,0.12294 -0.0834,0.17448 -0.01,0.0515 -0.007,0.0924 -0.003,0.12292 0.004,0.0305 0.008,0.0505 -0.0436,0.0841 -0.0515,0.0337 -0.15872,0.081 -0.23022,0.13143 -0.0715,0.0505 -0.10719,0.10403 -0.13717,0.14978 -0.03,0.0458 -0.0541,0.0836 -0.0672,0.10996 -0.0131,0.0264 -0.0151,0.0409 -0.0497,0.0666 -0.0346,0.0257 -0.10193,0.0625 -0.16764,0.0967 -0.0657,0.0342 -0.12982,0.0657 -0.18026,0.11457 -0.0504,0.0489 -0.0872,0.11512 -0.10614,0.16241 -0.0189,0.0473 -0.0199,0.0758 -0.0598,0.0909 -0.0399,0.0152 -0.11877,0.0172 -0.19604,0.0334 -0.0773,0.0162 -0.15296,0.0467 -0.19815,0.0845 -0.0452,0.0378 -0.0599,0.083 -0.0699,0.13028 -0.01,0.0473 -0.0153,0.0967 -0.0552,0.11724 -0.0399,0.0205 -0.11462,0.0121 -0.19869,0.0158 -0.0841,0.004 -0.17768,0.0195 -0.25074,0.0694 -0.073,0.0499 -0.1256,0.13401 -0.16133,0.19495 -0.0357,0.0609 -0.0547,0.0988 -0.0878,0.10828 -0.0331,0.009 -0.0804,-0.009 -0.14403,-0.0121 -0.0636,-0.003 -0.14347,0.011 -0.20708,0.031 -0.0636,0.02 -0.11089,0.0462 -0.14084,0.0777 -0.03,0.0315 -0.0426,0.0684 -0.0542,0.092 -0.0116,0.0237 -0.022,0.034 -0.0557,0.0357 -0.0337,0.002 -0.0905,-0.006 -0.14306,0.006 -0.0525,0.0115 -0.10095,0.042 -0.1519,0.0814 -0.051,0.0394 -0.10458,0.0878 -0.15977,0.14295 -0.0552,0.0552 -0.11195,0.11721 -0.16607,0.17132 -0.0541,0.0541 -0.10565,0.10039 -0.1414,0.15711 -0.0358,0.0567 -0.0558,0.12406 -0.0674,0.16923 -0.0117,0.0452 -0.015,0.0682 -0.0513,0.0808 -0.0363,0.0126 -0.10576,0.0146 -0.21613,0.0629 -0.11037,0.0483 -0.26175,0.14291 -0.36318,0.21281 -0.10143,0.0699 -0.15298,0.11514 -0.19554,0.1535 -0.0426,0.0384 -0.0762,0.0699 -0.0982,0.11299 -0.022,0.0431 -0.0325,0.0978 -0.0451,0.13875 -0.0126,0.041 -0.0273,0.0683 -0.0667,0.0757 -0.0394,0.007 -0.10356,-0.005 -0.15717,0.001 -0.0536,0.006 -0.0967,0.0315 -0.18551,0.0936 -0.0888,0.062 -0.22338,0.16084 -0.32691,0.23599 -0.10353,0.0752 -0.17607,0.12666 -0.21401,0.18346 -0.0379,0.0568 -0.0413,0.11872 -0.0388,0.16284 0.003,0.0441 0.011,0.0705 -0.0153,0.0731 -0.0263,0.003 -0.0873,-0.0185 -0.14137,-0.0185 -0.0541,0 -0.10145,0.021 -0.21078,0.10041 -0.10932,0.0794 -0.28065,0.21707 -0.39735,0.31327 -0.11671,0.0962 -0.17867,0.15082 -0.21134,0.20703 -0.0327,0.0562 -0.036,0.11403 -0.0513,0.13877 -0.0153,0.0247 -0.0428,0.0163 -0.0958,0.0152 -0.053,-0.001 -0.13195,0.005 -0.20081,0.0215 -0.0689,0.0163 -0.12772,0.0426 -0.19341,0.0872 -0.0657,0.0447 -0.13821,0.10772 -0.19131,0.15031 -0.0531,0.0426 -0.0867,0.0646 -0.12032,0.0946 -0.0337,0.03 -0.0672,0.0677 -0.082,0.10822 -0.0147,0.0405 -0.0106,0.0836 -0.0568,0.10196 -0.0463,0.0184 -0.14298,0.0121 -0.2229,0.0174 -0.0799,0.005 -0.14296,0.022 -0.23222,0.0649 -0.0893,0.0428 -0.20474,0.11173 -0.29963,0.18035 -0.0949,0.0686 -0.16922,0.137 -0.21233,0.18752 -0.0431,0.0505 -0.055,0.0833 -0.12341,0.093 -0.0684,0.01 -0.19323,-0.004 -0.35972,0.0193 -0.16648,0.023 -0.37461,0.0825 -0.49428,0.13753 -0.11968,0.055 -0.15089,0.10559 -0.19398,0.11669 -0.0431,0.0111 -0.0981,-0.0171 -0.20138,-0.0319 -0.10332,-0.0148 -0.25495,-0.0161 -0.38874,-0.007 -0.13379,0.009 -0.24974,0.0283 -0.33004,0.0588 -0.0803,0.0305 -0.12487,0.0721 -0.17245,0.0698 -0.0476,-0.002 -0.0981,-0.0483 -0.1761,-0.0707 -0.0781,-0.0224 -0.1836,-0.0211 -0.28393,-0.01 -0.10032,0.0111 -0.19548,0.0319 -0.25106,0.0467 -0.0556,0.0148 -0.0723,0.0239 -0.0864,0.0358 -0.0142,0.0119 -0.0261,0.0268 -0.0647,-0.30551 -0.0386,-0.33227 -0.10404,-1.01161 -0.15904,-1.46872 -0.055,-0.4571 -0.0996,-0.69199 -0.27501,-0.86741 -0.17542,-0.17541 -0.48163,-0.29136 -0.59313,-0.5307 -0.11149,-0.23934 -0.0283,-0.60204 0.0238,-0.79977 0.052,-0.19772 0.0727,-0.23041 0.0831,-0.24675 0.0104,-0.0163 0.011,-0.0154 0.0734,-0.11052 z"
         id="path1638" />
      <path
         id="path1640"
         style="display:inline;fill:#fff0d3;fill-opacity:1;stroke:#000000;stroke-width:0.209424;stroke-linecap:butt;stroke-linejoin:miter;stroke-miterlimit:4;stroke-dasharray:none;stroke-opacity:1"
         d="m 195.04894,245.79529 c -0.44381,-0.002 -0.93951,0.013 -1.37836,0.052 -0.58514,0.0521 -1.06933,0.14634 -1.48127,0.26574 -0.41196,0.11939 -0.75157,0.26388 -0.94997,0.36814 -0.1984,0.10427 -0.25548,0.16814 -0.27898,0.23876 -0.0235,0.0706 -0.0134,0.14807 0.0386,0.20688 0.0521,0.0588 0.14622,0.0992 0.29083,0.15465 0.14459,0.0555 0.33969,0.12607 0.528,0.17483 0.18831,0.0488 0.36984,0.0757 0.57834,0.0892 0.10174,0.006 0.21,0.009 0.32355,0.0107 -0.10279,0.0674 -0.30714,0.2015 -0.44302,0.30719 -0.13618,0.10594 -0.20341,0.18318 -0.23196,0.26052 -0.0286,0.0774 -0.0184,0.1548 0.027,0.21698 0.0454,0.0622 0.12599,0.10929 0.27897,0.14123 0.153,0.032 0.37834,0.0487 0.75162,0.042 0.1945,-0.003 0.42947,-0.0136 0.67602,-0.0321 -0.10673,0.0896 -0.30615,0.25756 -0.43222,0.39183 -0.12945,0.13788 -0.17983,0.23891 -0.20672,0.32635 -0.0269,0.0874 -0.0303,0.16129 0.0705,0.21002 0.10089,0.0488 0.30606,0.0723 0.528,0.0723 0.22195,0 0.46061,-0.0235 0.79689,-0.10258 0.13933,-0.0327 0.29595,-0.0753 0.46027,-0.12434 -0.13348,0.12819 -0.27128,0.26226 -0.3812,0.37998 -0.19,0.20346 -0.29422,0.35482 -0.33959,0.4641 -0.0454,0.10927 -0.032,0.1766 0.0185,0.21524 0.0505,0.0386 0.13788,0.0488 0.2539,0.0622 0.11602,0.0134 0.26063,0.0302 0.4439,0.008 0.12122,-0.0145 0.25956,-0.046 0.4263,-0.10258 -0.0738,0.0999 -0.13562,0.19506 -0.18842,0.28263 -0.13786,0.22868 -0.21512,0.40683 -0.24032,0.55813 -0.0252,0.15132 0.002,0.27568 0.0488,0.34795 0.0471,0.0723 0.11424,0.0925 0.25042,0.0656 0.13618,-0.0269 0.34136,-0.10089 0.56667,-0.22029 0.17979,-0.0952 0.37254,-0.21985 0.57119,-0.36779 -0.0788,0.12552 -0.14157,0.24337 -0.19312,0.3502 -0.11604,0.24049 -0.17634,0.42516 -0.18738,0.57817 -0.0111,0.15299 0.0272,0.27424 0.0808,0.34184 0.0535,0.0676 0.12238,0.0816 0.25547,0.0421 0.1331,-0.0394 0.33043,-0.13224 0.54369,-0.27201 0.10353,-0.0679 0.21084,-0.14687 0.32042,-0.23562 -0.0329,0.0882 -0.0607,0.17125 -0.0838,0.2492 -0.084,0.28416 -0.10757,0.50264 -0.11093,0.6405 -0.003,0.13787 0.0134,0.19511 0.0756,0.2304 0.0622,0.0353 0.1698,0.0487 0.32111,-0.006 0.14072,-0.0516 0.31926,-0.16283 0.54909,-0.35525 -0.0286,0.12877 -0.0686,0.31762 -0.0883,0.47646 -0.0235,0.19 -0.0169,0.33118 0.006,0.427 0.0235,0.0958 0.064,0.14633 0.13114,0.17658 0.0672,0.0303 0.16146,0.0402 0.33296,-0.0237 0.13463,-0.0501 0.31701,-0.14596 0.50955,-0.27672 -0.0225,0.1088 -0.0367,0.19632 -0.0455,0.27846 -0.0202,0.19 -0.0134,0.35821 0.0202,0.4742 0.0337,0.11599 0.0941,0.17993 0.18494,0.2102 0.0908,0.0303 0.21178,0.0269 0.37319,-0.0303 0.14372,-0.0509 0.31955,-0.14459 0.53201,-0.30336 -0.0736,0.21745 -0.13939,0.43116 -0.16194,0.58757 -0.0235,0.16307 -6e-5,0.2639 0.052,0.35803 0.0521,0.0941 0.13281,0.18158 0.30092,0.18494 0.1362,0.003 0.32974,-0.0497 0.53515,-0.15551 -0.005,0.0155 -0.0109,0.0308 -0.0156,0.0463 -0.0454,0.14628 -0.0689,0.31108 -0.0622,0.44389 0.006,0.13282 0.0438,0.23363 0.11773,0.29919 0.074,0.0655 0.18498,0.0958 0.35142,0.074 0.16644,-0.0218 0.38843,-0.0959 0.65914,-0.26401 0.0173,-0.0108 0.0347,-0.0219 0.0525,-0.0334 -0.0185,0.0553 -0.0302,0.10353 -0.0405,0.15114 -0.0403,0.18496 -0.0606,0.36334 -0.0589,0.5012 0.002,0.13786 0.0251,0.23525 0.094,0.30249 0.0689,0.0672 0.18331,0.10427 0.31277,0.0892 0.12945,-0.0151 0.27405,-0.0823 0.4775,-0.1933 0.13121,-0.0716 0.28699,-0.1616 0.45992,-0.28891 -0.0283,0.14492 -0.056,0.31164 -0.0764,0.44529 -0.0218,0.14292 -0.0355,0.24718 -0.0321,0.33627 0.003,0.0891 0.0235,0.16311 0.0622,0.22866 0.0386,0.0655 0.0958,0.12261 0.2001,0.13775 0.10416,0.0151 0.25557,-0.0116 0.43884,-0.0788 0.18327,-0.0672 0.39855,-0.17485 0.59192,-0.32112 0.10861,-0.0821 0.21017,-0.17694 0.30945,-0.28142 -0.0826,0.25573 -0.0748,0.38677 -0.0589,0.50502 0.0235,0.17486 0.0639,0.32285 0.13776,0.39513 0.074,0.0723 0.1815,0.0688 0.36309,0.006 0.18158,-0.0622 0.43719,-0.18314 0.72304,-0.45888 0.095,-0.0917 0.19348,-0.20072 0.29205,-0.32164 -3.4e-4,0.0321 6.8e-4,0.0616 0.002,0.093 0.008,0.15805 0.0286,0.36643 0.0774,0.52278 0.0488,0.15635 0.12627,0.26062 0.21368,0.33123 0.0874,0.0706 0.18493,0.10753 0.35473,0.052 0.16981,-0.0554 0.4119,-0.20341 0.61369,-0.44216 0.20178,-0.23874 0.36313,-0.56826 0.54473,-1.0811 0.18159,-0.51282 0.3833,-1.20895 0.49091,-1.69825 0.10762,-0.4893 0.12109,-0.7717 0.12783,-0.91966 0.006,-0.14797 0.006,-0.16147 0.006,-0.16823 0,-0.002 1.6e-4,-0.004 6.8e-4,-0.004 -0.011,-0.004 -0.0252,-0.0105 -0.0714,-0.0308 -0.11097,-0.0487 -0.35304,-0.15637 -0.59853,-0.2539 -0.11453,-0.0455 -0.2298,-0.0888 -0.35004,-0.0656 -0.0287,-0.0527 -0.0795,-0.11068 -0.17797,-0.14279 -0.15473,-0.0505 -0.42708,-0.0368 -0.62885,0.0825 -0.093,0.055 -0.17115,0.13301 -0.26225,0.25982 -0.0268,-0.19879 -0.18631,-0.27902 -0.39009,-0.40453 -0.16925,-0.10427 -0.36894,-0.23956 -0.64991,-0.12452 -0.12016,-0.24265 -0.35068,-0.63982 -0.56075,-0.7699 -0.14397,-0.0892 -0.27833,-0.0525 -0.47802,0.13758 -0.01,-0.008 -0.0179,-0.0159 -0.0284,-0.0249 -0.17151,-0.14796 -0.46978,-0.40526 -0.73158,-0.4061 -0.0928,-2.1e-4 -0.181,0.0317 -0.27551,0.097 -0.004,-0.0757 -0.0184,-0.15401 -0.0418,-0.23737 -0.096,-0.3422 -0.35407,-0.76594 -0.72967,-0.77425 -2e-5,-0.003 4e-5,-0.006 0,-0.009 -0.002,-0.19334 -0.005,-0.57993 -0.21019,-0.87422 -0.17626,-0.25283 -0.50147,-0.43719 -0.89563,-0.36256 -0.0767,-0.0596 -0.17559,-0.11463 -0.27462,-0.16718 -0.16479,-0.0875 -0.32952,-0.16823 -0.52627,-0.20688 -0.0254,-0.005 -0.0516,-0.009 -0.078,-0.0126 0.005,-0.0885 -0.0413,-0.14063 -0.14889,-0.18077 -0.18347,-0.0684 -0.53977,-0.10163 -0.77269,-0.12364 0.003,-0.0192 0.005,-0.0379 0.007,-0.0559 0.0181,-0.2584 -0.17936,-0.38518 -0.36378,-0.4068 -0.15788,-0.0185 -0.30619,0.0404 -0.47664,0.19696 0.0343,-0.0739 0.0582,-0.14323 0.0685,-0.20584 0.0192,-0.11687 -0.009,-0.21048 -0.0627,-0.28141 0.0235,-0.0618 0.0316,-0.12387 0.0214,-0.1893 -0.0285,-0.18499 -0.20002,-0.3968 -0.47246,-0.40854 -0.0863,-0.004 -0.18277,0.0127 -0.28856,0.0444 -0.0906,-0.0628 -0.22554,-0.1136 -0.37841,-0.13985 0.0149,-0.046 0.0171,-0.0926 0.008,-0.14001 -0.0235,-0.12278 -0.12111,-0.25056 -0.41708,-0.32286 -0.0707,-0.0173 -0.15293,-0.0312 -0.24501,-0.0421 -0.002,-0.0869 -0.0351,-0.19084 -0.0458,-0.28403 -0.0152,-0.13282 0.0152,-0.24372 0,-0.30093 -0.0152,-0.0572 -0.0758,-0.0607 -0.10606,-0.0624 -0.0302,-0.002 -0.0302,-0.001 -0.21681,-0.0251 -0.18667,-0.0235 -0.55997,-0.0707 -1.08963,-0.0892 -0.13242,-0.004 -0.27453,-0.007 -0.42247,-0.008 z m 13.36163,7.31618 c 0.0154,0.006 0.0153,0.005 0.01,0.003 -0.006,-0.003 -0.008,-0.004 -0.01,-0.003 z" />
      <path
         style="display:inline;fill:#ffcc5f;fill-opacity:1;stroke:#000000;stroke-width:0.209424;stroke-linecap:butt;stroke-linejoin:miter;stroke-miterlimit:4;stroke-dasharray:none;stroke-opacity:1"
         d="m 209.34331,249.06479 c -0.0624,-0.0951 -0.18731,-0.28541 -0.42814,-0.52624 -0.24082,-0.24082 -0.59759,-0.53218 -1.08815,-0.84436 -0.49056,-0.31218 -1.11491,-0.64517 -1.68872,-0.87112 -0.57381,-0.22595 -1.09706,-0.34487 -1.84034,-0.46677 -0.74329,-0.1219 -1.70654,-0.24677 -2.32792,-0.31515 -0.62138,-0.0684 -0.90086,-0.0803 -1.73036,-0.10705 -0.8295,-0.0268 -2.209,-0.0684 -2.89825,-0.0836 -0.68925,-0.0152 -0.68825,-0.004 -0.69457,0.0202 -0.006,0.0241 -0.02,0.0609 -0.0509,0.14176 -0.031,0.0809 -0.0794,0.20602 -0.0994,0.27582 -0.02,0.0698 -0.0115,0.0848 0.0316,0.12203 0.0431,0.0373 0.12086,0.0972 0.17131,0.15819 0.0505,0.061 0.0735,0.12295 0.0836,0.1745 0.01,0.0516 0.007,0.0925 0.003,0.12293 -0.004,0.0305 -0.008,0.0504 0.0437,0.0841 0.0515,0.0337 0.15871,0.081 0.2302,0.13145 0.0715,0.0505 0.1072,0.10402 0.13715,0.14976 0.03,0.0457 0.0541,0.0836 0.0672,0.1099 0.0131,0.0263 0.0151,0.0409 0.0497,0.0667 0.0346,0.0257 0.10195,0.0625 0.16769,0.0967 0.0657,0.0342 0.12977,0.0657 0.18022,0.11454 0.0504,0.0489 0.0872,0.11511 0.10615,0.16242 0.0189,0.0473 0.0199,0.0757 0.0598,0.0909 0.0399,0.0152 0.11876,0.0172 0.19604,0.0334 0.0773,0.0162 0.15295,0.0467 0.19814,0.0845 0.0452,0.0378 0.0599,0.083 0.0699,0.13031 0.01,0.0473 0.0152,0.0967 0.0551,0.11723 0.0399,0.0205 0.11459,0.0121 0.19865,0.0158 0.0841,0.004 0.17768,0.0195 0.25073,0.0694 0.0731,0.0499 0.12562,0.13403 0.16135,0.19497 0.0357,0.0609 0.0547,0.0988 0.0878,0.10828 0.0331,0.009 0.0804,-0.009 0.14402,-0.0121 0.0636,-0.003 0.14347,0.011 0.20708,0.031 0.0636,0.02 0.11088,0.0462 0.14084,0.0778 0.0299,0.0315 0.0426,0.0683 0.0541,0.092 0.0116,0.0237 0.022,0.0341 0.0557,0.0357 0.0337,0.002 0.0904,-0.006 0.14298,0.006 0.0525,0.0115 0.10095,0.042 0.1519,0.0814 0.051,0.0394 0.1046,0.0878 0.15979,0.14296 0.0552,0.0552 0.11193,0.11719 0.16606,0.17131 0.0541,0.0541 0.10565,0.1004 0.14138,0.15712 0.0357,0.0567 0.0557,0.12407 0.0674,0.16923 0.0117,0.0452 0.015,0.0682 0.0513,0.0808 0.0363,0.0126 0.10576,0.0146 0.21613,0.0629 0.11038,0.0483 0.26175,0.14291 0.36318,0.21281 0.10143,0.0699 0.15299,0.11515 0.19554,0.1535 0.0426,0.0384 0.0762,0.0699 0.0983,0.11299 0.0221,0.0431 0.0326,0.0977 0.0452,0.13874 0.0126,0.041 0.0273,0.0683 0.0667,0.0757 0.0394,0.007 0.10353,-0.005 0.15714,0.001 0.0536,0.006 0.0967,0.0316 0.18554,0.0936 0.0888,0.062 0.22337,0.16083 0.3269,0.23598 0.10353,0.0752 0.17607,0.12667 0.214,0.18347 0.0379,0.0568 0.0413,0.11871 0.0387,0.16283 -0.003,0.0441 -0.011,0.0705 0.0153,0.0731 0.0263,0.003 0.0873,-0.0185 0.14138,-0.0185 0.0541,0 0.10145,0.021 0.21077,0.10041 0.10932,0.0794 0.28065,0.21706 0.39736,0.31327 0.11671,0.0962 0.17866,0.15081 0.21133,0.20702 0.0327,0.0562 0.036,0.11404 0.0513,0.13878 0.0153,0.0247 0.0428,0.0163 0.0958,0.0152 0.053,-0.001 0.13193,0.005 0.2008,0.0215 0.0689,0.0163 0.12773,0.0426 0.19341,0.0872 0.0657,0.0447 0.13821,0.10773 0.19132,0.15031 0.0531,0.0426 0.0867,0.0646 0.12034,0.0946 0.0337,0.03 0.0672,0.0677 0.0819,0.10822 0.0147,0.0405 0.0105,0.0836 0.0568,0.10196 0.0462,0.0184 0.14297,0.0121 0.22289,0.0174 0.0799,0.005 0.14295,0.022 0.2322,0.0649 0.0893,0.0428 0.20472,0.11171 0.29962,0.18034 0.0949,0.0686 0.16923,0.13701 0.21234,0.18754 0.0431,0.0505 0.055,0.0832 0.1234,0.0929 0.0684,0.01 0.19325,-0.004 0.35974,0.0194 0.16648,0.023 0.37461,0.0825 0.49429,0.13753 0.11968,0.055 0.15089,0.10559 0.19398,0.11669 0.0431,0.0111 0.0981,-0.0171 0.20138,-0.0319 0.10332,-0.0148 0.25495,-0.0161 0.38874,-0.007 0.13379,0.009 0.24974,0.0283 0.33001,0.0587 0.0803,0.0304 0.12491,0.0721 0.17246,0.0699 0.0476,-0.002 0.0981,-0.0483 0.17613,-0.0707 0.0781,-0.0224 0.18359,-0.0211 0.28392,-0.01 0.10032,0.0111 0.19549,0.0319 0.25107,0.0467 0.0556,0.0148 0.0723,0.0239 0.0864,0.0358 0.0142,0.0119 0.0261,0.0268 0.0647,-0.30551 0.0386,-0.33227 0.10404,-1.01161 0.15904,-1.46872 0.055,-0.4571 0.0996,-0.69199 0.27501,-0.86741 0.17541,-0.17541 0.48163,-0.29136 0.58277,-0.54706 0.10115,-0.25569 -0.003,-0.65094 -0.0548,-0.84877 -0.052,-0.19782 -0.0533,-0.19677 -0.11576,-0.29191 z"
         id="path1642" />
      <path
         style="display:inline;fill:#ffffff;stroke:#000000;stroke-width:0.209424;stroke-linecap:butt;stroke-linejoin:miter;stroke-miterlimit:4;stroke-dasharray:none;stroke-opacity:1"
         d="m 209.12729,256.81479 c -0.0934,0.12402 -0.28014,0.37199 -0.45463,0.61537 -0.1745,0.24338 -0.33675,0.48216 -0.48523,0.71024 -0.14847,0.22807 -0.28316,0.44541 -0.33516,0.56326 -0.052,0.11784 -0.0214,0.13619 0.0459,0.17904 0.0673,0.0428 0.1714,0.11019 0.23718,0.14693 0.0658,0.0367 0.0934,0.0429 0.12859,0.0689 0.0352,0.026 0.0781,0.072 0.12549,0.0781 0.0474,0.006 0.0995,-0.0275 0.16227,-0.0291 0.0628,-0.002 0.1362,0.029 0.20205,0.0673 0.0659,0.0383 0.12397,0.0842 0.17909,0.14389 0.0551,0.0597 0.10714,0.13315 0.15001,0.16068 0.0429,0.0275 0.0764,0.009 0.15756,-0.0107 0.0811,-0.0199 0.20972,-0.0413 0.30922,-0.0704 0.0995,-0.0291 0.16991,-0.0658 0.18983,-0.48521 0.0199,-0.41939 -0.0107,-1.22144 -0.1056,-1.66232 -0.0949,-0.44087 -0.25408,-0.52045 -0.33366,-0.56024 -0.0796,-0.0398 -0.0795,-0.0398 -0.17291,0.0842 z"
         id="path1644" />
      <path
         style="fill:none;stroke:#000000;stroke-width:0.209424;stroke-linecap:butt;stroke-linejoin:miter;stroke-miterlimit:4;stroke-dasharray:none;stroke-opacity:1"
         d="m 211.07942,257.85914 c 0,0 0,0 0,0 z"
         id="path1646" />
      <path
         style="fill:#0d7b99;fill-opacity:1;stroke:#000000;stroke-width:0.209424;stroke-linecap:butt;stroke-linejoin:miter;stroke-miterlimit:4;stroke-dasharray:none;stroke-opacity:1"
         d="m 211.08986,261.78186 c 0.0602,0.44119 0.12031,0.88226 0.21055,1.31834 0.0902,0.43608 0.21052,0.86714 0.29072,1.19796 0.0802,0.33081 0.12028,0.56138 0.10523,0.84707 -0.0151,0.28569 -0.0852,0.62652 -0.10526,0.92728 -0.02,0.30076 0.01,0.5614 0.01,0.90724 -1e-5,0.34584 -0.0301,0.7769 -0.015,1.16788 0.0151,0.39098 0.0752,0.74185 0.0868,1.11964 0.0116,0.37778 -0.0253,0.7825 -0.0621,1.18727 0,0 1.58313,-0.002 1.58313,-0.002 0.0605,-0.64456 0.12105,-1.28907 0.19141,-1.90706 0.0704,-0.618 0.15056,-1.20946 0.18565,-1.60544 0.0351,-0.39597 0.0251,-0.59646 0.0902,-0.86715 0.0651,-0.2707 0.20549,-0.61152 0.24059,-0.97239 0.0351,-0.36087 -0.0351,-0.74179 0,-1.07264 0.0351,-0.33085 0.17542,-0.61154 0.25117,-1.05146 0.0757,-0.43991 0.0869,-1.03907 0.0705,-1.55435 -0.0163,-0.51528 -0.0602,-0.94665 -0.0206,-1.51922 0.0396,-0.57258 0.16249,-1.2863 0.16884,-1.92385 0.006,-0.63756 -0.10392,-1.19893 -0.18914,-1.65506 -0.0852,-0.45613 -0.14535,-0.80698 -0.36588,-0.92232 -0.22053,-0.11535 -0.60146,0.005 -1.02753,0.19041 -0.42607,0.18546 -0.89721,0.43607 -1.17291,0.61653 -0.2757,0.18046 -0.3559,0.29073 -0.416,0.32085 -0.0601,0.0301 -0.1002,-0.02 -0.14038,-0.0702 m 0.76963,13.99409 c 0.0141,0.15718 0.0282,0.31435 0.0102,0.54847 -0.018,0.23411 -0.0681,0.54466 -0.0982,0.79529 -0.0301,0.25063 -0.0401,0.44109 -0.0451,0.61152 -0.005,0.17042 -0.005,0.32079 0.0803,0.44609 0.0853,0.12529 0.25567,0.22553 0.58649,0.35083 0.33082,0.1253 0.82202,0.27566 1.13279,0.36588 0.31076,0.0902 0.4411,0.12028 0.56133,0.0601 0.12023,-0.0602 0.2305,-0.21052 0.17542,-0.37089 -0.0551,-0.16036 -0.27563,-0.33079 -0.5112,-0.48117 -0.23558,-0.15038 -0.4862,-0.2807 -0.64664,-0.52127 -0.16043,-0.24057 -0.23061,-0.59143 -0.26069,-0.87213 -0.0301,-0.28071 -0.0201,-0.49096 -0.005,-0.63504 0.0152,-0.14409 0.0356,-0.2212 0.056,-0.29842 0,0 -1.0358,7.2e-4 -1.0358,7.2e-4 z"
         id="path1648" />
      <path
         style="fill:#0d7b99;fill-opacity:1;stroke:#000000;stroke-width:0.209424;stroke-linecap:butt;stroke-linejoin:miter;stroke-miterlimit:4;stroke-dasharray:none;stroke-opacity:1"
         d="m 210.51436,271.95191 c 0.005,0.0953 0.0151,0.28577 0.0201,0.45619 0.005,0.17042 0.005,0.32079 -0.0803,0.44609 -0.0853,0.12531 -0.25567,0.22554 -0.58649,0.35084 -0.33082,0.12529 -0.82202,0.27566 -1.13279,0.36588 -0.31077,0.0902 -0.4411,0.12028 -0.56133,0.0601 -0.12023,-0.0602 -0.23051,-0.21053 -0.17542,-0.3709 0.0551,-0.16037 0.27562,-0.33078 0.5112,-0.48116 0.23558,-0.15038 0.48619,-0.2807 0.64663,-0.52128 0.16044,-0.24057 0.23061,-0.59145 0.2505,-0.91081 0.0199,-0.31936 -0.0106,-0.60731 -0.041,-0.89518 0,0 1.03665,-0.0265 1.03665,-0.0265 -0.0144,0.16639 -0.0287,0.33285 -0.0109,0.57143 0.0179,0.23859 0.068,0.54939 0.0931,0.70471 0.025,0.15532 0.025,0.15532 0.03,0.25057 z m 0.65661,-15.49316 c -0.0402,0.0502 -0.0803,0.10036 -0.14039,0.0702 -0.0601,-0.0301 -0.14029,-0.14039 -0.41599,-0.32085 -0.2757,-0.18047 -0.74686,-0.43108 -1.17293,-0.61654 -0.42606,-0.18546 -0.807,-0.30576 -1.02752,-0.19041 -0.22053,0.11535 -0.28068,0.46619 -0.36589,0.92232 -0.0852,0.45613 -0.19548,1.0175 -0.18913,1.65505 0.006,0.63755 0.12929,1.35129 0.16884,1.92386 0.0395,0.57257 -0.004,1.00393 -0.0206,1.51921 -0.0164,0.51529 -0.005,1.11445 0.0705,1.55437 0.0757,0.43992 0.21608,0.7206 0.25115,1.05145 0.0351,0.33085 -0.0351,0.71178 0,1.07265 0.0351,0.36086 0.17545,0.70169 0.2406,0.9724 0.0651,0.27071 0.0551,0.47118 0.0902,0.86714 0.0351,0.39596 0.11529,0.9875 0.18563,1.60539 0.0703,0.61789 0.13083,1.26227 0.19132,1.9067 0,0 1.5844,-0.0265 1.5844,-0.0265 -0.0373,-0.395 -0.0745,-0.78994 -0.0631,-1.16285 0.0114,-0.37292 0.0716,-0.72376 0.0866,-1.11474 0.0151,-0.39098 -0.015,-0.82203 -0.015,-1.16788 0,-0.34584 0.0301,-0.60648 0.01,-0.90724 -0.02,-0.30076 -0.0902,-0.64159 -0.10526,-0.92728 -0.0151,-0.28569 0.025,-0.51625 0.10524,-0.84707 0.0802,-0.33081 0.20048,-0.76187 0.29071,-1.19795 0.0902,-0.43609 0.15038,-0.87716 0.21054,-1.31834"
         id="path1650" />
      <path
         style="fill:none;stroke:#000000;stroke-width:0.209424;stroke-linecap:butt;stroke-linejoin:miter;stroke-miterlimit:4;stroke-dasharray:none;stroke-opacity:1"
         d="m 211.15133,257.85914 c 0,0 0,0 0,0 z"
         id="path1652" />
      <path
         style="fill:#ffcc5f;fill-opacity:1;stroke:#000000;stroke-width:0.209424;stroke-linecap:butt;stroke-linejoin:miter;stroke-miterlimit:4;stroke-dasharray:none;stroke-opacity:1"
         d="m 208.78155,253.94628 c -0.0356,-0.0146 -0.0711,-0.0292 -0.17915,0.15404 -0.10808,0.18321 -0.28851,0.56413 -0.30352,0.86483 -0.015,0.30069 0.13536,0.52123 0.396,0.85205 0.26064,0.33081 0.63155,0.77189 1.05932,1.13059 0.42778,0.3587 0.91243,0.63502 1.15478,0.7732 0.24235,0.13817 0.17045,0.13817 0.4128,0 0.24235,-0.13818 0.727,-0.4145 1.15478,-0.7732 0.42777,-0.3587 0.79868,-0.79979 1.05931,-1.1306 0.26064,-0.3308 0.41101,-0.55134 0.39601,-0.85204 -0.015,-0.3007 -0.19544,-0.68162 -0.30204,-0.86936 -0.1066,-0.18774 -0.13952,-0.18214 -0.1726,-0.17651"
         id="path1654" />
      <path
         style="fill:#ffdad4;fill-opacity:1;stroke:#000000;stroke-width:0.209424;stroke-linecap:butt;stroke-linejoin:miter;stroke-miterlimit:4;stroke-dasharray:none;stroke-opacity:1"
         d="m 204.87711,249.75228 c 0.0727,0.0602 0.21808,0.18048 0.30078,0.23305 0.0827,0.0526 0.10271,0.0376 0.1403,-0.0376 0.0376,-0.0752 0.0927,-0.21049 0.0627,-0.41597 -0.03,-0.20547 -0.14533,-0.48115 -0.23552,-0.64156 -0.0902,-0.16041 -0.15533,-0.20551 -0.22305,-0.20556 -0.0677,-4e-5 -0.13788,0.0451 -0.18297,0.0751 -0.0451,0.0301 -0.0652,0.0452 -0.11531,0.15544 -0.0501,0.11028 -0.13032,0.31578 -0.11021,0.46617 0.0201,0.15038 0.14041,0.24562 0.18798,0.33334 0.0476,0.0877 0.0226,0.16789 0.0276,0.1629 0.005,-0.005 0.0401,-0.0953 0.0576,-0.14041 0.0175,-0.0451 0.0174,-0.0451 0.0901,0.0151 z"
         id="path1656" />
      <path
         style="fill:#c17a4b;fill-opacity:1;stroke:#000000;stroke-width:0.209424;stroke-linecap:butt;stroke-linejoin:miter;stroke-miterlimit:4;stroke-dasharray:none;stroke-opacity:1"
         d="m 205.59592,257.78351 c 0,-0.0163 1e-5,-0.0489 -0.46901,-1.92565 -0.46902,-1.87675 -1.40703,-5.59756 -1.86738,-7.45609 -0.46036,-1.85854 -0.44323,-1.85474 -0.34625,-1.84224 0.097,0.0125 0.2735,0.0336 0.42604,0.12194 0.15254,0.0883 0.28109,0.24376 0.37892,0.45581 0.0978,0.21205 0.16497,0.48069 0.59179,2.22123 0.42682,1.74053 1.21328,4.95282 1.6046,6.58392 0.39132,1.6311 0.38749,1.68094 0.26854,1.727 -0.11895,0.0461 -0.35305,0.0883 -0.47014,0.10936 -0.11709,0.0211 -0.11711,0.021 -0.11711,0.005 z"
         id="path1658" />
      <path
         style="fill:#ffdad4;fill-opacity:1;stroke:#000000;stroke-width:0.209424;stroke-linecap:butt;stroke-linejoin:miter;stroke-miterlimit:4;stroke-dasharray:none;stroke-opacity:1"
         d="m 204.62651,251.02119 c 0.0546,0.0364 0.16363,0.10908 0.30325,0.23761 0.13962,0.12852 0.30975,0.31282 0.49405,0.50066 0.1843,0.18785 0.38329,0.37974 0.50094,0.49737 0.11764,0.11763 0.15502,0.16206 0.18192,0.18224 0.0269,0.0202 0.0214,0.0215 0.0269,0.0202 0,0 0,0 0.0376,-0.223 0.0376,-0.22299 0.11277,-0.6691 0.223,-0.95481 0.11024,-0.28572 0.2556,-0.41102 0.30576,-0.49126 0.0502,-0.0802 0.005,-0.11531 -0.02,-0.40848 -0.0251,-0.29317 -0.0301,-0.84453 0.0401,-1.30314 0.0702,-0.45862 0.21552,-0.82452 0.39092,-1.05762 0.1754,-0.23311 0.3809,-0.33335 0.63526,-0.3645 0.25436,-0.0311 0.55751,0.007 0.85445,8.4e-4 0.29694,-0.006 0.58765,-0.0561 0.79816,-0.1338 0.21051,-0.0777 0.34085,-0.18292 0.44613,-0.29695 0.10528,-0.11402 0.18547,-0.23682 0.23674,-0.40668 0.0513,-0.16985 0.0736,-0.38681 0.0959,-0.60369 0,0 1.87565,0 1.87565,0 0.0223,0.21688 0.0446,0.43384 0.0959,0.6037 0.0513,0.16986 0.13147,0.29264 0.23674,0.40666 0.10527,0.11402 0.2356,0.21928 0.44612,0.29694 0.21052,0.0777 0.50125,0.12779 0.79818,0.13382 0.29692,0.006 0.60009,-0.032 0.85445,-8.3e-4 0.25436,0.0311 0.45986,0.13139 0.63525,0.36449 0.1754,0.2331 0.32076,0.599 0.39092,1.05762 0.0702,0.45862 0.0652,1.00997 0.0401,1.30315 -0.0251,0.29318 -0.0702,0.32825 -0.02,0.40848 0.0502,0.0802 0.19553,0.20553 0.30576,0.49125 0.11023,0.28572 0.18542,0.7318 0.223,0.95481 0.0376,0.223 0.0376,0.223 0.15825,0.10584 0.12066,-0.11717 0.36197,-0.35149 0.56769,-0.56081 0.20573,-0.20932 0.37584,-0.39361 0.52472,-0.52831 0.14888,-0.1347 0.27645,-0.21976 0.35795,-0.40047 0.0815,-0.18071 0.11695,-0.45715 0.0638,-0.63084 -0.0531,-0.17368 -0.19488,-0.24456 -0.29415,-0.35796 -0.0993,-0.1134 -0.15598,-0.26932 -0.17018,-0.45009 -0.0142,-0.18076 0.0142,-0.38634 0.0922,-0.47497 0.078,-0.0886 0.20563,-0.0603 0.2871,0.0567 0.0815,0.11701 0.11692,0.32255 0.19493,0.44657 0.078,0.12402 0.19854,0.16657 0.40054,0.163 0.202,-0.004 0.48556,-0.0532 0.69108,-0.18077 0.20551,-0.12758 0.3331,-0.33314 0.34024,-0.51386 0.007,-0.18072 -0.10628,-0.33667 -0.17011,-0.48199 -0.0638,-0.14531 -0.078,-0.28 -0.0461,-0.40409 0.0319,-0.1241 0.10986,-0.23749 0.17724,-0.28355 0.0674,-0.0461 0.12412,-0.0248 0.25524,0.18795 0.13112,0.21271 0.33668,0.61675 0.42171,0.86836 0.085,0.25162 0.0496,0.35087 -0.12762,0.6025 -0.17721,0.25162 -0.49618,0.65566 -0.70171,0.88247 -0.20552,0.2268 -0.29771,0.27644 -0.39344,0.5423 -0.0957,0.26587 -0.19497,0.74789 -0.33674,1.20864 -0.14176,0.46074 -0.32606,0.90023 -0.63795,1.42831 -0.31189,0.52808 -0.75138,1.14476 -1.0668,1.49209 -0.31543,0.34733 -0.5068,0.4253 -0.69461,0.44305 -0.18782,0.0177 -0.37213,-0.0248 -0.57771,-0.20906 -0.20559,-0.18426 -0.43242,-0.51033 -0.65926,-0.87892 -0.22684,-0.3686 -0.45367,-0.77973 -0.61673,-1.21923 -0.16306,-0.43951 -0.26229,-0.90734 -0.31192,-1.14131 -0.0496,-0.23397 -0.0496,-1.06333 -0.0496,-0.94278 0,0.12055 0,0.36155 -0.0106,0.7337 -0.0106,0.37215 -0.0319,0.87541 -0.0674,1.27237 -0.0355,0.39697 -0.0851,0.68759 -0.17014,0.87541 -0.085,0.18782 -0.20553,0.27286 -0.3544,0.39336 -0.14887,0.12051 -0.32608,0.27646 -0.65214,0.48911 -0.32606,0.21265 -0.80099,0.48201 -1.03847,0.6167 -0.23748,0.13469 -0.42077,0.13469 -0.65825,0 -0.23748,-0.13469 -0.71242,-0.40406 -1.03848,-0.6167 -0.32606,-0.21265 -0.50326,-0.3686 -0.65212,-0.4891 -0.14885,-0.12049 -0.26939,-0.20558 -0.35444,-0.39338 -0.085,-0.18781 -0.13465,-0.47842 -0.17011,-0.87539 -0.0355,-0.39696 -0.0568,-0.90023 -0.0674,-1.27238 -0.0106,-0.37215 -0.0106,-0.61315 -0.0106,-0.7337 0,-0.12055 0,0.70881 -0.0496,0.94279 -0.0496,0.23398 -0.14887,0.7018 -0.31193,1.1413 -0.16306,0.4395 -0.38989,0.85063 -0.61673,1.21923 -0.22684,0.3686 -0.45367,0.69466 -0.65925,0.87893 -0.20559,0.18426 -0.38989,0.22679 -0.57771,0.20905 -0.18782,-0.0177 -0.3792,-0.0957 -0.69462,-0.44305 -0.31541,-0.34732 -0.75489,-0.96401 -1.01165,-1.50463 -0.25677,-0.54063 -0.33078,-1.0051 -0.44443,-1.27261 -0.11365,-0.2675 -0.26703,-0.33793 -0.34627,-0.4433 -0.0792,-0.10536 -0.0842,-0.24566 -0.10425,-0.36845 -0.02,-0.12279 -0.0551,-0.22811 -0.13526,-0.32585 -0.0802,-0.0977 -0.20548,-0.18798 -0.25566,-0.30076 -0.0502,-0.11278 -0.0251,-0.24811 -0.0677,-0.41852 -0.0426,-0.1704 -0.15284,-0.3759 -0.0927,-0.54388 0.0601,-0.16797 0.29071,-0.29829 0.5338,-0.45618 0.24309,-0.15789 0.49872,-0.34335 0.66915,-0.45613 0.17043,-0.11277 0.25565,-0.15287 0.31831,-0.13526 0.0627,0.0176 0.10276,0.0928 0.12028,0.2206 0.0175,0.12781 0.0125,0.30824 -0.002,0.40091 -0.015,0.0927 -0.0401,0.0977 -0.002,0.12528 0.0377,0.0276 0.13793,0.0777 0.1905,0.15292 0.0526,0.0752 0.0576,0.17547 0.035,0.26314 -0.0226,0.0877 -0.0727,0.16284 -0.0751,0.21048 -0.002,0.0477 0.0426,0.0677 0.0852,0.11287 0.0426,0.0452 0.0827,0.11531 0.0851,0.19548 0.002,0.0802 -0.0326,0.1704 -0.11883,0.27222 -0.0862,0.10181 -0.22364,0.21529 -0.29235,0.27204 -0.0687,0.0567 -0.0687,0.0567 -0.0738,0.0525 -0.005,-0.004 -0.0153,-0.0125 -0.0205,-0.0167 -0.005,-0.004 -0.005,-0.005 0.0493,0.0317 z"
         id="path1660" />
      <path
         style="fill:none;stroke:#000000;stroke-width:0.209424;stroke-linecap:butt;stroke-linejoin:miter;stroke-miterlimit:4;stroke-dasharray:none;stroke-opacity:1"
         d="m 204.58032,250.99039 c -0.15588,0.16872 -0.31176,0.33744 -0.38719,0.51456 -0.0754,0.17713 -0.0704,0.3626 -0.0654,0.49042 0.005,0.12783 0.01,0.198 0.015,0.26805"
         id="path1662" />
      <path
         style="fill:#c17a4b;fill-opacity:1;stroke:#000000;stroke-width:0.209424;stroke-linecap:butt;stroke-linejoin:miter;stroke-miterlimit:4;stroke-dasharray:none;stroke-opacity:1"
         d="m 203.25271,248.09918 c -0.0125,-0.0172 -0.0374,-0.0517 -0.19278,-0.1842 -0.15543,-0.13245 -0.44132,-0.36274 -0.62074,-0.5911 -0.17941,-0.22836 -0.25232,-0.45481 -0.28014,-0.61505 -0.0278,-0.16025 -0.0106,-0.25427 0.11228,-0.25234 0.12283,0.002 0.35118,0.0998 0.58816,0.21594 0.23698,0.11612 0.48259,0.25046 0.67063,0.36657 0.18804,0.11611 0.31852,0.21399 0.40772,0.35888 0.0892,0.1449 0.13714,0.33678 0.1803,0.50949 0.0432,0.17271 0.0815,0.32624 0.11029,0.44137 0.0288,0.11514 0.0479,0.1919 -0.047,0.18709 -0.095,-0.005 -0.30412,-0.0912 -0.47585,-0.17466 -0.17172,-0.0835 -0.30607,-0.16411 -0.37326,-0.20443 -0.0672,-0.0403 -0.0671,-0.0403 -0.0796,-0.0576 z"
         id="path1664" />
      <path
         style="fill:none;stroke:#000000;stroke-width:0.209424;stroke-linecap:butt;stroke-linejoin:miter;stroke-miterlimit:4;stroke-dasharray:none;stroke-opacity:1"
         d="m 204.89085,250.76082 c -0.1323,0.11152 -0.26461,0.22304 -0.39692,0.33457"
         id="path1666" />
      <path
         style="fill:#ff4f36;fill-opacity:1;stroke:#000000;stroke-width:0.0535461;stroke-linecap:butt;stroke-linejoin:miter;stroke-miterlimit:4;stroke-dasharray:none;stroke-opacity:1"
         d="m 200.15541,241.68273 0.43099,1.89381 1.87842,0.57346 -0.44385,-1.91485 -1.86556,-0.55242"
         id="path1668" />
      <path
         style="fill:#ff8e52;fill-opacity:1;stroke:#000000;stroke-width:0.0535461;stroke-linecap:butt;stroke-linejoin:miter;stroke-miterlimit:4;stroke-dasharray:none;stroke-opacity:1"
         d="m 202.02097,242.23515 1.42873,-1.33204 0.45905,1.91133 -1.44393,1.33556 -0.44385,-1.91485"
         id="path1670" />
      <path
         style="fill:#c17a4b;fill-opacity:1;stroke:#000000;stroke-width:0.209424;stroke-linecap:butt;stroke-linejoin:miter;stroke-miterlimit:4;stroke-dasharray:none;stroke-opacity:1"
         d="m 202.98286,245.24906 c 0.14058,-0.29407 0.42175,-0.88219 0.57532,-1.18156 0.15357,-0.29936 0.1794,-0.3099 0.24418,-0.27919 0.0648,0.0307 0.16842,0.1027 0.26866,0.24281 0.10024,0.14011 0.19712,0.34829 0.22539,0.60015 0.0283,0.25185 -0.0121,0.54735 -0.0864,0.78816 -0.0744,0.24081 -0.18281,0.42693 -0.25431,0.54062 -0.0715,0.11369 -0.10599,0.15489 -0.29211,0.0791 -0.18612,-0.0758 -0.52383,-0.26865 -0.68598,-0.37088 -0.16216,-0.10222 -0.14874,-0.11371 -0.14204,-0.11945 0.007,-0.006 0.007,-0.006 0.14732,-0.29978 z"
         id="path1672" />
      <path
         style="fill:none;stroke:#000000;stroke-width:0.209424;stroke-linecap:butt;stroke-linejoin:miter;stroke-miterlimit:4;stroke-dasharray:none;stroke-opacity:1"
         d="m 206.12765,252.44386 c 0.10532,0.14544 0.21059,0.29082 0.29328,0.44371 0.0827,0.15289 0.14283,0.31327 0.18318,0.47072 0.0403,0.15745 0.0609,0.31195 0.0815,0.46635"
         id="path1674" />
      <path
         style="fill:none;stroke:#000000;stroke-width:0.209424;stroke-linecap:butt;stroke-linejoin:miter;stroke-miterlimit:4;stroke-dasharray:none;stroke-opacity:1"
         d="m 216.12726,252.41379 c -0.1203,0.19048 -0.24061,0.38096 -0.31327,0.55141 -0.0727,0.17045 -0.0977,0.32082 -0.0826,0.48373 0.0151,0.16291 0.0702,0.33835 0.12531,0.51367"
         id="path1676" />
      <path
         style="fill:none;stroke:#000000;stroke-width:0.209424;stroke-linecap:butt;stroke-linejoin:miter;stroke-miterlimit:4;stroke-dasharray:none;stroke-opacity:1"
         d="m 207.93208,249.39135 c 0.0301,0.31087 0.0601,0.62164 0.18048,0.89731 0.12033,0.27568 0.33085,0.51626 0.70679,0.68664 0.37594,0.17039 0.91726,0.27063 1.21799,0.30568 0.30073,0.0351 0.36081,0.005 0.42094,-0.025"
         id="path1678" />
      <path
         style="fill:none;stroke:#000000;stroke-width:0.209424;stroke-linecap:butt;stroke-linejoin:miter;stroke-miterlimit:4;stroke-dasharray:none;stroke-opacity:1"
         d="m 209.85683,248.66957 c 0.27078,0.13037 0.54144,0.26069 0.73189,0.40106 0.19046,0.14038 0.30073,0.29075 0.34579,0.4812 0.0451,0.19045 0.025,0.42103 0.035,0.66163 0.01,0.2406 0.0501,0.49122 0.12535,0.67166 0.0752,0.18043 0.18549,0.29071 0.40104,0.3809 0.21554,0.0902 0.53632,0.16036 0.85208,0.16034 0.31577,-2e-5 0.62652,-0.0702 0.88212,-0.20552 0.2556,-0.13532 0.45608,-0.33581 0.63151,-0.64655 0.17543,-0.31075 0.32579,-0.73178 0.47618,-1.15287"
         id="path1680" />
      <path
         style="fill:none;stroke:#000000;stroke-width:0.209424;stroke-linecap:butt;stroke-linejoin:miter;stroke-miterlimit:4;stroke-dasharray:none;stroke-opacity:1"
         d="m 210.75906,252.03786 c -0.20044,0.0501 -0.40094,0.10023 -0.56638,0.21553 -0.16544,0.1153 -0.29576,0.29575 -0.42607,0.47617"
         id="path1682" />
      <path
         style="fill:none;stroke:#000000;stroke-width:0.209424;stroke-linecap:butt;stroke-linejoin:miter;stroke-miterlimit:4;stroke-dasharray:none;stroke-opacity:1"
         d="m 211.93194,251.88748 c 0.2808,0.18052 0.56148,0.36096 0.73689,0.54645 0.1754,0.18549 0.24557,0.37594 0.3157,0.5663"
         id="path1684" />
      <path
         style="fill:none;stroke:#000000;stroke-width:0.209424;stroke-linecap:butt;stroke-linejoin:miter;stroke-miterlimit:4;stroke-dasharray:none;stroke-opacity:1"
         d="m 211.33045,252.24838 c -0.0727,0.0952 -0.14536,0.19049 -0.19173,0.30204 -0.0464,0.11154 -0.0664,0.23936 -0.0551,0.35842 0.0113,0.11907 0.0539,0.22934 0.0915,0.29949 0.0376,0.0702 0.0702,0.10025 0.0551,0.1541 -0.0151,0.0538 -0.0777,0.13151 -0.12786,0.21168 -0.0501,0.0802 -0.0877,0.16292 -0.1128,0.25444 -0.0251,0.0915 -0.0376,0.19175 -0.007,0.30204 0.0301,0.11029 0.10278,0.23058 0.1754,0.35077"
         id="path1686" />
      <path
         style="fill:none;stroke:#000000;stroke-width:0.209424;stroke-linecap:butt;stroke-linejoin:miter;stroke-miterlimit:4;stroke-dasharray:none;stroke-opacity:1"
         d="m 210.24027,253.39119 c 0.16551,0.0502 0.33094,0.10028 0.46122,0.11404 0.13028,0.0137 0.22555,-0.009 0.27818,-0.0302 0.0526,-0.0214 0.0626,-0.0413 0.0726,-0.0613"
         id="path1688" />
      <path
         style="fill:none;stroke:#000000;stroke-width:0.209424;stroke-linecap:butt;stroke-linejoin:miter;stroke-miterlimit:4;stroke-dasharray:none;stroke-opacity:1"
         d="m 211.50339,253.42127 c 0.0978,0.0201 0.19558,0.0402 0.30834,0.0401 0.11275,-2e-5 0.24058,-0.0201 0.31694,-0.0439 0.0764,-0.0238 0.10149,-0.0514 0.12648,-0.079"
         id="path1690" />
      <path
         style="fill:none;stroke:#000000;stroke-width:0.209424;stroke-linecap:butt;stroke-linejoin:miter;stroke-miterlimit:4;stroke-dasharray:none;stroke-opacity:1"
         d="m 211.30039,248.91016 c 0.14038,-0.10528 0.2807,-0.21052 0.44363,-0.29323 0.16293,-0.0827 0.34837,-0.14286 0.52632,-0.17292 0.17796,-0.0301 0.34838,-0.0301 0.51871,-0.0301"
         id="path1692" />
      <path
         style="fill:none;stroke:#000000;stroke-width:0.209424;stroke-linecap:round;stroke-linejoin:miter;stroke-miterlimit:4;stroke-dasharray:none;stroke-opacity:1"
         d="m 212.60523,250.58631 c 0.0408,-0.0142 0.0816,-0.0283 0.12228,-0.0425"
         id="path1694" />
      <path
         style="fill:#000000;stroke:#000000;stroke-width:0.209424;stroke-linecap:butt;stroke-linejoin:miter;stroke-miterlimit:4;stroke-dasharray:none;stroke-opacity:1"
         d="m 208.7777,252.22827 c 0.23537,-0.38993 0.70612,-1.16983 0.94654,-1.56986 0.24042,-0.40003 0.2504,-0.41995 0.44975,-0.43486 0.19935,-0.0149 0.5879,-0.0247 0.78214,-0.0296 0.19425,-0.005 0.16815,-0.004 0.35486,0.003 0.18671,0.008 0.5602,0.023 0.75192,0.0405 0.19172,0.0175 0.2019,0.0379 0.43875,0.43835 0.23686,0.40044 0.78918,1.33053 0.97819,1.62155 0.18902,0.29101 0.19328,0.22239 0.19733,0.15698 0.004,-0.0654 0.008,-0.13101 0.0121,-0.19651 -0.38572,-0.68267 -0.77142,-1.36532 -0.96428,-1.70667 -0.19287,-0.34135 -0.19287,-0.34135 0.0782,-0.76483 0.2711,-0.42348 0.81337,-1.27057 1.08454,-1.69416 0.27117,-0.42359 0.20527,-0.42759 0.20527,-0.42759 0,0 -0.17496,-0.0105 -0.17496,-0.0105 0,0 -0.0783,-0.005 -0.31046,0.33852 -0.23216,0.34352 -0.69635,1.03036 -1.1606,1.7173 0,0 0,0 -0.0319,0.0444 -0.0319,0.0444 -0.0957,0.13295 -0.32345,0.17188 -0.22772,0.0389 -0.61936,0.0283 -0.81514,0.023 -0.19578,-0.005 -0.19578,-0.005 -0.38028,-0.003 -0.1845,0.002 -0.55359,0.007 -0.77005,-0.0344 -0.21646,-0.0418 -0.28024,-0.13038 -0.31217,-0.17473 -0.0319,-0.0444 -0.0319,-0.0444 -0.0319,-0.0444 -0.41906,-0.68871 -0.83806,-1.37732 -1.10758,-1.71581 -0.26951,-0.33849 -0.38957,-0.32665 -0.50955,-0.31482 -0.0316,-0.004 -0.0631,-0.007 0.19224,0.41452 0.2553,0.42177 0.79757,1.26885 1.06868,1.69233 0.2711,0.42349 0.2711,0.42349 0.0747,0.7644 -0.19641,0.34091 -0.58921,1.02269 -0.78561,1.36357 -0.19639,0.34088 -0.17889,0.6229 -0.17889,0.6229 0,0 0.006,0.0979 0.24165,-0.29202 z"
         id="path1696" />
      <path
         style="fill:#c17a4b;fill-opacity:1;stroke:#000000;stroke-width:0.209424;stroke-linecap:butt;stroke-linejoin:miter;stroke-miterlimit:4;stroke-dasharray:none;stroke-opacity:1"
         d="m 202.24685,246.47278 c -0.008,0 -0.0243,0 -0.19711,-0.0955 -0.17277,-0.0955 -0.50184,-0.28642 -0.70573,-0.46584 -0.20389,-0.17943 -0.28256,-0.34735 -0.29407,-0.54838 -0.0115,-0.20102 0.0442,-0.43512 0.0931,-0.58192 0.0489,-0.14679 0.0912,-0.2063 0.12957,-0.24851 0.0384,-0.0422 0.0729,-0.0671 0.17752,-0.0158 0.10462,0.0514 0.27923,0.17898 0.68891,0.44767 0.40967,0.26869 1.05438,0.67843 1.43189,0.92455 0.37751,0.24612 0.48787,0.32867 0.55598,0.41363 0.0681,0.0849 0.094,0.17219 0.0752,0.30122 -0.0187,0.12904 -0.0821,0.29981 -0.16124,0.42358 -0.0792,0.12377 -0.17412,0.20049 -0.47441,0.10022 -0.30028,-0.10027 -0.80589,-0.3776 -1.05873,-0.51628 -0.25283,-0.13868 -0.25279,-0.13871 -0.26094,-0.13871 z"
         id="path1698" />
      <rect
         style="fill:#ca3c29;fill-opacity:1;stroke:#000000;stroke-width:0.390088;stroke-linecap:round;stroke-linejoin:round;stroke-miterlimit:4;stroke-dasharray:none;paint-order:markers stroke fill;stop-color:#000000"
         id="rect1700"
         width="2.4022443"
         height="3.4572563"
         x="17.208048"
         y="325.16721"
         ry="0.32568356"
         transform="rotate(-38.377093)" />
      <rect
         style="fill:#ff4f36;fill-opacity:1;stroke:#000000;stroke-width:0.390088;stroke-linecap:round;stroke-linejoin:round;stroke-miterlimit:4;stroke-dasharray:none;paint-order:markers stroke fill;stop-color:#000000"
         id="rect1702"
         width="2.4022446"
         height="3.4572563"
         x="101.58301"
         y="309.27164"
         ry="0.32568356"
         transform="rotate(-23.377091)" />
      <rect
         style="fill:#ff6e43;fill-opacity:1;stroke:#000000;stroke-width:0.390088;stroke-linecap:round;stroke-linejoin:round;stroke-miterlimit:4;stroke-dasharray:none;paint-order:markers stroke fill;stop-color:#000000"
         id="rect1704"
         width="2.4022443"
         height="3.4572563"
         x="178.92657"
         y="272.06024"
         ry="0.32568353"
         transform="rotate(-8.3770935)" />
      <rect
         style="fill:#ff8547;fill-opacity:1;stroke:#000000;stroke-width:0.390088;stroke-linecap:round;stroke-linejoin:round;stroke-miterlimit:4;stroke-dasharray:none;paint-order:markers stroke fill;stop-color:#000000"
         id="rect1706"
         width="2.4022443"
         height="3.4572566"
         x="244.11754"
         y="216.03427"
         ry="0.32568356"
         transform="rotate(6.6229086)" />
      <rect
         style="fill:#ffa754;fill-opacity:1;stroke:#000000;stroke-width:0.390088;stroke-linecap:round;stroke-linejoin:round;stroke-miterlimit:4;stroke-dasharray:none;paint-order:markers stroke fill;stop-color:#000000"
         id="rect1708"
         width="2.4022446"
         height="3.4572563"
         x="292.60803"
         y="145.37299"
         ry="0.32568356"
         transform="rotate(21.622907)" />
      <path
         style="fill:#c17a4b;fill-opacity:1;stroke:#000000;stroke-width:0.209424;stroke-linecap:butt;stroke-linejoin:miter;stroke-miterlimit:4;stroke-dasharray:none;stroke-opacity:1"
         d="m 205.59592,257.78351 c 0,-0.0163 1e-5,-0.0488 -0.20436,-0.87583 -0.20436,-0.82704 -0.61284,-2.44737 -0.86174,-3.39946 -0.2489,-0.95208 -0.33768,-1.23378 -0.29842,-1.49771 0.0393,-0.26392 0.12302,-0.38712 0.25382,-0.62994 0.1308,-0.24283 0.13431,-0.28172 0.41806,0.76207 0.28375,1.0438 0.84543,3.21354 1.12406,4.32226 0.27862,1.10872 0.2748,1.15846 0.15585,1.20451 -0.11895,0.0461 -0.35306,0.0883 -0.47015,0.10937 -0.11708,0.0211 -0.11712,0.021 -0.11712,0.005 z"
         id="path1710" />
      <path
         style="fill:#ff6e43;fill-opacity:1;stroke:#000000;stroke-width:0.0547761px;stroke-linecap:butt;stroke-linejoin:miter;stroke-opacity:1"
         d="m 201.58999,240.34132 -1.43458,1.34141 1.86556,0.55242 1.42873,-1.33204 z"
         id="path1712" />
      <path
         style="fill:none;stroke:#000000;stroke-width:0.209424;stroke-linecap:butt;stroke-linejoin:miter;stroke-miterlimit:4;stroke-dasharray:none;stroke-opacity:1"
         d="m 200.15541,241.68273 0.43099,1.89381 1.87842,0.57346 1.44393,-1.33556 -0.45905,-1.91133 -1.85971,-0.56179 z"
         id="path1714" />
      <path
         style="fill:none;stroke:#000000;stroke-width:0.209424;stroke-linecap:butt;stroke-linejoin:miter;stroke-miterlimit:4;stroke-dasharray:none;stroke-opacity:1"
         d="m 200.15541,241.68273 1.86556,0.55242 1.42873,-1.33204 v 0"
         id="path1716" />
      <path
         style="fill:none;stroke:#000000;stroke-width:0.209424;stroke-linecap:butt;stroke-linejoin:miter;stroke-miterlimit:4;stroke-dasharray:none;stroke-opacity:1"
         d="m 202.02097,242.23515 0.44385,1.91485"
         id="path1718" />
      <path
         style="fill:#000000;stroke:#000000;stroke-width:0.0163522px;stroke-linecap:butt;stroke-linejoin:miter;stroke-opacity:1"
         d="m 201.05388,242.3958 c 0.0134,0.0233 0.0403,0.07 0.0493,0.11688 0.009,0.0469 1.4e-4,0.0943 -0.0236,0.12626 -0.0237,0.0319 -0.0624,0.0484 -0.1033,0.049 -0.0409,5.3e-4 -0.0841,-0.0149 -0.1254,-0.0525 -0.0413,-0.0376 -0.0806,-0.0973 -0.0967,-0.15022 -0.0161,-0.0529 -0.009,-0.0989 0.009,-0.12981 0.0178,-0.0309 0.0461,-0.0466 0.0748,-0.0549 0.0287,-0.008 0.058,-0.009 0.0918,0.004 0.0338,0.0132 0.0723,0.0406 0.0915,0.0543 0.0192,0.0137 0.0192,0.0138 0.0326,0.0371 z"
         id="path1720" />
      <path
         style="fill:#000000;stroke:#000000;stroke-width:0.0163522px;stroke-linecap:butt;stroke-linejoin:miter;stroke-opacity:1"
         d="m 201.62192,242.54436 c 0.0134,0.0233 0.0403,0.07 0.0493,0.1169 0.009,0.0469 1.4e-4,0.0943 -0.0236,0.12626 -0.0237,0.0319 -0.0624,0.0484 -0.10331,0.049 -0.0409,5.4e-4 -0.0841,-0.0149 -0.1254,-0.0525 -0.0413,-0.0376 -0.0806,-0.0973 -0.0967,-0.15023 -0.0161,-0.0529 -0.009,-0.0989 0.009,-0.12981 0.0178,-0.0309 0.046,-0.0465 0.0748,-0.0549 0.0287,-0.008 0.058,-0.009 0.0918,0.004 0.0338,0.0132 0.0723,0.0407 0.0915,0.0543 0.0192,0.0137 0.0192,0.0138 0.0326,0.0371 z"
         id="path1722" />
      <path
         style="fill:#000000;stroke:#000000;stroke-width:0.0163522px;stroke-linecap:butt;stroke-linejoin:miter;stroke-opacity:1"
         d="m 201.78573,243.25106 c 0.0134,0.0233 0.0403,0.07 0.0493,0.11688 0.009,0.0469 1.4e-4,0.0943 -0.0236,0.12625 -0.0237,0.0319 -0.0624,0.0484 -0.10331,0.049 -0.0409,5.4e-4 -0.0841,-0.0149 -0.12541,-0.0525 -0.0413,-0.0376 -0.0806,-0.0973 -0.0967,-0.15023 -0.0161,-0.0529 -0.009,-0.0989 0.009,-0.12982 0.0178,-0.0309 0.0461,-0.0466 0.0747,-0.0549 0.0286,-0.008 0.0579,-0.009 0.0918,0.004 0.0338,0.0132 0.0723,0.0407 0.0915,0.0543 0.0192,0.0137 0.0193,0.0138 0.0328,0.0371 z"
         id="path1724" />
      <path
         style="fill:#000000;stroke:#000000;stroke-width:0.0163522px;stroke-linecap:butt;stroke-linejoin:miter;stroke-opacity:1"
         d="m 201.21701,243.09461 c 0.0134,0.0233 0.0403,0.07 0.0493,0.11691 0.009,0.0469 1.4e-4,0.0943 -0.0236,0.12626 -0.0237,0.0319 -0.0623,0.0484 -0.10326,0.0489 -0.0409,5.6e-4 -0.0842,-0.0149 -0.12544,-0.0525 -0.0413,-0.0376 -0.0806,-0.0973 -0.0967,-0.15021 -0.0161,-0.0529 -0.009,-0.0989 0.009,-0.12983 0.0177,-0.0309 0.046,-0.0466 0.0747,-0.0549 0.0287,-0.008 0.058,-0.009 0.0918,0.004 0.0338,0.0132 0.0723,0.0406 0.0915,0.0543 0.0192,0.0137 0.0193,0.0138 0.0327,0.0371 z"
         id="path1726" />
      <path
         style="fill:#000000;stroke:#000000;stroke-width:0.0163522px;stroke-linecap:butt;stroke-linejoin:miter;stroke-opacity:1"
         d="m 202.59007,243.22473 c -0.002,0.0268 -0.005,0.0805 0.007,0.12666 0.0126,0.0461 0.0414,0.0848 0.0768,0.10312 0.0354,0.0183 0.0773,0.0163 0.11425,-0.001 0.037,-0.0174 0.069,-0.0504 0.0895,-0.10228 0.0205,-0.0519 0.0296,-0.12293 0.0207,-0.1775 -0.009,-0.0546 -0.0357,-0.0928 -0.0652,-0.11265 -0.0295,-0.0199 -0.0617,-0.0215 -0.0912,-0.0164 -0.0295,0.005 -0.0562,0.0172 -0.0807,0.044 -0.0245,0.0268 -0.047,0.0683 -0.0582,0.089 -0.0112,0.0207 -0.0113,0.0203 -0.0131,0.0471 z"
         id="path1728" />
      <path
         style="fill:#000000;stroke:#000000;stroke-width:0.0163522px;stroke-linecap:butt;stroke-linejoin:miter;stroke-opacity:1"
         d="m 202.79578,242.5405 c -0.002,0.0268 -0.005,0.0805 0.007,0.12666 0.0126,0.0461 0.0413,0.0847 0.0767,0.10308 0.0354,0.0183 0.0773,0.0163 0.11431,-0.001 0.037,-0.0174 0.069,-0.0503 0.0895,-0.10232 0.0205,-0.052 0.0295,-0.1229 0.0206,-0.17746 -0.009,-0.0546 -0.0357,-0.0927 -0.0652,-0.11262 -0.0296,-0.0199 -0.0617,-0.0216 -0.0912,-0.0164 -0.0295,0.005 -0.0561,0.0172 -0.0807,0.044 -0.0246,0.0268 -0.047,0.0683 -0.0582,0.0891 -0.0112,0.0207 -0.0112,0.0203 -0.013,0.0471 z"
         id="path1730" />
      <path
         style="fill:#000000;stroke:#000000;stroke-width:0.0163522px;stroke-linecap:butt;stroke-linejoin:miter;stroke-opacity:1"
         d="m 203.01377,241.85743 c -0.002,0.0268 -0.005,0.0805 0.007,0.12665 0.0126,0.0461 0.0414,0.0848 0.0767,0.10312 0.0353,0.0183 0.0773,0.0163 0.11432,-0.001 0.037,-0.0174 0.069,-0.0504 0.0895,-0.10234 0.0205,-0.0519 0.0295,-0.12284 0.0206,-0.17741 -0.009,-0.0546 -0.0357,-0.0928 -0.0652,-0.11264 -0.0295,-0.0199 -0.0617,-0.0215 -0.0912,-0.0164 -0.0295,0.005 -0.0562,0.0172 -0.0807,0.044 -0.0246,0.0268 -0.047,0.0683 -0.0582,0.089 -0.0112,0.0207 -0.0112,0.0203 -0.013,0.0471 z"
         id="path1732" />
      <path
         style="fill:#000000;stroke:#000000;stroke-width:0.0177258px;stroke-linecap:butt;stroke-linejoin:miter;stroke-opacity:1"
         d="m 201.72329,241.38861 c 0.0309,-0.005 0.0927,-0.0157 0.14708,-0.0362 0.0543,-0.0205 0.10113,-0.0509 0.12426,-0.087 0.0231,-0.0361 0.0225,-0.0779 0.003,-0.11398 -0.019,-0.0361 -0.0564,-0.0665 -0.10749,-0.0821 -0.0511,-0.0156 -0.11598,-0.0163 -0.17672,-0.005 -0.0607,0.0118 -0.11722,0.0359 -0.15126,0.0637 -0.034,0.0278 -0.0456,0.0593 -0.0462,0.0938 -6.3e-4,0.0345 0.01,0.0717 0.0407,0.10088 0.0312,0.0292 0.0833,0.0501 0.10932,0.0606 0.0261,0.0105 0.0259,0.0101 0.0568,0.005 z"
         id="path1734" />
      <path
         style="fill:#5f312c;fill-opacity:0.997602;stroke:#000000;stroke-width:0.209424;stroke-linecap:butt;stroke-linejoin:miter;stroke-miterlimit:4;stroke-dasharray:none;stroke-opacity:1"
         d="m 210.92617,249.39586 c -0.15137,-0.0221 -0.45408,-0.0662 -0.66848,-0.12928 -0.2144,-0.0631 -0.34054,-0.14505 -0.41938,-0.23335 -0.0788,-0.0883 -0.11035,-0.18284 -0.12297,-0.26799 -0.0126,-0.0852 -0.006,-0.16079 -0.12932,-0.21757 -0.12299,-0.0568 -0.37525,-0.0946 -0.57074,-0.16714 -0.19548,-0.0725 -0.33422,-0.17974 -0.43196,-0.33108 -0.0977,-0.15134 -0.1545,-0.34683 -0.14506,-0.48558 0.009,-0.13874 0.0851,-0.22072 0.0788,-0.26805 -0.006,-0.0473 -0.0946,-0.06 -0.21441,-0.10727 -0.11981,-0.0473 -0.27118,-0.12929 -0.41306,-0.31217 -0.14189,-0.18288 -0.27432,-0.46666 -0.30271,-0.73153 -0.0284,-0.26486 0.0473,-0.51078 0.14186,-0.67476 0.0946,-0.16397 0.2081,-0.24597 0.29637,-0.28383 0.0883,-0.0379 0.15139,-0.0316 0.16717,-0.0789 0.0158,-0.0473 -0.0157,-0.14816 0.006,-0.30268 0.0221,-0.15451 0.0977,-0.36259 0.22384,-0.48874 0.12611,-0.12614 0.30269,-0.17029 0.45719,-0.23649 0.1545,-0.0662 0.28696,-0.15452 0.38157,-0.23965 0.0946,-0.0851 0.15135,-0.1671 0.22388,-0.30268 0.0725,-0.13558 0.16082,-0.32479 0.30902,-0.45724 0.1482,-0.13246 0.35629,-0.20813 0.58017,-0.26174 0.22387,-0.0536 0.46352,-0.0851 0.58337,-0.10092 0.11985,-0.0158 0.19555,-0.0158 0.31539,0 0.11985,0.0158 0.35948,0.0473 0.58337,0.10091 0.22389,0.0536 0.43199,0.12929 0.58018,0.26174 0.14819,0.13245 0.23649,0.32165 0.30901,0.45723 0.0725,0.13558 0.12929,0.21757 0.22389,0.3027 0.0946,0.0851 0.22705,0.17343 0.38156,0.23964 0.15451,0.0662 0.33107,0.11035 0.45719,0.2365 0.12612,0.12614 0.2018,0.33425 0.22385,0.48879 0.022,0.15454 -0.009,0.25536 0.006,0.30265 0.0158,0.0473 0.0789,0.041 0.16715,0.0788 0.0883,0.0379 0.20182,0.11984 0.29641,0.28383 0.0946,0.164 0.17026,0.40992 0.14186,0.67477 -0.0284,0.26486 -0.16083,0.54865 -0.30271,0.73152 -0.14188,0.18287 -0.29324,0.26486 -0.41303,0.31216 -0.11979,0.0473 -0.20811,0.06 -0.21443,0.10727 -0.006,0.0473 0.0694,0.12933 0.0788,0.26807 0.009,0.13873 -0.0473,0.33424 -0.14507,0.48557 -0.0977,0.15134 -0.23648,0.25855 -0.43197,0.33108 -0.19549,0.0725 -0.44774,0.11036 -0.57074,0.16712 -0.12299,0.0568 -0.11669,0.13249 -0.12932,0.21765 -0.0126,0.0852 -0.0441,0.17967 -0.12296,0.26794 -0.0788,0.0883 -0.20497,0.17027 -0.41938,0.23334 -0.21442,0.0631 -0.51711,0.1072 -0.66848,0.12928 -0.15137,0.0221 -0.22703,0.0221 -0.3784,0 z"
         id="path1736" />
      <path
         style="fill:#ffdad4;fill-opacity:1;stroke:#000000;stroke-width:0.209424;stroke-linecap:butt;stroke-linejoin:miter;stroke-miterlimit:4;stroke-dasharray:none;stroke-opacity:1"
         d="m 211.20368,243.17142 c 0.12614,-0.003 0.37841,-0.009 0.54552,0.0505 0.16712,0.0599 0.24911,0.18608 0.32793,0.3122 0.0788,0.12612 0.15451,0.25226 0.25857,0.41623 0.10406,0.16398 0.23649,0.36577 0.35631,0.50765 0.11983,0.14188 0.22706,0.22388 0.34372,0.35317 0.11666,0.12929 0.24279,0.30587 0.32791,0.49191 0.0851,0.18604 0.12927,0.38153 0.0693,0.55178 -0.0599,0.17026 -0.22388,0.3153 -0.38783,0.36891 -0.16394,0.0536 -0.32792,0.0158 -0.48241,-0.0378 -0.1545,-0.0536 -0.29955,-0.12297 -0.54551,-0.2491 -0.24596,-0.12613 -0.5928,-0.30901 -0.76625,-0.40047 -0.17345,-0.0915 -0.0977,-0.0915 -0.2712,1e-5 -0.17345,0.0915 -0.52031,0.27434 -0.76626,0.40046 -0.24595,0.12613 -0.391,0.1955 -0.54551,0.2491 -0.15451,0.0536 -0.31846,0.0914 -0.48241,0.0378 -0.16395,-0.0536 -0.32792,-0.19865 -0.38784,-0.3689 -0.0599,-0.17025 -0.0158,-0.36574 0.0694,-0.55179 0.0851,-0.18604 0.21125,-0.36262 0.3279,-0.4919 0.11665,-0.12928 0.22389,-0.21128 0.34372,-0.35317 0.11983,-0.14189 0.25226,-0.34368 0.35633,-0.50767 0.10407,-0.16399 0.17973,-0.29009 0.25855,-0.41621 0.0788,-0.12611 0.16082,-0.25227 0.32793,-0.3122 0.16711,-0.0599 0.41938,-0.0536 0.54553,-0.0505 0.12615,0.003 0.0505,0.003 0.17659,0 z"
         id="path1738" />
      <path
         style="fill:#ffb4a9;fill-opacity:1;stroke:#000000;stroke-width:0.209424;stroke-linecap:round;stroke-linejoin:miter;stroke-miterlimit:4;stroke-dasharray:none;stroke-opacity:1"
         d="m 210.51872,244.27778 c 0.0521,-0.004 0.10452,-0.007 0.15678,-0.0107 0,0 0,0 0.0418,-0.003 0.0418,-0.003 0.12537,-0.009 0.19002,-0.0133 0.0647,-0.004 0.11038,-0.005 0.12374,0.0391 0.0134,0.0443 -0.006,0.13415 -0.0379,0.20507 -0.0323,0.0709 -0.078,0.12297 -0.13877,0.18369 -0.0607,0.0607 -0.13637,0.13006 -0.1742,0.16475 -0.0378,0.0347 -0.0378,0.0347 -0.0946,0.082 -0.0568,0.0473 -0.17028,0.1419 -0.2144,0.2838 -0.0441,0.14189 -0.0189,0.33109 0.0442,0.46666 0.0631,0.13556 0.16395,0.21754 0.28692,0.268 0.12297,0.0505 0.26801,0.0694 0.34055,0.0789 0.0725,0.009 0.0725,0.009 0.14508,0 0.0725,-0.009 0.21759,-0.0284 0.34059,-0.0789 0.12299,-0.0505 0.22383,-0.13242 0.2869,-0.26798 0.0631,-0.13557 0.0883,-0.32477 0.0442,-0.46667 -0.0441,-0.14191 -0.15763,-0.23648 -0.27119,-0.33112"
         id="path1740" />
      <path
         style="fill:#ffffff;stroke:#000000;stroke-width:0.209424;stroke-linecap:round;stroke-linejoin:miter;stroke-miterlimit:4;stroke-dasharray:none;stroke-opacity:1"
         d="m 211.41335,244.26242 c 0.14825,0.001 0.29645,0.003 0.44461,0.004"
         id="path1742" />
      <path
         style="fill:#ffdad4;fill-opacity:1;stroke:#000000;stroke-width:0.209424;stroke-linecap:butt;stroke-linejoin:miter;stroke-miterlimit:4;stroke-dasharray:none;stroke-opacity:1"
         d="m 211.8299,270.45454 c 0,0 1.03534,-0.002 1.03534,-0.002 m -1.03581,6.3e-4 c 0.0141,0.15717 0.0282,0.31434 0.0102,0.54846 -0.018,0.23411 -0.0681,0.54467 -0.0982,0.79527 -0.0301,0.2506 -0.0401,0.4411 -0.0451,0.61153 -0.005,0.17043 -0.005,0.3208 0.0803,0.4461 0.0853,0.1253 0.25567,0.22553 0.58649,0.35083 0.33082,0.12529 0.82202,0.27565 1.13279,0.36587 0.31077,0.0902 0.4411,0.12028 0.56133,0.0601 0.12024,-0.0602 0.2305,-0.21052 0.17542,-0.37089 -0.0551,-0.16037 -0.27562,-0.33078 -0.5112,-0.48117 -0.23558,-0.15038 -0.4862,-0.2807 -0.64664,-0.52127 -0.16043,-0.24058 -0.2306,-0.59142 -0.26068,-0.87213 -0.0301,-0.28071 -0.0201,-0.49096 -0.005,-0.63505 0.0152,-0.14409 0.0356,-0.22119 0.056,-0.2984 0,0 -1.0358,7.3e-4 -1.0358,7.3e-4 z"
         id="path1744" />
      <path
         style="fill:#ffdad4;fill-opacity:1;stroke:#000000;stroke-width:0.209424;stroke-linecap:butt;stroke-linejoin:miter;stroke-miterlimit:4;stroke-dasharray:none;stroke-opacity:1"
         d="m 210.51436,271.95191 c 0.005,0.0953 0.0151,0.28576 0.0201,0.45619 0.005,0.17042 0.005,0.32079 -0.0802,0.44609 -0.0853,0.1253 -0.25568,0.22554 -0.5865,0.35084 -0.33082,0.1253 -0.82202,0.27566 -1.13279,0.36588 -0.31076,0.0902 -0.44109,0.12028 -0.56132,0.0601 -0.12023,-0.0602 -0.23051,-0.21053 -0.17542,-0.3709 0.0551,-0.16037 0.27562,-0.33078 0.5112,-0.48117 0.23558,-0.15038 0.48619,-0.28069 0.64663,-0.52127 0.16044,-0.24058 0.23061,-0.59145 0.2505,-0.91081 0.0199,-0.31936 -0.0106,-0.60731 -0.041,-0.89518 0,0 1.03665,-0.0265 1.03665,-0.0265 -0.0144,0.16639 -0.0287,0.33285 -0.0109,0.57143 0.0179,0.23859 0.068,0.54939 0.0931,0.70471 0.025,0.15532 0.025,0.15532 0.03,0.25057 z m -1.14896,-1.50018 c 0,0 1.03665,-0.0265 1.03665,-0.0265"
         id="path1746" />
    </g>
    <path
       id="path1610"
       style="fill:#ffffff;stroke:#000000;stroke-width:0.551931;stroke-miterlimit:4;stroke-dasharray:none"
       d="m 149.73065,80.152852 c 2.68857,0.02225 5.38077,-0.03032 8.06628,0.111811 0.70383,0.09679 1.20713,0.743772 1.44466,1.372283 0.35415,0.959107 -0.31583,2.032362 -1.1962,2.424789 -0.66097,0.208048 -1.34177,0.119322 -2.02835,0.161599 -0.66581,0.05146 -1.40419,-0.0993 -2.00269,0.265344 -0.40711,0.29455 -0.37087,0.868072 -0.65087,1.255548 -0.55867,1.00742 -1.52212,1.812632 -2.63142,2.127097 -11.64204,0.05618 -23.28416,0.07871 -34.92631,0.06258 -1.84201,-0.0056 -3.68693,2.5e-4 -5.52615,-0.09568 -0.86098,-0.191916 -1.51066,-1.038989 -1.57722,-1.901943 4.7e-4,-0.77548 0.48613,-1.583613 1.21689,-1.866397 0.95838,-0.239477 1.93445,-0.141572 2.93233,-0.203597 1.38305,-0.02809 2.7661,-0.05535 4.14912,-0.08372 0.42544,-1.124572 0.86868,-2.405431 1.99726,-3.010661 0.59983,-0.356157 1.27423,-0.656409 1.9878,-0.575665 9.58159,-0.04061 19.1632,-0.05646 28.74484,-0.04311 z" />
    <path
       id="path1612"
       style="fill:#ffffff;stroke:#000000;stroke-width:0.551931;stroke-miterlimit:4;stroke-dasharray:none"
       d="m 138.50151,66.86726 c 2.3844,0.01947 4.77203,-0.02781 7.15371,0.09929 0.6242,0.08594 1.07055,0.659635 1.28119,1.217026 0.31413,0.850633 -0.28006,1.802452 -1.06085,2.150488 -0.58615,0.184406 -1.18996,0.105971 -1.79887,0.143241 -0.59046,0.04561 -1.24531,-0.08817 -1.77611,0.235306 -0.36105,0.261173 -0.3289,0.769861 -0.57725,1.113502 -0.49545,0.893466 -1.34989,1.607561 -2.3337,1.886451 -10.32494,0.04979 -20.64996,0.06981 -30.97501,0.05563 -1.6336,-0.0056 -3.26981,2.22e-4 -4.90095,-0.08511 -0.76358,-0.170221 -1.33974,-0.921419 -1.39876,-1.686747 4.1e-4,-0.687754 0.43111,-1.404435 1.0792,-1.655233 0.84994,-0.212499 1.71559,-0.125441 2.6006,-0.180513 1.22657,-0.02503 2.45316,-0.04895 3.6797,-0.07454 0.3773,-0.997323 0.77042,-2.133299 1.7713,-2.670052 0.53197,-0.315882 1.13008,-0.582117 1.7629,-0.510524 8.4976,-0.03616 16.99525,-0.05006 25.4929,-0.03838 z" />
    <rect
       style="fill:#e0f4ff;fill-opacity:1;stroke:#000000;stroke-width:1.06707;stroke-linecap:round;stroke-linejoin:round;stroke-miterlimit:4;stroke-dasharray:none;paint-order:markers stroke fill;stop-color:#000000"
       id="rect1614"
       width="35.975426"
       height="30.382607"
       x="113.09129"
       y="68.990196"
       ry="0.98252159" />
    <g
       aria-label="Flying Man Games"
       transform="matrix(0.95109948,0,0,0.95109948,-239.16251,-36.227775)"
       id="text1618"
       style="font-size:12.7px;line-height:0.75;font-family:Rookie;-inkscape-font-specification:Rookie;word-spacing:0px;white-space:pre;inline-size:37.8552;stroke-width:0.264583">
      <path
         d="m 372.4181,112.20653 h 6.2738 l 0.2159,1.778 -0.2794,0.0254 q -0.7493,-1.1557 -2.5019,-1.1557 -0.6731,0 -0.9017,0.1143 -0.3556,0.1778 -0.3556,0.7874 v 1.9177 h 0.127 q 1.016,0 1.4605,-0.0762 0.9398,-0.1524 1.143,-0.7112 l 0.0381,-0.1143 h 0.254 v 2.5654 h -0.2667 q -0.5207,-0.9017 -1.7272,-0.9017 h -1.0414 l 0.0381,2.9083 q 0,0.8255 0.1397,1.2319 0.1397,0.3937 0.4064,0.3429 v 0.2413 h -3.0099 v -0.2159 q 0.508,-0.1905 0.508,-0.9271 l 0.0127,-6.1087 q 0,-1.3335 -0.5334,-1.4478 z"
         id="path973" />
      <path
         d="m 378.80618,113.29873 q 1.4224,-0.3048 1.8288,-0.9398 h 0.3048 v 7.0866 l -0.0127,0.2794 -0.0127,0.254 q 0,0.889 0.4191,1.0033 v 0.1778 h -2.3241 v -0.1778 q 0.381,-0.0762 0.381,-0.9144 v -4.5974 l 0.0127,-0.4064 0.0127,-0.3937 q 0,-1.016 -0.6096,-1.1557 z"
         id="path975" />
      <path
         d="m 381.35888,114.91163 h 2.4638 v 0.2159 q -0.3048,0.0635 -0.3048,0.3683 0,0.2667 0.5207,1.7399 l 0.6985,1.905 0.5334,-1.651 q 0.3175,-1.0922 0.3175,-1.6764 0,-0.4953 -0.3683,-0.6858 l -0.0381,-0.0127 -0.0254,-0.2032 h 2.0447 v 0.1905 q -0.5207,0.1905 -1.0795,1.905 l -1.4478,4.6101 q -0.6858,2.1717 -2.0066,2.1717 -0.4826,0 -0.8382,-0.3048 -0.3429,-0.2921 -0.3429,-0.7747 0,-0.3302 0.2159,-0.5842 0.2159,-0.2413 0.5461,-0.2413 0.4572,0 0.6096,0.3302 l 0.1905,0.6985 0.1016,0.0508 0.0889,-0.0127 q 0.3937,-0.3048 0.7366,-1.4605 l -1.7907,-5.0546 -0.2921,-0.8001 q -0.2667,-0.5715 -0.5334,-0.508 z"
         id="path977" />
      <path
         d="m 388.57246,112.34623 q 0.381,0 0.6604,0.2794 0.2794,0.2794 0.2794,0.6477 0,0.3683 -0.2921,0.6604 -0.2667,0.2921 -0.635,0.2921 -0.381,0 -0.6731,-0.2794 -0.2794,-0.3048 -0.2794,-0.6858 0,-0.381 0.2667,-0.6477 0.2667,-0.2667 0.6731,-0.2667 z m -1.3843,3.5179 0.0762,0.0127 q 0.3302,0 0.9271,-0.3556 0.4826,-0.2921 0.8128,-0.6096 h 0.3048 v 5.3594 q 0,0.2159 0.0762,0.4445 0.1143,0.2667 0.3175,0.254 v 0.1905 h -2.3495 v -0.1778 q 0.2921,-0.1905 0.3429,-0.3175 0.0508,-0.127 0.0508,-0.2794 0.0127,-0.1524 0.0127,-0.2413 v -3.2766 q 0,-0.4191 -0.1016,-0.5207 l -0.4699,-0.2667 z"
         id="path979" />
      <path
         d="m 390.05835,115.85143 0.7747,-0.254 q 0.2032,-0.0762 0.5461,-0.3429 0.3429,-0.2667 0.5207,-0.3556 h 0.2413 v 1.1684 q 1.2573,-1.2573 2.1971,-1.2573 0.3937,0 0.6858,0.3175 0.3048,0.3048 0.3048,0.6985 v 4.4958 q 0,0.5715 0.3429,0.635 v 0.2032 h -2.3368 v -0.2032 l 0.0635,-0.0127 q 0.3556,-0.1524 0.3556,-0.6096 v -3.4417 q 0,-0.8128 -0.4953,-0.8128 -0.2921,0 -0.5842,0.1397 l -0.5461,0.2667 v 3.7973 q 0,0.3048 0.0762,0.4191 l 0.3048,0.2667 v 0.1905 h -2.3114 v -0.2032 l 0.1397,-0.0508 q 0.254,-0.2286 0.254,-0.6096 v -3.302 q 0,-0.7366 -0.5334,-0.9271 z"
         id="path981" />
      <path
         d="m 396.01464,120.25833 q 0,-0.6223 1.6383,-1.3462 -0.5334,-0.1143 -0.9525,-0.7493 -0.4064,-0.6477 -0.4064,-1.2065 0,-0.9652 0.8001,-1.6129 0.7366,-0.5969 1.7399,-0.5969 0.5461,0 0.9271,0.1651 l 0.8128,0.4318 0.5461,-0.4191 q 0.3556,-0.2159 0.635,-0.2159 0.2921,0 0.508,0.1905 0.2286,0.1905 0.2286,0.508 0,0.2159 -0.1905,0.4064 -0.2032,0.1651 -0.4318,0.1651 -0.1016,0 -0.2921,-0.1397 -0.1905,-0.1397 -0.1905,-0.2286 -0.0635,-0.0381 -0.1778,-0.0635 l -0.1524,0.0889 -0.1524,0.0762 q 0.4318,0.8001 0.4318,1.2827 0,0.9906 -0.762,1.6002 -0.7112,0.5715 -1.7272,0.5715 -0.4445,0 -0.7112,-0.0889 -0.254,0.1778 -0.3937,0.381 l -0.0127,0.1143 q 0.0508,0.2286 1.1303,0.4699 1.397,0.2921 1.905,0.5461 1.0033,0.4826 1.0033,1.3716 0,0.9017 -1.0287,1.3589 -0.3556,0.1397 -0.8382,0.2286 -0.4699,0.0889 -0.9779,0.0889 -0.9398,0 -1.8923,-0.2667 -1.2954,-0.381 -1.2954,-1.0795 0,-0.4064 0.5461,-0.7874 0.3683,-0.254 0.9271,-0.4318 l -0.7366,-0.2667 q -0.4572,-0.2286 -0.4572,-0.5461 z m 2.8067,-1.5494 q 0.9398,0 0.9398,-1.7653 0,-0.762 -0.127,-1.1303 -0.2159,-0.6096 -0.8255,-0.6096 -0.9144,0 -0.9144,1.9304 0,1.5748 0.9271,1.5748 z m -1.1684,2.5273 q -0.2286,0.0889 -0.4064,0.3683 -0.1778,0.2794 -0.1778,0.5334 0,1.0287 1.905,1.0287 0.4445,0 0.8636,-0.1524 0.5334,-0.1905 0.5334,-0.5842 0,-0.3937 -1.1684,-0.7874 z"
         id="path983" />
      <path
         d="m 371.7323,130.46913 q 0.5715,-0.127 0.8128,-1.0795 0.0762,-0.3175 0.1905,-1.4732 0.0635,-0.6223 0.0889,-0.9398 0.0381,-0.3302 0.2032,-1.7272 0.1651,-1.4097 0.1651,-2.3241 0,-0.8255 -0.508,-0.9398 v -0.254 h 2.6797 l 1.6637,5.7277 1.5875,-5.7404 h 2.7305 v 0.254 q -0.4572,0.1143 -0.4572,0.7874 l 0.0127,0.3048 0.5461,5.7658 0.1143,0.9398 q 0.1397,0.5334 0.5461,0.6858 v 0.2286 h -2.8956 v -0.2032 q 0.2667,-0.1524 0.3556,-0.2921 0.0889,-0.1524 0.0889,-0.4572 0,-0.4572 -0.127,-1.6764 l -0.4699,-4.6863 -1.9431,7.3152 H 376.19 l -2.159,-7.1628 -0.4572,4.699 -0.0508,0.9652 q 0,1.0922 0.7239,1.2827 v 0.2159 h -2.5146 z"
         id="path985" />
      <path
         d="m 385.35939,126.53213 0.0127,-0.2667 v -0.2667 q 0,-1.2827 -0.6985,-1.2827 -0.4064,0 -0.5715,0.4699 l -0.2413,0.8763 q -0.1905,0.4699 -0.6858,0.4699 -0.3302,0 -0.5461,-0.2032 -0.2159,-0.2159 -0.2159,-0.5461 0,-0.7239 0.8382,-1.1811 0.6858,-0.381 1.4859,-0.381 2.1717,0 2.1717,1.5875 l -0.0127,1.1303 v 1.1303 l 0.0127,1.0922 q 0,0.7112 0.3937,0.7112 0.127,0 0.3429,-0.127 l 0.1524,0.2921 -0.2794,0.254 q -0.6985,0.5461 -1.2573,0.5461 -0.4318,0 -0.6731,-0.2667 -0.2286,-0.2794 -0.2286,-0.7366 -0.2794,0.3302 -0.9144,0.6604 -0.6223,0.3302 -1.016,0.3302 -0.6477,0 -1.0287,-0.4191 -0.381,-0.4191 -0.381,-1.0795 0,-0.9398 1.0287,-1.6637 0.3302,-0.2286 1.8669,-0.9144 z m 0,0.4572 q -1.0033,0.5461 -1.1938,0.7112 -0.6223,0.508 -0.6223,1.1684 0,0.3937 0.2286,0.6477 0.2413,0.254 0.6223,0.254 0.4953,0 0.9652,-0.4699 z"
         id="path987" />
      <path
         d="m 387.68347,125.37643 0.7747,-0.254 q 0.2032,-0.0762 0.5461,-0.3429 0.3429,-0.2667 0.5207,-0.3556 h 0.2413 v 1.1684 q 1.2573,-1.2573 2.1971,-1.2573 0.3937,0 0.6858,0.3175 0.3048,0.3048 0.3048,0.6985 v 4.4958 q 0,0.5715 0.3429,0.635 v 0.2032 h -2.3368 v -0.2032 l 0.0635,-0.0127 q 0.3556,-0.1524 0.3556,-0.6096 v -3.4417 q 0,-0.8128 -0.4953,-0.8128 -0.2921,0 -0.5842,0.1397 l -0.5461,0.2667 v 3.7973 q 0,0.3048 0.0762,0.4191 l 0.3048,0.2667 v 0.1905 h -2.3114 v -0.2032 l 0.1397,-0.0508 q 0.254,-0.2286 0.254,-0.6096 v -3.302 q 0,-0.7366 -0.5334,-0.9271 z"
         id="path989" />
      <path
         d="m 379.2507,134.03783 -0.2413,-0.0762 -0.1397,-0.4191 q -0.762,-1.8542 -2.2733,-1.8542 -1.3716,0 -1.7653,1.5875 -0.0762,0.3683 -0.127,1.0414 -0.0508,0.6731 -0.0508,1.651 0,1.5875 0.2667,2.4511 0.4572,1.4097 1.7272,1.4097 1.397,0 1.397,-1.4224 v -1.9177 q 0,-0.762 -0.2286,-1.0541 l -0.2794,-0.1524 v -0.2667 h 2.8321 v 0.2286 l -0.0635,0.0127 q -0.3556,0.1524 -0.3556,0.5588 v 2.9337 q 0,0.5969 0.4699,0.762 l 0.0127,0.2159 q -2.1971,0.7239 -3.5941,0.7239 -1.9431,0 -3.2131,-1.2573 -1.27,-1.2573 -1.27,-3.2258 0,-2.0193 1.1176,-3.4163 1.2065,-1.5113 3.1877,-1.5113 1.6129,0 3.2893,1.1303 z"
         id="path991" />
      <path
         d="m 384.05128,136.05713 0.0127,-0.2667 v -0.2667 q 0,-1.2827 -0.6985,-1.2827 -0.4064,0 -0.5715,0.4699 l -0.2413,0.8763 q -0.1905,0.4699 -0.6858,0.4699 -0.3302,0 -0.5461,-0.2032 -0.2159,-0.2159 -0.2159,-0.5461 0,-0.7239 0.8382,-1.1811 0.6858,-0.381 1.4859,-0.381 2.1717,0 2.1717,1.5875 l -0.0127,1.1303 v 1.1303 l 0.0127,1.0922 q 0,0.7112 0.3937,0.7112 0.127,0 0.3429,-0.127 l 0.1524,0.2921 -0.2794,0.254 q -0.6985,0.5461 -1.2573,0.5461 -0.4318,0 -0.6731,-0.2667 -0.2286,-0.2794 -0.2286,-0.7366 -0.2794,0.3302 -0.9144,0.6604 -0.6223,0.3302 -1.016,0.3302 -0.6477,0 -1.0287,-0.4191 -0.381,-0.4191 -0.381,-1.0795 0,-0.9398 1.0287,-1.6637 0.3302,-0.2286 1.8669,-0.9144 z m 0,0.4572 q -1.0033,0.5461 -1.1938,0.7112 -0.6223,0.508 -0.6223,1.1684 0,0.3937 0.2286,0.6477 0.2413,0.254 0.6223,0.254 0.4953,0 0.9652,-0.4699 z"
         id="path993" />
      <path
         d="m 388.08986,133.96163 h 0.2794 v 1.1684 l 1.2573,-0.7874 q 0.8636,-0.4699 1.3208,-0.4699 0.5842,0 0.7747,0.3683 0.0762,0.1524 0.1524,0.9017 l 1.1176,-0.7874 q 0.7112,-0.4699 1.2319,-0.4699 0.4572,0 0.7366,0.3429 0.2794,0.3302 0.2794,0.8001 v 3.9624 q 0,0.7874 0.1905,0.9398 l 0.1778,0.0889 v 0.1905 h -2.3495 v -0.1905 q 0.4318,-0.1397 0.4318,-0.6985 v -3.4163 q 0,-0.8255 -0.5842,-0.8255 -0.2667,0 -0.6096,0.1524 l -0.5715,0.2794 -0.0508,0.0381 v 3.8227 q 0,0.3048 0.0381,0.381 0.0381,0.0635 0.3175,0.2667 v 0.1905 h -2.4003 v -0.2032 q 0.3683,-0.1778 0.3683,-0.7874 v -3.2766 q 0,-0.8001 -0.508,-0.8001 -0.2667,0 -0.5715,0.0889 -0.3048,0.0889 -0.762,0.3175 v 3.4036 q 0,1.0668 0.4445,1.0668 v 0.1905 h -2.3876 v -0.1905 q 0.3937,-0.127 0.3937,-0.8509 v -3.3528 q 0,-0.1905 -0.1397,-0.4064 -0.1397,-0.2286 -0.3302,-0.2159 l -0.0254,-0.2159 0.0762,-0.0127 q 0.381,-0.0508 0.889,-0.3429 0.508,-0.2921 0.762,-0.5969 z"
         id="path995" />
      <path
         d="m 397.71645,136.83183 v 0.0889 q 0,0.9398 0.5842,1.5875 0.5842,0.6477 1.524,0.6477 0.9144,0 1.5367,-0.6985 l 0.2286,0.1651 q -1.016,1.7399 -2.7051,1.7399 -1.2827,0 -2.0574,-1.0541 -0.6985,-0.9525 -0.6985,-2.2606 0,-1.2827 0.7112,-2.2352 0.7747,-1.0414 2.0193,-1.0414 1.2319,0 1.9431,0.9398 0.635,0.8509 0.635,2.1209 z m 1.3081,-0.4445 q 0.508,0 0.6985,-0.1016 0.2032,-0.1016 0.2032,-0.5969 0,-1.397 -1.143,-1.397 -0.6985,0 -0.9525,0.762 -0.1397,0.4445 -0.1397,1.3335 z"
         id="path997" />
      <path
         d="m 402.32654,138.01293 0.2921,0.127 q 0.1397,0.6604 0.6477,1.1684 0.5207,0.508 1.143,0.508 0.4064,0 0.6604,-0.2159 0.2667,-0.2286 0.2667,-0.6223 0,-0.5588 -0.8636,-1.0033 l -1.6256,-0.7747 q -0.8636,-0.5334 -0.8636,-1.3843 0,-0.9271 0.7112,-1.5113 0.6477,-0.5334 1.6129,-0.5334 0.5334,0 1.0795,0.2159 l 0.9906,0.4572 -0.3937,1.3716 -0.3048,-0.0635 q -0.1143,-0.5842 -0.5461,-0.9906 -0.4699,-0.4445 -1.0287,-0.4445 -0.3175,0 -0.5715,0.2032 -0.2413,0.1905 -0.2413,0.4953 0,0.4572 0.9144,0.9144 1.5748,0.762 1.7018,0.8636 0.9144,0.6096 0.9144,1.5113 0,0.9398 -0.762,1.5367 -0.6985,0.5461 -1.6764,0.5461 -1.2827,0 -2.5654,-0.7239 z"
         id="path999" />
    </g>
    <path
       id="path1942"
       style="fill:#ffffff;stroke:#000000;stroke-width:0.551931;stroke-miterlimit:4;stroke-dasharray:none"
       d="m 116.8548,98.544938 c -2.58978,0.02225 -5.18304,-0.02921 -7.76987,0.10764 -0.67793,0.09318 -1.16273,0.716458 -1.3915,1.321856 -0.34122,0.923866 0.30417,1.957686 1.15219,2.335696 0.63666,0.20026 1.29246,0.11488 1.95382,0.15548 0.6413,0.0498 1.35256,-0.0957 1.92906,0.25561 0.39215,0.28373 0.35724,0.83617 0.62698,1.20941 0.53812,0.97043 1.46615,1.74602 2.53468,2.04894 11.21421,0.054 22.42853,0.0757 33.64282,0.0603 1.7743,-0.006 3.55144,2.3e-4 5.32305,-0.0921 0.82935,-0.18496 1.45517,-1.00077 1.51925,-1.83205 -4.4e-4,-0.74697 -0.46825,-1.52537 -1.17216,-1.79778 -0.92314,-0.23085 -1.86334,-0.13628 -2.82456,-0.19608 -1.33223,-0.0278 -2.66446,-0.0534 -3.99664,-0.0807 -0.40981,-1.08322 -0.83678,-2.317015 -1.92383,-2.900022 -0.5778,-0.343057 -1.22745,-0.632266 -1.91479,-0.554498 -9.22946,-0.03922 -18.45898,-0.05424 -27.6885,-0.04172 z" />
  </g>
</svg>
