<?xml version="1.0" encoding="UTF-8" standalone="no"?>
<!-- Created with Inkscape (http://www.inkscape.org/) -->

<svg
   width="2560"
   height="150"
   viewBox="0 0 677.3333 39.687501"
   version="1.1"
   id="svg1655"
   sodipodi:docname="Hills3.svg"
   inkscape:version="1.1 (c68e22c387, 2021-05-23)"
   xmlns:inkscape="http://www.inkscape.org/namespaces/inkscape"
   xmlns:sodipodi="http://sodipodi.sourceforge.net/DTD/sodipodi-0.dtd"
   xmlns="http://www.w3.org/2000/svg"
   xmlns:svg="http://www.w3.org/2000/svg">
  <sodipodi:namedview
     id="namedview18"
     pagecolor="#ffffff"
     bordercolor="#666666"
     borderopacity="1.0"
     inkscape:pageshadow="2"
     inkscape:pageopacity="0.0"
     inkscape:pagecheckerboard="0"
     inkscape:document-units="mm"
     showgrid="false"
     height="90mm"
     inkscape:zoom="1"
     inkscape:cx="2031"
     inkscape:cy="-69.5"
     inkscape:window-width="1920"
     inkscape:window-height="1017"
     inkscape:window-x="-8"
     inkscape:window-y="-8"
     inkscape:window-maximized="1"
     inkscape:current-layer="g3823"
     units="px" />
  <defs
     id="defs1652">
    <mask
       maskUnits="userSpaceOnUse"
       id="mask3057">
      <rect
         style="fill:#a8e5ff;fill-opacity:0.997602;stroke:none;stroke-width:0.601028;stroke-linecap:round;stroke-linejoin:round;stroke-miterlimit:4;stroke-dasharray:none;paint-order:markers stroke fill;stop-color:#000000"
         id="rect3059"
         width="59.12896"
         height="25.631119"
         x="265.392"
         y="169.08379"
         ry="0" />
    </mask>
    <clipPath
       clipPathUnits="userSpaceOnUse"
       id="clipPath3063">
      <rect
         style="fill:#a8e5ff;fill-opacity:0.997602;stroke:none;stroke-width:2.21938;stroke-linecap:round;stroke-linejoin:round;stroke-miterlimit:4;stroke-dasharray:none;paint-order:markers stroke fill;stop-color:#000000"
         id="rect3065"
         width="216.95833"
         height="95.25"
         x="352.01245"
         y="136.82024"
         ry="0" />
    </clipPath>
    <clipPath
       clipPathUnits="userSpaceOnUse"
       id="clipPath3071">
      <rect
         style="fill:#a8e5ff;fill-opacity:0.997602;stroke:none;stroke-width:2.21938;stroke-linecap:round;stroke-linejoin:round;stroke-miterlimit:4;stroke-dasharray:none;paint-order:markers stroke fill;stop-color:#000000"
         id="rect3073"
         width="216.95833"
         height="95.25"
         x="352.01245"
         y="136.82024"
         ry="0" />
    </clipPath>
    <mask
       maskUnits="userSpaceOnUse"
       id="mask3057-3">
      <rect
         style="fill:#a8e5ff;fill-opacity:0.997602;stroke:none;stroke-width:0.601028;stroke-linecap:round;stroke-linejoin:round;stroke-miterlimit:4;stroke-dasharray:none;paint-order:markers stroke fill;stop-color:#000000"
         id="rect3059-3"
         width="59.12896"
         height="25.631119"
         x="265.392"
         y="169.08379"
         ry="0" />
    </mask>
  </defs>
  <g
     id="g3823"
     transform="matrix(0.92192416,0,0,0.92192416,27.090785,14.885681)">
    <path
       id="path1922"
       style="fill:#d1d8b1;fill-opacity:1;stroke:#000000;stroke-width:0.522757px;stroke-linecap:butt;stroke-linejoin:miter;stroke-opacity:1"
       d="m 130.46997,-47.961546 c -16.02868,-0.0025 -32.029915,0.136524 -42.662318,0.413981 -21.264912,0.554921 -50.696144,-1.877099 -50.775025,8.483261 -0.05989,7.866342 -2.047974,15.237103 -2.867738,25.722564 L 8.0014291,-39.064304 c -0.078886,10.36036 2.2327299,21.644054 2.5417099,31.5795524 2.514353,6.078868 9.866906,7.9024898 10.973754,8.7887515 0.847274,0.678416 2.191856,5.4785945 2.968185,5.5739805 0.776364,0.0953 7.067944,1.337087 7.877221,1.562654 0.364179,0.101516 4.516203,1.9518096 8.922418,2.4534286 5.385266,0.613079 11.210948,-0.119711 11.717612,-0.196044 0.921213,-0.138696 1.816078,-0.607368 2.546313,-0.7375496 0.730215,-0.13019 1.295979,0.07652 2.282919,0.04377 8.876868,-5.8460288 15.23517,7.385214 21.007916,6.270011 0.730218,-0.13019 1.295974,0.07651 2.282921,0.04377 0.986962,-0.0344 2.395241,-0.311578 3.342627,-0.173207 0.947411,0.138542 1.434185,0.693341 2.190844,0.919322 0.756667,0.225571 1.782827,0.121837 2.657921,-0.103741 0.875116,-0.225532 1.598951,-0.57327 2.454235,-0.842236 0.855288,-0.26774 1.842366,-0.459238 2.579236,-0.242676 0.736873,0.216602 1.223855,0.841741 1.888391,1.084912 0.664536,0.243173 1.506614,0.103705 2.440843,0.329281 0.934211,0.225406 1.960565,0.815434 2.763385,0.893623 0.80283,0.07832 1.38173,-0.355231 1.97377,-0.468223 0.59204,-0.112989 1.19716,0.09556 2.02621,0.103741 0.82906,0.0088 1.88163,-0.18207 3.03963,-0.468228 1.15798,-0.2862 2.42161,-0.669211 3.37555,-0.693773 0.95396,-0.0262 1.59847,0.303429 2.40123,0.381621 0.80274,0.07818 1.76311,-0.09552 3.15792,-0.147507 5.22517,-0.736006 6.63765,0.954547 9.04685,2.479712 0.58561,0.251645 1.37506,0.598399 2.28962,0.910755 0.91453,0.312358 1.95408,0.590793 2.88839,0.60717 0.93433,0.01748 1.76337,-0.225553 2.42131,-0.44253 0.65798,-0.216971 1.14498,-0.40706 1.60547,-0.329279 0.4605,0.07794 0.89476,0.424071 1.41461,0.415881 0.51989,-0.0083 1.1249,-0.371921 2.27624,-0.458706 1.15134,-0.08679 2.84888,0.10333 3.82922,0.285504 0.98033,0.182095 1.24342,0.355996 1.72377,0.798458 0.48033,0.44246 1.17775,1.153504 1.70424,1.353285 0.52647,0.200064 0.8815,-0.11143 1.49329,-0.311197 0.61179,-0.199777 1.48049,-0.286779 2.45424,-0.347363 0.97374,-0.06059 2.05279,-0.09573 3.07924,-0.277888 1.02643,-0.182138 2.00007,-0.51173 2.91462,-0.841289 0.91456,-0.329797 1.76938,-0.659126 2.60491,-0.433963 0.83554,0.225323 1.6519,1.005909 2.63224,1.266684 0.98038,0.260777 2.12517,4.01e-4 3.67131,-0.407318 1.54618,-0.407789 3.49355,-0.962855 4.82255,-1.102044 1.32898,-0.138985 2.03946,0.138203 3.09878,0.485358 1.05928,0.347075 2.46738,0.763121 3.74384,0.832717 1.27643,0.06956 2.42118,-0.207607 3.32923,-0.57196 0.64328,-0.258145 1.16778,-0.557318 1.70425,-0.794651 0.3377,-0.03988 0.67532,-0.09599 0.99328,-0.177963 0.26597,-0.06855 0.50461,-0.16109 0.75057,-0.246485 0.49009,-0.02582 0.97453,0.01493 1.38726,0.144654 0.71715,0.225284 1.21758,0.694003 1.87557,0.815589 0.65799,0.121581 1.4733,-0.104104 2.22991,-0.147506 0.2869,-0.01647 0.56269,-0.261271 0.83258,-0.531042 0.63971,0.177539 1.42008,0.08494 2.28628,0.294072 0.9342,0.225406 1.96054,0.815434 2.76338,0.893623 0.80281,0.07832 1.38171,-0.355231 1.97375,-0.468223 0.59206,-0.112989 1.19773,0.09556 2.0268,0.103741 0.82905,0.0088 1.88165,-0.182069 3.03961,-0.468227 1.158,-0.286201 2.42103,-0.669212 3.375,-0.693774 0.95395,-0.0262 1.59902,0.303431 2.40177,0.381623 0.80275,0.07818 1.76312,-0.09552 3.15792,-0.147508 1.39485,-0.0524 3.22383,0.01697 4.57924,-0.12182 1.35533,-0.138695 2.2368,-0.485679 2.86831,-0.581473 0.63154,-0.09539 1.01319,0.06133 1.59876,0.313102 0.58558,0.251645 1.37505,0.598398 2.28961,0.910756 0.91454,0.312357 1.95408,0.590792 2.8884,0.60717 0.93432,0.01749 1.76335,-0.225554 2.4213,-0.442531 0.16187,-0.05337 0.28805,-0.08854 0.43136,-0.13513 1.69487,0.608846 4.20451,1.406081 6.92577,1.715876 5.38529,0.613079 11.21096,-0.119712 11.71761,-0.196045 0.92121,-0.138697 1.81607,-0.607368 2.54632,-0.737549 0.73024,-0.130189 1.29599,0.07652 2.28292,0.04378 3.34194,-2.814791 5.6945,0.04094 12.48382,0.889818 5.38525,0.61308 11.21091,-0.119712 11.71761,-0.196044 0.92119,-0.138697 1.81605,-0.607368 2.54631,-0.737549 0.73019,-0.13019 1.29596,0.07652 2.28289,0.04376 0.98699,-0.03439 2.39526,-0.311578 3.34263,-0.173205 0.94743,0.138542 1.4342,0.693341 2.19087,0.919322 0.75664,0.225572 1.78281,0.121834 2.65789,-0.103741 0.87512,-0.225533 1.59897,-0.57327 2.45425,-0.842237 0.85528,-0.267739 1.84238,-0.459238 2.57925,-0.242676 0.73685,0.216602 1.22383,0.841741 1.88838,1.084913 0.66454,0.243172 1.50662,0.103705 2.44085,0.32928 0.9342,0.225407 1.96054,0.815434 2.76337,0.893623 0.80283,0.07832 1.38173,-0.355231 1.97376,-0.46822 0.59206,-0.11299 1.19719,0.09556 2.02624,0.103741 0.82905,0.0088 1.88162,-0.18207 3.03963,-0.468227 1.15797,-0.286202 2.42158,-0.669212 3.37555,-0.693775 0.95394,-0.0262 1.59846,0.303432 2.40123,0.381622 0.80274,0.07818 1.76312,-0.09552 3.1579,-0.147508 1.39484,-0.0524 3.22387,0.01697 4.57923,-0.121818 1.35538,-0.138697 2.23734,-0.485682 2.86887,-0.581476 0.63159,-0.09539 1.01321,0.06133 1.59877,0.313102 0.58558,0.251646 1.37505,0.598399 2.28961,0.910756 0.91454,0.312359 1.95408,0.590794 2.88839,0.60717 0.93433,0.01749 1.76336,-0.225554 2.4213,-0.442528 0.65798,-0.216972 1.14501,-0.407063 1.60549,-0.329282 0.4605,0.07794 0.89473,0.424073 1.41459,0.415881 0.51989,-0.0083 1.12492,-0.371919 2.27623,-0.458705 1.15136,-0.08679 2.84891,0.10333 3.82925,0.285504 0.98032,0.182094 1.24342,0.355997 1.72376,0.798457 0.48031,0.442462 1.17775,1.153505 1.70423,1.353285 0.5265,0.200064 0.88152,-0.11143 1.49332,-0.311197 0.61179,-0.199777 1.48048,-0.286776 2.45422,-0.347363 0.97375,-0.06059 2.0528,-0.09573 3.07925,-0.277888 1.02643,-0.182138 2.00006,-0.51173 2.9146,-0.841289 0.91457,-0.329797 1.7694,-0.659126 2.60491,-0.433962 0.83556,0.225324 1.6519,1.005908 2.63225,1.266686 0.98037,0.260775 2.12518,3.98e-4 3.67132,-0.407321 1.54617,-0.407787 3.49351,-0.962854 4.82252,-1.102045 1.32901,-0.138984 2.03949,0.138203 3.09877,0.48536 1.05929,0.347074 2.4674,0.76312 3.74388,0.832717 1.27642,0.06956 2.42117,-0.207608 3.32923,-0.57196 0.64328,-0.258145 1.16778,-0.557319 1.70422,-0.794652 0.3377,-0.03988 0.67534,-0.09599 0.99331,-0.177962 0.26597,-0.06855 0.50461,-0.161089 0.75059,-0.246485 0.49005,-0.02582 0.97451,0.01493 1.38723,0.144655 0.71714,0.225285 1.21758,0.694004 1.87556,0.815591 0.65801,0.12158 1.4733,-0.104116 2.22993,-0.147508 0.28687,-0.01647 0.56267,-0.261267 0.83257,-0.53104 0.63971,0.177538 1.42006,0.08494 2.28627,0.294072 0.93422,0.225407 1.96055,0.815432 2.76341,0.893623 0.8028,0.07832 1.38171,-0.355231 1.97376,-0.468222 0.59202,-0.112989 1.19771,0.09556 2.02676,0.103741 0.82907,0.0088 1.88164,-0.18207 3.03964,-0.468226 1.158,-0.286202 2.42101,-0.669213 3.37498,-0.693775 0.95396,-0.0262 1.59901,0.303432 2.40178,0.381621 0.80274,0.07818 1.76312,-0.09552 3.15793,-0.147507 1.39481,-0.0524 3.22381,0.01697 4.57922,-0.121819 1.35534,-0.138696 2.2368,-0.485681 2.86831,-0.581476 0.63155,-0.09539 1.01321,0.06132 1.59877,0.313103 0.58556,0.251646 1.37505,0.598397 2.2896,0.910755 0.91453,0.312359 1.95408,0.590794 2.8884,0.60717 0.93434,0.01748 1.76336,-0.225553 2.42129,-0.442529 0.65799,-0.216971 1.14497,-0.407061 1.6055,-0.329281 0.46048,0.07794 0.89472,0.424073 1.41459,0.415881 0.51992,-0.0083 1.12492,-0.371919 2.27623,-0.458704 1.15132,-0.08679 2.56345,0.581169 3.82925,0.285504 1.70999,-0.399427 3.26358,-1.940307 4.9213,-2.744645 0.6118,-0.199775 1.48052,-0.285822 2.45423,-0.346407 0.97377,-0.06059 2.05285,-0.09573 3.07924,-0.277895 0.80161,-0.142242 1.56043,-0.380903 2.29463,-0.632866 1.82883,0.478435 4.06291,1.357588 7.36998,1.771077 5.38526,0.613079 11.21093,-0.119712 11.71764,-0.196045 0.92118,-0.138697 1.81602,-0.607368 2.54628,-0.73755 0.7302,-0.130191 1.29598,0.07651 2.28292,0.04376 0.98697,-0.03439 2.39525,-0.311578 3.34261,-0.173207 0.94744,0.138542 1.43422,0.693341 2.19087,0.919324 0.75665,0.225571 1.78281,0.121835 2.65791,-0.103741 0.87511,-0.225532 1.59896,-0.573271 2.45426,-0.842236 0.85528,-0.26774 1.84236,-0.459238 2.5792,-0.242676 0.7369,0.216602 1.22386,0.841742 1.88841,1.084912 0.66455,0.243172 1.50663,0.103704 2.44085,0.329282 0.93421,0.225404 1.96054,0.815432 2.76336,0.893623 0.80284,0.07832 1.38175,-0.355231 1.97378,-0.468223 0.59207,-0.112989 1.19715,0.09556 2.02622,0.103741 0.82905,0.0088 1.88164,-0.182069 3.03963,-0.468228 1.15799,-0.2862 2.42159,-0.669211 3.37556,-0.693773 0.95393,-0.0262 1.59845,0.303429 2.40122,0.381621 0.80275,0.07818 1.76312,-0.09552 3.15792,-0.147506 1.39482,-0.0524 3.22384,0.01697 4.57921,-0.12182 1.35542,-0.138697 2.23734,-0.48568 2.86888,-0.581475 0.63158,-0.09539 1.01321,0.06133 1.59877,0.313103 0.58557,0.251645 1.37505,0.598399 2.28959,0.910756 0.91454,0.312357 1.95409,0.590793 2.88842,0.607169 0.93432,0.01749 1.76335,-0.225552 2.42128,-0.442529 0.65798,-0.216972 1.14502,-0.40706 1.6055,-0.329279 0.46048,0.07794 0.89474,0.42407 1.41459,0.415879 0.51988,-0.0083 1.12493,-0.371919 2.27622,-0.458706 1.15136,-0.08679 2.84892,0.10333 3.82926,0.285505 0.98032,0.182095 1.2434,0.355996 1.72377,0.798459 0.48031,0.44246 1.17775,1.153503 1.70423,1.353285 0.52649,0.200062 0.88151,-0.11143 1.49328,-0.311198 0.61183,-0.199776 1.48051,-0.286778 2.45423,-0.347364 0.97377,-0.06059 2.05282,-0.09572 3.07926,-0.277887 1.02644,-0.182137 2.00006,-2.233672 2.91461,-2.56323 0.91457,-0.329798 1.76938,-0.659126 2.60491,-0.433964 0.83553,0.225323 1.65191,1.005909 2.63224,1.266685 0.98038,0.260777 2.12517,4e-4 3.67132,-0.407319 1.54617,-0.407788 3.49355,-0.962856 4.82253,-1.102044 1.329,-0.138984 2.03948,0.138202 3.09877,0.485358 1.05927,0.347074 2.46738,0.763122 3.74388,0.832717 1.27642,0.06956 2.42116,-0.207606 3.32923,-0.57196 0.64327,-0.258145 1.1678,-0.557317 1.70422,-0.794652 0.33771,-0.03988 0.67533,-0.09599 0.9933,-0.177962 0.26598,-0.06854 0.50462,-0.161089 0.75058,-0.246485 0.49004,-0.02582 0.9745,0.01493 1.38724,0.144654 0.71715,0.225285 1.21758,0.694004 1.87557,0.81559 0.65801,0.12158 1.47329,-0.104116 2.22993,-0.147508 0.28687,-0.01647 0.56268,-0.261269 0.83257,-0.53104 0.63971,0.177538 1.42009,0.08494 2.28627,0.294072 0.9342,0.225405 1.96053,0.815433 2.7634,0.893622 0.80279,0.07832 1.38171,-0.35523 1.97377,-0.468223 0.59202,-0.112989 1.19772,-2.200362 2.02677,-2.192181 0.82905,0.0088 1.88162,-0.182069 3.03961,-0.468228 1.158,-0.2862 2.42104,-0.669211 3.37501,-0.693773 0.95393,-0.0262 1.59902,0.303429 2.40177,0.381621 0.80273,0.07818 1.76311,-0.09552 3.15792,-0.147507 1.39484,-0.0524 3.22384,0.01697 4.57921,-0.121819 1.35536,-0.138697 2.23681,-0.48568 2.86833,-0.581475 0.63154,-0.09539 1.01318,0.06133 1.59878,0.313103 0.58555,0.251645 1.37504,0.598399 2.2896,0.910755 0.91452,0.312358 1.95406,0.590794 2.88838,0.60717 0.93433,0.01749 1.76336,-4.243416 2.42129,-4.460393 0.65799,-0.216972 1.145,-0.40706 1.60549,-0.32928 0.46048,0.07794 0.89476,2.146013 1.41462,2.137822 0.51991,-0.0083 1.1249,-0.37192 2.2762,-0.458705 1.15137,-0.08679 2.56347,0.581168 3.82925,0.285504 1.71002,-0.399426 3.26361,-1.940306 4.92132,-2.744645 0.61179,-0.199776 1.48052,-0.28582 2.45423,-0.346407 0.97376,-0.06059 2.05283,-0.09572 3.07925,-0.277892 1.02641,-0.182134 2.00006,-0.51173 2.91462,-0.8412834 0.91455,-0.329802 1.76994,-0.660081 2.60547,-0.434918 0.83549,0.225328 1.65135,1.0068564 2.63166,1.2676404 0.9804,0.260775 2.12517,-5.56e-4 3.67131,-0.408277 1.54618,-0.4077824 3.49354,-0.9628534 4.82253,-1.1020374 1.329,-0.138984 2.03946,0.139153 3.09877,0.486303 4.13933,-3.880328 7.18541,-6.4957368 11.90903,-5.190452 0.71714,0.225285 1.21704,0.693998 1.875,0.81559 0.658,0.121581 1.47386,-0.10316 2.23045,-0.146557 0.75661,-0.0434 1.45389,-1.585487 2.0921,-1.368516 0.63822,0.216849 1.63645,-2.4756623 2.28793,-2.5276581 0.82548,-0.29729084 1.98148,-0.1053173 2.12107,-0.92027204 0.13177,-0.768967 2.79826,-9.50300126 4.00058,-9.57007796 1.27654,-0.5072408 3.41605,-0.6632477 4.23548,-1.1045475 1.48649,-0.800557 2.26227,-4.764234 2.08535,-6.40575 -0.96694,-8.972194 -10.93276,-9.986197 -11.05074,-18.324568 -0.15137,-10.698963 -0.38562,-11.851807 -21.87273,-12.42797 -21.4871,-0.575396 -64.22558,-0.575858 -85.49037,-0.02094 -1.67032,0.04359 -3.10877,0.10333 -4.6116,0.157984 -1.23599,-0.04548 -2.32532,-0.09913 -3.73939,-0.137052 -10.74356,-0.287696 -26.79992,-0.432356 -42.8286,-0.434914 -16.02867,-0.0025 -32.02992,0.136523 -42.66231,0.413979 -13.72909,0.35827 -30.81966,-0.510139 -41.25998,1.60453 -20.42003,-0.121446 -43.47217,-0.02075 -57.46921,0.344506 -1.67033,0.04358 -3.10879,0.103342 -4.61161,0.157982 -1.23598,-0.04547 -2.32534,-0.09913 -3.73939,-0.137051 -10.74356,-0.287698 -26.79993,-0.432358 -42.82861,-0.434916 -16.02865,-0.0025 -32.02992,0.136523 -42.66229,0.413978 -0.76106,0.01986 -1.59144,0.01562 -2.37166,0.02856 -2.98974,-1.312333 -8.33435,-1.697202 -18.01003,-1.956651 -21.48709,-0.575396 -64.22557,-0.575858 -85.49035,-0.02094 -1.67032,0.0436 -3.10878,0.103342 -4.6116,0.157982 -1.23601,-0.04548 -2.32534,-0.09914 -3.7394,-0.137038 -10.74354,-0.287697 -26.79994,-0.432358 -42.8286,-0.434916 z"
       sodipodi:nodetypes="ssscccscsscsccccccccsccscccsccscsccscscsssccscccsscsccsscccscscsccccscscscscccscccscssccscscsccccscsccscscsssccssccsscsccsscccscscscsccscsccsscssccsscccscssccscscscsccscscsssscsssccsscssscscssscccscscscscsscscssscssccsscccssscscssscsccsscsccssccsccss" />
    <path
       id="path1820"
       style="fill:#b7c39b;fill-opacity:1;stroke:#000000;stroke-width:0.522757px;stroke-linecap:butt;stroke-linejoin:miter;stroke-opacity:1"
       d="m 56.629135,-48.834235 c -6.091439,-0.01124 -11.968455,0.02078 -17.501645,0.107537 -0.05262,0.589556 -0.105179,1.180223 -0.342074,9.961219 -0.187097,6.936017 -5.160134,12.027596 -7.318066,18.588184 L -0.27143699,-48.726697 c -0.0526226,0.589556 -0.10517793,1.180222 -0.34207516,9.961219 -0.23687078,8.780999 -8.16381375,14.596793 -8.30857845,24.193571 -0.1447896,9.5968172 8.18223101,6.6182196 8.60308201,7.8332714 0.4208452,1.2150503 0.083543,1.4239336 0.859932,1.8576752 0.77635619,0.4337008 3.19597499,3.3339364 3.89340839,3.6810941 0.6974288,0.3471578 4.5995353,3.3467562 5.3431824,3.5135982 0.5838818,0.131004 1.2278698,-0.524895 2.3331448,-0.110393 0.986853,0.293335 4.279582,3.5174105 7.382799,3.9494675 3.103217,0.432062 5.914938,-3.1720795 10.834805,-2.6237755 5.73244,0.6388605 7.885508,4.7446545 11.9771,4.6042215 1.244042,-0.0427 2.447512,-1.110299 3.605461,-1.64831 1.157926,-0.538013 2.664946,-1.1906763 4.092626,-1.336153 2.966458,-0.3022741 5.880025,0.6813425 8.888934,1.004017 1.655372,0.230478 3.181957,-1.234218 5.090951,-1.506508 3.351943,-0.478099 1.289449,2.359488 4.557052,3.184909 2.821074,0.712628 4.63833,3.2675636 7.424095,3.1719476 1.244046,-0.0427 2.266449,1.69735 3.605462,1.795575 1.431051,0.104977 2.447224,-0.989001 4.09207,-1.336153 1.644821,-0.346954 3.645049,-0.590003 8.191391,-0.590042 4.546366,-4.4e-5 11.638665,2.779406 17.211455,2.979188 5.5728,0.199577 9.62584,-2.18132 11.86941,-1.912358 2.24356,0.268763 2.38515,0.741926 3.50056,1.292378 1.48547,0.733076 3.0374,2.262637 4.20199,2.65319 1.16461,0.389735 1.27827,2.420401 2.30469,2.160028 3.0463,-0.554833 1.96077,-0.658815 3.0463,-0.554833 1.08554,0.10391 2.32243,0.709397 3.51339,0.676647 1.191,-0.03452 2.33603,-0.711867 4.37555,-0.928837 2.03951,-0.216977 4.97366,0.02598 6.98046,-0.08661 2.0068,-0.112699 3.08586,-0.581232 4.33592,-1.041137 1.25008,-0.459905 2.67105,-0.910976 4.1317,-1.483667 0.74167,-0.290771 1.4925,-0.611778 2.20367,-0.899334 0.54771,0.51951 1.0819,0.884327 1.54967,0.734694 1.32908,-0.425144 2.13158,-0.616047 2.87499,-0.529134 0.48771,0.05694 0.9593,0.245905 1.44252,0.463466 0.37996,0.346939 0.77441,0.67903 1.20592,0.881258 0.51387,0.24095 1.07854,0.299237 1.65177,0.321664 0.13864,0.05035 0.28229,0.1101 0.41742,0.156082 0.81584,0.277562 1.5527,0.468348 2.1317,0.259806 0.079,-0.02849 0.15017,-0.07798 0.22432,-0.118961 0.45492,0.0972 0.89399,0.192735 1.31864,0.231257 0.86195,0.07823 1.66495,-0.07695 2.53347,-0.372103 0.0136,-0.0046 0.0272,-0.01064 0.0406,-0.01528 0.0136,0.0046 0.0272,0.01064 0.0406,0.01528 0.8685,0.295161 1.67095,0.450333 2.5329,0.372103 0.42468,-0.03852 0.86429,-0.13406 1.31921,-0.231257 0.0742,0.04098 0.14535,0.09045 0.22433,0.118961 0.579,0.208542 1.31585,0.01776 2.13169,-0.259806 0.13514,-0.046 0.2788,-0.105724 0.41742,-0.156082 0.57324,-0.02243 1.13792,-0.08071 1.65179,-0.321664 0.43156,-0.202252 0.8259,-0.53427 1.20589,-0.881258 0.48315,-0.217516 0.9549,-0.406533 1.44253,-0.463466 0.7434,-0.08691 1.54592,0.103995 2.875,0.529134 0.46778,0.14963 1.00197,-0.215184 1.54966,-0.734694 0.7112,0.287556 1.46144,0.608563 2.20313,0.899334 1.46066,0.572691 2.88215,1.023762 4.13223,1.483667 1.25009,0.459905 2.32914,0.928433 4.33594,1.041137 2.00683,0.112578 4.94095,-0.130376 6.98046,0.08661 2.0395,0.21697 3.18459,0.894324 4.37555,0.928837 1.19096,0.03275 2.42784,-0.572743 3.51339,-0.676647 1.0855,-0.103971 2.0193,0.294544 3.04576,0.554833 1.02638,0.260367 2.14508,0.382123 3.30968,-0.0076 1.16461,-0.390553 2.37514,-1.293596 3.19754,-1.935715 0.82242,-0.642116 1.25646,-1.023615 3.50001,-1.292378 2.24353,-0.268962 6.29659,-0.424725 11.86939,-0.624302 2.71189,-0.09721 5.78187,-1.292216 8.74496,-2.491494 1.37005,0.873657 4.15145,3.273458 6.8058,3.643025 3.10323,0.432062 5.91495,-3.172079 10.83482,-2.623775 5.7324,0.63886 7.88549,4.744654 11.97708,4.604221 1.24407,-0.0427 2.44751,-1.110299 3.60545,-1.64831 1.15794,-0.538013 2.44778,-0.989001 4.09266,-1.336153 1.22197,-0.257765 2.64423,-0.458365 5.1568,-0.544362 1.16396,0.721295 2.45992,1.37125 3.73211,1.548379 1.65538,0.230478 3.18196,-1.234218 5.09096,-1.506508 3.35192,-0.478099 7.02926,-0.510415 10.29685,0.315006 2.82108,0.712628 4.63833,3.267564 7.4241,3.171948 1.24406,-0.0427 2.4475,-1.110299 3.60545,-1.64831 1.15793,-0.538013 2.44723,-0.989001 4.09208,-1.336153 1.64483,-0.346954 3.64505,-0.590003 8.19139,-0.590042 4.54635,-4.4e-5 11.63865,0.242746 17.21146,0.442528 5.57279,0.199577 9.62581,0.35534 11.86941,0.624302 2.24355,0.268763 2.67813,0.650262 3.50055,1.292378 0.82241,0.642119 2.03295,1.545162 3.19755,1.935715 1.16459,0.389735 2.28272,0.267973 3.30914,0.0076 1.02645,-0.260289 1.96076,-0.658815 3.0463,-0.554833 1.08555,0.10391 2.32242,0.709397 3.5134,0.676647 1.19097,-0.03452 2.33602,-0.711867 4.37554,-0.928837 2.03951,-0.216977 4.97367,0.02598 6.98046,-0.08661 2.0068,-0.112699 3.08586,-0.581232 4.33595,-1.041137 1.25005,-0.459905 2.67102,-0.910976 4.13167,-1.483667 0.20134,-0.07894 0.39648,-0.162448 0.59824,-0.24458 0.87285,0.456908 1.78532,0.828926 2.68747,0.954533 1.40913,0.196194 2.76648,-0.444294 4.28013,-1.145821 0.168,0.06487 0.33539,0.129172 0.505,0.20556 0.37995,0.346939 0.77443,0.67903 1.20595,0.881258 0.51384,0.24095 1.07852,0.299237 1.65176,0.321664 0.13864,0.05035 0.28229,0.1101 0.41739,0.156082 0.81585,0.277562 1.55272,0.468348 2.13171,0.259806 0.079,-0.02849 0.15015,-0.07798 0.22433,-0.118961 0.4549,0.0972 0.89401,0.192735 1.31865,0.231257 0.86193,0.07823 1.66492,-0.07695 2.53348,-0.372103 0.0136,-0.0046 0.0272,-0.01064 0.0406,-0.01528 0.0136,0.0046 0.0272,0.01064 0.0406,0.01528 0.86853,0.295161 1.67094,0.450333 2.53292,0.372103 0.42464,-0.03852 0.86429,-0.13406 1.3192,-0.231257 0.0742,0.04098 0.14533,0.09045 0.22434,0.118961 0.0836,0.03012 0.17731,0.0351 0.26728,0.0495 1.29447,0.746954 2.56723,1.30565 4.1183,1.252414 1.24406,-0.0427 2.44753,-1.110301 3.60546,-1.648312 1.15795,-0.538011 2.44781,-0.989 4.09265,-1.336152 0.14082,-0.02972 0.33517,-0.04995 0.48269,-0.07803 0.30625,0.126063 0.60411,0.251905 0.91072,0.372106 1.46064,0.572691 2.88216,1.02376 4.13223,1.483665 1.25008,0.459906 2.32915,0.928434 4.33595,1.041137 2.00679,0.112578 4.94094,-0.130375 6.98044,0.08661 2.03951,0.21697 3.18459,0.894323 4.37556,0.928838 1.19095,0.03275 2.42786,-0.572745 3.51339,-0.676649 1.08549,-0.103971 2.01931,0.294544 3.04574,0.554833 1.0264,0.260367 2.14511,0.382124 3.30971,-0.0076 0.80864,-0.271171 1.59091,-0.780377 2.29853,-1.286668 0.65284,-0.355118 1.29441,-0.790783 1.92132,-1.082061 0.62812,-0.291839 1.31175,-0.551885 2.05305,-0.789891 0.15244,-0.02212 0.25168,-0.04876 0.42463,-0.06948 2.24357,-0.268963 6.29663,-0.424724 11.86942,-0.624302 0.79878,-0.02864 1.63343,-0.170701 2.48268,-0.361638 4.08304,0.08129 8.63327,0.217096 12.66514,0.361638 5.57279,0.199578 9.62581,0.355339 11.86942,0.624302 2.24356,0.268762 2.67813,0.650261 3.50057,1.292377 0.8224,0.64212 2.03294,1.545162 3.19753,1.935716 1.16459,0.389734 2.28271,0.267972 3.30912,0.0076 1.02646,-0.260289 1.96077,-0.658814 3.04631,-0.554832 1.08557,0.10391 2.32243,0.709397 3.5134,0.676648 1.19097,-0.03452 2.33603,-0.711868 4.37555,-0.928838 2.03951,-0.216977 4.97368,0.02598 6.98046,-0.08661 2.0068,-0.112699 3.08586,-0.581232 4.33595,-1.041137 1.25005,-0.459905 2.67101,-0.910974 4.13166,-1.483665 0.7417,-0.290772 1.4925,-2.333722 2.2037,-2.621277 0.54767,0.519511 1.08188,0.884326 1.54965,0.734695 1.32908,-0.425144 2.13159,-0.616047 2.87499,-0.529134 0.48771,0.05694 0.95932,0.245903 1.44251,0.463465 0.37994,0.346938 0.77444,0.67903 1.20595,0.881257 0.51385,0.240951 1.07854,0.299237 1.65178,0.321666 0.13861,0.05035 0.28227,0.1101 0.41737,0.15608 0.81587,0.277563 1.55271,0.468349 2.13173,0.259807 0.079,-0.02848 0.15014,-0.07798 0.2243,-0.118962 0.45492,0.0972 0.89401,0.192736 1.31866,0.231257 0.86194,0.07823 1.66493,-0.07695 2.53348,-0.372103 0.0136,-0.0046 0.0272,-0.01064 0.0406,-0.01528 0.0136,0.0046 0.0272,0.01064 0.0406,0.01528 0.86851,0.295161 1.67094,0.450335 2.53291,0.372103 0.42465,-0.03852 0.86428,-0.13406 1.3192,-0.231257 0.0742,0.04098 0.14535,0.09045 0.22434,0.118962 0.57901,0.208542 1.31586,0.01776 2.13168,-0.259807 0.13515,-0.04599 0.27882,-0.105723 0.41743,-0.15608 0.57323,-0.02243 1.13735,-0.08071 1.65123,-0.321666 0.43157,-0.202252 0.82646,-0.534269 1.20645,-0.881257 0.48316,-0.217517 0.9549,-0.406534 1.44253,-0.463465 0.7434,-0.08691 1.54593,0.103995 2.87499,0.529134 0.46779,0.149629 1.00199,-0.215184 1.54967,-0.734695 0.71119,0.287555 1.46143,0.608563 2.20311,0.899335 1.46066,0.572691 2.88217,1.02376 4.13224,1.483665 1.2501,0.459905 2.32916,-1.367489 4.33595,-1.254786 2.00679,0.112578 4.94094,-0.130375 6.98044,0.08661 2.03952,0.21697 3.18461,0.894324 4.37557,0.928838 1.19094,0.03275 2.42784,-0.572745 3.5134,-0.676648 1.08548,-0.10397 2.01929,0.294543 3.04572,0.554832 1.02641,0.260367 2.14513,0.382124 3.30971,-0.0076 1.16461,-0.390554 2.37514,-1.293596 3.19755,-1.935716 0.82242,-0.642116 1.25647,-1.023615 3.5,-1.292377 2.24356,-0.268963 6.2966,-2.7206468 11.86941,-2.9202248 5.57277,-0.199782 12.66507,-5.0268068 17.21144,-5.0267677 4.54637,4.41e-5 6.54659,0.2421386 8.1914,0.5890926 1.64485,0.3471573 2.93416,0.7990953 4.09209,1.3371063 1.15793,0.538012 2.18481,1.162489 3.60601,1.6483068 1.42118,0.485856 3.23693,-3.5433455 4.60543,-3.2309491 1.36852,0.3123623 1.87483,-1.7803682 2.86162,-2.0737082 1.10527,-0.41449164 1.74924,0.2404495 2.33315,0.1094411 0.7436,-0.1668452 0.85837,-2.7496027 1.5558,-3.0967605 0.69743,-0.3471575 3.11649,-3.2473906 3.89286,-3.6810915 0.77637,-0.4337417 0.43908,-0.6416726 0.8599,-1.856725 0.42091,-1.215051 3.00808,-1.1073076 2.86329,-10.704125 -0.14477,-9.596779 -3.55051,-8.327326 -3.78737,-17.108325 -0.2369,-8.780996 -0.28945,-9.370716 -0.34208,-9.960268 v -9.51e-4 c -44.26555,-0.694111 -88.53173,-1.388254 -110.69122,-1.527445 -1.08424,-0.0069 -2.0983,0.0022 -3.10659,0.01327 -1.00824,-0.011 -2.02285,-0.02015 -3.10712,-0.01327 -19.38958,0.121789 -72.54338,-2.043914 -115.18339,-2.122241 -6.09143,-0.01124 -11.96846,0.02078 -17.50164,0.107537 -0.0271,0.301468 -0.0561,0.694936 -0.10771,2.09179 -2.5187,-0.02314 -5.72051,-0.06371 -7.85042,-0.07708 -1.08424,-0.0069 -2.0983,0.0022 -3.10658,0.01328 -1.00826,-0.011 -2.02285,-0.02018 -3.10713,-0.01328 -5.38714,0.03384 -13.72525,-0.123774 -23.37552,-0.349266 l -1.85156,-1.665439 c -0.0223,0.249664 -0.0495,0.745036 -0.086,1.616903 -24.99917,-0.597073 -59.79716,-1.6692 -89.87037,-1.724443 -6.09143,-0.01124 -11.96845,0.02079 -17.50164,0.107537 -0.0314,0.350556 -0.0772,1.359892 -0.14731,3.432706 -12.51765,-0.196094 -24.23171,-0.371614 -36.04739,-0.550071 l -3.20423,-2.882635 c -0.0295,0.328536 -0.0678,1.084996 -0.12892,2.831243 -26.20097,-0.393131 -50.08929,-0.728254 -64.14441,-0.816538 -1.08426,-0.0069 -2.09832,0.0022 -3.10657,0.01327 -1.00826,-0.011 -2.02287,-0.02018 -3.10714,-0.01327 -19.38959,0.121788 -72.543374,-2.043915 -115.1834,-2.122245 z"
       sodipodi:nodetypes="cccccccscsscssssacsssacsccaccccscsscscccccscssccsccsccccsccscsccccscccssssccssssscsccsccscscsscscccccscssccscscssscsscscssccsccscccscsscsssscsscccsscssccsccscscsscsscscsscsccscssscssssssscsccsccccccccscccccccccc" />
    <path
       id="path1822"
       style="fill:#95b388;fill-opacity:1;stroke:#000000;stroke-width:0.503623px;stroke-linecap:butt;stroke-linejoin:miter;stroke-opacity:1"
       d="m -2.4996696,-46.953721 c -7.5888384,0.01124 -12.5997574,0.930001 -12.7410474,4.338704 -0.302439,7.296376 -15.043479,6.751774 -15.240907,15.208067 -0.197204,8.456291 0.26914,10.790966 0.453123,11.854106 0.183906,1.06314 0.448826,1.417179 1.212053,1.691133 0.763222,0.273954 17.752087,4.8133 18.765315,4.9903645 1.0132509,0.1770628 5.2514659,4.3920575 6.2778905,4.4262551 1.0264282,0.032257 2.000399,-0.0644 2.5675171,-0.4044626 0.56714291,-0.3401065 -0.1862778,-0.7346031 0.99274391,-1.1467739 1.179021,-0.4121672 5.15870639,1.7894541 5.91237789,1.9490394 0.7536797,0.1595107 1.8887845,0.3417603 3.1076968,0.7061459 1.2189068,0.3643838 20.7281228,4.0366518 22.5797578,4.6175435 1.851641,0.580886 4.252143,1.195745 6.103786,1.696842 1.851643,0.500947 3.153948,0.8888245 4.382246,0.8660305 1.228306,-0.02262 2.382687,-0.4561325 3.462048,-0.9117115 1.079344,-0.455539 2.083971,-0.933833 2.893413,-1.059219 0.809411,-0.12547 1.423409,0.10248 2.614392,0.683308 1.191012,0.580814 2.958721,1.5151433 4.475437,1.9138245 1.516692,0.3986748 2.782362,0.262472 4.0664,0.159885 9.919921,-4.2806474 4.040691,-1.4250235 19.485595,2.9648281 1.851639,0.580886 4.252141,1.195745 6.103782,1.696842 1.851642,0.500947 3.154513,0.8888245 4.382809,0.8660305 1.228306,-0.02262 2.382126,-0.4561325 3.461488,-0.9117115 1.079343,-0.455539 2.08397,-0.933833 2.893411,-1.059219 0.809413,-0.12547 1.423411,0.10248 2.614392,0.683308 1.191011,0.580814 2.95875,1.5150515 4.47544,1.9138245 1.51671,0.398583 2.78237,0.262472 4.06639,0.159885 1.28405,-0.102447 2.58651,-0.17118 3.70312,-0.410176 1.11663,-0.239073 2.04726,-0.6493415 3.06138,-0.8089295 1.01414,-0.159579 2.11214,-0.06866 3.31249,-0.148458 1.20036,-0.0798 2.50289,-0.330171 3.61942,-0.295975 1.11655,0.03404 2.04714,0.352239 2.96373,0.414934 0.91654,0.0628 1.81875,2.7394945 2.43302,2.4149995 0.61428,-0.324564 0.9403,-0.779879 1.28906,-1.024955 0.34876,-0.243176 0.72092,-0.276929 1.24667,-0.273135 0.52571,0.0058 1.20482,0.05056 2.1819,-0.194142 0.97707,-0.244737 2.25154,-0.7798064 3.16796,-0.9849851 0.32662,-0.07299 0.57844,-0.067947 0.84041,-0.072328 0.16064,0.057352 0.32123,0.1143144 0.49106,0.1522619 0.5768,0.1288987 1.19523,0.1061478 1.78851,0.051393 0.59324,0.054737 1.21175,0.077488 1.78849,-0.051393 0.14265,-0.031885 0.27644,-0.081479 0.41241,-0.1275241 0.10652,0.09591 0.2187,0.1558601 0.33926,0.159884 0.29987,0.00951 0.5684,-0.021664 0.85047,-0.037115 0.88735,0.2364392 2.00971,0.6873333 2.89787,0.9098013 0.97706,0.244697 1.65616,0.199839 2.18191,0.194143 0.52569,-0.0037 0.8979,0.02995 1.24664,0.273134 0.34878,0.245076 0.67423,0.700392 1.2885,1.024955 0.61429,0.32449 1.51646,0.518663 2.43304,0.455856 0.91653,-0.0627 1.84716,-0.381841 2.96373,-0.415886 1.11652,-0.03419 2.41906,0.216182 3.6194,0.295975 0.85077,0.05655 1.64786,0.0298 2.40236,0.0647 0.84347,0.221099 1.61503,0.362307 2.29351,0.427303 0.53366,0.16165 1.07881,0.33708 1.67799,0.46537 1.1166,0.238996 2.41907,0.307734 3.70314,0.410176 1.28403,0.102582 2.5497,0.238699 4.0664,-0.159884 0.76189,-0.200317 1.58627,-0.535824 2.36998,-0.893623 0.78364,0.35778 1.60755,0.693315 2.3694,0.893623 1.51672,0.398583 2.78238,0.262473 4.06641,0.159884 1.28406,-0.102447 2.58652,-0.17118 3.70311,-0.410176 0.56976,-0.121988 1.05329,-0.257984 1.56194,-0.413029 0.6523,-0.05421 1.41188,-0.22202 2.21037,-0.427301 0.82528,-0.05599 1.65842,-0.05442 2.60101,-0.117047 1.20034,-0.0798 2.50346,-0.330171 3.61997,-0.295975 1.11656,0.03404 2.04661,0.35319 2.96317,0.415886 0.91657,0.0628 1.8193,-0.131361 2.43357,-0.455856 0.61428,-0.324563 0.93975,-0.779879 1.28851,-1.024955 0.34874,-0.243176 0.72095,-0.27693 1.24666,-0.273135 0.52573,0.0058 1.20483,0.05056 2.18191,-0.194143 0.8801,-0.220446 1.97007,-0.6486349 2.85379,-0.886962 0.28873,0.016638 0.58678,0.023871 0.89453,0.014263 0.12056,-0.00407 0.23222,-0.063958 0.33873,-0.1598842 0.13597,0.046046 0.27033,0.095637 0.41295,0.1275241 0.57679,0.1288987 1.19523,0.1061479 1.78849,0.051393 0.59325,0.054737 1.21119,0.077488 1.78794,-0.051393 0.17194,-0.038439 0.32186,-0.120665 0.48439,-0.1789167 0.25742,0.00544 0.52762,0.02747 0.84764,0.098982 0.91643,0.2051787 2.19091,0.7402488 3.16797,0.9849848 0.97701,0.244697 1.65618,0.199839 2.18192,0.194143 0.52569,-0.0037 0.89788,0.02995 1.24666,0.273134 0.34875,0.245076 0.67422,0.700392 1.28849,1.024955 0.61427,0.32449 1.51703,0.518663 2.43357,0.455856 0.91656,-0.0627 1.84723,-0.381841 2.96374,-0.415886 1.11653,-0.03419 2.41908,0.217132 3.61941,0.296926 1.20037,0.0798 2.29836,-0.01222 3.31251,0.147507 1.01413,0.159579 1.94416,0.569856 3.0608,0.808929 1.1166,0.238996 2.41906,0.307735 3.70313,0.410176 1.28404,0.102581 2.54968,-4.3455411 4.0664,-4.744119 0.2918,-0.076724 0.59729,-0.1878626 0.90177,-0.2978767 3.85287,0.7667037 7.32336,1.4713097 8.03013,1.6930377 1.85164,0.580885 4.25271,1.195744 6.10434,1.696841 1.85164,0.500947 3.15394,0.888824 4.38224,0.86603 1.22832,-0.02261 2.38213,-0.456132 3.4615,-0.911711 1.07934,-0.455538 2.08451,-0.933833 2.89397,-1.059219 0.8094,-0.12547 1.42339,0.10248 2.61439,0.683308 1.19099,0.580815 2.95875,1.515051 4.47544,1.913826 1.51671,0.398582 2.78235,0.262471 4.06641,0.159883 9.91992,-4.2806468 9.78049,-7.7388106 25.22538,-3.348958 1.85166,0.580885 4.25212,1.195744 6.10379,1.696841 1.85165,0.500947 3.15397,0.888824 4.38224,0.86603 1.22833,-0.02261 2.38214,-0.456132 3.4615,-0.911711 1.07937,-0.455538 2.08454,-0.933833 2.89395,-1.059219 0.80943,-0.12547 1.42344,0.10248 2.6144,0.683308 1.19103,0.580815 2.95877,1.515051 4.47545,1.913826 1.51671,0.398582 2.78236,0.262471 4.06639,0.159883 1.28406,-0.102447 2.58652,-0.17118 3.70315,-0.410176 1.11661,-0.239073 2.04723,-0.64934 3.06134,-0.808929 1.01416,-0.159578 2.11157,-0.06866 3.31197,-0.148458 1.20032,-0.0798 2.50345,-0.330171 3.61996,-0.295975 1.11653,0.03404 2.04659,0.352239 2.96315,0.414935 0.91657,0.0628 1.81935,-0.13041 2.4336,-0.454905 0.6143,-0.324563 0.93974,-0.779879 1.28851,-1.024955 0.34875,-0.243176 0.72091,-0.276929 1.24663,-0.273134 0.52575,0.0058 1.20485,0.05056 2.18193,-0.194143 0.97706,-0.244737 2.25209,-0.7798062 3.16852,-0.984985 0.32664,-0.07299 0.57789,-0.067947 0.83985,-0.072328 0.16063,0.057353 0.32179,0.1143144 0.49162,0.1522603 0.57678,0.1288985 1.19524,0.1061478 1.78849,0.051393 0.59325,0.054737 1.2112,0.077488 1.78795,-0.051393 0.14265,-0.031885 0.27699,-0.081479 0.41293,-0.1275241 0.10653,0.09591 0.21874,0.1558603 0.33929,0.1598842 0.29989,0.00951 0.5684,-0.021663 0.85046,-0.037115 0.88737,0.2364391 2.00917,0.6873336 2.89732,0.9098016 0.97705,0.244697 1.65617,0.199839 2.18193,0.194142 0.52567,-0.0037 0.89788,0.02995 1.24664,0.273135 0.34876,0.245076 0.67424,0.700392 1.2885,1.024955 0.61428,0.324489 1.51703,0.518663 2.43357,0.455855 0.91656,-0.0627 1.84719,-0.38184 2.96371,-0.415885 1.11656,-0.03419 2.4191,0.216182 3.61945,0.295975 0.85076,0.05655 1.64785,0.0298 2.40232,0.0647 0.84349,0.2211 1.61507,0.362308 2.29352,0.427304 0.53368,0.16165 1.07829,0.337081 1.67746,0.465371 1.11658,0.238995 2.41962,0.307733 3.70367,0.410176 1.28405,0.10258 2.54914,0.238698 4.06585,-0.159885 0.76188,-0.200318 1.58629,-0.535825 2.36998,-0.893625 0.78365,0.357781 1.60813,0.693317 2.36997,0.893625 1.51673,0.398583 2.78181,0.262472 4.06584,0.159885 1.28405,-0.102448 2.58708,-0.171181 3.70368,-0.410176 0.56974,-0.121989 1.0533,-0.257985 1.56194,-0.413031 0.65228,-0.05421 1.4119,-0.222019 2.21038,-0.427301 0.82528,-0.05599 1.65842,-0.05442 2.60098,-0.117048 1.20037,-0.0798 2.5029,-0.330171 3.61942,-0.295975 1.11654,0.03404 2.04718,0.35319 2.96371,0.415885 0.9166,0.0628 1.81876,-0.131361 2.43306,-0.455856 0.2476,-0.130833 0.44124,-0.282961 0.6155,-0.433962 0.61708,0.164791 1.26113,0.33674 1.81026,0.485354 1.85166,0.500946 3.15452,0.888823 4.38283,0.86603 1.22828,-0.02262 2.38211,-0.456133 3.46149,-0.911712 1.07933,-0.455538 2.08395,-0.933832 2.89338,-1.059219 0.80941,-0.125469 1.42342,0.10248 2.61441,0.683309 1.19101,0.580814 2.95875,1.51505 4.47543,1.913823 1.51672,0.398583 2.78236,0.262472 4.06639,0.159885 1.31812,-0.568798 2.44289,-1.117437 3.46597,-1.640695 1.03038,0.01896 2.16879,0.202763 3.24163,0.274083 1.20036,0.0798 2.29834,-0.01222 3.31248,0.147508 1.01417,0.159578 1.94476,0.569856 3.06139,0.808928 1.11657,0.238995 2.41905,0.307734 3.70311,0.410176 1.17683,0.09402 2.3386,-3.626525 3.69198,-4.5566392 1.40781,0.3084981 2.9646,0.7005464 4.74887,1.2076812 1.85162,0.580885 4.25214,1.195744 6.10378,1.696842 1.85163,0.500946 3.15451,0.888823 4.38279,0.86603 1.22832,-0.02262 2.38214,-0.456133 3.46148,-0.911712 1.07937,-0.455538 2.08396,-0.933832 2.89343,-1.059218 0.80938,-0.12547 1.42338,0.10248 2.61439,0.683308 1.191,0.580814 2.95875,1.51505 4.47541,1.913824 1.51673,0.398582 2.78238,0.262471 4.06643,0.159884 1.28403,-0.102448 2.58652,-0.171181 3.70312,-0.410176 1.11662,-0.239072 2.04723,-0.64934 3.06136,-0.808928 1.01414,-0.159579 2.11214,-0.06866 3.31251,-0.148458 1.20033,-0.0798 2.50288,-0.330171 3.61942,-0.295976 1.11651,0.03404 2.04714,0.35224 2.96371,0.414935 0.91657,0.0628 1.81878,-0.13041 2.43302,-0.454905 0.6143,-0.324563 0.94031,-0.779879 1.28909,-1.024955 0.34873,-0.243176 0.72091,-0.276929 1.24664,-0.273134 0.52574,0.0058 1.20483,0.05056 2.18193,-0.194143 0.97706,-0.244736 2.25152,-0.7798054 3.16792,-0.9849842 0.32663,-0.07299 0.57845,-0.067947 0.84043,-0.072328 0.16063,0.057352 0.32179,0.1143144 0.49164,0.1522603 0.57677,0.1288987 1.19463,0.1061478 1.78793,0.051393 0.59322,0.054737 1.21174,0.077489 1.78849,-0.051393 0.14266,-0.031885 0.27643,-0.081479 0.4124,-0.1275241 0.10653,0.09591 0.21871,0.1558604 0.33929,0.159884 0.29984,0.00951 0.5684,-0.021664 0.85044,-0.037115 0.88735,0.2364392 2.00971,0.687334 2.89786,0.909802 0.97706,0.244697 1.65621,0.199839 2.18194,0.194143 0.52567,-0.0037 0.89789,0.02995 1.24661,0.273134 0.34878,0.245076 0.67426,0.700392 1.28851,1.024955 0.61429,0.32449 1.51646,0.518663 2.43304,0.455856 0.91653,-0.0627 1.84717,-2.103783 2.96375,-2.137828 1.11651,-0.03419 2.41905,0.216182 3.61938,0.295975 0.8508,0.05655 1.64786,0.0298 2.40235,0.0647 0.84351,0.221099 1.61508,0.362307 2.29353,0.427303 0.53365,0.16165 1.07883,0.337081 1.678,0.465371 1.11659,0.238996 2.41905,0.307734 3.70313,0.410175 1.28404,0.10258 2.54969,0.238699 4.06639,-0.159884 0.76189,-0.200317 1.5863,-0.535825 2.36998,-0.893625 0.78365,0.357781 1.60757,0.693317 2.36941,0.893625 1.51673,0.398583 2.78237,0.262473 4.06641,0.159884 1.28404,-0.102447 2.5865,-0.171179 3.7031,-0.410175 0.56978,-0.121989 1.05328,-0.257985 1.56193,-0.413031 0.65232,-0.05421 1.41189,-0.222019 2.21041,-0.427301 0.82525,-0.05599 1.65897,-0.05442 2.60153,-0.117049 1.20037,-0.0798 2.50293,-2.6260939 3.61943,-2.5918979 1.11654,0.03404 2.04663,0.3531898 2.96316,0.4158848 0.91658,0.0628 1.81931,-0.131362 2.4336,-0.4558558 0.61424,-0.324563 0.93974,-0.779879 1.28847,-1.024954 0.34875,-0.243176 0.72099,-0.276929 1.24667,-0.273135 0.52574,0.0058 1.20486,0.05056 2.1819,-0.194143 0.88013,-0.220445 1.97009,-0.6486351 2.8538,-0.8869622 0.28872,0.016638 0.5868,0.023872 0.89453,0.014263 0.12059,-0.00407 0.23279,-0.063958 0.3393,-0.1598841 0.13598,0.046044 0.26977,0.095637 0.41237,0.1275241 0.57684,0.1288986 1.19525,0.1061479 1.78851,0.051393 0.59326,0.054737 1.21117,0.07749 1.78794,-0.051393 0.17191,-0.038439 0.32185,-0.1206651 0.48437,-0.1789169 0.25742,0.00544 0.52765,0.02747 0.84765,0.098982 0.91647,0.2051789 2.1909,0.7402481 3.16797,0.9849851 0.97704,0.244697 1.6562,0.199839 2.18192,0.194142 0.52572,-0.0037 0.8979,0.02995 1.24666,0.273135 0.34875,0.245076 0.67425,0.700392 1.2885,1.024954 0.6143,0.3244908 1.51702,-3.499201 2.4336,-3.562009 0.91653,-0.0627 1.84719,1.3401013 2.96371,1.3060573 1.11652,-0.03419 2.41909,0.2171308 3.61942,0.2969258 1.20036,0.0798 2.29834,-0.01222 3.31248,0.147507 1.01416,0.159578 1.94419,0.569856 3.06082,0.808929 1.1166,0.238995 2.41962,0.307733 3.70368,0.410175 1.28402,0.102581 2.54913,-4.3455399 4.06586,-4.7441177 1.5167,-0.3987732 3.28441,-1.33301 4.47541,-1.91382744 1.19101,-0.5808089 1.80554,-0.8087691 2.61498,-0.6833032 0.80941,0.125384 1.81405,0.6036802 2.89338,1.05921854 1.07938,0.4555774 2.2332,0.8890967 3.46151,0.9117066 1.22828,0.022803 2.53063,-0.365085 4.38226,-0.8660264 1.85164,-0.50109794 4.49606,-0.027522 6.10432,-1.69684374 2.89321,-3.00304056 12.39833,-9.86938986 18.54294,-8.81048666 3.67813,0.6338523 -0.63306,-1.2108062 8.0597,0.4138596 1.0264,-0.034194 1.47669,-3.8323588 2.48994,-4.0094228 1.01323,-0.177062 6.52248,-3.56845 7.28571,-3.842403 0.76321,-0.273953 12.43598,-1.692084 1.2115,-1.692084 0.18399,-1.063139 5.17154,-0.688384 4.97432,-9.144677 -0.19743,-8.456292 -9.19868,-11.571604 -9.5011,-18.86798 -0.30243,-7.296372 -14.89334,0.569972 -37.49214,0.589891 -0.0231,1.6e-5 -0.06,-9.54e-4 -0.083,-9.54e-4 -3.11074,-0.641851 -8.34387,-0.686548 -17.62105,-0.628109 -8.88618,0.05595 -23.19302,0.184282 -36.34034,0.297877 -8.77015,-0.07708 -16.40174,-0.139108 -23.67796,-0.197949 -1.60162,-0.07511 -3.48608,-0.110028 -5.71541,-0.119917 -1.95782,-0.0087 -4.2493,0.0039 -6.76448,0.01903 -2.51524,-0.01529 -4.80607,-0.02776 -6.76396,-0.01903 -2.23313,0.0098 -4.12148,0.04454 -5.72488,0.119917 -7.27421,0.05885 -14.90248,0.120903 -23.66904,0.197949 -13.14747,-0.113606 -27.4536,-0.241918 -36.33976,-0.297877 -5.50038,-0.03465 -9.49285,-0.02603 -12.58089,0.105639 -3.01074,-0.123431 -6.86615,-0.138779 -12.12889,-0.105639 -2.40791,0.01509 -6.77408,0.05682 -9.84709,0.08088 -9.48389,-0.485564 -17.94694,-0.991192 -23.07419,-0.09612 -4.56192,-0.0092 -7.9234,0.047 -10.45308,0.254097 -5.73789,-0.0487 -11.52941,-0.09757 -16.64398,-0.138951 -1.29976,-0.06096 -2.93242,-0.08102 -4.63782,-0.09705 -5.2078,-0.271938 -10.06152,-0.532299 -14.13723,-0.526278 -3.21003,0.0047 -5.91939,0.189411 -8.03347,0.638578 -6.76387,0.05481 -13.74354,0.111648 -21.82865,0.182721 -13.14746,-0.113606 -27.45418,-0.241918 -36.34035,-0.297876 -9.43195,-0.0594 -14.7939,-0.04525 -17.88056,0.629061 -15.86176,-0.01648 -31.72661,-2.045026 -39.75048,-0.644287 -4.50503,-0.0089 -7.8317,0.04691 -10.3521,0.247436 -3.20772,-0.255739 -7.76802,-0.274659 -14.50668,-0.23221 -1.45241,0.0092 -4.22641,0.03591 -5.93971,0.04853 -5.57824,-0.289852 -10.74611,-0.578348 -15.07307,-0.57196 -3.49977,0.005 -6.41527,0.219797 -8.59374,0.766103 -2.47393,0.02152 -4.29762,0.03414 -6.7338,0.0552 -8.77015,-0.07708 -16.4023,-0.139107 -23.67853,-0.197951 -1.60163,-0.07511 -3.48552,-0.110003 -5.71484,-0.119917 -1.95783,-0.0087 -4.24933,0.0039 -6.7645,0.01903 -2.51522,-0.01529 -4.80608,-0.02775 -6.76393,-0.01903 -2.23315,0.0098 -4.12152,0.04454 -5.72489,0.119917 -7.27421,0.05885 -14.90247,0.120904 -23.66904,0.197951 -13.14747,-0.113605 -27.45361,-0.241918 -36.33979,-0.297874 -9.43193,-0.0594 -14.793904,-0.04525 -17.880538,0.629058 -15.861794,-0.01648 -31.726654,-2.045023 -39.75049,-0.644287 -6.66799,-0.01342 -10.923152,0.08719 -13.47319,0.644287 -11.886682,-0.01228 -23.7982601,-1.165188 -32.3989422,-1.152484 z"
       sodipodi:nodetypes="csccscccscsscccccsccccccscccssccccccccscscccccccccsccccccccsccccccccscccccsccscccccscccscsccscscccccscscccssccsccsccscscccsccsccsccscccccsccsccscccssscccscscccccsssccssscssccsccscscccsccsscsccscscccsccscssccscccscsccsccsscscsccsssccsscssccsscsccsccccscscccccsccscccscccccsccccsccccc" />
    <path
       id="path1824"
       style="fill:#7ca57f;fill-opacity:1;stroke:#000000;stroke-width:0.522757px;stroke-linecap:butt;stroke-linejoin:miter;stroke-opacity:1"
       d="m -28.471163,-49.825884 c -0.735813,0.0081 -1.312557,0.02788 -1.711494,0.0609 -6.382989,0.527777 -6.755509,0.895271 -7.118291,6.613214 -0.362783,5.717904 -0.71598,5.396378 -0.939172,13.912587 -0.223419,8.516209 -0.316657,7.591429 -0.11217,10.573628 0.09919,1.446615 0.268316,2.969494 0.494976,3.367039 0.240579,0.421959 1.137101,0.551547 1.491628,0.614784 0.214401,0.03819 2.033847,0.243696 5.376106,1.001165 0.396635,0.08987 0.810091,0.160666 1.234931,0.22174 1.938437,0.278659 9.858676,0.359749 11.811225,1.173419 2.159897,0.900085 21.0177222,0.579006 22.7164782,1.677338 2.7007507,1.7461711 8.7050948,2.9277621 9.0306768,2.9787479 1.097964,0.1719403 2.419096,4.5645232 4.019525,4.6013661 1.600413,0.036842 11.387772,3.1380473 13.044061,2.8559877 1.656282,-0.282192 3.089378,1.2319332 4.261713,1.0354252 1.172356,-0.196097 2.083912,-0.049526 3.098209,-0.2579064 1.014279,-0.2084978 2.130925,-0.7729346 3.601,-1.1286919 1.470091,-0.3557096 3.293612,-0.503568 5.182467,-0.6509442 1.888844,-0.1469632 3.842928,-0.2940703 5.340951,0.037115 1.498044,0.3311081 2.539961,1.140991 3.870527,1.8405439 1.33058,0.6995976 2.949869,1.2883926 4.643408,1.1905506 1.693537,-0.098 3.53764,-0.219257 5.042959,-1.067781 3.113851,-1.7552246 0.638605,0.5024376 4.700885,0.8810423 1.598175,0.1489505 5.64797,4.7164942 7.304257,4.4344347 1.656281,-0.2821921 3.088824,1.2319336 4.261154,1.0354256 1.172352,-0.1960974 2.08447,-0.049526 3.098766,-0.2579068 1.014276,-0.2084978 2.130928,-0.7729347 3.600999,-1.1286917 1.470091,-0.3557097 3.293614,-0.5035682 5.182468,-0.6509445 1.888841,-0.1469631 3.842926,-0.2940702 5.340955,0.037115 1.498045,0.3311082 2.539945,1.140991 3.870515,1.8405439 1.33058,0.6995971 2.94932,1.2883931 4.64286,1.1905511 1.69353,-0.098 3.46178,-0.883562 5.04351,-1.067781 1.58172,-0.184267 2.97701,0.233383 4.34487,0.393043 1.36783,0.15946 2.7081,0.0611 3.88057,-0.368299 1.17248,-0.4294072 2.17703,-1.1903655 2.9213,-1.4237146 0.74427,-0.2334307 1.22805,2.9319415 2.04688,3.2876907 0.81884,0.3558403 1.97247,0.7722215 3.56361,0.6252544 1.59117,-0.1471003 3.61999,-0.8584966 5.06585,-1.4141964 1.44586,-0.5558168 2.30892,-0.9556428 3.39842,-0.9126555 1.08949,0.042905 2.40544,0.5287977 4.43192,0.9107558 2.02648,0.3799052 4.76316,0.6597186 7.4213,0.3473613 2.65816,-0.3122794 5.23758,-1.2147904 8.21149,-2.3601617 2.97391,-1.1453357 6.34243,-2.5332848 8.6847,-3.1234114 2.34223,-0.5902894 3.65812,-0.3823739 5.553,0.3464107 1.89485,0.7287845 4.36861,1.9787004 6.55299,2.8464741 2.18439,0.8677702 4.07912,1.3517742 6.05301,1.3190248 0.30442,-0.00526 0.61061,-0.07102 0.91685,-0.1589335 0.57807,0.1209195 1.15479,0.2287056 1.73548,0.2969258 2.65814,0.3123576 5.39484,0.032548 7.42131,-0.3473631 2.02648,-0.3819528 3.34242,-0.8678516 4.43192,-0.9107556 1.0895,-0.042991 1.95314,0.3568403 3.39898,0.9126572 1.44584,0.5556998 3.4741,1.2671038 5.06527,1.4141967 0.70529,0.065146 1.31146,0.00968 1.85382,-0.092311 1.06075,0.2196374 1.91358,0.3492477 2.29909,0.2835996 1.65628,-0.282192 3.08936,1.2319332 4.26171,1.0354252 1.17235,-0.1960971 2.08391,-0.049525 3.09821,-0.2579064 0.20166,-0.041444 0.43616,-0.1375408 0.64788,-0.2027084 0.0842,-0.00782 0.16717,-0.0073 0.25168,-0.017132 1.36784,-0.1596635 2.76313,-0.5773097 4.34484,-0.3930429 1.58175,0.1842223 3.35002,0.9697717 5.04354,1.0677807 1.69356,0.09785 3.31225,-0.4909534 4.64284,-1.1905506 0.27039,-0.1421584 0.50835,-0.2838287 0.76115,-0.4301575 0.77108,0.3761788 1.48668,0.8346355 2.303,1.2638287 1.33058,0.6995964 2.9499,1.2883924 4.64341,1.1905504 1.69355,-0.098 3.53765,-0.219257 5.04298,-1.067781 3.11384,-1.7552248 0.63804,-4.2329029 4.70032,-3.8542983 1.59818,0.1489502 11.38776,3.1380474 13.04406,2.8559878 1.65626,-0.2821923 3.08939,1.2319325 4.26172,1.0354255 1.17235,-0.1960974 2.08445,-0.049525 3.09876,-0.2579066 1.01427,-0.2084981 2.13038,-0.7729349 3.60043,-1.1286919 1.47011,-0.3557096 3.29419,-0.5035681 5.18305,-0.6509446 1.88883,-0.1469631 3.84291,-0.2940699 5.34094,0.037115 1.49803,0.3311081 2.53996,1.1409911 3.87052,1.8405441 1.33058,0.699597 2.94932,1.288392 4.64286,1.19055 1.69354,-0.098 3.46178,-0.883561 5.04351,-1.06778 1.58171,-0.1842669 2.97702,0.233383 4.34487,0.393043 1.36783,0.159459 2.70755,0.0611 3.88,-0.368299 1.1725,-0.4294072 2.17762,-1.1903655 2.92188,-1.4237147 0.74426,-0.2334304 1.22803,0.062038 2.04687,0.4177873 0.81883,0.3558402 1.97246,0.7722217 3.56361,0.6252545 1.59118,-0.1471003 3.61997,-0.8584967 5.06584,-1.4141964 1.44585,-0.5558169 2.30896,-0.9556429 3.39843,-0.9126555 1.08948,0.042905 2.40546,0.5287977 4.43191,0.9107556 2.02647,0.3799055 4.76319,0.6597188 7.42129,0.3473613 2.65818,-0.3122791 5.23705,-1.2147902 8.21093,-2.3601616 2.97391,-1.1453357 6.34302,-2.5332846 8.68528,-3.1234112 2.34223,-0.5902897 3.65756,-0.3823741 5.55243,0.3464106 1.89486,0.7287847 4.36918,1.9787002 6.55356,2.8464739 2.18436,0.8677702 4.07912,1.3517742 6.053,1.3190248 0.30443,-0.00526 0.61061,-0.07102 0.91687,-0.1589333 0.57807,0.1209194 1.15479,0.2287056 1.73547,0.2969258 2.65813,0.3123574 5.39485,0.032548 7.4213,-0.3473631 2.02648,-0.3819529 3.34243,-0.8678517 4.4319,-0.9107557 1.08952,-0.042991 1.95259,0.3568404 3.39846,0.9126574 1.44585,0.5556997 3.47465,1.2671036 5.06582,1.4141963 1.59114,0.1469632 2.74477,-0.2694158 3.56362,-0.625251 0.81883,-0.3557521 1.30264,-0.6502671 2.04687,-0.4168348 0.74428,0.2333473 1.74884,0.9933549 2.92133,1.4227569 1.17244,0.4294036 2.5122,0.527757 3.87999,0.3683006 1.36785,-0.1596634 2.7637,-0.5773097 4.34541,-0.3930429 1.58175,0.1842223 3.34946,0.9697722 5.04298,1.0677802 1.14319,0.06605 2.24447,-0.193155 3.25388,-0.575766 0.55093,0.2448689 1.07333,0.457494 1.54299,0.378771 1.17235,-0.1960968 2.08392,-0.049526 3.09819,-0.2579062 1.01427,-0.208498 2.13094,-0.7729348 3.601,-1.1286919 1.47012,-0.3557095 3.29419,-0.5035679 5.18304,-0.6509443 1.88883,-0.1469632 3.84236,-0.2940702 5.34039,0.037115 1.49807,0.3311081 2.54051,1.1409912 3.87108,1.8405441 1.33057,0.6995973 2.94932,1.2883923 4.64285,1.1905503 1.69354,-0.098 3.53766,-0.219257 5.04296,-1.067781 3.11385,-1.7552244 0.63861,-4.2329028 4.70089,-3.8542981 1.59819,0.1489504 11.38777,3.1380473 13.04406,2.8559878 1.65627,-0.2821921 3.08939,1.2319333 4.26171,1.0354253 1.17238,-0.1960971 2.0839,-0.049526 3.09821,-0.2579065 1.01428,-0.208498 2.13091,-0.7729348 3.60101,-1.1286919 1.47007,-0.3557096 3.29359,-0.503568 5.18245,-0.6509444 1.88883,-0.1469632 3.84292,-0.2940701 5.34094,0.037115 1.49805,0.3311081 2.53997,1.1409912 3.87053,1.8405441 1.33058,0.6995967 2.9499,1.2883927 4.64344,1.1905507 1.6935,-0.098 3.46121,-0.883562 5.04293,-1.067781 1.58175,-0.1842666 2.97702,0.233383 4.34487,0.393043 1.36783,0.15946 2.70813,0.0611 3.88057,-0.368299 1.17247,-0.4294069 2.17705,-1.1903652 2.92132,-1.4237142 0.74425,-0.2334307 1.22804,0.062038 2.04687,0.417787 0.81883,0.3558403 1.97303,0.7722217 3.56418,0.6252546 1.59116,-0.1471003 3.61941,-0.8584966 5.06527,-1.4141964 1.44584,-0.555817 2.30893,-0.955643 3.39843,-0.9126556 1.08947,0.042905 2.40545,0.5287978 4.43192,0.9107557 2.02644,0.3799054 4.76317,0.6597187 7.42131,0.3473615 2.65815,-0.3122793 5.23756,-2.9367326 8.21145,-4.0821039 2.97393,-1.1453358 6.34246,-2.5332847 8.68472,-3.1234113 2.34222,-0.59028967 3.65813,-0.38237377 5.553,0.3464106 1.89484,0.7287847 4.36859,1.9787004 6.553,2.8464739 2.18437,0.8677703 4.0791,1.3517742 6.05299,1.3190249 0.30442,-0.00526 0.61062,-0.07102 0.91686,-0.1589333 0.57808,0.1209194 1.15477,0.2287056 1.73547,0.2969259 2.65815,0.3123572 5.39543,0.032548 7.42189,-0.3473631 2.02648,-0.3819531 3.34188,-3.1637746 4.43137,-3.2066785 1.08947,-0.042991 1.95313,0.3568403 3.39895,0.9126572 1.44585,0.5556999 3.47411,1.2671039 5.06531,1.4141964 1.59115,0.1469632 2.74474,-0.2694157 3.5636,-0.6252511 0.81882,-0.3557521 1.30261,-0.6502669 2.04686,-0.4168348 0.74428,0.2333473 1.74942,0.9933551 2.92187,1.422757 1.17244,0.4294036 2.51219,0.527757 3.88002,0.3683006 1.36785,-0.1596634 2.76314,-0.5773096 4.34486,-0.3930429 1.58173,0.1842222 3.35002,-3.0480929 5.04354,-2.9500839 1.69355,0.09785 3.31225,1.2309885 4.64284,0.5313913 1.33053,-0.699553 2.37247,-1.5094325 3.87052,-1.84054404 1.49802,-0.3311913 3.45209,-4.76832006 5.34094,-4.62135126 1.88882,0.1473716 3.71294,0.2952366 5.18305,0.6509479 1.47006,0.3557552 2.58617,0.9201887 3.60041,1.12869 1.01432,0.2083759 1.92645,0.061801 3.09876,0.2579048 1.17235,0.1965064 2.6049,-1.3176122 4.26118,-1.0354253 1.65629,0.2820664 5.21265,0.3061704 6.81304,0.2693244 1.60044,-0.036842 2.92157,-4.4294233 4.01952,-4.6013637 0.32561,-0.050986 2.54148,-0.8157407 5.24219,-2.5619183 1.69876,-1.0983331 22.51921,-2.6187211 24.6791,-3.5188021 1.95253,-0.813671 4.133,-0.894762 6.07141,-1.173418 0.42484,-0.06107 0.8383,-0.131856 1.23491,-0.221742 3.34227,-0.75747 5.16174,-0.962972 5.37611,-1.001165 0.35454,-0.06324 1.25049,-0.192825 1.49109,-0.614784 0.22663,-0.397546 0.27411,-7.754213 0.3733,-9.200831 0.20453,-2.982196 0.11125,0.01385 -0.1122,-8.502293 -0.2232,-8.51621 -0.57693,-8.193734 -0.93971,-13.911637 -0.3628,-5.71794 -0.73474,-6.086386 -7.11773,-6.614165 -6.38298,-0.527738 -60.86447,6.103091 -83.17731,5.771776 -11.15631,-0.165589 -24.79227,-0.24223 -37.66514,-0.220788 -12.87283,0.02146 -24.98256,0.141492 -33.08697,0.368298 -3.73797,0.104599 -7.53105,0.251733 -11.1903,0.485355 -9.7811,0.02033 -19.54371,0.07671 -27.90452,0.200808 -22.31282,0.331313 -74.15929,-2.523411 -80.54227,-1.995671 -3.1041,0.256662 -4.77866,0.481354 -5.72989,1.296185 -1.47859,-0.02104 -3.73985,-0.05501 -5.06751,-0.07423 -19.03065,-0.61587 -44.96991,-1.35072 -51.09142,-1.28286 -0.73583,0.0081 -1.31259,0.02788 -1.71153,0.0609 -2.75293,0.227626 -4.38398,0.427112 -5.38222,1.037328 -6.36209,0.06135 -12.17335,0.147103 -16.64284,0.27218 -3.73795,0.104599 -7.53101,0.251733 -11.19028,0.485355 -9.78112,0.02033 -19.5437,0.07671 -27.90451,0.200805 -22.31284,0.331315 -74.15929,-2.523409 -80.54227,-1.995668 -2.80995,0.232339 -4.45385,0.434722 -5.44587,1.075395 -4.46171,-0.04483 -8.86322,-0.08197 -13.62218,-0.101842 -17.71617,-0.545003 -37.53751,-1.093051 -42.82135,-1.034476 -0.73582,0.0081 -1.31201,0.02789 -1.71095,0.0609 -3.21177,0.265565 -4.9005,0.491433 -5.83313,1.37803 -3.08779,0.09978 -6.18798,0.224547 -9.19975,0.416834 -9.78114,0.02034 -19.54372,0.07671 -27.90454,0.200805 -22.312837,0.331315 -74.15929,-2.523409 -80.54227,-1.995669 -3.204114,0.264933 -4.892974,0.490033 -5.826999,1.371367 -19.0856015,-0.638414 -49.436821,-1.505716 -56.061844,-1.432274 z"
       sodipodi:nodetypes="ccsccsccccsssccccccccssccccccccccscccccccscssccccccccccsccscscscsscccsccscscscccccccscssccsccccscscsccccscsscsscccscsscscsssccscsscssccscsssssscscsscsccsssssssssscsssssccsccsccsccsccccccccccc" />
    <path
       style="fill:none;stroke:#000000;stroke-width:0.522757px;stroke-linecap:butt;stroke-linejoin:miter;stroke-opacity:1"
       d="m 123.47233,6.0807886 c 1.81824,-1.1561813 3.63507,-2.3114222 5.30395,-3.066243 1.66893,-0.7548223 3.18829,-1.1081625 4.52676,-1.6317243 1.33846,-0.52360069 2.4966,-1.21787529 3.5099,-1.91202599"
       id="path1828" />
    <path
       style="fill:none;stroke:#000000;stroke-width:0.522757px;stroke-linecap:butt;stroke-linejoin:miter;stroke-opacity:1"
       d="m 310.09249,9.0941873 c 1.81826,-1.1561813 3.63508,-2.3114222 5.30396,-3.066243 1.66894,-0.7548223 3.18828,-1.1081625 4.52675,-1.6317243 1.33849,-0.5236007 2.49661,-1.2178753 3.50991,-1.912026"
       id="path6967" />
    <path
       style="fill:none;stroke:#000000;stroke-width:0.522757px;stroke-linecap:butt;stroke-linejoin:miter;stroke-opacity:1"
       d="m 440.78675,8.8071969 c -1.81825,-1.1561813 -3.63508,-2.3114222 -5.30396,-3.066243 -1.66893,-0.7548223 -3.1883,-1.1081625 -4.52675,-1.6317243 -1.33849,-0.5236007 -2.49662,-1.2178753 -3.50992,-1.912026"
       id="path6969" />
  </g>
</svg>
