<?xml version="1.0" encoding="UTF-8" standalone="no"?>
<!-- Created with Inkscape (http://www.inkscape.org/) -->

<svg
   width="677.33331mm"
   height="70mm"
   viewBox="0 0 677.33331 70"
   version="1.1"
   id="svg1655"
   xmlns="http://www.w3.org/2000/svg"
   xmlns:svg="http://www.w3.org/2000/svg">
  <defs
     id="defs1652">
    <mask
       maskUnits="userSpaceOnUse"
       id="mask3057">
      <rect
         style="fill:#a8e5ff;fill-opacity:0.997602;stroke:none;stroke-width:0.601028;stroke-linecap:round;stroke-linejoin:round;stroke-miterlimit:4;stroke-dasharray:none;paint-order:markers stroke fill;stop-color:#000000"
         id="rect3059"
         width="59.12896"
         height="25.631119"
         x="265.392"
         y="169.08379"
         ry="0" />
    </mask>
    <clipPath
       clipPathUnits="userSpaceOnUse"
       id="clipPath3063">
      <rect
         style="fill:#a8e5ff;fill-opacity:0.997602;stroke:none;stroke-width:2.21938;stroke-linecap:round;stroke-linejoin:round;stroke-miterlimit:4;stroke-dasharray:none;paint-order:markers stroke fill;stop-color:#000000"
         id="rect3065"
         width="216.95833"
         height="95.25"
         x="352.01245"
         y="136.82024"
         ry="0" />
    </clipPath>
    <clipPath
       clipPathUnits="userSpaceOnUse"
       id="clipPath3071">
      <rect
         style="fill:#a8e5ff;fill-opacity:0.997602;stroke:none;stroke-width:2.21938;stroke-linecap:round;stroke-linejoin:round;stroke-miterlimit:4;stroke-dasharray:none;paint-order:markers stroke fill;stop-color:#000000"
         id="rect3073"
         width="216.95833"
         height="95.25"
         x="352.01245"
         y="136.82024"
         ry="0" />
    </clipPath>
    <mask
       maskUnits="userSpaceOnUse"
       id="mask3057-3">
      <rect
         style="fill:#a8e5ff;fill-opacity:0.997602;stroke:none;stroke-width:0.601028;stroke-linecap:round;stroke-linejoin:round;stroke-miterlimit:4;stroke-dasharray:none;paint-order:markers stroke fill;stop-color:#000000"
         id="rect3059-3"
         width="59.12896"
         height="25.631119"
         x="265.392"
         y="169.08379"
         ry="0" />
    </mask>
  </defs>
  <g
     id="g879"
     transform="matrix(0.93487629,0,0,0.97194321,18.509352,-1.3017111)">
    <path
       style="fill:#d1d8b1;fill-opacity:1;stroke:#000000;stroke-width:1.97265px;stroke-linecap:butt;stroke-linejoin:miter;stroke-opacity:1"
       d="m 669.73001,52.937025 c -3.27344,0.147342 -8.28829,7.777523 -11.49505,7.162978 -3.20677,-0.614893 -6.71102,3.754308 -10.51266,3.877287 -3.80163,0.122978 -7.90075,0.762235 -11.20695,0.417663 -3.3062,-0.344572 -5.81866,-1.672973 -9.42201,-2.311417 -3.60346,-0.638097 -8.29768,-0.589369 -12.33059,0.06961 -4.03291,0.664781 -7.40486,1.942829 -11.96735,2.975501 -4.5626,1.032556 -10.31482,1.819619 -16.72858,1.622505 -6.41376,-0.19723 -13.48837,-1.377476 -18.81091,-2.361072 -5.32265,-0.983829 -8.89289,-1.770543 -15.57069,-1.376664 -6.67781,0.39446 -16.46317,1.967773 -24.23219,3.123423 -7.76891,1.155535 -13.52125,1.893406 -18.44733,1.154375 -4.92596,-0.739032 -9.02519,-2.951602 -13.22352,-3.590162 -4.19821,-0.638096 -8.49586,0.295844 -13.09122,1.230482 -4.59536,0.93394 -9.48787,1.86881 -14.64534,2.384971 -5.15747,0.516278 -10.57921,0.614893 -15.47195,0.786599 -4.89274,0.171706 -9.25648,0.417663 -12.33059,0.983829 -3.07412,0.566165 -4.85918,1.451031 -7.50453,0.884053 -2.64534,-0.566165 -6.1496,-2.583014 -8.56309,-3.836931 -2.41361,-1.253917 -3.73566,-1.745483 -8.6615,-2.261529 -4.92585,-0.516278 -13.45492,-1.05692 -19.24002,-0.810963 -5.78498,0.245957 -8.82622,1.278861 -11.43846,1.302645 -2.61213,0.0232 -4.79411,-0.959465 -7.10795,-1.180362 -2.31383,-0.220434 -4.76009,0.320208 -8.06617,0.935101 -3.30597,0.614893 -7.47142,1.303225 -12.1661,1.253685 -4.69468,-0.04641 -9.91801,-0.836486 -14.51326,-1.7217 -4.59536,-0.885213 -8.5623,-1.868926 -11.50467,-2.582085 -2.94227,-0.713508 -4.85952,-1.155535 -8.03296,-0.885214 -3.17331,0.271481 -7.60338,1.254613 -14.41383,1.647681 -6.81045,0.393299 -16.00084,0.196069 -23.00935,0.344572 -7.00851,0.147342 -11.83504,0.639256 -15.86853,0.417663 -4.0336,-0.221594 -7.27324,-1.156695 -12.06655,-1.082444 -4.79331,0.06961 -11.14063,1.156695 -16.95917,1.967773 -5.81855,0.810963 -11.10787,1.352416 -15.27355,1.327473 -4.16579,-0.0232 -7.20715,-0.614893 -10.18194,-0.294685 -2.9748,0.320208 -5.88396,1.549646 -9.91791,1.327705 -4.03394,-0.221594 -9.19107,-1.894102 -13.88517,-2.532895 -4.69422,-0.639256 -8.92577,-0.245957 -12.26484,-0.935101 -3.33908,-0.689144 -5.78556,-2.459803 -9.48811,-3.073652 -3.70254,-0.613732 -8.66126,-0.06961 -12.95879,0.689144 -4.29753,0.762235 -7.9341,1.745948 -12.33128,2.385088 -4.39708,0.639257 -9.5542,0.933941 -13.35618,0.294685 -3.80198,-0.640417 -6.24835,-2.213962 -11.00878,-2.606566 -4.76032,-0.392139 -11.83493,0.39446 -16.79411,0.491915 -4.959062,0.09281 -7.80224,-0.491915 -11.471337,-0.122979 -3.669211,0.368936 -8.165143,1.697104 -12.793956,2.090171 -4.628812,0.3933 -9.389015,-0.148502 -13.455378,-0.787758 C 61.879246,61.092166 58.507183,61.412628 54.606233,61.142539 50.705398,60.872218 37.326359,56.839596 32.631794,56.565794 27.937229,56.295473 16.905928,51.981301 7.2124315,26.342283 5.6599095,-1.8144705 -7.7548749,-53.153525 -7.3585249,-82.514308 -6.9621759,-111.87509 30.408294,-115.02276 137.25771,-116.59538 c 106.84883,-1.57262 321.59741,-1.57262 429.56325,0.058 107.96583,1.63283 109.14307,4.90046 109.9037,35.220827 0.59281,23.630558 21.50385,50.409107 26.36253,75.8358948 1.37549,7.198319 -7.75217,16.7492242 -7.71421,23.0785372 -0.32768,4.540784 -14.3209,30.551301 -14.98279,32.730516 -0.70148,2.309569 -6.51234,1.766112 -10.66018,2.60863 z"
       id="path1818" />
    <path
       id="path1820"
       style="fill:#b7c39b;fill-opacity:1;stroke:#000000;stroke-width:1.97265px;stroke-linecap:butt;stroke-linejoin:miter;stroke-opacity:1"
       d="m 3.1686587,-109.89873 c 222.4202313,-1.96708 444.8428713,-3.93416 556.1874113,-4.32862 111.34454,-0.39446 141.66803,9.59833 143.05686,36.746775 0.84602,16.537727 16.91926,52.339145 -0.90103,73.074492 -10.42867,12.1345988 -11.05894,39.319694 -22.74409,39.319694 h -1.1e-4 c -3.40995,0 -5.95178,3.344785 -12.10161,3.245938 -6.14983,-0.104416 -15.47229,10.20306 -22.15032,8.998218 -6.67815,-1.204842 -10.71118,-1.745715 -14.44648,-1.49941 -3.73543,0.245957 -7.17336,1.279093 -11.14063,2.311765 -3.96728,1.032555 -8.46321,2.065575 -12.56268,2.852406 -4.09935,0.786599 -7.80213,1.327704 -10.7114,0.736711 -2.90927,-0.591689 -5.02505,-2.312461 -8.42987,-2.557258 -3.40494,-0.244797 -8.09928,0.984989 -12.46336,1.820663 -4.36409,0.836486 -8.39723,1.278629 -12.72832,1.05692 -4.33109,-0.221594 -8.95922,-1.106807 -13.95104,-1.352416 -4.99183,-0.245958 -10.34725,0.148502 -14.90962,-1.05808 -4.56226,-1.205886 -8.33078,-4.008985 -12.23185,-5.508279 -3.90118,-1.499411 -7.93432,-1.696176 -13.71942,-0.810963 -5.7851,0.885214 -13.3225,2.852639 -20.66184,4.475492 -7.33933,1.622969 -14.47993,2.901597 -20.76115,4.204938 -6.28122,1.303341 -11.70285,2.631161 -21.78639,2.950558 -10.08355,0.319048 -24.82775,-0.368936 -35.07567,0.245957 -10.24793,0.614892 -16.00027,2.533126 -21.98457,2.630929 -5.98419,0.09281 -12.1992,-1.623665 -17.65371,-1.918118 -5.4545,-0.294684 -10.14861,0.836486 -15.30619,1.574126 -5.15747,0.737871 -10.7775,1.081283 -16.62927,-0.0232 -5.85165,-1.106807 -11.93447,-3.664645 -16.06681,-5.484379 -4.13246,-1.819735 -6.31445,-2.901714 -17.58761,-3.663369 -11.27328,-0.762235 -31.6374,-1.204262 -59.63892,-1.769847 -28.00152,-0.566166 -63.63872,-1.25415 -86.48277,-1.254034 -22.84394,1.16e-4 -32.89369,0.689144 -41.15838,1.672393 -8.2648,0.983828 -14.74432,2.262341 -20.56252,3.787043 -5.818319,1.524702 -10.975559,3.29513 -18.116609,4.671909 C 70.607527,56.62712 61.483241,57.610717 54.60692,58.496046 47.730715,59.38126 45.185522,53.449802 40.22691,52.618503 34.673258,51.443846 31.437342,53.300661 28.503509,52.929425 24.76691,52.45661 24.192136,45.136785 20.687765,44.152956 17.183394,43.169128 12.951847,34.94997 9.0508977,33.72088 5.1498335,32.491675 6.8437173,31.901494 4.7290896,28.458094 2.6144619,25.014694 -3.3109684,18.719816 -2.5834494,-8.477125 -1.856045,-35.673949 0.25972826,-56.783712 1.4499223,-81.668656 2.6402309,-106.5536 2.9048457,-108.22576 3.1692315,-109.89653" />
    <path
       style="fill:#95b388;fill-opacity:1;stroke:#000000;stroke-width:1.97265px;stroke-linecap:butt;stroke-linejoin:miter;stroke-opacity:1"
       d="m 662.63192,30.590928 c -7.00851,-1.032556 -15.0748,4.591512 -20.76093,4.640819 -5.68624,0.04641 -8.99197,0.344572 -12.62785,2.065692 -3.63576,1.721468 -7.60281,4.868907 -14.87697,4.966593 -7.27404,0.09281 -17.85279,-2.852986 -27.43987,-4.082076 -9.58708,-1.229089 -18.18236,-0.736711 -25.65355,0.295845 -7.4713,1.032556 -13.81862,2.606681 -19.37233,4.426416 -5.55382,1.819735 -10.31425,3.885194 -15.00904,5.065325 -4.69491,1.18013 -9.32315,1.475162 -14.14991,-0.148503 -4.82687,-1.623897 -9.8518,-5.164867 -15.77402,-6.395233 -5.92222,-1.230366 -12.74184,-0.151983 -17.71831,0.09281 -4.97637,0.243637 -8.10867,-0.348053 -11.4277,-0.08121 -3.31914,0.261039 -6.82546,1.373995 -10.51941,1.338494 -3.69396,-0.03481 -7.5744,-1.21772 -14.18977,-1.443258 -6.61549,-0.225074 -15.9659,0.504676 -22.79193,0.835326 -6.82604,0.33065 -11.12711,0.261039 -15.10069,0.990789 -3.97369,0.730911 -7.62034,2.260718 -11.96884,2.851595 -4.34862,0.590529 -9.39772,0.243637 -13.32502,-0.121819 -3.92729,-0.365455 -6.73255,-0.747152 -11.33743,-0.121818 -4.60475,0.626495 -11.00969,2.260833 -15.91916,3.008102 -4.90946,0.747153 -8.32219,0.607932 -10.96376,0.590529 -2.64156,-0.0116 -4.51151,0.09281 -6.26392,0.835326 -1.75242,0.748313 -3.38879,2.138899 -6.47528,3.129921 -3.08648,0.990789 -7.62148,1.582246 -12.22692,1.39047 -4.60544,-0.191429 -9.28054,-1.16528 -14.89071,-1.269232 -5.61018,-0.104416 -12.15545,0.6613 -18.18683,0.904937 -6.03139,0.243636 -11.54809,-0.03481 -16.64382,0.452468 -5.09572,0.487273 -9.77093,1.739218 -15.38157,2.4692 -5.61063,0.729751 -12.15601,0.938582 -18.60792,1.251365 -6.4519,0.313248 -12.81022,0.72975 -20.43124,-0.487273 -7.62091,-1.217604 -16.50372,-4.069082 -22.48814,-5.842526 -5.98431,-1.773444 -9.06999,-2.468969 -13.13704,-2.085879 -4.06716,0.382858 -9.1165,1.84375 -14.53984,3.234684 -5.42346,1.39105 -11.2207,2.71249 -17.39253,2.78152 -6.17182,0.06961 -12.71709,-1.113768 -22.02099,-2.643343 -9.30391,-1.530039 -21.36588,-3.408014 -30.669779,-5.18169 -9.303904,-1.773675 -15.849169,-3.442819 -21.9738,-4.555427 -6.124631,-1.112608 -11.828512,-1.669028 -15.615483,-2.15607 -3.786971,-0.487273 -5.65703,-0.903776 -6.992705,-0.222753 -1.33556,0.682183 -2.139485,2.463051 -4.989193,3.501524 -2.849592,1.038357 -7.742217,1.333621 -12.899687,1.235123 C 24.720564,46.003277 22.457595,34.404663 17.366336,33.864022 12.275193,33.32338 7.5147601,15.270351 3.6797923,14.433865 -0.1551755,13.597379 -1.4851785,12.515631 -2.4092686,9.269461 c -0.9244336,-3.24617 0.1340257,-3.893218 1.1248995,-29.713495 0.9920193,-25.820277 -2.8204438,-48.235998 -1.3007986,-70.514608 1.5196453,-22.278608 3.6354185,-20.606678 117.1870277,-20.545888 113.55173,0.058 338.53025,-1.49141 450.36782,-1.91939 111.83758,-0.42811 110.52848,0.268 111.10009,26.222969 0.57161,25.955669 28.29125,51.771947 29.51684,77.38142 1.22571,25.609357 -14.46808,7.8479008 -27.01926,24.674952 -6.46518,8.667697 -10.11797,16.302644 -15.93543,15.735507 z"
       id="path1822" />
    <path
       style="fill:#7ca57f;fill-opacity:1;stroke:#000000;stroke-width:1.97265px;stroke-linecap:butt;stroke-linejoin:miter;stroke-opacity:1"
       d="m 676.91539,2.7462773 c -2.45241,0 -6.7447,2.951137 -12.82832,3.245706 -6.08362,0.294684 -13.75321,11.0883897 -20.497,10.8919727 -6.74389,-0.19607 -12.56221,0.786599 -20.62884,2.065924 -8.06663,1.278629 -18.38088,7.085739 -28.29901,7.183774 -9.91813,0.09281 -19.439,-1.278977 -30.41479,-3.7382 -10.97579,-2.459223 -23.40581,-6.000078 -32.9269,-8.065422 -9.5211,-2.065343 -16.1328,-2.655524 -27.90175,-0.982668 -11.76906,1.672393 -28.69502,5.606778 -43.63797,8.8526 -14.94294,3.245938 -27.90197,5.803196 -41.25826,6.688178 -13.35629,0.885213 -27.1087,0.09281 -37.29099,-0.983829 -10.1824,-1.082443 -16.79411,-2.459223 -22.26843,-2.580809 -5.47443,-0.121819 -9.81194,1.010512 -17.07693,2.585682 -7.265,1.574822 -17.45691,3.59167 -25.45206,4.008521 -7.99503,0.416503 -13.79227,-0.765716 -17.90663,-1.77414 -4.11436,-1.008192 -6.54538,-1.843286 -10.28504,-1.181754 -3.73966,0.6613 -8.78888,2.817485 -14.68028,4.034393 -5.89129,1.216907 -12.62351,1.494885 -19.49639,1.042997 -6.873,-0.452468 -13.88575,-1.634803 -21.83336,-1.112608 -7.94772,0.522079 -16.83065,2.747759 -25.34014,3.025505 -8.50948,0.277282 -16.64427,-1.391514 -23.32998,-3.374137 -6.6857,-1.982508 -11.92187,-4.277566 -19.44907,-5.215916 -7.52709,-0.938581 -17.3451,-0.520918 -26.83596,-0.104415 -9.49085,0.417663 -18.65431,0.835326 -26.04108,1.843402 -7.38664,1.008192 -12.996937,2.608305 -18.09335,3.199183 -5.096528,0.590529 -9.678145,0.174026 -15.56886,0.72975 C 71.683398,33.586851 64.483583,29.295941 56.161275,30.095649 47.838966,30.89501 29.972301,30.964621 21.930759,30.860205 13.889103,30.755789 7.2502481,18.307673 1.7333151,17.8204 -3.7836177,17.333126 -8.1782861,2.3504493 -11.637867,2.0028613 c -3.459696,-0.348053 -5.984305,-0.348053 -7.011721,-8.799116 -1.02753,-8.4514123 -0.560159,-25.3519143 0.56245,-49.4864573 1.121463,-24.134543 2.898621,-23.222334 4.721485,-39.426615 1.822864,-16.204393 3.6928086,-17.247513 35.765273,-18.743213 32.072464,-1.49558 102.76885,-3.44305 214.88376,-4.38198 112.1149,-0.93858 274.06342,-0.86897 355.50763,0.41651 81.44421,1.28547 82.3793,3.78936 83.35688,26.756998 0.97713,22.967638 1.99687,49.992306 2.50663,71.708115 0.50975,21.7159263 0.71351,22.6991743 -1.73901,22.6991743 z"
       id="path1824" />
    <path
       style="fill:none;stroke:#000000;stroke-width:1.97265px;stroke-linecap:butt;stroke-linejoin:miter;stroke-opacity:1"
       d="m 285.70331,29.522525 c 9.13609,-3.276566 18.26507,-6.550464 26.65072,-8.689595 8.38577,-2.139131 16.02008,-3.140478 22.74543,-4.624226 6.72545,-1.483864 12.54469,-3.451405 17.63617,-5.418598"
       id="path1828" />
  </g>
</svg>
