<?xml version="1.0" encoding="UTF-8" standalone="no"?>
<!-- Created with Inkscape (http://www.inkscape.org/) -->

<svg
   width="201.84755mm"
   height="24.236023mm"
   viewBox="0 0 201.84755 24.236023"
   version="1.1"
   id="svg324455"
   sodipodi:docname="Plane_White.svg"
   inkscape:version="1.1 (c68e22c387, 2021-05-23)"
   xmlns:inkscape="http://www.inkscape.org/namespaces/inkscape"
   xmlns:sodipodi="http://sodipodi.sourceforge.net/DTD/sodipodi-0.dtd"
   xmlns="http://www.w3.org/2000/svg"
   xmlns:svg="http://www.w3.org/2000/svg">
  <sodipodi:namedview
     id="namedview324457"
     pagecolor="#ffffff"
     bordercolor="#666666"
     borderopacity="1.0"
     inkscape:pageshadow="2"
     inkscape:pageopacity="0.0"
     inkscape:pagecheckerboard="0"
     inkscape:document-units="mm"
     showgrid="false"
     fit-margin-top="0"
     fit-margin-left="0"
     fit-margin-right="0"
     fit-margin-bottom="0"
     inkscape:zoom="1.0809568"
     inkscape:cx="242.37787"
     inkscape:cy="-4.1629787"
     inkscape:window-width="1920"
     inkscape:window-height="1017"
     inkscape:window-x="-8"
     inkscape:window-y="-8"
     inkscape:window-maximized="1"
     inkscape:current-layer="layer1" />
  <defs
     id="defs324452">
    <clipPath
       clipPathUnits="userSpaceOnUse"
       id="clipPath297720">
      <g
         id="g297730">
        <path
           id="path297722"
           style="fill:#ffcd5f;fill-opacity:1;stroke:none;stroke-width:0.885238;stroke-linecap:round;stroke-linejoin:round;stroke-opacity:1;paint-order:markers stroke fill;stop-color:#000000"
           d="m 217.89258,19.371094 c -1.68357,0.146021 -3.28438,0.831663 -4.76953,1.601562 -1.28821,0.708648 -1.59927,2.511206 -0.74645,3.675028 0.66287,0.882664 1.04041,1.990775 0.74993,3.090021 -0.59495,2.71566 -1.51752,5.359854 -2.58257,7.925325 -0.63458,1.465516 -1.55564,3.130717 -3.29787,3.389704 -1.51138,0.179893 -3.01085,0.197783 -4.41797,0.253907 -7.0599,0.24761 -14.13823,-0.122218 -21.18681,0.4224 -2.48102,0.225367 -4.64918,1.693088 -6.52998,3.22799 -1.55879,1.299129 -2.77605,2.955351 -3.9003,4.620415 -0.56892,1.191665 -0.29664,2.517703 -0.35751,3.790523 0.0698,3.937859 -0.20522,7.90755 0.375,11.817578 0.38041,2.667787 1.98031,4.947769 3.8586,6.799062 5.3662,5.695698 12.57101,9.252267 19.8914,11.741953 6.67166,2.18141 13.63129,3.599978 20.6558,3.850375 0.89477,-0.06145 1.85148,0.187687 2.70523,-0.07942 0.6043,-0.299231 1.39033,-0.400218 1.57635,-1.155737 0.52685,-1.402454 0.67577,-2.978024 1.5863,-4.228585 0.75423,-1.099142 1.57624,-2.307836 2.82592,-2.869055 1.69746,-0.51971 3.50746,-0.521501 5.23057,-0.824418 0.63518,-0.428902 1.53064,-0.656644 1.6657,-1.52447 3.46267,-10.944995 6.92564,-21.889895 10.38889,-32.834706 -0.16116,-0.561124 0.0324,-1.338186 -0.36272,-1.756884 -0.63612,-0.407816 -1.2186,-1.028347 -2.04353,-0.846741 -6.114,-0.05652 -12.24634,0.177791 -18.34375,-0.372938 -1.19655,-0.291012 -2.30012,-1.173555 -2.84766,-2.27539 -0.17281,-3.541203 0.60944,-7.136246 2.18762,-10.309858 0.45066,-0.970798 1.56548,-1.5442 1.64051,-2.703814 0.15206,-1.9502 -1.18563,-4.176437 -3.25195,-4.398438 -0.23221,-0.0248 -0.46582,-0.03426 -0.69922,-0.02539 z" />
        <path
           id="path297724"
           style="fill:#ffcd5f;fill-opacity:1;stroke:none;stroke-width:0.885238;stroke-linecap:round;stroke-linejoin:round;stroke-opacity:1;paint-order:markers stroke fill;stop-color:#000000"
           d="m 257.61914,30.648438 c -0.58681,-0.01558 -1.18407,0.01462 -1.58582,0.503881 -0.53945,0.419715 -1.18585,0.772218 -1.28517,1.514089 -2.08709,6.320364 -4.11649,12.661987 -6.01182,19.042576 -0.35546,1.083672 0.1701,2.445625 1.32348,2.759237 1.33107,0.537291 2.52674,-0.605913 3.52404,-1.338846 6.24329,-5.006185 12.33004,-10.202749 18.49501,-15.3045 1.40132,-1.204462 2.89243,-2.338889 4.23797,-3.586843 0.14363,-0.560196 0.81206,-1.108888 0.55714,-1.67782 -0.30637,-0.548171 -0.3314,-1.385553 -1.09189,-1.466885 -1.03478,-0.546545 -2.24044,-0.231522 -3.36229,-0.339079 -4.93314,-0.05779 -9.8671,-0.181986 -14.80065,-0.10581 z" />
        <path
           id="path297726"
           style="fill:#ffcd5f;fill-opacity:1;stroke:none;stroke-width:0.885238;stroke-linecap:round;stroke-linejoin:round;stroke-opacity:1;paint-order:markers stroke fill;stop-color:#000000"
           d="m 270.51953,51.052734 c -2.15457,1.570304 -4.11135,3.404476 -6.16343,5.107591 -6.31817,5.435337 -12.65195,10.857158 -18.83657,16.445144 -0.84681,0.760979 -1.06025,2.214921 -0.20638,3.051152 0.92094,1.123402 2.56173,0.886466 3.86107,0.982905 5.23981,0.03224 10.47898,-0.105065 15.71836,-0.157104 0.65863,-0.389566 1.59903,-0.479207 1.83506,-1.318612 2.15544,-6.768378 4.35532,-13.532324 6.32654,-20.360131 0.21522,-0.892807 0.7289,-1.88853 0.10103,-2.729205 -0.13132,-0.706309 -0.65256,-0.965732 -1.31245,-1.06625 -0.47701,-0.234667 -0.85242,-0.168327 -1.32323,0.04451 z" />
        <path
           id="path297728"
           style="fill:#ffcd5f;fill-opacity:1;stroke:none;stroke-width:0.885238;stroke-linecap:round;stroke-linejoin:round;stroke-opacity:1;paint-order:markers stroke fill;stop-color:#000000"
           d="m 381.88672,12.859375 c -2.49381,0.316702 -4.70135,1.645358 -6.96096,2.656693 -3.0323,1.460383 -6.25878,3.04254 -8.11912,5.985885 -1.62751,2.533661 -2.65657,5.391905 -3.85486,8.141206 -0.95828,2.461508 -2.08506,4.886583 -2.67926,7.4683 -0.0972,0.625252 0.0944,1.213887 0.60244,1.605862 0.35692,0.539525 0.86677,0.911404 1.53248,0.928654 0.7796,0.129509 1.56565,0.214782 2.35233,0.287619 -14.69019,-0.315495 -29.42709,-1.068825 -44.14351,-1.637081 -1.35249,-0.08246 -2.73167,-0.05891 -4.06754,-0.207383 -2.42014,-1.254227 -5.16556,-2.159381 -6.96308,-4.324152 -1.56622,-1.643757 -2.80015,-3.622186 -4.60322,-5.026697 -1.06199,-0.801702 -2.64487,-0.57835 -3.48047,0.441407 -2.3727,1.261456 -5.14189,1.397026 -7.77625,1.408209 -0.98101,0.05995 -2.12701,-0.01398 -2.81089,0.831696 -0.73727,0.622557 -0.73101,1.806714 -1.07777,2.593635 -4.10179,13.192227 -8.30981,26.352417 -12.42493,39.539506 -0.29824,1.386038 0.8326,2.720995 2.19976,2.876307 3.09138,0.413966 6.22716,0.286675 9.33914,0.393649 2.47346,0.09882 4.98064,-0.04247 7.42474,0.397067 2.22882,0.777148 3.17073,3.133992 4.11158,5.093829 0.40514,0.764226 0.6696,1.754548 1.62109,1.983004 0.51161,0.367113 1.10364,0.449389 1.68547,0.194941 18.11833,-6.524226 36.22653,-13.076898 54.31173,-19.69212 0.89579,-0.163575 1.4053,-0.91447 2.01547,-1.512302 0.23662,-1.428168 -0.40335,-2.778513 -0.65497,-4.163336 -0.4134,-1.833216 -0.92298,-3.674493 -0.94268,-5.565179 5.17983,-0.35861 10.37937,-0.225575 15.56836,-0.263672 3.82552,0 7.65104,0 11.47656,0 0.49373,-0.320817 1.26958,-0.379205 1.57722,-0.873117 0.33301,-0.713369 0.51601,-1.452986 0.414,-2.242473 -0.0895,-11.216678 -0.17904,-22.433357 -0.26856,-33.650035 -0.39999,-0.765597 -0.62303,-1.671347 -1.44183,-2.105199 -1.09272,-0.975948 -2.44753,-1.729391 -3.96247,-1.564723 z m -83.6543,32.005859 c 1.84053,0.03577 3.83026,0.681335 4.81295,2.351783 2.04279,3.056055 0.80401,7.975949 -2.79063,9.230621 -2.93037,1.098903 -6.6814,-0.310836 -7.88894,-3.256311 -0.24167,-1.618057 -0.26832,-3.314433 0.0867,-4.919024 0.4212,-1.412828 1.72309,-2.364991 2.97128,-3.02035 0.89369,-0.332163 1.86168,-0.41546 2.80859,-0.386719 z" />
      </g>
    </clipPath>
  </defs>
  <g
     inkscape:label="Layer 1"
     inkscape:groupmode="layer"
     id="layer1"
     transform="translate(-0.84545642,-159.5743)">
    <path
       id="path297849"
       style="fill:#e1f4ff;fill-opacity:1;stroke:none;stroke-width:0.0891098;stroke-linecap:round;stroke-linejoin:round;stroke-opacity:1;paint-order:markers stroke fill;stop-color:#000000"
       d="m 14.248963,162.8625 c -0.51368,0.51772 -0.914443,1.13409 -1.237846,1.78516 -0.09958,0.21267 -0.228337,0.4104 -0.34043,0.61448 -0.05628,0.12203 0.01286,0.25441 0.02509,0.37957 0.102282,0.12743 0.244731,0.21475 0.412237,0.21313 0.336329,0.0113 0.690289,0.0589 1.013593,-0.0578 0.398965,-0.1628 0.517048,-0.61753 0.652661,-0.98406 0.139715,-0.42711 0.309614,-0.84835 0.405869,-1.28723 0.02709,-0.26923 -0.171473,-0.49768 -0.352719,-0.66822 -0.126313,-0.0306 -0.253135,-0.1772 -0.378906,-0.0847 -0.06652,0.0299 -0.133035,0.0598 -0.199552,0.0897 z" />
    <path
       id="path297888"
       style="fill:#e1f4ff;fill-opacity:1;stroke:none;stroke-width:0.0891098;stroke-linecap:round;stroke-linejoin:round;stroke-opacity:1;paint-order:markers stroke fill;stop-color:#000000"
       d="m 16.906281,163.14168 c -0.341121,0.087 -0.442275,0.4706 -0.551352,0.75986 -0.129709,0.42075 -0.26309,0.85876 -0.233497,1.30371 0.03633,0.4371 0.49063,0.71627 0.902025,0.69126 1.259925,0.025 2.52022,0.0167 3.780326,0.0216 0.13348,-0.0765 0.32412,-0.091 0.371835,-0.26052 0.108876,-0.33034 0.212917,-0.66678 0.303635,-1.00277 0.02619,-0.13164 -0.0818,-0.25121 -0.123401,-0.3705 -0.237023,-0.19016 -0.561706,-0.13371 -0.844439,-0.15974 -0.618952,-0.0265 -1.241874,0.002 -1.857976,-0.0692 -0.532934,-0.10295 -0.980644,-0.44369 -1.364563,-0.81035 -0.108235,-0.0982 -0.245691,-0.0969 -0.382593,-0.10341 z" />
    <path
       id="path162447"
       style="fill:#ff4e33;fill-opacity:1;stroke:none;stroke-width:0.0891098;stroke-linecap:round;stroke-linejoin:round;stroke-opacity:1;paint-order:markers stroke fill;stop-color:#000000"
       d="m 5.6871936,167.83936 c -0.5703041,0.13049 -1.1548076,0.50218 -1.298879,1.10381 -0.1904342,0.59231 0.1863071,1.23943 0.7251141,1.49713 0.2506301,0.1532 0.5402083,0.26487 0.838232,0.21981 0.3349565,-0.0114 0.573934,-0.31291 0.6745214,-0.60618 0.05652,-0.26205 0.00821,-0.53249 0.024731,-0.79838 -0.00622,-0.31823 0.041495,-0.65253 -0.1020128,-0.94826 -0.066827,-0.21524 -0.2539479,-0.37519 -0.4744458,-0.41463 -0.1224693,-0.0489 -0.2557779,-0.0747 -0.3872609,-0.0533 z" />
    <g
       id="g95504"
       transform="matrix(0.20132384,0,0,0.20132384,-27.749471,157.99455)">
      <path
         id="path8125"
         style="fill:#ffcd5f;fill-opacity:1;stroke:none;stroke-width:0.885238;stroke-linecap:round;stroke-linejoin:round;stroke-opacity:1;paint-order:markers stroke fill;stop-color:#000000"
         d="m 217.89258,19.371094 c -1.68357,0.146021 -3.28438,0.831663 -4.76953,1.601562 -1.28821,0.708648 -1.59927,2.511206 -0.74645,3.675028 0.66287,0.882664 1.04041,1.990775 0.74993,3.090021 -0.59495,2.71566 -1.51752,5.359854 -2.58257,7.925325 -0.63458,1.465516 -1.55564,3.130717 -3.29787,3.389704 -1.51138,0.179893 -3.01085,0.197783 -4.41797,0.253907 -7.0599,0.24761 -14.13823,-0.122218 -21.18681,0.4224 -2.48102,0.225367 -4.64918,1.693088 -6.52998,3.22799 -1.55879,1.299129 -2.77605,2.955351 -3.9003,4.620415 -0.56892,1.191665 -0.29664,2.517703 -0.35751,3.790523 0.0698,3.937859 -0.20522,7.90755 0.375,11.817578 0.38041,2.667787 1.98031,4.947769 3.8586,6.799062 5.3662,5.695698 12.57101,9.252267 19.8914,11.741953 6.67166,2.18141 13.63129,3.599978 20.6558,3.850375 0.89477,-0.06145 1.85148,0.187687 2.70523,-0.07942 0.6043,-0.299231 1.39033,-0.400218 1.57635,-1.155737 0.52685,-1.402454 0.67577,-2.978024 1.5863,-4.228585 0.75423,-1.099142 1.57624,-2.307836 2.82592,-2.869055 1.69746,-0.51971 3.50746,-0.521501 5.23057,-0.824418 0.63518,-0.428902 1.53064,-0.656644 1.6657,-1.52447 3.46267,-10.944995 6.92564,-21.889895 10.38889,-32.834706 -0.16116,-0.561124 0.0324,-1.338186 -0.36272,-1.756884 -0.63612,-0.407816 -1.2186,-1.028347 -2.04353,-0.846741 -6.114,-0.05652 -12.24634,0.177791 -18.34375,-0.372938 -1.19655,-0.291012 -2.30012,-1.173555 -2.84766,-2.27539 -0.17281,-3.541203 0.60944,-7.136246 2.18762,-10.309858 0.45066,-0.970798 1.56548,-1.5442 1.64051,-2.703814 0.15206,-1.9502 -1.18563,-4.176437 -3.25195,-4.398438 -0.23221,-0.0248 -0.46582,-0.03426 -0.69922,-0.02539 z" />
      <path
         id="path8164"
         style="fill:#ffcd5f;fill-opacity:1;stroke:none;stroke-width:0.885238;stroke-linecap:round;stroke-linejoin:round;stroke-opacity:1;paint-order:markers stroke fill;stop-color:#000000"
         d="m 257.61914,30.648438 c -0.58681,-0.01558 -1.18407,0.01462 -1.58582,0.503881 -0.53945,0.419715 -1.18585,0.772218 -1.28517,1.514089 -2.08709,6.320364 -4.11649,12.661987 -6.01182,19.042576 -0.35546,1.083672 0.1701,2.445625 1.32348,2.759237 1.33107,0.537291 2.52674,-0.605913 3.52404,-1.338846 6.24329,-5.006185 12.33004,-10.202749 18.49501,-15.3045 1.40132,-1.204462 2.89243,-2.338889 4.23797,-3.586843 0.14363,-0.560196 0.81206,-1.108888 0.55714,-1.67782 -0.30637,-0.548171 -0.3314,-1.385553 -1.09189,-1.466885 -1.03478,-0.546545 -2.24044,-0.231522 -3.36229,-0.339079 -4.93314,-0.05779 -9.8671,-0.181986 -14.80065,-0.10581 z" />
      <path
         id="path8203"
         style="fill:#ffcd5f;fill-opacity:1;stroke:none;stroke-width:0.885238;stroke-linecap:round;stroke-linejoin:round;stroke-opacity:1;paint-order:markers stroke fill;stop-color:#000000"
         d="m 270.51953,51.052734 c -2.15457,1.570304 -4.11135,3.404476 -6.16343,5.107591 -6.31817,5.435337 -12.65195,10.857158 -18.83657,16.445144 -0.84681,0.760979 -1.06025,2.214921 -0.20638,3.051152 0.92094,1.123402 2.56173,0.886466 3.86107,0.982905 5.23981,0.03224 10.47898,-0.105065 15.71836,-0.157104 0.65863,-0.389566 1.59903,-0.479207 1.83506,-1.318612 2.15544,-6.768378 4.35532,-13.532324 6.32654,-20.360131 0.21522,-0.892807 0.7289,-1.88853 0.10103,-2.729205 -0.13132,-0.706309 -0.65256,-0.965732 -1.31245,-1.06625 -0.47701,-0.234667 -0.85242,-0.168327 -1.32323,0.04451 z" />
      <path
         id="path8242"
         style="fill:#ffcd5f;fill-opacity:1;stroke:none;stroke-width:0.885238;stroke-linecap:round;stroke-linejoin:round;stroke-opacity:1;paint-order:markers stroke fill;stop-color:#000000"
         d="m 381.88672,12.859375 c -2.49381,0.316702 -4.70135,1.645358 -6.96096,2.656693 -3.0323,1.460383 -6.25878,3.04254 -8.11912,5.985885 -1.62751,2.533661 -2.65657,5.391905 -3.85486,8.141206 -0.95828,2.461508 -2.08506,4.886583 -2.67926,7.4683 -0.0972,0.625252 0.0944,1.213887 0.60244,1.605862 0.35692,0.539525 0.86677,0.911404 1.53248,0.928654 0.7796,0.129509 1.56565,0.214782 2.35233,0.287619 -14.69019,-0.315495 -29.42709,-1.068825 -44.14351,-1.637081 -1.35249,-0.08246 -2.73167,-0.05891 -4.06754,-0.207383 -2.42014,-1.254227 -5.16556,-2.159381 -6.96308,-4.324152 -1.56622,-1.643757 -2.80015,-3.622186 -4.60322,-5.026697 -1.06199,-0.801702 -2.64487,-0.57835 -3.48047,0.441407 -2.3727,1.261456 -5.14189,1.397026 -7.77625,1.408209 -0.98101,0.05995 -2.12701,-0.01398 -2.81089,0.831696 -0.73727,0.622557 -0.73101,1.806714 -1.07777,2.593635 -4.10179,13.192227 -8.30981,26.352417 -12.42493,39.539506 -0.29824,1.386038 0.8326,2.720995 2.19976,2.876307 3.09138,0.413966 6.22716,0.286675 9.33914,0.393649 2.47346,0.09882 4.98064,-0.04247 7.42474,0.397067 2.22882,0.777148 3.17073,3.133992 4.11158,5.093829 0.40514,0.764226 0.6696,1.754548 1.62109,1.983004 0.51161,0.367113 1.10364,0.449389 1.68547,0.194941 18.11833,-6.524226 36.22653,-13.076898 54.31173,-19.69212 0.89579,-0.163575 1.4053,-0.91447 2.01547,-1.512302 0.23662,-1.428168 -0.40335,-2.778513 -0.65497,-4.163336 -0.4134,-1.833216 -0.92298,-3.674493 -0.94268,-5.565179 5.17983,-0.35861 10.37937,-0.225575 15.56836,-0.263672 3.82552,0 7.65104,0 11.47656,0 0.49373,-0.320817 1.26958,-0.379205 1.57722,-0.873117 0.33301,-0.713369 0.51601,-1.452986 0.414,-2.242473 -0.0895,-11.216678 -0.17904,-22.433357 -0.26856,-33.650035 -0.39999,-0.765597 -0.62303,-1.671347 -1.44183,-2.105199 -1.09272,-0.975948 -2.44753,-1.729391 -3.96247,-1.564723 z m -83.6543,32.005859 c 1.84053,0.03577 3.83026,0.681335 4.81295,2.351783 2.04279,3.056055 0.80401,7.975949 -2.79063,9.230621 -2.93037,1.098903 -6.6814,-0.310836 -7.88894,-3.256311 -0.24167,-1.618057 -0.26832,-3.314433 0.0867,-4.919024 0.4212,-1.412828 1.72309,-2.364991 2.97128,-3.02035 0.89369,-0.332163 1.86168,-0.41546 2.80859,-0.386719 z" />
    </g>
    <path
       id="path1258"
       style="fill:#000000;stroke:none;stroke-width:0.0358471;stroke-linecap:round;stroke-linejoin:round;stroke-opacity:1;paint-order:markers stroke fill;stop-color:#000000"
       d="m 4.7961786,170.61661 c -0.1624301,0.23699 -0.1342568,0.54232 -0.1949157,0.81293 -0.2049598,1.48536 -0.3619239,2.99019 -0.2524601,4.4903 0.060713,0.60745 0.1352111,1.25156 0.4843388,1.77024 0.2093346,0.3126 0.5996572,0.53827 0.9798794,0.42073 0.3960523,-0.13202 0.5508341,-0.57381 0.6401474,-0.94331 0.1727097,-0.85224 0.1048032,-1.72977 0.039292,-2.5901 -0.108888,-1.21097 -0.3097146,-2.41226 -0.558724,-3.60179 -0.057381,-0.19365 -0.2241801,-0.32273 -0.4150714,-0.37157 -0.1750027,-0.0546 -0.3719297,-0.19703 -0.5472163,-0.0671 -0.058424,0.0266 -0.1168463,0.0531 -0.1752705,0.0797 z" />
    <path
       id="path1297"
       style="fill:#000000;stroke:none;stroke-width:0.071694;stroke-linecap:round;stroke-linejoin:round;stroke-opacity:1;paint-order:markers stroke fill;stop-color:#000000"
       d="m 18.738801,183.81032 c -30.992181,-17.21051 -15.4960915,-8.60526 0,0 z"
       sodipodi:nodetypes="cc" />
    <path
       id="path7867"
       style="fill:#000000;stroke:none;stroke-width:0.17822;stroke-linecap:round;stroke-linejoin:round;stroke-opacity:1;paint-order:markers stroke fill;stop-color:#000000"
       d="m 5.5110353,160.42223 c -0.4479979,0.0849 -0.7042208,0.52282 -0.8682091,0.90989 -0.217778,0.64815 -0.2277114,1.34256 -0.2524198,2.01944 -0.022134,1.34233 0.09041,2.68542 0.2956742,4.01123 0.034408,0.2578 0.1984047,0.53563 0.481009,0.5599 0.1785018,0.0136 0.3623849,-0.0515 0.5163775,-0.13425 0.1380598,-0.0856 0.2388506,-0.21399 0.2589005,-0.379 0.1905288,-0.93642 0.298076,-1.8879 0.4116649,-2.83619 0.1122804,-0.96294 0.1944648,-1.93812 0.1041328,-2.90631 -0.05194,-0.4115 -0.1631629,-0.86644 -0.5011434,-1.1378 -0.1269407,-0.0927 -0.2910378,-0.12968 -0.4459866,-0.10691 z" />
    <path
       id="path51291"
       style="fill:#ffa953;fill-opacity:1;stroke:none;stroke-width:0.12602;stroke-linecap:round;stroke-linejoin:round;stroke-opacity:1;paint-order:markers stroke fill;stop-color:#000000"
       d="m 16.889766,160.11317 c -0.190048,0.21242 -0.356484,0.47165 -0.337308,0.76919 0.02765,0.45265 0.115502,0.9037 0.24947,1.33687 0.249942,0.78987 0.835533,1.5028 1.638668,1.76613 0.484304,0.17913 1.007742,0.11537 1.512884,0.13778 4.093677,0.0357 8.187565,0.0103 12.28133,0.009 0.268637,-0.0516 0.505252,-0.20422 0.740211,-0.33802 0.408821,-0.25173 0.692643,-0.71057 0.714076,-1.19133 -0.04025,-0.42513 -0.35556,-0.75572 -0.633657,-1.05325 -0.538523,-0.52869 -1.126229,-1.02236 -1.796292,-1.3758 -0.401578,-0.21583 -0.873481,-0.15527 -1.311944,-0.18636 -2.507759,-0.0404 -5.01603,-0.022 -7.524022,-0.028 -1.738961,0 -3.477922,0 -5.216882,0 -0.105512,0.0513 -0.211024,0.1025 -0.316534,0.15375 z" />
    <path
       id="path51369"
       style="fill:#ffa953;fill-opacity:1;stroke:none;stroke-width:0.0630101;stroke-linecap:round;stroke-linejoin:round;stroke-opacity:1;paint-order:markers stroke fill;stop-color:#000000"
       d="m 17.601869,173.47132 c -0.3658,0.15329 -0.696897,0.41598 -0.854352,0.78882 -0.184081,0.33238 -0.1146,0.72661 -0.0752,1.08562 0.08027,0.41458 0.396636,0.75901 0.763221,0.9496 0.351616,0.14655 0.738895,0.0852 1.109639,0.10251 4.368664,0.0219 8.737408,0.005 13.106105,0.004 0.470498,-0.10203 0.861219,-0.47967 1.034537,-0.92326 0.09599,-0.30602 0.07149,-0.63663 0.04581,-0.95176 -0.102989,-0.47237 -0.484228,-0.8718 -0.937315,-1.02884 -0.404577,-0.0798 -0.822284,-0.0439 -1.232539,-0.0606 -4.260435,-0.0156 -8.520931,-0.005 -12.781392,-0.008 -0.05951,0.0139 -0.119011,0.0278 -0.178518,0.0417 z" />
    <path
       id="rect95528"
       clip-path="none"
       style="fill:#ffffff;stroke-width:0.283299;stroke-linecap:round;stroke-linejoin:round;paint-order:markers stroke fill;stop-color:#000000"
       d="M 6.5504924,167.36099 H 50.466685 v 3.6236 H 6.5504924 Z"
       sodipodi:nodetypes="ccccc" />
    <path
       id="rect119313"
       clip-path="none"
       style="fill:#ff4e33;stroke-width:0.279083;stroke-linecap:round;stroke-linejoin:round;paint-order:markers stroke fill;stop-color:#000000"
       d="M 6.5504924,168.60521 H 50.190817 v 1.13517 H 6.5504924 Z"
       sodipodi:nodetypes="ccccc" />
    <path
       id="path31003"
       style="fill:#fff0d4;fill-opacity:1;stroke:none;stroke-width:0.044555;stroke-linecap:round;stroke-linejoin:round;stroke-opacity:1;paint-order:markers stroke fill;stop-color:#000000"
       d="m 27.771082,165.00943 c -1.953856,1.60816 -3.898805,3.2273 -5.838919,4.85196 -0.246195,0.20506 -0.270037,0.54821 -0.382704,0.82979 -0.145666,0.46743 -0.312062,0.93097 -0.434878,1.40398 -0.01713,0.12396 -0.0012,0.23945 0.09587,0.32709 0.0468,0.13245 0.171288,0.13784 0.291605,0.14556 0.210665,0.0651 0.353869,-0.14969 0.503879,-0.26076 1.933758,-1.68315 3.857319,-3.37801 5.786378,-5.06655 0.183265,-0.23489 0.215122,-0.54167 0.319207,-0.81415 0.103061,-0.33659 0.217067,-0.67025 0.305213,-1.01113 -0.04062,-0.1101 -0.01307,-0.2688 -0.09855,-0.34693 -0.121542,-0.0512 -0.231907,-0.19779 -0.369464,-0.1122 -0.05921,0.0178 -0.118429,0.0356 -0.177644,0.0533 z" />
    <path
       id="path90522"
       style="fill:#ffcd5f;fill-opacity:1;stroke:none;stroke-width:0.12602;stroke-linecap:round;stroke-linejoin:round;stroke-opacity:1;paint-order:markers stroke fill;stop-color:#000000"
       d="m 44.329271,168.62477 c -0.03838,0.15837 0.108888,0.58899 0.175863,0.75291 0.140949,0.69785 0.387192,1.37409 0.6978,2.01371 0.435502,0.80888 1.014201,1.53831 1.669953,2.17958 0.328543,0.32233 0.724001,0.61845 1.198481,0.65767 0.779613,0.0924 1.577626,-0.34759 1.935654,-1.04285 0.134684,-0.18969 0.230307,-0.41197 0.20184,-0.64913 v -3.37218 c -0.06456,-0.0995 -0.07641,-0.53049 -0.175726,-0.59275 -0.142368,-0.0675 -0.290381,-0.1038 -0.448378,-0.085 h -4.951929 c -0.101185,0.046 -0.202372,0.092 -0.303558,0.13801 z"
       sodipodi:nodetypes="cccccccccccc" />
    <path
       id="path305253"
       style="fill:#ffa953;fill-opacity:1;stroke:none;stroke-width:0.12602;stroke-linecap:round;stroke-linejoin:round;stroke-opacity:1;paint-order:markers stroke fill;stop-color:#000000"
       d="m 32.133756,167.01834 c -0.580848,0.03 -1.04711,0.55607 -1.079364,1.1238 -0.05483,0.51555 0.272844,1.04205 0.77135,1.19919 0.497814,0.21476 1.106861,-0.002 1.399388,-0.44741 0.237274,-0.2998 0.321122,-0.72113 0.161707,-1.07658 -0.19384,-0.49488 -0.718414,-0.84367 -1.253081,-0.799 z" />
    <path
       id="path31042"
       style="fill:#fff0d4;fill-opacity:1;stroke:none;stroke-width:0.044555;stroke-linecap:round;stroke-linejoin:round;stroke-opacity:1;paint-order:markers stroke fill;stop-color:#000000"
       d="m 28.79461,164.24896 c -0.156275,0.26846 -0.20288,0.58424 -0.310372,0.87382 -0.819827,2.59977 -1.644287,5.20218 -2.464516,7.80355 0.0323,0.11302 -0.0068,0.26931 0.07257,0.35379 0.128122,0.0829 0.245597,0.20809 0.412257,0.17108 0.36986,-0.006 0.74461,0.0106 1.111438,-0.009 0.129139,-0.0722 0.307885,-0.0903 0.354008,-0.25285 0.530078,-1.64278 1.04114,-3.29383 1.563715,-4.93986 0.380016,-1.20477 0.760033,-2.40955 1.14005,-3.61432 -0.03271,-0.11282 0.0059,-0.26916 -0.07381,-0.35331 -0.127984,-0.0819 -0.245086,-0.20701 -0.411017,-0.17045 -0.369079,0.006 -0.743022,-0.0112 -1.109093,0.008 -0.09508,0.0432 -0.190154,0.0865 -0.285232,0.12969 z" />
    <path
       id="path30964"
       style="fill:#fff0d4;fill-opacity:1;stroke:none;stroke-width:0.044555;stroke-linecap:round;stroke-linejoin:round;stroke-opacity:1;paint-order:markers stroke fill;stop-color:#000000"
       d="m 21.625593,164.24896 c -0.15397,0.26797 -0.201458,0.58162 -0.308142,0.87001 -0.817351,2.60132 -1.643396,5.19735 -2.459219,7.79894 -0.04533,0.12663 0.04278,0.24292 0.07544,0.36113 0.12259,0.10698 0.269428,0.18106 0.436541,0.16585 0.357849,3e-4 0.720805,0.008 1.075504,-0.0139 0.128533,-0.0733 0.307015,-0.0932 0.351982,-0.25595 0.902469,-2.82582 1.789262,-5.65812 2.683454,-8.48722 0.04039,-0.13051 -0.02777,-0.26625 -0.03618,-0.39911 -0.145179,-0.0795 -0.275188,-0.21662 -0.454629,-0.17773 -0.359215,0.006 -0.723321,-0.0112 -1.079525,0.008 -0.09508,0.0432 -0.190154,0.0865 -0.285232,0.12969 z" />
    <g
       id="g6"
       transform="matrix(0.37022492,0,0,0.37022492,3.9574615,158.63281)">
      <path
         d="m 43.388,49.026 h 30.626 c 2.104,0 3.873,-1.38 4.503,-3.274 L 110.17,34.269 c 1.284,2.743 3.179,5.241 5.72,7.451 1.12,0.973 2.503,1.477 3.917,1.477 0.857,0 1.725,-0.186 2.552,-0.563 2.252,-1.026 3.651,-3.191 3.651,-5.649 V 27.347 7.986 c 0,-1.279 -0.631,-2.47 -1.688,-3.186 -1.063,-0.721 -2.41,-0.866 -3.604,-0.39 -3.701,1.473 -6.125,2.866 -7.204,4.141 -1.926,2.276 -3.891,8.237 -4.545,10.34 L 87.947,18.041 C 86.088,17.966 84.358,17.087 83.199,15.63 L 80.868,12.7 c 0.33,-0.648 0.498,-1.317 0.498,-1.996 0,-0.344 -0.001,-1.086 -1.026,-2.42 L 78.689,6.518 C 78.341663,6.194036 77.948234,5.8485034 77.503734,5.4804384 77.130482,5.1713703 76.72122,4.8464144 76.273,4.505 L 74.521,3.355 C 73.458,2.827 72.288,2.544 71.07,2.544 L 36.275,2.543 c -0.886,0 -1.715,0.35 -2.335,0.983 -0.615,0.629 -0.943,1.457 -0.923,2.332 0.014,0.615 0.067,1.215 0.15,1.801 -5.117,0.597 -8.182,4.994 -9.88,8.729 -0.602,1.323 -1.976,2.234 -3.307,2.198 -3.325,-0.069 -6.728,-0.074 -8.585,0.648 -2.544,0.991 -4.144,3.228 -4.77,4.254 C 6.556,23.492 6.484,23.499 6.413,23.505 7.359,18.964 9.347,7.686 6.499,4.62 5.841,3.912 4.97,3.616 3.983,3.766 3.031,3.909 2.234,4.427 1.615,5.304 -1.436,9.622 0.669,22.507 1.236,25.624 c -0.718,0.759 -1.188,1.758 -1.188,3.062 0,1.304 0.469,2.303 1.188,3.062 -0.566,3.117 -2.672,16.003 0.379,20.32 0.62,0.877 1.417,1.395 2.369,1.538 0.167,0.025 0.331,0.038 0.49,0.038 0.785,0 1.479,-0.304 2.025,-0.892 2.848,-3.066 0.86,-14.345 -0.086,-18.887 0.056,0.005 0.112,0.009 0.167,0.013 1.866,3.938 6.256,7.255 12.038,9.417 l 1.929,0.666 c 0.986724,0.30974 2.007228,0.585888 3.055727,0.827453 1.358304,0.312941 2.76359,0.567843 4.203273,0.762547 l 1.989,0.232 c 1.235,0.115 2.492,0.178 3.764,0.198 0.433,1.111 1.345921,1.948608 2.333,2.536 0.584559,0.34786 1.309031,0.380279 1.979,0.498 0.03894,0.0068 0.07851,0.01 0.118,0.012 1.131546,0.05739 3.399,0 3.399,0 z M 35.37,4.925 C 35.611,4.679 35.932,4.543 36.275,4.543 L 71.07,4.544 c 1.245,0 2.426,0.386 3.416,1.115 3.852,2.836 4.879,4.506 4.879,5.045 0,0.493 -0.179,1 -0.531,1.507 -0.715,1.028 -1.966,1.642 -3.346,1.642 H 41.235 c -2.014,0 -3.868,-1.037 -4.839,-2.706 C 35.54,9.674 35.063,7.831 35.017,5.814 35.009,5.482 35.134,5.166 35.37,4.925 Z m 25.206,34.06 4.904,-15.53 c 0.044,-0.083 0.064,-0.171 0.083,-0.261 l 2.318,-7.341 h 3.292 L 63.869,38.985 Z M 35.217,12.965 c 1.409,1.802 3.634,2.888 6.018,2.888 h 5.191 l -0.864,2.734 H 34.929 c -0.32,0 -0.614,-0.132 -0.83,-0.37 -0.216,-0.24 -0.317,-0.55 -0.284,-0.87 0.189,-1.827 0.643,-3.25 1.402,-4.382 z m 13.306,2.888 h 3.269 L 44.487,38.985 H 41.218 Z M 63.7,22.451 47.251,36.874 49.004,31.324 65.158,17.837 Z M 50.121,27.785 53.889,15.853 H 64.412 Z M 62.538,26.13 58.478,38.985 H 47.877 Z M 25.107,17.217 c 0.79,-1.737 1.905,-3.64 3.417,-5.111 l 0.035,0.01 c 0.277,0.081 0.503,0.267 0.636,0.522 0.133,0.257 0.154,0.548 0.061,0.82 l -1.457,4.228 c -0.186,0.539 -0.693,0.9 -1.262,0.9 H 24.23 c 0.35,-0.408 0.649,-0.866 0.877,-1.369 z M 5.303,31.666 c -0.002,0 -0.003,-0.001 -0.005,-0.001 -1.471,-0.33 -3.25,-1.114 -3.25,-2.979 0,-1.863 1.774,-2.647 3.244,-2.978 0.007,-10e-4 0.014,-0.003 0.021,-0.004 0.324,-0.072 0.634,-0.123 0.905,-0.158 v 6.279 C 5.943,31.79 5.631,31.739 5.303,31.666 Z M 3.248,6.458 C 3.644,5.897 4.028,5.781 4.282,5.742 4.609,5.695 4.829,5.762 5.033,5.98 6.92,8.013 5.615,17.792 4.282,23.9 3.864,24.023 3.449,24.177 3.048,24.363 2.213,19.366 1.108,9.487 3.248,6.458 Z M 5.034,51.391 C 4.831,51.61 4.614,51.676 4.283,51.629 4.029,51.59 3.645,51.474 3.249,50.913 1.109,47.885 2.214,38.006 3.049,33.007 c 0.4,0.187 0.815,0.341 1.233,0.463 1.334,6.109 2.64,15.888 0.752,17.921 z M 8.217,32.678 v -7.954 c 0.368,-0.644 1.719,-2.775 3.903,-3.625 1.643,-0.639 5.508,-0.561 7.818,-0.512 0.005,0 0.011,-0.001 0.016,-0.001 0.002,0 0.003,0.001 0.005,0.001 h 6.578 c 1.422,0 2.689,-0.903 3.153,-2.248 l 1.457,-4.229 c 0.274,-0.795 0.212,-1.645 -0.175,-2.392 -0.19,-0.367 -0.447,-0.683 -0.754,-0.939 0.997,-0.616 2.122,-1.035 3.392,-1.154 0.15,0.505 0.327,0.99 0.533,1.454 -1.29,1.524 -2.053,3.512 -2.317,6.059 -0.091,0.879 0.196,1.76 0.788,2.416 0.591,0.655 1.435,1.031 2.315,1.031 h 10.002 l -5.81,18.397 H 37.99 c -2.627,0 -4.765,2.138 -4.765,4.766 v 0.224 C 21.444,43.686 10.862,38.943 8.217,32.678 Z M 74.014,47.027 H 37.99 c -0.179,0 -0.353,-0.02 -0.523,-0.053 -0.159,-0.106 -0.339,-0.183 -0.545,-0.183 -0.011,0 -0.02,0.006 -0.031,0.006 -0.747,-0.325 -1.313,-0.974 -1.544,-1.765 0,-0.01 0.006,-0.019 0.006,-0.029 0,-0.149 -0.037,-0.287 -0.095,-0.414 -0.013,-0.108 -0.033,-0.214 -0.033,-0.326 V 43.75 c 0,-1.525 1.24,-2.766 2.765,-2.766 h 36.024 c 1.525,0 2.765,1.24 2.765,2.766 v 0.512 c 0,0.108 -0.02,0.21 -0.032,0.315 -0.064,0.135 -0.087,0.284 -0.085,0.437 -0.33,1.157 -1.385,2.013 -2.648,2.013 z m 49.995,-18.679 v 8.637 h 0.001 c 0,1.665 -0.951,3.133 -2.481,3.83 -1.492,0.679 -3.11,0.454 -4.327,-0.604 -3.811,-3.313 -5.93443,-7.324973 -6.769,-11.863 -0.18195,-0.989375 -0.0228,-2.001 -1.129,-2.001 -0.281,0 -0.55,0.118 -0.739,0.326 -0.189,0.208 -0.283,0.486 -0.256,0.767 0.162,1.736 0.546,3.39 1.103,4.976 L 78.758,43.537 C 78.644,41.01 76.569,38.985 74.014,38.985 h -8.049 l 7.304,-23.132 h 2.218 c 1.566,0 3.028,-0.558 4.116,-1.527 l 2.029,2.55 c 1.521,1.912 3.792,3.065 6.232,3.164 l 26.843,1.085 c 0.014,0.001 0.027,0.001 0.041,0.001 0.534,0 0.977,-0.422 0.999,-0.96 0.022,-0.552 -0.407,-1.017 -0.958,-1.039 l -3.751,-0.152 c 0.872,-2.726 2.566,-7.434 4.002,-9.131 0.841,-0.993 3.12,-2.264 6.417,-3.576 0.587,-0.231 1.222,-0.165 1.742,0.188 0.515,0.349 0.81,0.906 0.81,1.53 v 18.361"
         id="path2"
         sodipodi:nodetypes="cscccscscscccccccsccsccccccccccccccccscccscccccscccaaaccccccscsscccccccccccsccscccccccccccccccccccccccccccsccccscccccccccccccccccccccsssccccccccsccssccsscsccscssssssccscccccscscccsccsccccsccccccsc" />
      <path
         d="m 76.411,21.575 c -2.374,0 -4.305,1.931 -4.305,4.305 0,2.373 1.931,4.304 4.305,4.304 2.374,0 4.304,-1.931 4.304,-4.304 10e-4,-2.374 -1.93,-4.305 -4.304,-4.305 z m 0,6.609 c -1.271,0 -2.305,-1.033 -2.305,-2.304 0,-1.271 1.034,-2.305 2.305,-2.305 1.271,0 2.304,1.034 2.304,2.305 0,1.271 -1.033,2.304 -2.304,2.304 z"
         id="path4" />
    </g>
    <g
       id="g313507"
       transform="matrix(0.20132384,0,0,0.20132384,-36.205072,156.78661)">
      <path
         style="fill:none;stroke:#000000;stroke-width:3.2;stroke-linecap:round;stroke-linejoin:miter;stroke-miterlimit:4;stroke-dasharray:none;stroke-opacity:1"
         d="m 431.14558,52.421805 h 86.94759"
         id="path313325"
         sodipodi:nodetypes="cc" />
      <path
         style="fill:none;stroke:#000000;stroke-width:3.2;stroke-linecap:round;stroke-linejoin:miter;stroke-miterlimit:4;stroke-dasharray:none;stroke-opacity:1"
         d="M 518.09317,52.421805 558.9703,28.821382"
         id="path313327"
         sodipodi:nodetypes="cc" />
      <path
         style="fill:none;stroke:#000000;stroke-width:3.2;stroke-linecap:round;stroke-linejoin:miter;stroke-miterlimit:4;stroke-dasharray:none;stroke-opacity:1"
         d="M 518.09317,52.821382 558.9703,76.421805"
         id="path313445"
         sodipodi:nodetypes="cc" />
    </g>
    <path
       style="fill:#ffffff;fill-opacity:1;stroke:#000000;stroke-width:0.906799;stroke-linecap:round;stroke-linejoin:round;stroke-miterlimit:4;stroke-dasharray:none;stroke-opacity:1;paint-order:markers stroke fill;stop-color:#000000"
       d="m 76.049878,161.74538 c 7.010404,-0.33332 14.021374,-0.6518 21.031824,-0.74116 7.010408,-0.0894 14.020858,0.0591 21.031258,0.34459 7.01101,0.28549 14.02142,0.68342 21.03182,0.92555 7.01045,0.24214 14.0209,0.30655 21.03186,0.15061 7.01097,-0.15593 14.0203,-0.51938 21.02963,-0.84494 7.01479,-0.32558 14.02412,-0.58447 21.03345,-0.60272 l -0.19095,0.11409 -6.36469,5.56423 v 0 l 6.36469,5.56423 0.19095,0.0316 c -7.00933,0.0182 -14.01866,0.27713 -21.03345,0.60271 -7.00933,0.32556 -14.01866,0.68901 -21.02963,0.84495 -7.01096,0.15593 -14.02141,0.0915 -21.03186,-0.15062 -7.0104,-0.24212 -14.02081,-0.64006 -21.03182,-0.92555 -7.0104,-0.28549 -14.02085,-0.43397 -21.031258,-0.34459 -7.01045,0.0894 -14.02142,0.40784 -21.031824,0.74116 l -0.28461,0.006 v -11.12846"
       title="t sin(6*t)"
       id="path315727"
       sodipodi:nodetypes="ccccsccccccccscccccc" />
  </g>
</svg>
