<?xml version="1.0" encoding="UTF-8" standalone="no"?>
<!-- Created with Inkscape (http://www.inkscape.org/) -->

<svg
   width="677.33331mm"
   height="297.36584mm"
   viewBox="0 0 677.33331 297.36584"
   version="1.1"
   id="svg1655"
   sodipodi:docname="Sky.svg"
   inkscape:version="1.1 (c68e22c387, 2021-05-23)"
   xmlns:inkscape="http://www.inkscape.org/namespaces/inkscape"
   xmlns:sodipodi="http://sodipodi.sourceforge.net/DTD/sodipodi-0.dtd"
   xmlns="http://www.w3.org/2000/svg"
   xmlns:svg="http://www.w3.org/2000/svg">
  <sodipodi:namedview
     id="namedview21"
     pagecolor="#ffffff"
     bordercolor="#666666"
     borderopacity="1.0"
     inkscape:pageshadow="2"
     inkscape:pageopacity="0.0"
     inkscape:pagecheckerboard="0"
     inkscape:document-units="mm"
     showgrid="false"
     fit-margin-top="0"
     fit-margin-left="0"
     fit-margin-right="0"
     fit-margin-bottom="0"
     inkscape:zoom="0.095543982"
     inkscape:cx="544.25197"
     inkscape:cy="3197.4803"
     inkscape:window-width="1920"
     inkscape:window-height="1017"
     inkscape:window-x="-8"
     inkscape:window-y="-8"
     inkscape:window-maximized="1"
     inkscape:current-layer="svg1655" />
  <defs
     id="defs1652">
    <mask
       maskUnits="userSpaceOnUse"
       id="mask3057">
      <rect
         style="fill:#a8e5ff;fill-opacity:0.997602;stroke:none;stroke-width:0.601028;stroke-linecap:round;stroke-linejoin:round;stroke-miterlimit:4;stroke-dasharray:none;paint-order:markers stroke fill;stop-color:#000000"
         id="rect3059"
         width="59.12896"
         height="25.631119"
         x="265.392"
         y="169.08379"
         ry="0" />
    </mask>
    <clipPath
       clipPathUnits="userSpaceOnUse"
       id="clipPath3063">
      <rect
         style="fill:#a8e5ff;fill-opacity:0.997602;stroke:none;stroke-width:2.21938;stroke-linecap:round;stroke-linejoin:round;stroke-miterlimit:4;stroke-dasharray:none;paint-order:markers stroke fill;stop-color:#000000"
         id="rect3065"
         width="216.95833"
         height="95.25"
         x="352.01245"
         y="136.82024"
         ry="0" />
    </clipPath>
    <clipPath
       clipPathUnits="userSpaceOnUse"
       id="clipPath3071">
      <rect
         style="fill:#a8e5ff;fill-opacity:0.997602;stroke:none;stroke-width:2.21938;stroke-linecap:round;stroke-linejoin:round;stroke-miterlimit:4;stroke-dasharray:none;paint-order:markers stroke fill;stop-color:#000000"
         id="rect3073"
         width="216.95833"
         height="95.25"
         x="352.01245"
         y="136.82024"
         ry="0" />
    </clipPath>
  </defs>
  <g
     id="layer1"
     transform="translate(2.7395003,692.8327)">
    <g
       id="g2481">
      <rect
         style="fill:#a8e5ff;fill-opacity:0.997602;stroke:none;stroke-width:6.9288;stroke-linecap:round;stroke-linejoin:round;stroke-miterlimit:4;stroke-dasharray:none;paint-order:markers stroke fill;stop-color:#000000"
         id="rect2918"
         width="677.33331"
         height="297.36584"
         x="-2.7395003"
         y="-692.8327"
         ry="0" />
      <path
         id="path2936"
         style="fill:#ffffff;stroke:#000000;stroke-width:2.06504;stroke-miterlimit:4;stroke-dasharray:none"
         d="m 224.14978,-592.16312 c 6.72887,0.0556 13.46685,-0.0759 20.18804,0.27973 1.76146,0.24226 3.02108,1.86149 3.61553,3.43449 0.88645,2.40041 -0.79035,5.0865 -2.99376,6.06867 -1.65417,0.52068 -3.3581,0.29877 -5.07648,0.40445 -1.66628,0.12893 -3.51426,-0.24851 -5.01217,0.66407 -1.01891,0.73721 -0.92822,2.17259 -1.62904,3.14233 -1.39816,2.52132 -3.8095,4.5366 -6.58582,5.32362 -29.13707,0.14048 -58.27449,0.1973 -87.41201,0.15672 -4.61009,-0.0156 -9.22749,6.2e-4 -13.83058,-0.23945 -2.15477,-0.48032 -3.78081,-2.60034 -3.9474,-4.76011 0.001,-1.94082 1.21669,-3.96338 3.04556,-4.67112 2.39859,-0.59935 4.84146,-0.35431 7.33902,-0.50954 3.46134,-0.0705 6.92283,-0.13861 10.38417,-0.21042 1.06471,-2.81453 2.17403,-6.02018 4.99859,-7.53492 1.50125,-0.89141 3.18923,-1.64283 4.97501,-1.44078 23.98034,-0.10177 47.96089,-0.14142 71.94134,-0.10802 z" />
      <path
         id="path2930"
         style="fill:#ffffff;stroke:#000000;stroke-width:2.06504;stroke-miterlimit:4;stroke-dasharray:none"
         d="m 489.88465,-429.01141 c 7.88018,-0.0652 15.77103,0.0887 23.64222,-0.32772 2.06286,-0.28378 3.53799,-2.17999 4.23418,-4.02213 1.03811,-2.81113 -0.9256,-5.95681 -3.50601,-7.10703 -1.93724,-0.60978 -3.93269,-0.34975 -5.94507,-0.47363 -1.95141,-0.15079 -4.11558,0.29097 -5.86977,-0.77774 -1.19324,-0.86331 -1.08703,-2.5443 -1.90779,-3.67997 -1.63737,-2.95274 -4.4613,-5.31281 -7.71266,-6.2345 -34.12255,-0.16484 -68.24541,-0.23072 -102.36847,-0.18326 -5.39888,0.0156 -10.80632,-7.2e-4 -16.19705,0.28035 -2.52341,0.56251 -4.42771,3.04527 -4.6228,5.57459 10e-4,2.2729 1.42486,4.64153 3.56667,5.47037 2.80901,0.70191 5.66987,0.41494 8.59473,0.59673 4.05361,0.0824 8.10737,0.16234 12.16097,0.24632 1.24688,3.2961 2.54601,7.05024 5.85388,8.82417 1.75809,1.04388 3.73485,1.92393 5.82621,1.68729 28.08345,0.11926 56.16712,0.16546 84.25076,0.12612 z" />
      <path
         id="path2932"
         style="fill:#ffffff;stroke:#000000;stroke-width:2.06504;stroke-miterlimit:4;stroke-dasharray:none"
         d="m 619.79775,-547.12104 c 5.74723,0.0475 11.50223,-0.0646 17.24294,0.23914 1.50447,0.20699 2.58036,1.58992 3.08808,2.93345 0.75713,2.05021 -0.67506,4.34447 -2.55704,5.18334 -1.41287,0.44472 -2.86823,0.25507 -4.33589,0.34545 -1.4232,0.10989 -3.0016,-0.2123 -4.28097,0.56722 -0.87028,0.62964 -0.79279,1.85563 -1.39139,2.68391 -1.19418,2.15349 -3.25376,3.87478 -5.62507,4.54697 -24.88651,0.12019 -49.77324,0.16827 -74.66012,0.13362 -3.93753,-0.0125 -7.88134,5.6e-4 -11.81293,-0.20449 -1.84043,-0.41025 -3.22926,-2.22099 -3.37156,-4.06568 10e-4,-1.6577 1.03921,-3.3852 2.60128,-3.98967 2.04868,-0.51197 4.13521,-0.30283 6.26837,-0.43526 2.9564,-0.0599 5.91292,-0.11833 8.86934,-0.17952 0.90936,-2.40393 1.85688,-5.14194 4.2694,-6.43571 1.28221,-0.76135 2.72393,-1.40316 4.24919,-1.23058 20.48203,-0.0871 40.96421,-0.12082 61.44637,-0.0921 z" />
      <path
         id="path2934"
         style="fill:#ffffff;stroke:#000000;stroke-width:1.5133;stroke-miterlimit:4;stroke-dasharray:none"
         d="m 101.43419,-453.85127 c -4.720091,0.0391 -9.446614,-0.0531 -14.161368,0.1963 -1.235615,0.16975 -2.119199,1.30578 -2.536195,2.40917 -0.621813,1.68384 0.554429,3.56806 2.100065,4.25701 1.160362,0.36525 2.355614,0.20957 3.561008,0.28371 1.168849,0.0904 2.465157,-0.17433 3.515889,0.46586 0.714742,0.51711 0.651118,1.52398 1.142746,2.20425 0.980748,1.76863 2.672251,3.1823 4.619743,3.73438 20.438922,0.0986 40.878042,0.13818 61.317242,0.10982 3.23384,-0.0114 6.47284,4.5e-4 9.70179,-0.16794 1.51147,-0.33693 2.65214,-1.82406 2.76898,-3.33908 -7.4e-4,-1.36144 -0.85345,-2.78022 -2.1364,-3.27667 -1.68254,-0.42044 -3.39614,-0.24855 -5.1481,-0.35744 -2.42805,-0.0494 -4.85619,-0.0972 -7.28424,-0.14756 -0.74686,-1.9743 -1.52502,-4.22301 -3.50637,-5.28555 -1.05309,-0.62527 -2.23716,-1.1524 -3.48983,-1.01067 -16.82159,-0.0714 -33.64329,-0.0991 -50.46496,-0.0755 z" />
      <path
         id="path2938"
         style="fill:#ffffff;stroke:#000000;stroke-width:2.06504;stroke-miterlimit:4;stroke-dasharray:none"
         d="m 397.91896,-527.25529 c 5.57752,0.0462 11.16263,-0.0628 16.73378,0.23197 1.46008,0.20074 2.50418,1.54296 2.99692,2.84681 0.73478,1.98971 -0.65514,4.21619 -2.48155,5.03031 -1.37112,0.43161 -2.78353,0.24757 -4.20785,0.33523 -1.38119,0.10677 -2.91294,-0.20605 -4.15457,0.55046 -0.84458,0.61106 -0.76941,1.80084 -1.35031,2.60468 -1.15893,2.0899 -3.15767,3.76036 -5.45895,4.41272 -24.15166,0.11645 -48.30358,0.16328 -72.45558,0.12987 -3.82127,-0.0125 -7.64863,5.3e-4 -11.46412,-0.19824 -1.78607,-0.39814 -3.13391,-2.15543 -3.27199,-3.94562 0.001,-1.60877 1.00848,-3.28526 2.52444,-3.8719 1.98821,-0.4968 4.01311,-0.29378 6.08327,-0.42237 2.86914,-0.0581 5.73834,-0.11489 8.60747,-0.17421 0.88252,-2.33294 1.80203,-4.99012 4.1433,-6.24568 1.24435,-0.73884 2.64351,-1.36173 4.12376,-1.19424 19.87724,-0.0843 39.75461,-0.11707 59.63198,-0.0893 z" />
      <path
         id="path2348"
         style="fill:#ffffff;stroke:#000000;stroke-width:2.06504;stroke-miterlimit:4;stroke-dasharray:none"
         d="m 115.45747,-662.7785 c 6.72887,0.0556 13.46685,-0.0759 20.18804,0.27973 1.76146,0.24226 3.02108,1.86149 3.61553,3.43449 0.88645,2.40041 -0.79035,5.0865 -2.99376,6.06867 -1.65417,0.52068 -3.3581,0.29877 -5.07648,0.40445 -1.66628,0.12893 -3.51426,-0.24851 -5.01217,0.66407 -1.01891,0.73721 -0.92822,2.17259 -1.62904,3.14233 -1.39816,2.52132 -3.8095,4.5366 -6.58582,5.32362 -29.137068,0.14048 -58.274488,0.1973 -87.412008,0.15672 -4.61009,-0.0156 -9.22749,6.2e-4 -13.83058,-0.23945 -2.15477,-0.48032 -3.78081,-2.60034 -3.9474,-4.76011 10e-4,-1.94082 1.21669,-3.96338 3.04556,-4.67112 2.39859,-0.59935 4.84146,-0.35431 7.33902,-0.50954 3.46134,-0.0705 6.92283,-0.13861 10.38417,-0.21042 1.06471,-2.81453 2.17403,-6.02018 4.99859,-7.53492 1.50125,-0.89141 3.18923,-1.64283 4.97501,-1.44078 23.98034,-0.10177 47.96089,-0.14142 71.941338,-0.10802 z" />
      <path
         id="path2350"
         style="fill:#ffffff;stroke:#000000;stroke-width:1.88743;stroke-miterlimit:4;stroke-dasharray:none"
         d="m 513.61417,-590.83327 c 6.15014,-0.0508 12.30862,0.0694 18.45174,-0.25568 1.60997,-0.22142 2.76125,-1.70139 3.30458,-3.1391 0.81021,-2.19396 -0.72238,-4.64903 -2.73628,-5.54673 -1.5119,-0.4759 -3.06929,-0.27307 -4.63987,-0.36966 -1.52297,-0.11784 -3.21202,0.22713 -4.5811,-0.60696 -0.93128,-0.6738 -0.84839,-1.98573 -1.48893,-2.87207 -1.27791,-2.30447 -3.48186,-4.14642 -6.0194,-4.86575 -26.63111,-0.1284 -53.26253,-0.18034 -79.89405,-0.14325 -4.21359,0.0143 -8.43387,-5.6e-4 -12.64106,0.21886 -1.96945,0.43901 -3.45564,2.37669 -3.6079,4.35071 9.1e-4,1.7739 1.11204,3.62251 2.78362,4.26938 2.1923,0.5478 4.42507,0.32383 6.70782,0.46571 3.16364,0.0644 6.32742,0.12669 9.49107,0.19233 0.97314,2.57246 1.98705,5.5024 4.56868,6.88687 1.37213,0.81474 2.91494,1.50153 4.54713,1.31686 21.91788,0.093 43.83596,0.12926 65.75395,0.0987 z" />
      <path
         id="path2470"
         style="fill:#ffffff;stroke:#000000;stroke-width:1.70249;stroke-miterlimit:4;stroke-dasharray:none"
         d="m 309.16816,-662.03222 c -5.54752,0.0458 -11.10255,-0.0626 -16.64374,0.23062 -1.45221,0.19973 -2.49068,1.53468 -2.98077,2.83152 -0.73082,1.97898 0.6516,4.19349 2.46816,5.00323 1.36376,0.42926 2.76855,0.24631 4.18523,0.33343 1.37374,0.1063 2.89729,-0.20487 4.13222,0.54749 0.84003,0.60778 0.76526,1.79116 1.34303,2.59065 1.15269,2.07867 3.14069,3.74013 5.42959,4.38898 24.02164,0.11582 48.04356,0.16267 72.06557,0.12921 3.80072,-0.0129 7.60747,5.1e-4 11.40242,-0.19742 1.77647,-0.39599 3.11703,-2.1438 3.25437,-3.9244 -6.9e-4,-1.60008 -1.00307,-3.26755 -2.51086,-3.85104 -1.97749,-0.49412 -3.99148,-0.2921 -6.05055,-0.42008 -2.85364,-0.0581 -5.70742,-0.11427 -8.56108,-0.17348 -0.87778,-2.32039 -1.79235,-4.96324 -4.12101,-6.21206 -1.23768,-0.7349 -2.62932,-1.3544 -4.10158,-1.18782 -19.77024,-0.0839 -39.54066,-0.1166 -59.311,-0.089 z" />
    </g>
  </g>
</svg>
