<?xml version="1.0" encoding="UTF-8" standalone="no"?>
<!-- Created with Inkscape (http://www.inkscape.org/) -->

<svg
   width="815.85303mm"
   height="1061.0414mm"
   viewBox="0 0 815.85302 1061.0414"
   version="1.1"
   id="svg1655"
   sodipodi:docname="Sky2.svg"
   inkscape:version="1.1 (c68e22c387, 2021-05-23)"
   xmlns:inkscape="http://www.inkscape.org/namespaces/inkscape"
   xmlns:sodipodi="http://sodipodi.sourceforge.net/DTD/sodipodi-0.dtd"
   xmlns="http://www.w3.org/2000/svg"
   xmlns:svg="http://www.w3.org/2000/svg">
  <sodipodi:namedview
     id="namedview21"
     pagecolor="#ffffff"
     bordercolor="#666666"
     borderopacity="1.0"
     inkscape:pageshadow="2"
     inkscape:pageopacity="0.0"
     inkscape:pagecheckerboard="0"
     inkscape:document-units="mm"
     showgrid="false"
     fit-margin-top="0"
     fit-margin-left="0"
     fit-margin-right="0"
     fit-margin-bottom="0"
     inkscape:zoom="0.1351196"
     inkscape:cx="1879.8162"
     inkscape:cy="499.55745"
     inkscape:window-width="1920"
     inkscape:window-height="1017"
     inkscape:window-x="-8"
     inkscape:window-y="-8"
     inkscape:window-maximized="1"
     inkscape:current-layer="svg1655" />
  <defs
     id="defs1652">
    <mask
       maskUnits="userSpaceOnUse"
       id="mask3057">
      <rect
         style="fill:#a8e5ff;fill-opacity:0.997602;stroke:none;stroke-width:0.601028;stroke-linecap:round;stroke-linejoin:round;stroke-miterlimit:4;stroke-dasharray:none;paint-order:markers stroke fill;stop-color:#000000"
         id="rect3059"
         width="59.12896"
         height="25.631119"
         x="265.392"
         y="169.08379"
         ry="0" />
    </mask>
    <clipPath
       clipPathUnits="userSpaceOnUse"
       id="clipPath3063">
      <rect
         style="fill:#a8e5ff;fill-opacity:0.997602;stroke:none;stroke-width:2.21938;stroke-linecap:round;stroke-linejoin:round;stroke-miterlimit:4;stroke-dasharray:none;paint-order:markers stroke fill;stop-color:#000000"
         id="rect3065"
         width="216.95833"
         height="95.25"
         x="352.01245"
         y="136.82024"
         ry="0" />
    </clipPath>
    <clipPath
       clipPathUnits="userSpaceOnUse"
       id="clipPath3071">
      <rect
         style="fill:#a8e5ff;fill-opacity:0.997602;stroke:none;stroke-width:2.21938;stroke-linecap:round;stroke-linejoin:round;stroke-miterlimit:4;stroke-dasharray:none;paint-order:markers stroke fill;stop-color:#000000"
         id="rect3073"
         width="216.95833"
         height="95.25"
         x="352.01245"
         y="136.82024"
         ry="0" />
    </clipPath>
  </defs>
  <g
     id="g6606"
     transform="translate(199.91431,121.29983)">
    <rect
       style="opacity:1;fill:#a8e5ff;fill-opacity:0.997602;stroke:none;stroke-width:8.34579;stroke-linecap:round;stroke-linejoin:round;stroke-miterlimit:4;stroke-dasharray:none;paint-order:markers stroke fill;stop-color:#000000"
       id="rect2918"
       width="815.85303"
       height="358.17938"
       x="-199.91429"
       y="236.24216"
       ry="0" />
    <path
       id="path2936"
       style="opacity:1;fill:#ffffff;stroke:#000000;stroke-width:1.885;stroke-miterlimit:4;stroke-dasharray:none"
       d="m 73.37554,357.49943 c 8.10497,0.067 16.22097,-0.0914 24.31667,0.33694 2.1217,0.29181 3.6389,2.24218 4.3549,4.13687 1.0677,2.89131 -0.952,6.12673 -3.606,7.30976 -1.9925,0.62716 -4.0449,0.35987 -6.1147,0.48716 -2.007,0.1553 -4.2329,-0.29933 -6.0372,0.79988 -1.2272,0.88797 -1.118,2.6169 -1.9621,3.78496 -1.68414,3.03695 -4.58862,5.46437 -7.93271,6.41234 -35.09582,0.16921 -70.19206,0.23765 -105.28843,0.18877 -5.55288,-0.0188 -11.11458,7.5e-4 -16.65903,-0.28842 -2.59544,-0.57855 -4.55402,-3.13213 -4.75468,-5.73359 0.001,-2.33773 1.46552,-4.77392 3.6684,-5.6264 2.88912,-0.72192 5.83158,-0.42677 8.83991,-0.61374 4.16921,-0.0849 8.3386,-0.16696 12.50781,-0.25345 1.28245,-3.39013 2.61864,-7.25136 6.02084,-9.07587 1.80827,-1.07371 3.84145,-1.9788 5.99244,-1.73543 28.8845,-0.12258 57.76925,-0.17034 86.65388,-0.13011 z" />
    <path
       id="path2934"
       style="opacity:1;fill:#ffffff;stroke:#000000;stroke-width:1.885;stroke-miterlimit:4;stroke-dasharray:none"
       d="m -74.43631,524.09709 c -5.68538,0.0471 -11.37852,-0.0639 -17.05747,0.23645 -1.48831,0.20446 -2.55259,1.57282 -3.05487,2.90186 -0.74898,2.0282 0.66781,4.29776 2.52955,5.1276 1.39766,0.43995 2.83735,0.25243 4.28926,0.34173 1.40788,0.10889 2.9693,-0.20998 4.23491,0.56114 0.86091,0.62286 0.78428,1.83564 1.37645,2.65503 1.18132,2.13033 3.21875,3.83311 5.56451,4.49809 24.61884,0.11876 49.23791,0.16644 73.85708,0.13228 3.89518,-0.0137 7.79658,5.4e-4 11.68588,-0.20229 1.82058,-0.40583 3.19452,-2.19709 3.33526,-4.02194 -9e-4,-1.63987 -1.02799,-3.3488 -2.57331,-3.94678 -2.02664,-0.50642 -4.09068,-0.29938 -6.20093,-0.43054 -2.9246,-0.0595 -5.84932,-0.11707 -8.77392,-0.17773 -0.8996,-2.37806 -1.8369,-5.08665 -4.22345,-6.36649 -1.26845,-0.75314 -2.69468,-1.38807 -4.20353,-1.21736 -20.26173,-0.086 -40.52359,-0.11936 -60.78542,-0.0909 z" />
    <path
       id="path2938"
       style="opacity:1;fill:#ffffff;stroke:#000000;stroke-width:1.885;stroke-miterlimit:4;stroke-dasharray:none"
       d="m 509.82621,468.96982 c 6.7182,0.0557 13.4455,-0.0756 20.156,0.27941 1.7587,0.24179 3.0163,1.85851 3.6098,3.42901 0.885,2.39662 -0.7891,5.07843 -2.9891,6.05904 -1.6515,0.51988 -3.3527,0.2982 -5.0683,0.40379 -1.6637,0.1286 -3.5087,-0.24819 -5.0043,0.66303 -1.0173,0.73603 -0.9267,2.16913 -1.6264,3.13736 -1.396,2.5173 -3.8035,4.52938 -6.5754,5.31515 -29.0908,0.14027 -58.182,0.19668 -87.2733,0.15643 -4.6027,-0.015 -9.2128,6.4e-4 -13.8086,-0.23878 -2.1513,-0.47956 -3.7748,-2.59623 -3.9411,-4.75253 0,-1.93777 1.2147,-3.95712 3.0407,-4.66373 2.3948,-0.5984 4.8338,-0.35386 7.3273,-0.50875 3.4559,-0.07 6.9119,-0.13838 10.3678,-0.20984 1.063,-2.81004 2.1706,-6.01063 4.9906,-7.52296 1.4989,-0.88994 3.1842,-1.64022 4.9671,-1.43848 23.9423,-0.10154 47.8848,-0.14101 71.8272,-0.10756 z" />
    <path
       id="path2348"
       style="opacity:1;fill:#ffffff;stroke:#000000;stroke-width:1.885;stroke-miterlimit:4;stroke-dasharray:none"
       d="m -57.54516,272.44268 c 8.10497,0.067 16.22092,-0.0914 24.31664,0.33694 2.12169,0.2918 3.63892,2.24217 4.35494,4.13687 1.06773,2.89131 -0.95199,6.12672 -3.60601,7.30975 -1.99246,0.62717 -4.04486,0.35987 -6.11466,0.48717 -2.00705,0.15529 -4.23295,-0.29934 -6.0372,0.79987 -1.22728,0.88798 -1.11804,2.6169 -1.96219,3.78496 -1.68409,3.03695 -4.58857,5.46437 -7.93267,6.41234 -35.09581,0.16921 -70.19205,0.23765 -105.28842,0.18877 -5.55288,-0.0188 -11.11458,7.5e-4 -16.65903,-0.28841 -2.59544,-0.57855 -4.55402,-3.13213 -4.75468,-5.73359 0.001,-2.33774 1.46552,-4.77392 3.6684,-5.6264 2.88912,-0.72192 5.83158,-0.42677 8.83991,-0.61375 4.16921,-0.0849 8.3386,-0.16695 12.50781,-0.25345 1.28245,-3.39012 2.61864,-7.25135 6.02084,-9.07587 1.80827,-1.07371 3.84145,-1.9788 5.99244,-1.73543 28.8845,-0.12258 57.76925,-0.17034 86.65388,-0.13011 z" />
    <rect
       style="opacity:1;fill:#a8e5ff;fill-opacity:0.997602;stroke:none;stroke-width:8.34579;stroke-linecap:round;stroke-linejoin:round;stroke-miterlimit:4;stroke-dasharray:none;paint-order:markers stroke fill;stop-color:#000000"
       id="rect869"
       width="815.85303"
       height="358.17938"
       x="-615.93872"
       y="-121.29983"
       ry="0"
       transform="scale(-1,1)" />
    <path
       id="path875"
       style="opacity:1;fill:#ffffff;stroke:#000000;stroke-width:1.885;stroke-miterlimit:4;stroke-dasharray:none"
       d="m -133.91203,54.21095 c -6.92259,0.0572 -13.85453,-0.0778 -20.76926,0.28805 -1.81214,0.24932 -3.10806,1.91507 -3.71961,3.53336 -0.91197,2.46949 0.81311,5.23295 3.07997,6.24337 1.70182,0.53567 3.45481,0.30723 5.22262,0.4161 1.71425,0.13236 3.61544,-0.25572 5.15646,0.68322 1.04825,0.7584 0.95492,2.23512 1.67594,3.23279 1.43839,2.59389 3.91917,4.6672 6.77543,5.47686 29.97599,0.14477 59.95225,0.20268 89.92868,0.16094 4.74278,-0.0151 9.49313,6.8e-4 14.22876,-0.24631 2.21681,-0.49415 3.88967,-2.6752 4.06107,-4.89714 -0.001,-1.99671 -1.25174,-4.0775 -3.13326,-4.80559 -2.46765,-0.61667 -4.98089,-0.36476 -7.5503,-0.52427 -3.56101,-0.0721 -7.12216,-0.14253 -10.68319,-0.21623 -1.09533,-2.89555 -2.23662,-6.19351 -5.14252,-7.75186 -1.54443,-0.91706 -3.28099,-1.69012 -5.11818,-1.48225 -24.67076,-0.10491 -49.3417,-0.14553 -74.01261,-0.11093 z" />
    <path
       id="path877"
       style="opacity:1;fill:#ffffff;stroke:#000000;stroke-width:1.885;stroke-miterlimit:4;stroke-dasharray:none"
       d="m 558.99581,105.85269 c 5.6853,0.0471 11.3785,-0.064 17.0574,0.23644 1.4883,0.20447 2.5526,1.57282 3.0549,2.90187 0.749,2.02819 -0.6678,4.29775 -2.5296,5.1276 -1.3976,0.43994 -2.8373,0.25242 -4.2892,0.34173 -1.4079,0.10888 -2.9693,-0.20998 -4.2349,0.56113 -0.8609,0.62286 -0.7843,1.83564 -1.3765,2.65503 -1.1813,2.13033 -3.2187,3.83311 -5.5645,4.49809 -24.6188,0.11877 -49.2379,0.16644 -73.8571,0.13228 -3.8952,-0.0137 -7.7966,5.4e-4 -11.6858,-0.20228 -1.8206,-0.40584 -3.1946,-2.1971 -3.3353,-4.02195 9e-4,-1.63986 1.028,-3.3488 2.5733,-3.94677 2.0266,-0.50643 4.0907,-0.29938 6.2009,-0.43054 2.9246,-0.0595 5.8493,-0.11708 8.774,-0.17774 0.8996,-2.37806 1.8369,-5.08665 4.2234,-6.36648 1.2685,-0.75315 2.6947,-1.38808 4.2035,-1.21736 20.2618,-0.086 40.5236,-0.11937 60.7855,-0.0909 z" />
    <path
       id="path881"
       style="opacity:1;fill:#ffffff;stroke:#000000;stroke-width:1.885;stroke-miterlimit:4;stroke-dasharray:none"
       d="m 473.56961,-85.099328 c -8.105,0.06697 -16.2209,-0.09142 -24.3166,0.336937 -2.1217,0.291804 -3.639,2.242179 -4.355,4.136869 -1.0677,2.891312 0.952,6.126727 3.606,7.309758 1.9925,0.627163 4.0449,0.359871 6.1147,0.487163 2.007,0.155298 4.2329,-0.299332 6.0372,0.799878 1.2273,0.887975 1.118,2.616901 1.9622,3.78496 1.6841,3.036949 4.5885,5.464368 7.9326,6.41234 35.0959,0.169209 70.1921,0.237649 105.2885,0.18877 5.5529,-0.01879 11.1146,7.47e-4 16.659,-0.288419 2.5954,-0.578549 4.554,-3.132129 4.7547,-5.733588 0,-2.337732 -1.4655,-4.773921 -3.6684,-5.626399 -2.8891,-0.721922 -5.8316,-0.426769 -8.8399,-0.613745 -4.1692,-0.08492 -8.3386,-0.166957 -12.5078,-0.253452 -1.2825,-3.390123 -2.6187,-7.251352 -6.0209,-9.075868 -1.8082,-1.07371 -3.8414,-1.978801 -5.9924,-1.73543 -28.8845,-0.122583 -57.7693,-0.170342 -86.6539,-0.130111 z" />
    <path
       id="path885"
       style="opacity:1;fill:#ffffff;stroke:#000000;stroke-width:1.885;stroke-miterlimit:4;stroke-dasharray:none"
       d="m 240.24361,-84.200428 c 6.6821,0.05517 13.3731,-0.0754 20.0475,0.277783 1.7492,0.240577 3.0001,1.848534 3.5904,3.410587 0.8803,2.383697 -0.7849,5.051091 -2.9729,6.026428 -1.6427,0.517047 -3.3348,0.296683 -5.0412,0.401619 -1.6546,0.12804 -3.4898,-0.246767 -4.9773,0.659456 -1.0118,0.732076 -0.9217,2.157466 -1.6176,3.120458 -1.3885,2.503773 -3.783,4.505014 -6.54,5.286559 -28.9343,0.139506 -57.8689,0.195937 -86.8035,0.155634 -4.578,-0.01554 -9.1633,6.15e-4 -13.7343,-0.237794 -2.1398,-0.476972 -3.7545,-2.582223 -3.92,-4.726969 9e-4,-1.927308 1.2082,-3.935788 3.0244,-4.638606 2.3819,-0.595172 4.8078,-0.351837 7.2879,-0.50599 3.4373,-0.06998 6.8747,-0.137639 10.3119,-0.208958 1.0573,-2.794927 2.1589,-5.97826 4.9638,-7.482473 1.4908,-0.885192 3.167,-1.631385 4.9404,-1.430738 23.8134,-0.101058 47.627,-0.140445 71.4405,-0.107201 z" />
    <rect
       style="opacity:1;fill:#a8e5ff;fill-opacity:0.997602;stroke:none;stroke-width:8.34579;stroke-linecap:round;stroke-linejoin:round;stroke-miterlimit:4;stroke-dasharray:none;paint-order:markers stroke fill;stop-color:#000000"
       id="rect889"
       width="815.85303"
       height="358.17957"
       x="-615.93872"
       y="581.56195"
       ry="0"
       transform="scale(-1,1)" />
    <path
       id="path891"
       style="opacity:1;fill:#ffffff;stroke:#000000;stroke-width:1.885;stroke-miterlimit:4;stroke-dasharray:none"
       d="m 342.64891,702.81926 c -8.105,0.067 -16.2209,-0.0914 -24.3166,0.33693 -2.1217,0.29181 -3.639,2.24218 -4.355,4.13687 -1.0677,2.89131 0.952,6.12673 3.606,7.30977 1.9925,0.62717 4.0449,0.35987 6.1147,0.48717 2.007,0.15529 4.2329,-0.29934 6.0372,0.79987 1.2273,0.88798 1.118,2.6169 1.9622,3.78496 1.6841,3.03695 4.5885,5.46437 7.9326,6.41234 35.0959,0.16921 70.1921,0.23765 105.2885,0.18877 5.5529,-0.0188 11.1145,7.5e-4 16.659,-0.28842 2.5954,-0.57855 4.554,-3.13213 4.7547,-5.73358 0,-2.33774 -1.4655,-4.77393 -3.6684,-5.6264 -2.8891,-0.72194 -5.8316,-0.42677 -8.8399,-0.61376 -4.1692,-0.0849 -8.3386,-0.16696 -12.5078,-0.25345 -1.2825,-3.39013 -2.6187,-7.25135 -6.0209,-9.07587 -1.8082,-1.07371 -3.8414,-1.9788 -5.9924,-1.73543 -28.8845,-0.12258 -57.7693,-0.17034 -86.6539,-0.13011 z" />
    <path
       id="path893"
       style="opacity:1;fill:#ffffff;stroke:#000000;stroke-width:1.885;stroke-miterlimit:4;stroke-dasharray:none"
       d="m 22.56927,899.33686 c -9.49174,-0.079 -18.99633,0.1068 -28.47723,-0.3948 -2.48473,-0.3418 -4.26154,-2.6258 -5.1001,-4.8447 -1.25042,-3.386 1.11489,-7.175 4.22301,-8.5604 2.33342,-0.7345 4.73696,-0.4213 7.16088,-0.5705 2.35049,-0.1817 4.95725,0.3504 7.07018,-0.9368 1.43727,-1.0399 1.30934,-3.0647 2.29795,-4.4326 1.97223,-3.55659 5.37367,-6.39932 9.28996,-7.5095 41.10087,-0.19855 82.20209,-0.2779 123.30359,-0.22074 6.503,0.0188 13.0163,-8.6e-4 19.5095,0.33769 3.0394,0.67755 5.3332,3.66805 5.5682,6.71465 0,2.7377 -1.7163,5.5908 -4.2961,6.5891 -3.3835,0.8455 -6.8294,0.4998 -10.3524,0.7188 -4.8826,0.099 -9.7654,0.1955 -14.648,0.2967 -1.5019,3.9701 -3.0667,8.492 -7.0511,10.6287 -2.1176,1.2574 -4.4986,2.3174 -7.0177,2.0324 -33.8267,0.1436 -67.65369,0.1993 -101.48064,0.1519 z" />
    <path
       id="path895"
       style="opacity:1;fill:#ffffff;stroke:#000000;stroke-width:1.885;stroke-miterlimit:4;stroke-dasharray:none"
       d="m -133.91203,757.0728 c -6.92259,0.0572 -13.85453,-0.0778 -20.76926,0.28805 -1.81214,0.24932 -3.10806,1.91507 -3.71961,3.53336 -0.91197,2.46951 0.81311,5.23296 3.07997,6.24339 1.70182,0.53566 3.45481,0.30723 5.22262,0.41609 1.71425,0.13237 3.61544,-0.25571 5.15646,0.68322 1.04825,0.75841 0.95492,2.23512 1.67594,3.23279 1.43839,2.5939 3.91917,4.6672 6.77543,5.47686 29.97599,0.14477 59.95225,0.20268 89.92868,0.16095 4.74278,-0.0151 9.49313,6.7e-4 14.22876,-0.24631 2.21681,-0.49415 3.88967,-2.6752 4.06107,-4.89714 -0.001,-1.99672 -1.25174,-4.0775 -3.13326,-4.80559 -2.46765,-0.61667 -4.98089,-0.36476 -7.5503,-0.52427 -3.56101,-0.0721 -7.12216,-0.14253 -10.68319,-0.21624 -1.09533,-2.89555 -2.23662,-6.19351 -5.14252,-7.75187 -1.54443,-0.91705 -3.28099,-1.69012 -5.11818,-1.48224 -24.67076,-0.10492 -49.3417,-0.14553 -74.01261,-0.11094 z" />
    <path
       id="path897"
       style="opacity:1;fill:#ffffff;stroke:#000000;stroke-width:1.885;stroke-miterlimit:4;stroke-dasharray:none"
       d="m 490.46081,869.417 c 5.6853,0.0471 11.3785,-0.064 17.0574,0.23645 1.4883,0.20446 2.5526,1.57282 3.0549,2.90186 0.749,2.0282 -0.6678,4.29775 -2.5296,5.12755 -1.3976,0.44 -2.8373,0.2525 -4.2892,0.3418 -1.4079,0.1089 -2.9693,-0.21 -4.2349,0.5611 -0.8609,0.6229 -0.7843,1.8357 -1.3765,2.655 -1.1813,2.1304 -3.2187,3.8332 -5.5645,4.4981 -24.6188,0.1188 -49.2379,0.1665 -73.8571,0.1323 -3.8952,-0.014 -7.7966,6e-4 -11.6858,-0.2023 -1.8206,-0.4058 -3.1946,-2.1971 -3.3353,-4.0219 9e-4,-1.6399 1.028,-3.3488 2.5733,-3.9468 2.0266,-0.5064 4.0907,-0.2994 6.2009,-0.4305 2.9246,-0.06 5.8493,-0.1171 8.774,-0.1778 0.8996,-2.37803 1.8369,-5.08661 4.2234,-6.36645 1.2685,-0.75314 2.6947,-1.38808 4.2035,-1.21736 20.2618,-0.086 40.5236,-0.11937 60.7855,-0.0909 z" />
    <path
       id="path899"
       style="opacity:1;fill:#ffffff;stroke:#000000;stroke-width:1.885;stroke-miterlimit:4;stroke-dasharray:none"
       d="m 133.34261,781.00126 c -6.7181,0.0557 -13.4454,-0.0756 -20.1559,0.27941 -1.7587,0.24179 -3.0163,1.85851 -3.6099,3.429 -0.885,2.39664 0.7892,5.07845 2.9891,6.05906 1.6515,0.51988 3.3528,0.2982 5.0684,0.40379 1.6636,0.1286 3.5086,-0.24819 5.0042,0.66303 1.0173,0.73603 0.9267,2.16913 1.6264,3.13736 1.396,2.5173 3.8035,4.52938 6.5754,5.31515 29.0908,0.14027 58.182,0.19667 87.2733,0.15643 4.6027,-0.015 9.2128,6.4e-4 13.8086,-0.23878 2.1513,-0.47956 3.7748,-2.59623 3.9411,-4.75253 0,-1.93777 -1.2147,-3.95712 -3.0407,-4.66373 -2.3948,-0.5984 -4.8338,-0.35386 -7.3273,-0.50875 -3.4559,-0.07 -6.9119,-0.13838 -10.3678,-0.20984 -1.063,-2.81004 -2.1705,-6.01064 -4.9906,-7.52298 -1.4988,-0.88993 -3.1841,-1.64021 -4.9671,-1.43847 -23.9423,-0.10154 -47.8847,-0.14101 -71.8272,-0.10756 z" />
    <path
       id="path901"
       style="opacity:1;fill:#ffffff;stroke:#000000;stroke-width:1.885;stroke-miterlimit:4;stroke-dasharray:none"
       d="m 473.56961,617.76246 c -8.105,0.067 -16.2209,-0.0914 -24.3166,0.33694 -2.1217,0.29181 -3.639,2.24218 -4.355,4.13687 -1.0677,2.89131 0.952,6.12673 3.606,7.30976 1.9925,0.62716 4.0449,0.35987 6.1147,0.48716 2.007,0.1553 4.2329,-0.29933 6.0372,0.79988 1.2273,0.88797 1.118,2.6169 1.9622,3.78496 1.6841,3.03695 4.5885,5.46437 7.9326,6.41234 35.0959,0.16921 70.1921,0.23765 105.2885,0.18877 5.5529,-0.0188 11.1146,7.5e-4 16.659,-0.28842 2.5954,-0.57855 4.554,-3.13213 4.7547,-5.73359 0,-2.33773 -1.4655,-4.77392 -3.6684,-5.6264 -2.8891,-0.72192 -5.8316,-0.42677 -8.8399,-0.61374 -4.1692,-0.0849 -8.3386,-0.16696 -12.5078,-0.25345 -1.2825,-3.39013 -2.6187,-7.25136 -6.0209,-9.07587 -1.8082,-1.07371 -3.8414,-1.97881 -5.9924,-1.73543 -28.8845,-0.12258 -57.7693,-0.17034 -86.6539,-0.13011 z" />
    <path
       id="path905"
       style="opacity:1;fill:#ffffff;stroke:#000000;stroke-width:1.885;stroke-miterlimit:4;stroke-dasharray:none"
       d="m 240.24361,618.66136 c 6.6821,0.0552 13.3731,-0.0754 20.0475,0.27779 1.7492,0.24057 3.0001,1.84853 3.5904,3.41059 0.8803,2.38369 -0.7849,5.05109 -2.9729,6.02642 -1.6427,0.51705 -3.3348,0.29669 -5.0412,0.40162 -1.6546,0.12804 -3.4898,-0.24677 -4.9773,0.65946 -1.0118,0.73207 -0.9217,2.15746 -1.6176,3.12046 -1.3885,2.50377 -3.783,4.50501 -6.54,5.28655 -28.9343,0.13951 -57.8689,0.19594 -86.8035,0.15564 -4.578,-0.0155 -9.1633,6.1e-4 -13.7343,-0.23779 -2.1398,-0.47698 -3.7545,-2.58223 -3.92,-4.72697 9e-4,-1.92731 1.2082,-3.93579 3.0244,-4.63861 2.3819,-0.59517 4.8078,-0.35184 7.2879,-0.50599 3.4373,-0.07 6.8747,-0.13764 10.3119,-0.20896 1.0573,-2.79493 2.1589,-5.97826 4.9638,-7.48247 1.4908,-0.88519 3.167,-1.63139 4.9404,-1.43074 23.8134,-0.10106 47.627,-0.14044 71.4405,-0.1072 z" />
  </g>
</svg>
