<?xml version="1.0" encoding="UTF-8" standalone="no"?>
<!-- Created with Inkscape (http://www.inkscape.org/) -->

<svg
   width="151.14844mm"
   height="18.318584mm"
   viewBox="0 0 151.14843 18.318585"
   version="1.1"
   id="svg324455"
   sodipodi:docname="Plane_Red_Prognosis.svg"
   inkscape:version="1.1 (c68e22c387, 2021-05-23)"
   inkscape:export-filename="C:\Users\camer\Desktop\Game Design\SANTA\Plane_Red_SANTA.png"
   inkscape:export-xdpi="96"
   inkscape:export-ydpi="96"
   xmlns:inkscape="http://www.inkscape.org/namespaces/inkscape"
   xmlns:sodipodi="http://sodipodi.sourceforge.net/DTD/sodipodi-0.dtd"
   xmlns="http://www.w3.org/2000/svg"
   xmlns:svg="http://www.w3.org/2000/svg">
  <sodipodi:namedview
     id="namedview324457"
     pagecolor="#ffffff"
     bordercolor="#666666"
     borderopacity="1.0"
     inkscape:pageshadow="2"
     inkscape:pageopacity="0.0"
     inkscape:pagecheckerboard="0"
     inkscape:document-units="mm"
     showgrid="false"
     fit-margin-top="0"
     fit-margin-left="0"
     fit-margin-right="0"
     fit-margin-bottom="0"
     inkscape:zoom="0.38217593"
     inkscape:cx="-329.6911"
     inkscape:cy="139.98789"
     inkscape:window-width="1920"
     inkscape:window-height="1017"
     inkscape:window-x="-8"
     inkscape:window-y="-8"
     inkscape:window-maximized="1"
     inkscape:current-layer="layer1" />
  <defs
     id="defs324452">
    <clipPath
       clipPathUnits="userSpaceOnUse"
       id="clipPath297720">
      <g
         id="g297730">
        <path
           id="path297722"
           style="fill:#ffcd5f;fill-opacity:1;stroke:none;stroke-width:0.885238;stroke-linecap:round;stroke-linejoin:round;stroke-opacity:1;paint-order:markers stroke fill;stop-color:#000000"
           d="m 217.89258,19.371094 c -1.68357,0.146021 -3.28438,0.831663 -4.76953,1.601562 -1.28821,0.708648 -1.59927,2.511206 -0.74645,3.675028 0.66287,0.882664 1.04041,1.990775 0.74993,3.090021 -0.59495,2.71566 -1.51752,5.359854 -2.58257,7.925325 -0.63458,1.465516 -1.55564,3.130717 -3.29787,3.389704 -1.51138,0.179893 -3.01085,0.197783 -4.41797,0.253907 -7.0599,0.24761 -14.13823,-0.122218 -21.18681,0.4224 -2.48102,0.225367 -4.64918,1.693088 -6.52998,3.22799 -1.55879,1.299129 -2.77605,2.955351 -3.9003,4.620415 -0.56892,1.191665 -0.29664,2.517703 -0.35751,3.790523 0.0698,3.937859 -0.20522,7.90755 0.375,11.817578 0.38041,2.667787 1.98031,4.947769 3.8586,6.799062 5.3662,5.695698 12.57101,9.252267 19.8914,11.741953 6.67166,2.18141 13.63129,3.599978 20.6558,3.850375 0.89477,-0.06145 1.85148,0.187687 2.70523,-0.07942 0.6043,-0.299231 1.39033,-0.400218 1.57635,-1.155737 0.52685,-1.402454 0.67577,-2.978024 1.5863,-4.228585 0.75423,-1.099142 1.57624,-2.307836 2.82592,-2.869055 1.69746,-0.51971 3.50746,-0.521501 5.23057,-0.824418 0.63518,-0.428902 1.53064,-0.656644 1.6657,-1.52447 3.46267,-10.944995 6.92564,-21.889895 10.38889,-32.834706 -0.16116,-0.561124 0.0324,-1.338186 -0.36272,-1.756884 -0.63612,-0.407816 -1.2186,-1.028347 -2.04353,-0.846741 -6.114,-0.05652 -12.24634,0.177791 -18.34375,-0.372938 -1.19655,-0.291012 -2.30012,-1.173555 -2.84766,-2.27539 -0.17281,-3.541203 0.60944,-7.136246 2.18762,-10.309858 0.45066,-0.970798 1.56548,-1.5442 1.64051,-2.703814 0.15206,-1.9502 -1.18563,-4.176437 -3.25195,-4.398438 -0.23221,-0.0248 -0.46582,-0.03426 -0.69922,-0.02539 z" />
        <path
           id="path297724"
           style="fill:#ffcd5f;fill-opacity:1;stroke:none;stroke-width:0.885238;stroke-linecap:round;stroke-linejoin:round;stroke-opacity:1;paint-order:markers stroke fill;stop-color:#000000"
           d="m 257.61914,30.648438 c -0.58681,-0.01558 -1.18407,0.01462 -1.58582,0.503881 -0.53945,0.419715 -1.18585,0.772218 -1.28517,1.514089 -2.08709,6.320364 -4.11649,12.661987 -6.01182,19.042576 -0.35546,1.083672 0.1701,2.445625 1.32348,2.759237 1.33107,0.537291 2.52674,-0.605913 3.52404,-1.338846 6.24329,-5.006185 12.33004,-10.202749 18.49501,-15.3045 1.40132,-1.204462 2.89243,-2.338889 4.23797,-3.586843 0.14363,-0.560196 0.81206,-1.108888 0.55714,-1.67782 -0.30637,-0.548171 -0.3314,-1.385553 -1.09189,-1.466885 -1.03478,-0.546545 -2.24044,-0.231522 -3.36229,-0.339079 -4.93314,-0.05779 -9.8671,-0.181986 -14.80065,-0.10581 z" />
        <path
           id="path297726"
           style="fill:#ffcd5f;fill-opacity:1;stroke:none;stroke-width:0.885238;stroke-linecap:round;stroke-linejoin:round;stroke-opacity:1;paint-order:markers stroke fill;stop-color:#000000"
           d="m 270.51953,51.052734 c -2.15457,1.570304 -4.11135,3.404476 -6.16343,5.107591 -6.31817,5.435337 -12.65195,10.857158 -18.83657,16.445144 -0.84681,0.760979 -1.06025,2.214921 -0.20638,3.051152 0.92094,1.123402 2.56173,0.886466 3.86107,0.982905 5.23981,0.03224 10.47898,-0.105065 15.71836,-0.157104 0.65863,-0.389566 1.59903,-0.479207 1.83506,-1.318612 2.15544,-6.768378 4.35532,-13.532324 6.32654,-20.360131 0.21522,-0.892807 0.7289,-1.88853 0.10103,-2.729205 -0.13132,-0.706309 -0.65256,-0.965732 -1.31245,-1.06625 -0.47701,-0.234667 -0.85242,-0.168327 -1.32323,0.04451 z" />
        <path
           id="path297728"
           style="fill:#ffcd5f;fill-opacity:1;stroke:none;stroke-width:0.885238;stroke-linecap:round;stroke-linejoin:round;stroke-opacity:1;paint-order:markers stroke fill;stop-color:#000000"
           d="m 381.88672,12.859375 c -2.49381,0.316702 -4.70135,1.645358 -6.96096,2.656693 -3.0323,1.460383 -6.25878,3.04254 -8.11912,5.985885 -1.62751,2.533661 -2.65657,5.391905 -3.85486,8.141206 -0.95828,2.461508 -2.08506,4.886583 -2.67926,7.4683 -0.0972,0.625252 0.0944,1.213887 0.60244,1.605862 0.35692,0.539525 0.86677,0.911404 1.53248,0.928654 0.7796,0.129509 1.56565,0.214782 2.35233,0.287619 -14.69019,-0.315495 -29.42709,-1.068825 -44.14351,-1.637081 -1.35249,-0.08246 -2.73167,-0.05891 -4.06754,-0.207383 -2.42014,-1.254227 -5.16556,-2.159381 -6.96308,-4.324152 -1.56622,-1.643757 -2.80015,-3.622186 -4.60322,-5.026697 -1.06199,-0.801702 -2.64487,-0.57835 -3.48047,0.441407 -2.3727,1.261456 -5.14189,1.397026 -7.77625,1.408209 -0.98101,0.05995 -2.12701,-0.01398 -2.81089,0.831696 -0.73727,0.622557 -0.73101,1.806714 -1.07777,2.593635 -4.10179,13.192227 -8.30981,26.352417 -12.42493,39.539506 -0.29824,1.386038 0.8326,2.720995 2.19976,2.876307 3.09138,0.413966 6.22716,0.286675 9.33914,0.393649 2.47346,0.09882 4.98064,-0.04247 7.42474,0.397067 2.22882,0.777148 3.17073,3.133992 4.11158,5.093829 0.40514,0.764226 0.6696,1.754548 1.62109,1.983004 0.51161,0.367113 1.10364,0.449389 1.68547,0.194941 18.11833,-6.524226 36.22653,-13.076898 54.31173,-19.69212 0.89579,-0.163575 1.4053,-0.91447 2.01547,-1.512302 0.23662,-1.428168 -0.40335,-2.778513 -0.65497,-4.163336 -0.4134,-1.833216 -0.92298,-3.674493 -0.94268,-5.565179 5.17983,-0.35861 10.37937,-0.225575 15.56836,-0.263672 3.82552,0 7.65104,0 11.47656,0 0.49373,-0.320817 1.26958,-0.379205 1.57722,-0.873117 0.33301,-0.713369 0.51601,-1.452986 0.414,-2.242473 -0.0895,-11.216678 -0.17904,-22.433357 -0.26856,-33.650035 -0.39999,-0.765597 -0.62303,-1.671347 -1.44183,-2.105199 -1.09272,-0.975948 -2.44753,-1.729391 -3.96247,-1.564723 z m -83.6543,32.005859 c 1.84053,0.03577 3.83026,0.681335 4.81295,2.351783 2.04279,3.056055 0.80401,7.975949 -2.79063,9.230621 -2.93037,1.098903 -6.6814,-0.310836 -7.88894,-3.256311 -0.24167,-1.618057 -0.26832,-3.314433 0.0867,-4.919024 0.4212,-1.412828 1.72309,-2.364991 2.97128,-3.02035 0.89369,-0.332163 1.86168,-0.41546 2.80859,-0.386719 z" />
      </g>
    </clipPath>
  </defs>
  <g
     inkscape:label="Layer 1"
     inkscape:groupmode="layer"
     id="layer1"
     transform="translate(-1.7779919,-156.80919)">
    <g
       aria-label="News"
       id="text1876"
       style="font-size:15.5222px;line-height:1.25;font-family:rookie;-inkscape-font-specification:rookie;word-spacing:0px;fill:#ffffff;stroke-width:0.264583" />
    <g
       id="g101431">
      <g
         id="g17236"
         transform="translate(0,-2.1166667)">
        <path
           style="fill:none;stroke:#000000;stroke-width:0.535641;stroke-linecap:round;stroke-linejoin:miter;stroke-miterlimit:4;stroke-dasharray:none;stroke-opacity:1"
           d="M 27.647525,168.4949 H 37.078"
           id="path313325"
           sodipodi:nodetypes="cc" />
        <path
           style="fill:none;stroke:#000000;stroke-width:0.535641;stroke-linecap:round;stroke-linejoin:miter;stroke-miterlimit:4;stroke-dasharray:none;stroke-opacity:1"
           d="m 37.078,168.4949 4.4336,-6.09664"
           id="path313327"
           sodipodi:nodetypes="cc" />
        <path
           style="fill:none;stroke:#000000;stroke-width:0.535641;stroke-linecap:round;stroke-linejoin:miter;stroke-miterlimit:4;stroke-dasharray:none;stroke-opacity:1"
           d="m 37.078,168.59812 4.4336,6.09665"
           id="path313445"
           sodipodi:nodetypes="cc" />
      </g>
      <path
         style="fill:#ff4e33;fill-opacity:1;stroke:#000000;stroke-width:0.963324;stroke-linecap:round;stroke-linejoin:round;stroke-miterlimit:4;stroke-dasharray:none;stroke-opacity:1;paint-order:markers stroke fill;stop-color:#000000"
         d="m 41.458226,159.19916 c 6.165798,-0.42769 12.332094,-0.83635 18.497934,-0.95101 6.165801,-0.11485 12.33164,0.0757 18.497435,0.44214 6.166331,0.36634 12.332136,0.87694 18.497931,1.18765 6.165834,0.31069 12.331674,0.39333 18.497964,0.19315 6.1663,-0.20006 12.33115,-0.66646 18.496,-1.08419 6.16965,-0.41776 12.33451,-0.74996 18.49936,-0.77338 l -0.16794,0.14648 -5.59787,7.1397 v 0 l 5.59787,7.13971 0.16794,0.0404 c -6.16485,0.0238 -12.32971,0.3556 -18.49936,0.77335 -6.16485,0.41776 -12.3297,0.8841 -18.496,1.0842 -6.16629,0.20007 -12.33213,0.11744 -18.497964,-0.19317 -6.165795,-0.31067 -12.3316,-0.82129 -18.497931,-1.1876 -6.165795,-0.36633 -12.331634,-0.55685 -18.497435,-0.44217 -6.16584,0.11484 -12.332136,0.52331 -18.497934,0.951 l -0.25032,0.007 v -14.27944"
         title="t sin(6*t)"
         id="path315727"
         sodipodi:nodetypes="ccccsccccccccscccccc" />
      <g
         aria-label="A Miracle on Betelgeuse"
         id="text1161"
         style="font-size:10.5833px;line-height:1.25;font-family:Montserrat;-inkscape-font-specification:Montserrat;letter-spacing:0.0105833px;word-spacing:0px;fill:#ffffff;stroke-width:0.264583">
        <path
           d="m 43.579615,169.05959 q 0.486831,0 1.132413,-2.14841 l 1.513412,-5.14349 h 1.418162 l 1.777994,6.57223 q 0.04233,0.16933 0.07408,0.27517 0.04233,0.0952 0.07408,0.14816 0.105833,0.17992 0.338666,0.27517 v 0.20108 h -2.402409 v -0.1905 l 0.04233,-0.0106 q 0.253999,-0.0635 0.253999,-0.32808 0,-0.3175 -0.116416,-0.70908 l -0.201083,-0.70909 h -2.169576 q -0.211666,0.73025 -0.211666,1.09008 0,0.17992 0.148166,0.42334 0.15875,0.24341 0.370416,0.24341 v 0.1905 h -2.042577 z m 3.725321,-2.45533 -0.836081,-3.41841 -0.96308,3.41841 z"
           style="font-family:rookie;-inkscape-font-specification:rookie"
           id="path6255" />
        <path
           d="m 52.712971,168.53042 q 0.476248,-0.10584 0.677331,-0.89958 0.0635,-0.26459 0.158749,-1.22767 0.05292,-0.51858 0.07408,-0.78316 0.03175,-0.27517 0.169333,-1.43933 0.137583,-1.17475 0.137583,-1.93674 0,-0.68792 -0.423332,-0.78317 v -0.21166 h 2.233076 l 1.386412,4.77306 1.322913,-4.78365 h 2.275409 v 0.21167 q -0.380998,0.0952 -0.380998,0.65616 l 0.01058,0.254 0.455082,4.80482 0.09525,0.78316 q 0.116417,0.4445 0.455082,0.5715 v 0.1905 H 58.946529 V 168.541 q 0.222249,-0.127 0.296332,-0.24342 0.07408,-0.127 0.07408,-0.381 0,-0.38099 -0.105833,-1.39699 l -0.391582,-3.90524 -1.619244,6.09598 h -0.772581 l -1.799161,-5.96898 -0.380999,3.91582 -0.04233,0.80433 q 0,0.91017 0.603248,1.06892 v 0.17991 h -2.095493 z"
           style="font-family:rookie;-inkscape-font-specification:rookie"
           id="path6257" />
        <path
           d="m 62.597762,160.83635 q 0.317499,0 0.550332,0.23283 0.232832,0.23284 0.232832,0.53975 0,0.30692 -0.243416,0.55033 -0.222249,0.24342 -0.529165,0.24342 -0.317499,0 -0.560915,-0.23283 -0.232832,-0.254 -0.232832,-0.5715 0,-0.3175 0.222249,-0.53975 0.222249,-0.22225 0.560915,-0.22225 z m -1.15358,2.93158 0.0635,0.0106 q 0.275166,0 0.772581,-0.29633 0.402165,-0.24342 0.677331,-0.508 h 0.253999 v 4.46615 q 0,0.17992 0.0635,0.37042 0.09525,0.22225 0.264583,0.21166 v 0.15875 h -1.957911 v -0.14816 q 0.243416,-0.15875 0.285749,-0.26459 0.04233,-0.10583 0.04233,-0.23283 0.01058,-0.127 0.01058,-0.20108 v -2.73049 q 0,-0.34925 -0.08467,-0.43392 l -0.391582,-0.22225 z"
           style="font-family:rookie;-inkscape-font-specification:rookie"
           id="path6259" />
        <path
           d="m 63.846584,163.77851 q 0.201083,-0.0741 0.486832,-0.20108 0.285749,-0.127 0.677331,-0.32809 0.243416,-0.15875 0.328082,-0.23283 0.02117,-0.0106 0.04233,-0.0423 h 0.211666 v 0.99483 l 0.603248,-0.67733 q 0.412749,-0.39158 0.761998,-0.39158 0.306916,0 0.529165,0.23283 0.222249,0.22225 0.222249,0.53975 0,0.3175 -0.222249,0.53974 -0.211666,0.22225 -0.539748,0.22225 -0.148167,0 -0.412749,-0.11641 -0.264583,-0.11642 -0.455082,-0.11642 -0.486832,0 -0.486832,0.99483 v 2.07433 q 0,0.62441 0.359832,0.75141 v 0.15875 H 63.97358 v -0.15875 q 0.338666,-0.16933 0.338666,-0.60325 v -2.57174 q 0,-0.40216 -0.05292,-0.55033 -0.09525,-0.27516 -0.412749,-0.34925 z"
           style="font-family:rookie;-inkscape-font-specification:rookie"
           id="path6261" />
        <path
           d="m 70.196554,165.24959 0.01058,-0.22225 v -0.22225 q 0,-1.06891 -0.582081,-1.06891 -0.338666,0 -0.476248,0.39158 l -0.201083,0.73025 q -0.15875,0.39158 -0.571498,0.39158 -0.275166,0 -0.455082,-0.16933 -0.179916,-0.17992 -0.179916,-0.45508 0,-0.60325 0.698497,-0.98425 0.571499,-0.3175 1.238247,-0.3175 1.809744,0 1.809744,1.32291 l -0.01058,0.94192 v 0.94191 l 0.01058,0.91017 q 0,0.59266 0.328082,0.59266 0.105833,0 0.285749,-0.10583 l 0.127,0.24341 -0.232833,0.21167 q -0.582081,0.45508 -1.047747,0.45508 -0.359832,0 -0.560914,-0.22225 -0.1905,-0.23283 -0.1905,-0.61383 -0.232832,0.27517 -0.761997,0.55033 -0.518582,0.27517 -0.846664,0.27517 -0.539749,0 -0.857248,-0.34925 -0.317499,-0.34925 -0.317499,-0.89958 0,-0.78317 0.857248,-1.38641 0.275165,-0.1905 1.555745,-0.762 z m 0,0.381 q -0.83608,0.45508 -0.99483,0.59267 -0.518582,0.42333 -0.518582,0.97366 0,0.32808 0.1905,0.53975 0.201082,0.21166 0.518581,0.21166 0.412749,0 0.804331,-0.39158 z"
           style="font-family:rookie;-inkscape-font-specification:rookie"
           id="path6263" />
        <path
           d="m 74.313443,164.33943 q -0.740831,0 -0.740831,1.73567 0,0.94191 0.243416,1.52399 0.349249,0.86783 1.132413,0.86783 0.687915,0 1.100664,-0.64558 l 0.232832,0.11642 -0.03175,0.0635 q -0.222249,0.56091 -0.772581,0.96308 -0.550331,0.40216 -1.164163,0.40216 -0.952497,0 -1.534578,-0.80433 -0.518582,-0.73025 -0.518582,-1.70391 0,-1.13241 0.518582,-1.97908 0.603248,-0.98424 1.682745,-0.98424 0.603248,0 1.142996,0.31749 0.624415,0.37042 0.624415,0.94192 0,0.254 -0.148167,0.41275 -0.148166,0.15875 -0.391582,0.15875 -0.359832,0 -0.550331,-0.35984 l -0.264583,-0.66674 q -0.201082,-0.35984 -0.560915,-0.35984 z"
           style="font-family:rookie;-inkscape-font-specification:rookie"
           id="path6265" />
        <path
           d="m 76.30309,163.21761 q 1.18533,-0.254 1.523995,-0.78316 h 0.253999 v 5.90548 l -0.01058,0.23283 -0.01058,0.21167 q 0,0.74083 0.349249,0.83608 v 0.14816 h -1.936744 v -0.14816 q 0.317499,-0.0635 0.317499,-0.762 v -3.83116 l 0.01058,-0.33866 0.01058,-0.32808 q 0,-0.84667 -0.507998,-0.96308 z"
           style="font-family:rookie;-inkscape-font-specification:rookie"
           id="path6267" />
        <path
           d="m 80.091906,167.48268 v 0.0741 q 0,0.78316 0.486832,1.32291 0.486831,0.53975 1.269995,0.53975 0.761998,0 1.28058,-0.58208 l 0.190499,0.13758 q -0.846664,1.44991 -2.254243,1.44991 -1.068913,0 -1.714494,-0.87841 -0.582082,-0.79375 -0.582082,-1.88383 0,-1.06891 0.592665,-1.86266 0.645581,-0.86783 1.682745,-0.86783 1.02658,0 1.619245,0.78316 0.529165,0.70908 0.529165,1.76741 z m 1.09008,-0.37041 q 0.423332,0 0.582081,-0.0847 0.169333,-0.0847 0.169333,-0.49741 0,-1.16417 -0.952497,-1.16417 -0.582082,0 -0.793748,0.635 -0.116416,0.37042 -0.116416,1.11125 z"
           style="font-family:rookie;-inkscape-font-specification:rookie"
           id="path6269" />
        <path
           d="m 89.108852,165.48245 q 1.015997,0 1.703912,0.84666 0.624414,0.78316 0.624414,1.83091 0,1.06891 -0.603248,1.89441 -0.677331,0.89958 -1.714494,0.89958 -1.05833,0 -1.735661,-0.84666 -0.634998,-0.78317 -0.634998,-1.87325 0,-1.03716 0.656164,-1.86266 0.698498,-0.88899 1.703911,-0.88899 z m -0.01058,5.0694 q 0.656165,0 0.836081,-1.016 0.05292,-0.34925 0.05292,-1.53458 0,-2.11666 -0.878414,-2.11666 -0.603248,0 -0.80433,0.96308 -0.04233,0.22225 -0.07408,0.60325 -0.03175,0.381 -0.03175,0.83608 0,2.26483 0.89958,2.26483 z"
           style="font-family:rookie;-inkscape-font-specification:rookie"
           id="path6271" />
        <path
           d="m 91.733501,166.93236 0.645581,-0.21166 q 0.169333,-0.0635 0.455082,-0.28575 0.285749,-0.22225 0.433915,-0.29633 h 0.201083 v 0.97366 q 1.047747,-1.04775 1.830911,-1.04775 0.328082,0 0.571498,0.26458 0.253999,0.254 0.253999,0.58209 v 3.74648 q 0,0.47625 0.285749,0.52917 v 0.16933 h -1.947327 v -0.16933 l 0.05292,-0.0106 q 0.296332,-0.127 0.296332,-0.508 v -2.86808 q 0,-0.67733 -0.412749,-0.67733 -0.243415,0 -0.486831,0.11642 l -0.455082,0.22225 v 3.1644 q 0,0.254 0.0635,0.34925 l 0.253999,0.22225 v 0.15875 H 91.84992 v -0.16933 l 0.116417,-0.0423 q 0.211666,-0.1905 0.211666,-0.508 v -2.75166 q 0,-0.61383 -0.444499,-0.77258 z"
           style="font-family:rookie;-inkscape-font-specification:rookie"
           id="path6273" />
        <path
           d="m 100.07312,170.63651 q 0.33867,-0.11641 0.41275,-0.71966 l 0.0212,-0.89958 v -3.93699 l 0.0106,-0.22225 v -0.22225 q 0,-0.93133 -0.43392,-1.05833 l 0.0106,-0.20108 q 0.16933,0 0.64558,-0.0212 0.48683,-0.0317 0.70908,-0.0317 0.32808,0 0.77258,-0.0317 0.4445,-0.0318 0.5715,-0.0318 1.18533,0 2.07433,0.34925 1.19591,0.47625 1.19591,1.50283 0,0.70908 -0.61383,1.19591 -0.47625,0.37042 -1.28058,0.52917 1.04774,0.34925 1.49224,0.66675 0.74083,0.51858 0.74083,1.36524 0,0.98425 -0.86783,1.524 -0.74083,0.43391 -1.79916,0.43391 h -3.66182 z m 2.03199,-4.10632 h 0.11642 l 0.127,0.0106 q 1.95791,0 1.95791,-1.43933 0,-0.60325 -0.4445,-0.96308 -0.43391,-0.35984 -1.05833,-0.35984 -0.34925,0 -0.52916,0.11642 -0.16934,0.10583 -0.16934,0.45508 z m -0.0212,3.00566 q 0,0.48683 0.23283,0.65616 0.15875,0.127 0.66675,0.127 0.73025,0 1.14299,-0.43391 0.42334,-0.43392 0.42334,-1.18533 0,-0.9525 -0.67734,-1.34408 -0.50799,-0.28575 -1.55574,-0.28575 -0.16933,0 -0.22225,0.0212 v 1.21708 z"
           style="font-family:rookie;-inkscape-font-specification:rookie"
           id="path6275" />
        <path
           d="m 108.10584,167.48268 v 0.0741 q 0,0.78316 0.48684,1.32291 0.48683,0.53975 1.26999,0.53975 0.762,0 1.28058,-0.58208 l 0.1905,0.13758 q -0.84666,1.44991 -2.25424,1.44991 -1.06892,0 -1.7145,-0.87841 -0.58208,-0.79375 -0.58208,-1.88383 0,-1.06891 0.59267,-1.86266 0.64558,-0.86783 1.68274,-0.86783 1.02658,0 1.61925,0.78316 0.52916,0.70908 0.52916,1.76741 z m 1.09008,-0.37041 q 0.42334,0 0.58209,-0.0847 0.16933,-0.0847 0.16933,-0.49741 0,-1.16417 -0.9525,-1.16417 -0.58208,0 -0.79375,0.635 -0.11641,0.37042 -0.11641,1.11125 z"
           style="font-family:rookie;-inkscape-font-specification:rookie"
           id="path6277" />
        <path
           d="m 111.29141,165.38719 q 0.56091,-0.24341 1.016,-0.99483 0.21166,-0.37041 0.62441,-1.33349 h 0.34925 v 2.03199 h 1.143 v 0.58208 h -1.13242 v 3.15382 q 0,0.80433 0.43392,0.80433 0.14816,0 0.43391,-0.22225 l 0.0529,-0.0847 0.22225,0.127 q -0.0318,0.0317 -0.0318,0.0529 -0.60325,0.87842 -1.36525,0.87842 -0.49741,0 -0.77258,-0.33867 -0.26458,-0.34925 -0.26458,-0.84666 l -0.0106,-3.52424 h -0.6985 z"
           style="font-family:rookie;-inkscape-font-specification:rookie"
           id="path6279" />
        <path
           d="m 115.74696,167.48268 v 0.0741 q 0,0.78316 0.48683,1.32291 0.48683,0.53975 1.27,0.53975 0.76199,0 1.28057,-0.58208 l 0.1905,0.13758 q -0.84666,1.44991 -2.25424,1.44991 -1.06891,0 -1.71449,-0.87841 -0.58208,-0.79375 -0.58208,-1.88383 0,-1.06891 0.59266,-1.86266 0.64558,-0.86783 1.68274,-0.86783 1.02658,0 1.61925,0.78316 0.52916,0.70908 0.52916,1.76741 z m 1.09008,-0.37041 q 0.42333,0 0.58208,-0.0847 0.16933,-0.0847 0.16933,-0.49741 0,-1.16417 -0.95249,-1.16417 -0.58209,0 -0.79375,0.635 -0.11642,0.37042 -0.11642,1.11125 z"
           style="font-family:rookie;-inkscape-font-specification:rookie"
           id="path6281" />
        <path
           d="m 119.17594,163.21761 q 1.18533,-0.254 1.52399,-0.78316 h 0.254 v 5.90548 l -0.0106,0.23283 -0.0106,0.21167 q 0,0.74083 0.34925,0.83608 v 0.14816 h -1.93675 v -0.14816 q 0.3175,-0.0635 0.3175,-0.762 v -3.83116 l 0.0106,-0.33866 0.0106,-0.32808 q 0,-0.84667 -0.508,-0.96308 z"
           style="font-family:rookie;-inkscape-font-specification:rookie"
           id="path6283" />
        <path
           d="m 121.53601,168.48809 q 0,-0.51858 1.36524,-1.12183 -0.44449,-0.0953 -0.79374,-0.62442 -0.33867,-0.53975 -0.33867,-1.00541 0,-0.80433 0.66675,-1.34408 0.61383,-0.49741 1.44991,-0.49741 0.45508,0 0.77258,0.13758 l 0.67733,0.35983 0.45509,-0.34925 q 0.29633,-0.17991 0.52916,-0.17991 0.24342,0 0.42333,0.15875 0.1905,0.15874 0.1905,0.42333 0,0.17991 -0.15875,0.33866 -0.16933,0.13759 -0.35983,0.13759 -0.0847,0 -0.24342,-0.11642 -0.15875,-0.11642 -0.15875,-0.1905 -0.0529,-0.0317 -0.14816,-0.0529 l -0.127,0.0741 -0.127,0.0635 q 0.35983,0.66674 0.35983,1.06891 0,0.8255 -0.635,1.3335 -0.59266,0.47624 -1.43933,0.47624 -0.37041,0 -0.59266,-0.0741 -0.21167,0.14817 -0.32808,0.3175 l -0.0106,0.0953 q 0.0423,0.1905 0.94192,0.39158 1.16416,0.24342 1.58749,0.45508 0.83608,0.40217 0.83608,1.143 0,0.75141 -0.85724,1.13241 -0.29634,0.11642 -0.6985,0.1905 -0.39158,0.0741 -0.81492,0.0741 -0.78316,0 -1.57691,-0.22225 -1.07949,-0.3175 -1.07949,-0.89958 0,-0.33867 0.45508,-0.65617 0.30691,-0.21166 0.77258,-0.35983 l -0.61383,-0.22225 q -0.381,-0.1905 -0.381,-0.45508 z m 2.33891,-1.29116 q 0.78316,0 0.78316,-1.47108 0,-0.635 -0.10583,-0.94192 -0.17992,-0.508 -0.68792,-0.508 -0.76199,0 -0.76199,1.60867 0,1.31233 0.77258,1.31233 z m -0.97367,2.10607 q -0.19049,0.0741 -0.33866,0.30692 -0.14817,0.23283 -0.14817,0.4445 0,0.85724 1.5875,0.85724 0.37041,0 0.71966,-0.127 0.4445,-0.15875 0.4445,-0.48683 0,-0.32808 -0.97366,-0.65616 z"
           style="font-family:rookie;-inkscape-font-specification:rookie"
           id="path6285" />
        <path
           d="m 127.99181,165.89517 v 0.0741 q 0,0.78316 0.48683,1.32291 0.48683,0.53975 1.27,0.53975 0.76199,0 1.28058,-0.58208 l 0.19049,0.13758 q -0.84666,1.44991 -2.25424,1.44991 -1.06891,0 -1.71449,-0.87841 -0.58208,-0.79375 -0.58208,-1.88383 0,-1.06891 0.59266,-1.86266 0.64558,-0.86783 1.68275,-0.86783 1.02658,0 1.61924,0.78316 0.52916,0.70908 0.52916,1.76741 z m 1.09008,-0.37041 q 0.42333,0 0.58208,-0.0847 0.16933,-0.0847 0.16933,-0.49741 0,-1.16417 -0.95249,-1.16417 -0.58209,0 -0.79375,0.635 -0.11642,0.37042 -0.11642,1.11125 z"
           style="font-family:rookie;-inkscape-font-specification:rookie"
           id="path6287" />
        <path
           d="m 131.38904,164.19126 0.0529,-0.0106 q 0.22224,0 0.69849,-0.23283 0.48683,-0.24342 0.68792,-0.4445 h 0.24341 l -0.0106,3.68299 q 0,0.74083 0.55033,0.74083 0.20108,0 0.45508,-0.127 l 0.42334,-0.254 v -2.53999 q 0,-0.46567 -0.40217,-0.62442 v -0.1905 l 0.0635,-0.0106 q 0.68791,-0.0952 1.397,-0.67733 l 0.23283,-0.0106 -0.0106,4.47673 q 0,0.381 0.32809,0.58208 v 0.15875 h -1.60866 v -0.79375 l -0.85725,0.58209 q -0.508,0.34924 -0.97367,0.34924 -0.86783,0 -0.86783,-0.96308 v -2.86807 q 0,-0.30692 -0.0741,-0.42333 -0.0635,-0.127 -0.32808,-0.22225 z"
           style="font-family:rookie;-inkscape-font-specification:rookie"
           id="path6289" />
        <path
           d="m 136.8606,166.87942 0.24342,0.10583 q 0.11641,0.55034 0.53974,0.97367 0.43392,0.42333 0.9525,0.42333 0.33867,0 0.55033,-0.17992 0.22225,-0.1905 0.22225,-0.51858 0,-0.46566 -0.71966,-0.83608 l -1.35466,-0.64558 q -0.71967,-0.4445 -0.71967,-1.15358 0,-0.77258 0.59267,-1.25941 0.53974,-0.4445 1.34407,-0.4445 0.4445,0 0.89959,0.17992 l 0.82549,0.38099 -0.32808,1.143 -0.254,-0.0529 q -0.0953,-0.48683 -0.45508,-0.82549 -0.39158,-0.37042 -0.85725,-0.37042 -0.26458,0 -0.47625,0.16933 -0.20108,0.15875 -0.20108,0.41275 0,0.381 0.762,0.762 1.31233,0.635 1.41816,0.71966 0.762,0.508 0.762,1.25942 0,0.78316 -0.635,1.28058 -0.58208,0.45508 -1.397,0.45508 -1.06891,0 -2.13782,-0.60325 z"
           style="font-family:rookie;-inkscape-font-specification:rookie"
           id="path6291" />
        <path
           d="m 142.19457,165.366 v 0.0741 q 0,0.78316 0.48683,1.32291 0.48683,0.53975 1.26999,0.53975 0.762,0 1.28058,-0.58208 l 0.1905,0.13758 q -0.84666,1.44991 -2.25424,1.44991 -1.06891,0 -1.71449,-0.87841 -0.58209,-0.79375 -0.58209,-1.88383 0,-1.06891 0.59267,-1.86266 0.64558,-0.86783 1.68274,-0.86783 1.02658,0 1.61925,0.78316 0.52916,0.70908 0.52916,1.76741 z m 1.09008,-0.37041 q 0.42333,0 0.58208,-0.0847 0.16933,-0.0847 0.16933,-0.49741 0,-1.16417 -0.9525,-1.16417 -0.58208,0 -0.79374,0.635 -0.11642,0.37042 -0.11642,1.11125 z"
           style="font-family:rookie;-inkscape-font-specification:rookie"
           id="path6293" />
      </g>
      <g
         id="g101388"
         transform="matrix(0.82842834,0,0,0.82842834,-1.2004562,28.31307)">
        <g
           id="g7359"
           transform="matrix(0.06124608,0,0,0.06124608,-0.69143597,150.28382)">
          <path
             d="M 630,280 C 630,243.828 576.957,212.527 487.95,195.789 480.6844,151.851 452.923,114 413.196,93.869 c -39.73,-20.129 -86.668,-20.129 -126.4,0 -39.727,20.133 -67.488,57.984 -74.754,101.92 -89.004,16.738 -142.05,48.039 -142.05,84.211 0,17.062 13.176,34.5 38.711,49.777 l 0.875,1.4258 0.72656,-0.44531 c 21.578,11.898 44.648,20.859 68.598,26.652 29.453,28.98 69.145,45.18 110.46,45.09 h 121.26 c 41.316,0.0898 81.008,-16.109 110.46,-45.09 71.441,-18.68 108.91,-48.598 108.91,-77.41 z m -271.25,10.16 c 39.023,-1.043 77.551,-8.9961 113.79,-23.496 0.83203,-0.33203 1.582,-0.76172 2.3633,-1.1641 l 92.617,57 c -44.141,20 -117.98,35.242 -208.77,36.18 z M 227.5,218.75 c 0,-43.766 23.348,-84.207 61.25,-106.09 37.902,-21.879 84.598,-21.879 122.5,0 37.902,21.883 61.25,62.324 61.25,106.09 v 22.121 c 0.0156,4.2031 -2.543,7.9844 -6.4492,9.5352 -74.469,29.93 -157.62,29.93 -232.09,0 -3.9102,-1.543 -6.4727,-5.332 -6.457,-9.5352 z M 87.5,280 c 0,-25.332 48.938,-51.406 122.75,-66.047 -0.0625,1.6016 -0.24609,3.1758 -0.24609,4.7969 v 22.121 c 0.0117,2.4883 0.35938,4.9609 1.0312,7.3594 l -100.91,62.125 c -14.637,-9.8438 -22.625,-20.258 -22.625,-30.355 z m 133.25,-17.211 c 2.043,1.5938 4.3008,2.8984 6.7031,3.875 36.242,14.5 74.77,22.453 113.79,23.496 v 68.52 c -94.297,-0.97266 -170.29,-17.367 -213.73,-38.5 z m 189.88,122.21 H 289.37 c -24.711,0.0117 -48.984,-6.5352 -70.34,-18.969 43.285,7.125 87.102,10.543 130.97,10.219 43.867,0.32422 87.684,-3.0938 130.97,-10.219 -21.355,12.434 -45.629,18.98 -70.34,18.969 z m 174.95,-71.934 -98.203,-60.426 c 1.7266,-3.6836 2.6211,-7.7031 2.625,-11.77 v -22.121 c 0,-1.6172 -0.18359,-3.1953 -0.24609,-4.7969 73.809,14.641 122.75,40.715 122.75,66.047 0,11.051 -9.5469,22.461 -26.922,33.066 z"
             id="path6500" />
          <path
             d="m 369,182.25 c 7.4961,7.7148 17.273,12.812 27.887,14.543 1.8086,0.26172 3.6328,0.39453 5.4609,0.39063 8.3164,0.18359 16.359,-2.9688 22.34,-8.75 7.0273,-7.418 10.125,-17.73 8.3477,-27.797 -1.8828,-10.562 -6.9609,-20.293 -14.547,-27.879 -7.5859,-7.5859 -17.32,-12.664 -27.883,-14.543 -10.082,-2.0625 -20.527,1.0742 -27.805,8.3516 -7.2773,7.2773 -10.41,17.723 -8.3438,27.805 1.7305,10.613 6.832,20.387 14.543,27.879 z m 6.1758,-43.305 h 0.004 c 2.6836,-2.4805 6.2461,-3.7812 9.8945,-3.6211 1.0234,0.004 2.043,0.0742 3.0547,0.21875 6.8164,1.3398 13.078,4.6797 17.988,9.5898 4.91,4.9101 8.25,11.172 9.5898,17.988 1.2852,4.6133 -0.0156,9.5586 -3.4023,12.941 -3.3828,3.3867 -8.3281,4.6875 -12.941,3.4023 -6.8164,-1.3398 -13.078,-4.6797 -17.988,-9.5898 -4.91,-4.9101 -8.25,-11.172 -9.5898,-17.988 -0.92187,-4.6055 0.33203,-9.3789 3.3945,-12.941 z"
             id="path6502" />
          <path
             d="m 413.37,217.74 c 1.2148,6.9844 4.5586,13.422 9.5703,18.434 5.0117,5.012 11.449,8.3516 18.43,9.5664 1.2344,0.17578 2.4805,0.26172 3.7266,0.26562 5.8438,0.11328 11.492,-2.1211 15.68,-6.1953 4.9453,-5.1641 7.1406,-12.367 5.9258,-19.41 -1.125,-7.0156 -4.4844,-13.484 -9.5742,-18.445 -11.629,-11.637 -28.262,-13.23 -37.852,-3.6406 v 0.004 c -4.9375,5.1719 -7.1289,12.379 -5.9062,19.422 z m 18.305,-7.043 c 0.89453,-0.76953 2.0586,-1.1562 3.2383,-1.0742 3.7656,0.27344 7.2891,1.957 9.8711,4.7148 2.4023,2.293 4.0195,5.2852 4.6172,8.5508 0.34766,1.582 -0.008,3.2422 -0.96875,4.5469 -1.3008,0.98828 -2.9688,1.3477 -4.5586,0.98047 -3.2266,-0.67969 -6.1836,-2.2812 -8.5117,-4.6133 -2.332,-2.3281 -3.9336,-5.2852 -4.6133,-8.5117 -0.37891,-1.5938 -0.043,-3.2734 0.92578,-4.5938 z"
             id="path6504" />
          <path
             d="m 277.56,298.25 c -7.4297,-5.1953 -16.062,-8.4023 -25.078,-9.3203 -22.285,-2.625 -40.434,6.5547 -42.203,21.395 h 0.004 c -0.26562,4.2188 0.60547,8.4336 2.5273,12.199 1.918,3.7695 4.8125,6.9531 8.3828,9.2188 7.4297,5.1953 16.062,8.4023 25.078,9.3203 2.5,0.30469 5.0156,0.45703 7.5312,0.45312 18.727,0 33.102,-8.75 34.668,-21.875 0.26172,-4.2148 -0.61328,-8.4219 -2.5352,-12.184 -1.918,-3.7656 -4.8086,-6.9453 -8.375,-9.207 z m -6.4648,19.371 c -0.29688,2.5117 -8.5938,7.7695 -22.75,6.125 -5.9883,-0.57422 -11.734,-2.6367 -16.723,-5.9922 -2.9062,-2.1523 -4.0938,-4.2539 -3.9648,-5.25 0.26172,-2.1797 6.5625,-6.4141 17.414,-6.4141 1.7852,0 3.5664,0.10938 5.3359,0.32422 5.9883,0.57422 11.734,2.6328 16.723,5.9922 2.9062,2.1523 4.0938,4.2539 3.9648,5.25 z"
             id="path6518" />
          <path
             d="m 447.52,288.93 c -9.0156,0.91797 -17.648,4.125 -25.078,9.3203 -3.5703,2.2656 -6.4648,5.4492 -8.3828,9.2188 -1.9219,3.7656 -2.793,7.9805 -2.5273,12.199 1.5664,13.125 15.941,21.875 34.668,21.875 2.5156,0.004 5.0312,-0.14844 7.5312,-0.45312 9.0156,-0.92188 17.648,-4.1289 25.078,-9.3203 3.5664,-2.2656 6.4609,-5.4492 8.3828,-9.2148 1.918,-3.7656 2.793,-7.9766 2.5273,-12.195 -1.7656,-14.883 -19.922,-24.105 -42.199,-21.43 z m 20.859,28.762 c -4.9844,3.3555 -10.73,5.418 -16.711,5.9922 -14.105,1.6523 -22.453,-3.5781 -22.75,-6.125 -0.13281,-1.0312 1.0586,-3.1328 3.9648,-5.25 h -0.004 c 4.9883,-3.3555 10.73,-5.4141 16.715,-5.9922 1.7734,-0.21484 3.5586,-0.32422 5.3438,-0.32422 10.852,0 17.148,4.2344 17.414,6.4219 0.14844,1.0234 -1.0664,3.125 -3.9727,5.2773 z"
             id="path6520" />
        </g>
        <path
           style="fill:#e1f4ff;fill-opacity:1;stroke-width:0.0923986;stroke-linecap:round;stroke-linejoin:round;paint-order:markers stroke fill;stop-color:#000000"
           d="m 19.555573,166.94063 c -0.09519,-0.009 -0.38726,-0.0372 -0.649038,-0.0621 -1.62312,-0.15458 -3.343582,-0.55456 -4.867789,-1.13168 -0.767147,-0.29047 -0.778974,-0.31383 -0.778491,-1.53753 6.61e-4,-1.6543 0.186792,-2.58134 0.756328,-3.7668 1.675017,-3.48644 5.791737,-5.1362 9.369097,-3.75462 2.521183,0.97368 4.253729,3.09197 4.743877,5.80008 0.08426,0.46556 0.131335,2.50444 0.06263,2.71263 -0.08005,0.24256 -0.248729,0.36162 -0.804881,0.56811 -1.432408,0.53183 -2.98369,0.90298 -4.564904,1.09216 -0.550202,0.0658 -2.834774,0.12159 -3.266827,0.0797 z m 7.519839,-1.66212 c 0.884175,-0.33081 1.116342,-1.41281 0.500906,-2.33443 -0.211549,-0.3168 -0.51309,-0.56883 -0.902957,-0.7547 -0.256414,-0.12224 -0.319458,-0.13408 -0.713942,-0.13408 -0.366237,0 -0.460751,0.015 -0.615384,0.0976 -0.272309,0.14551 -0.456128,0.32393 -0.598474,0.58089 -0.116557,0.21041 -0.127343,0.26538 -0.125794,0.6412 0.0013,0.3251 0.0226,0.46375 0.101666,0.66307 0.381854,0.96257 1.509061,1.55655 2.353979,1.24043 z m -2.58542,-2.96585 c 0.698626,-0.18192 1.189513,-0.71395 1.344726,-1.45744 0.0755,-0.36166 0.05239,-0.68332 -0.08012,-1.11483 -0.369356,-1.20283 -1.383725,-2.07334 -2.620336,-2.24872 -0.976629,-0.13851 -1.909368,0.48939 -2.126579,1.43157 -0.158532,0.68765 0.117422,1.63278 0.673604,2.30706 0.722247,0.87562 1.883759,1.32322 2.808704,1.08236 z"
           id="path11011" />
        <path
           style="fill:#ff4e33;fill-opacity:1;stroke-width:0.0923986;stroke-linecap:round;stroke-linejoin:round;paint-order:markers stroke fill;stop-color:#000000"
           d="m 5.7677486,169.04834 c -0.3782697,-0.28635 -0.771469,-0.72401 -0.9251094,-1.02969 -0.1059299,-0.21076 -0.1267149,-0.30487 -0.1274882,-0.57724 -8.044e-4,-0.2829 0.018062,-0.364 0.1443329,-0.62049 0.6455246,-1.31125 3.3167868,-2.57011 7.1672431,-3.37765 l 0.129808,-0.0272 -0.0134,0.81977 c -0.0074,0.45088 0.0037,0.91382 0.02454,1.02876 l 0.03794,0.20899 -2.9151546,1.79567 c -1.6033351,0.98762 -2.9888622,1.83963 -3.0789491,1.89336 l -0.1637944,0.0977 z"
           id="path11089" />
        <path
           style="fill:#ffcd5f;fill-opacity:1;stroke-width:0.0923986;stroke-linecap:round;stroke-linejoin:round;paint-order:markers stroke fill;stop-color:#000000"
           d="m 18.971439,172.20003 c -4.508516,-0.15924 -8.748364,-0.95091 -11.3993136,-2.1285 l -0.4022112,-0.17867 2.8178294,-1.73741 2.8178294,-1.73741 0.173077,0.0983 c 0.362119,0.20565 1.83139,0.7047 2.784475,0.94577 1.230554,0.31126 3.040311,0.58151 3.922256,0.58572 0.166586,8e-4 0.346694,0.0132 0.40024,0.0275 l 0.09736,0.0261 v 2.07187 2.07188 l -0.16226,-0.007 c -0.08924,-0.004 -0.561418,-0.021 -1.049278,-0.0383 z m -3.396635,-1.05867 c 0.583814,-0.12311 1.103035,-0.47104 1.302597,-0.87284 0.06247,-0.12578 0.08182,-0.25798 0.08119,-0.55457 -7.15e-4,-0.33733 -0.01631,-0.41898 -0.116597,-0.61042 -0.151079,-0.28842 -0.46837,-0.56931 -0.886961,-0.78523 -0.415665,-0.2144 -0.696202,-0.29636 -1.229956,-0.3593 -1.13668,-0.13406 -2.152642,0.2744 -2.472362,0.99399 -0.116268,0.26168 -0.08969,0.76412 0.05643,1.06693 0.241613,0.5007 1.007472,0.98048 1.819396,1.13977 0.311949,0.0612 1.117538,0.051 1.446266,-0.0183 z"
           id="path11128" />
        <path
           style="fill:#ff4e33;fill-opacity:1;stroke-width:0.0923986;stroke-linecap:round;stroke-linejoin:round;paint-order:markers stroke fill;stop-color:#000000"
           d="m 21.307977,170.17142 v -2.06997 l 0.09736,-0.0261 c 0.05354,-0.0143 0.233653,-0.0267 0.40024,-0.0275 0.356511,-0.002 1.326045,-0.0971 1.96875,-0.1938 1.372388,-0.20639 2.84737,-0.59136 4.124229,-1.0764 l 0.511249,-0.19422 2.712309,1.66858 c 1.49177,0.91772 2.749253,1.69409 2.79441,1.72526 0.07528,0.052 0.06089,0.0661 -0.173078,0.16975 -0.691662,0.30648 -2.01909,0.73618 -3.067677,0.99304 -2.620781,0.64198 -5.146549,0.95306 -8.772836,1.08046 l -0.594952,0.0209 z m 6.107143,0.97289 c 0.647825,-0.13731 1.362284,-0.5262 1.611683,-0.87727 0.410761,-0.57821 0.380767,-1.25282 -0.07623,-1.71438 -0.424256,-0.4285 -0.971528,-0.60959 -1.82289,-0.60318 -0.675432,0.005 -1.068635,0.0952 -1.582537,0.36252 -0.703662,0.36609 -0.992304,0.75044 -1.026276,1.36658 -0.0169,0.30654 -0.006,0.38193 0.08106,0.56182 0.198826,0.41072 0.636308,0.72678 1.216293,0.87872 0.388182,0.10169 1.179173,0.11416 1.598896,0.0252 z"
           id="path11167" />
        <path
           style="fill:#ffcd5f;fill-opacity:1;stroke:#ffcd5f;stroke-width:0.0923986;stroke-linecap:round;stroke-linejoin:round;stroke-opacity:0.8;paint-order:markers stroke fill;stop-color:#000000"
           d="m 32.182819,167.58712 -2.992946,-1.84097 0.06972,-0.17956 c 0.05648,-0.14548 0.0702,-0.36639 0.07227,-1.16389 0.0014,-0.54137 0.01229,-0.98405 0.02419,-0.98372 0.0119,3.2e-4 0.352644,0.076 0.757211,0.16809 3.461136,0.78813 5.913269,2.00505 6.518818,3.2351 0.12573,0.25539 0.144491,0.33636 0.143494,0.61924 -0.0011,0.28061 -0.02029,0.36239 -0.140243,0.59387 -0.218503,0.42169 -0.749382,0.94186 -1.351396,1.32412 -0.106659,0.0677 -0.150119,0.0429 -3.101118,-1.77228 z"
           id="path11206" />
        <path
           style="fill:#ffa953;fill-opacity:1;stroke:#ffcd5f;stroke-width:0.0923986;stroke-linecap:round;stroke-linejoin:round;stroke-opacity:0.8;paint-order:markers stroke fill;stop-color:#000000"
           d="m 26.320257,170.07893 c -0.288603,-0.0429 -0.627599,-0.19216 -0.686574,-0.30235 -0.108175,-0.20213 0.510956,-0.59355 1.09454,-0.69199 0.499907,-0.0843 1.044582,-0.008 1.331509,0.1863 0.193111,0.13085 0.197831,0.17191 0.03812,0.33163 -0.358002,0.358 -1.148492,0.56986 -1.777592,0.47641 z"
           id="path27812" />
        <path
           style="fill:#ffa953;fill-opacity:1;stroke:#ffcd5f;stroke-width:0.0923986;stroke-linecap:round;stroke-linejoin:round;stroke-opacity:0.8;paint-order:markers stroke fill;stop-color:#000000"
           d="m 14.438125,170.07758 c -0.331479,-0.0502 -0.649983,-0.17206 -0.90125,-0.34494 -0.365679,-0.25159 -0.339064,-0.39171 0.107517,-0.56602 0.34468,-0.13454 0.987227,-0.13599 1.416451,-0.003 0.327861,0.10143 0.682995,0.31547 0.784895,0.47307 0.05644,0.0873 0.05206,0.10465 -0.05036,0.19957 -0.224662,0.20821 -0.846328,0.31884 -1.357253,0.24153 z"
           id="path27851" />
        <path
           style="fill:#ffcd5f;fill-opacity:1;stroke:#ffcd5f;stroke-width:0.0923986;stroke-linecap:round;stroke-linejoin:round;stroke-opacity:0.8;paint-order:markers stroke fill;stop-color:#000000"
           d="m 16.332016,173.81764 c -1.156796,-0.1251 -2.279349,-0.44627 -3.137019,-0.89752 l -0.302884,-0.15936 0.194711,0.0262 c 0.107091,0.0144 0.535457,0.0725 0.951923,0.12902 0.772226,0.10484 2.066548,0.24096 3.115385,0.32765 0.883362,0.073 5.185387,0.10246 6.305077,0.0432 1.56276,-0.0828 2.892448,-0.2108 4.334203,-0.41732 0.413743,-0.0593 0.759565,-0.10045 0.768493,-0.0915 0.02509,0.0251 -0.785841,0.39774 -1.188316,0.54609 -0.419014,0.15444 -1.028514,0.3139 -1.609484,0.42108 -0.372129,0.0687 -0.824568,0.0763 -4.84555,0.0823 -2.439303,0.004 -4.503246,-7.9e-4 -4.586539,-0.01 z"
           id="path27890" />
      </g>
    </g>
  </g>
</svg>
