<?xml version="1.0" encoding="UTF-8" standalone="no"?>
<!-- Created with Inkscape (http://www.inkscape.org/) -->

<svg
   width="16.952555mm"
   height="17.151899mm"
   viewBox="0 0 16.952555 17.151899"
   version="1.1"
   id="svg5"
   inkscape:version="1.1 (c68e22c387, 2021-05-23)"
   sodipodi:docname="players.svg"
   xmlns:inkscape="http://www.inkscape.org/namespaces/inkscape"
   xmlns:sodipodi="http://sodipodi.sourceforge.net/DTD/sodipodi-0.dtd"
   xmlns="http://www.w3.org/2000/svg"
   xmlns:svg="http://www.w3.org/2000/svg">
  <sodipodi:namedview
     id="namedview7"
     pagecolor="#ffffff"
     bordercolor="#666666"
     borderopacity="1.0"
     inkscape:pageshadow="2"
     inkscape:pageopacity="0.0"
     inkscape:pagecheckerboard="0"
     inkscape:document-units="mm"
     showgrid="false"
     fit-margin-top="0"
     fit-margin-left="0"
     fit-margin-right="0"
     fit-margin-bottom="0"
     inkscape:zoom="0.27023919"
     inkscape:cx="-229.42638"
     inkscape:cy="382.99404"
     inkscape:window-width="1920"
     inkscape:window-height="1017"
     inkscape:window-x="-8"
     inkscape:window-y="-8"
     inkscape:window-maximized="1"
     inkscape:current-layer="layer1" />
  <defs
     id="defs2" />
  <g
     inkscape:label="Layer 1"
     inkscape:groupmode="layer"
     id="layer1"
     transform="translate(-66.853101,-25.000982)">
    <g
       id="g2465"
       transform="matrix(0.35098082,0,0,0.35098082,681.92201,-701.17405)">
      <rect
         style="fill:#ffffff;stroke:#000000;stroke-width:4;stroke-linecap:round;stroke-linejoin:round;stroke-miterlimit:4;stroke-dasharray:none;paint-order:markers stroke fill;stop-color:#000000"
         id="rect2413"
         width="44.300514"
         height="44.868481"
         x="-1750.4288"
         y="2070.9878"
         ry="8.519331" />
      <g
         id="g2463"
         transform="translate(-5.6788875,-44.248656)">
        <g
           id="g2429"
           transform="translate(-33.525745,12.585717)">
          <g
             id="g2427">
            <g
               id="g2417"
               transform="matrix(0.47773201,0,0,0.47773201,-1706.3738,2099.7749)">
              <path
                 fill="#000000"
                 d="M 74.9,62.9 72.4,53 C 71.9,50.9 70,49.8 69,49.5 l -9.3,-2.8 c 1.4,-2.2 2.2,-5 2.2,-8 C 62,31.1 56.6,25 50,25 c -6.6,0 -12,6.2 -12,13.7 0,3 0.8,5.7 2.2,8 L 31,49.5 C 28.9,50.1 27.9,52 27.7,53 l -2.5,9.9 c -0.3,1.3 0.1,2.3 0.4,2.8 0.8,1.1 2.2,1.3 2.5,1.3 0,0 0,0 0,0 l 44,-0.2 c 1.3,0 2,-0.7 2.4,-1.2 0.8,-1.1 0.5,-2.5 0.4,-2.7 z M 50,28 c 4.9,0 9,4.8 9,10.7 0,5.9 -4,10.8 -9,10.8 -5,0 -9,-4.8 -9,-10.8 C 41,32.8 45.1,28 50,28 Z M 72,63.6 H 28 c 0,0 0,0 0,0 l 2.5,-9.9 c 0,0 0.3,-1.1 1.3,-1.4 l 10.4,-3.2 c 2.1,2 4.8,3.3 7.7,3.3 2.9,0 5.6,-1.2 7.7,-3.3 l 10.5,3.2 c 0,0 1.1,0.4 1.3,1.4 l 2.6,9.9 c 0,0 0,0 0,0 z"
                 id="path2415" />
            </g>
            <g
               id="g2421"
               transform="matrix(0.47773201,0,0,0.47773201,-1706.3738,2099.7749)">
              <path
                 fill="#000000"
                 d="M 74.9,62.9 72.4,53 C 71.9,50.9 70,49.8 69,49.5 l -9.3,-2.8 c 1.4,-2.2 2.2,-5 2.2,-8 C 62,31.1 56.6,25 50,25 c -6.6,0 -12,6.2 -12,13.7 0,3 0.8,5.7 2.2,8 L 31,49.5 C 28.9,50.1 27.9,52 27.7,53 l -2.5,9.9 c -0.3,1.3 0.1,2.3 0.4,2.8 0.8,1.1 2.2,1.3 2.5,1.3 0,0 0,0 0,0 l 44,-0.2 c 1.3,0 2,-0.7 2.4,-1.2 0.8,-1.1 0.5,-2.5 0.4,-2.7 z M 50,28 c 4.9,0 9,4.8 9,10.7 0,5.9 -4,10.8 -9,10.8 -5,0 -9,-4.8 -9,-10.8 C 41,32.8 45.1,28 50,28 Z M 72,63.6 H 28 c 0,0 0,0 0,0 l 2.5,-9.9 c 0,0 0.3,-1.1 1.3,-1.4 l 10.4,-3.2 c 2.1,2 4.8,3.3 7.7,3.3 2.9,0 5.6,-1.2 7.7,-3.3 l 10.5,3.2 c 0,0 1.1,0.4 1.3,1.4 l 2.6,9.9 c 0,0 0,0 0,0 z"
                 id="path2419" />
            </g>
            <path
               style="fill:#ffffff;stroke:#ffffff;stroke-width:0.43399;stroke-linecap:round;stroke-linejoin:round;stroke-miterlimit:4;stroke-dasharray:none;stroke-opacity:1;paint-order:markers stroke fill;stop-color:#000000"
               d="m -1692.8856,2129.9969 c 10e-4,-0.045 0.2684,-1.1286 0.5942,-2.4085 0.3739,-1.4689 0.665,-2.3997 0.7892,-2.5239 0.1092,-0.1092 1.3094,-0.5394 2.6969,-0.9666 l 2.5001,-0.7698 0.7133,0.4884 c 1.1349,0.7769 1.7878,0.9872 3.066,0.9872 1.214,0 1.8671,-0.1921 2.8155,-0.828 0.2896,-0.1942 0.629,-0.419 0.7542,-0.4997 0.2018,-0.1299 0.5125,-0.059 2.7232,0.6188 1.9063,0.5848 2.5484,0.8268 2.7199,1.025 0.1465,0.1693 0.4222,1.0225 0.7937,2.4558 0.3131,1.208 0.5957,2.2653 0.628,2.3495 0.05,0.1312 -1.4351,0.1532 -10.3686,0.1532 -5.735,0 -10.4266,-0.037 -10.4256,-0.081 z"
               id="path2423" />
            <path
               style="fill:#ffffff;stroke:#ffffff;stroke-width:0.43399;stroke-linecap:round;stroke-linejoin:round;stroke-miterlimit:4;stroke-dasharray:none;stroke-opacity:1;paint-order:markers stroke fill;stop-color:#000000"
               d="m -1683.6325,2123.156 c -1.0896,-0.3892 -1.8862,-1.1241 -2.4619,-2.2711 -1.0821,-2.1562 -0.7067,-4.8307 0.9034,-6.4351 0.8303,-0.8273 1.4612,-1.1125 2.582,-1.1672 0.818,-0.04 0.9531,-0.016 1.6031,0.2886 1.6327,0.764 2.7568,2.6938 2.7638,4.7449 0,0.7401 -0.3646,2.1342 -0.7235,2.7475 -0.4518,0.772 -1.2708,1.5696 -1.9582,1.907 -0.821,0.4031 -1.8938,0.4765 -2.7087,0.1854 z"
               id="path2425" />
          </g>
        </g>
        <g
           id="g2445"
           transform="translate(-46.762447,12.585717)">
          <g
             id="g2443">
            <g
               id="g2433"
               transform="matrix(0.47773201,0,0,0.47773201,-1706.3738,2099.7749)">
              <path
                 fill="#000000"
                 d="M 74.9,62.9 72.4,53 C 71.9,50.9 70,49.8 69,49.5 l -9.3,-2.8 c 1.4,-2.2 2.2,-5 2.2,-8 C 62,31.1 56.6,25 50,25 c -6.6,0 -12,6.2 -12,13.7 0,3 0.8,5.7 2.2,8 L 31,49.5 C 28.9,50.1 27.9,52 27.7,53 l -2.5,9.9 c -0.3,1.3 0.1,2.3 0.4,2.8 0.8,1.1 2.2,1.3 2.5,1.3 0,0 0,0 0,0 l 44,-0.2 c 1.3,0 2,-0.7 2.4,-1.2 0.8,-1.1 0.5,-2.5 0.4,-2.7 z M 50,28 c 4.9,0 9,4.8 9,10.7 0,5.9 -4,10.8 -9,10.8 -5,0 -9,-4.8 -9,-10.8 C 41,32.8 45.1,28 50,28 Z M 72,63.6 H 28 c 0,0 0,0 0,0 l 2.5,-9.9 c 0,0 0.3,-1.1 1.3,-1.4 l 10.4,-3.2 c 2.1,2 4.8,3.3 7.7,3.3 2.9,0 5.6,-1.2 7.7,-3.3 l 10.5,3.2 c 0,0 1.1,0.4 1.3,1.4 l 2.6,9.9 c 0,0 0,0 0,0 z"
                 id="path2431" />
            </g>
            <g
               id="g2437"
               transform="matrix(0.47773201,0,0,0.47773201,-1706.3738,2099.7749)">
              <path
                 fill="#000000"
                 d="M 74.9,62.9 72.4,53 C 71.9,50.9 70,49.8 69,49.5 l -9.3,-2.8 c 1.4,-2.2 2.2,-5 2.2,-8 C 62,31.1 56.6,25 50,25 c -6.6,0 -12,6.2 -12,13.7 0,3 0.8,5.7 2.2,8 L 31,49.5 C 28.9,50.1 27.9,52 27.7,53 l -2.5,9.9 c -0.3,1.3 0.1,2.3 0.4,2.8 0.8,1.1 2.2,1.3 2.5,1.3 0,0 0,0 0,0 l 44,-0.2 c 1.3,0 2,-0.7 2.4,-1.2 0.8,-1.1 0.5,-2.5 0.4,-2.7 z M 50,28 c 4.9,0 9,4.8 9,10.7 0,5.9 -4,10.8 -9,10.8 -5,0 -9,-4.8 -9,-10.8 C 41,32.8 45.1,28 50,28 Z M 72,63.6 H 28 c 0,0 0,0 0,0 l 2.5,-9.9 c 0,0 0.3,-1.1 1.3,-1.4 l 10.4,-3.2 c 2.1,2 4.8,3.3 7.7,3.3 2.9,0 5.6,-1.2 7.7,-3.3 l 10.5,3.2 c 0,0 1.1,0.4 1.3,1.4 l 2.6,9.9 c 0,0 0,0 0,0 z"
                 id="path2435" />
            </g>
            <path
               style="fill:#ffffff;stroke:#ffffff;stroke-width:0.43399;stroke-linecap:round;stroke-linejoin:round;stroke-miterlimit:4;stroke-dasharray:none;stroke-opacity:1;paint-order:markers stroke fill;stop-color:#000000"
               d="m -1692.8856,2129.9969 c 10e-4,-0.045 0.2684,-1.1286 0.5942,-2.4085 0.3739,-1.4689 0.665,-2.3997 0.7892,-2.5239 0.1092,-0.1092 1.3094,-0.5394 2.6969,-0.9666 l 2.5001,-0.7698 0.7133,0.4884 c 1.1349,0.7769 1.7878,0.9872 3.066,0.9872 1.214,0 1.8671,-0.1921 2.8155,-0.828 0.2896,-0.1942 0.629,-0.419 0.7542,-0.4997 0.2018,-0.1299 0.5125,-0.059 2.7232,0.6188 1.9063,0.5848 2.5484,0.8268 2.7199,1.025 0.1465,0.1693 0.4222,1.0225 0.7937,2.4558 0.3131,1.208 0.5957,2.2653 0.628,2.3495 0.05,0.1312 -1.4351,0.1532 -10.3686,0.1532 -5.735,0 -10.4266,-0.037 -10.4256,-0.081 z"
               id="path2439" />
            <path
               style="fill:#ffffff;stroke:#ffffff;stroke-width:0.43399;stroke-linecap:round;stroke-linejoin:round;stroke-miterlimit:4;stroke-dasharray:none;stroke-opacity:1;paint-order:markers stroke fill;stop-color:#000000"
               d="m -1683.6325,2123.156 c -1.0896,-0.3892 -1.8862,-1.1241 -2.4619,-2.2711 -1.0821,-2.1562 -0.7067,-4.8307 0.9034,-6.4351 0.8303,-0.8273 1.4612,-1.1125 2.582,-1.1672 0.818,-0.04 0.9531,-0.016 1.6031,0.2886 1.6327,0.764 2.7568,2.6938 2.7638,4.7449 0,0.7401 -0.3646,2.1342 -0.7235,2.7475 -0.4518,0.772 -1.2708,1.5696 -1.9582,1.907 -0.821,0.4031 -1.8938,0.4765 -2.7087,0.1854 z"
               id="path2441" />
          </g>
        </g>
        <g
           id="g2461"
           transform="translate(-40.106145,19.254517)">
          <g
             id="g2459">
            <g
               id="g2449"
               transform="matrix(0.47773201,0,0,0.47773201,-1706.3738,2099.7749)">
              <path
                 fill="#000000"
                 d="M 74.9,62.9 72.4,53 C 71.9,50.9 70,49.8 69,49.5 l -9.3,-2.8 c 1.4,-2.2 2.2,-5 2.2,-8 C 62,31.1 56.6,25 50,25 c -6.6,0 -12,6.2 -12,13.7 0,3 0.8,5.7 2.2,8 L 31,49.5 C 28.9,50.1 27.9,52 27.7,53 l -2.5,9.9 c -0.3,1.3 0.1,2.3 0.4,2.8 0.8,1.1 2.2,1.3 2.5,1.3 0,0 0,0 0,0 l 44,-0.2 c 1.3,0 2,-0.7 2.4,-1.2 0.8,-1.1 0.5,-2.5 0.4,-2.7 z M 50,28 c 4.9,0 9,4.8 9,10.7 0,5.9 -4,10.8 -9,10.8 -5,0 -9,-4.8 -9,-10.8 C 41,32.8 45.1,28 50,28 Z M 72,63.6 H 28 c 0,0 0,0 0,0 l 2.5,-9.9 c 0,0 0.3,-1.1 1.3,-1.4 l 10.4,-3.2 c 2.1,2 4.8,3.3 7.7,3.3 2.9,0 5.6,-1.2 7.7,-3.3 l 10.5,3.2 c 0,0 1.1,0.4 1.3,1.4 l 2.6,9.9 c 0,0 0,0 0,0 z"
                 id="path2447" />
            </g>
            <g
               id="g2453"
               transform="matrix(0.47773201,0,0,0.47773201,-1706.3738,2099.7749)">
              <path
                 fill="#000000"
                 d="M 74.9,62.9 72.4,53 C 71.9,50.9 70,49.8 69,49.5 l -9.3,-2.8 c 1.4,-2.2 2.2,-5 2.2,-8 C 62,31.1 56.6,25 50,25 c -6.6,0 -12,6.2 -12,13.7 0,3 0.8,5.7 2.2,8 L 31,49.5 C 28.9,50.1 27.9,52 27.7,53 l -2.5,9.9 c -0.3,1.3 0.1,2.3 0.4,2.8 0.8,1.1 2.2,1.3 2.5,1.3 0,0 0,0 0,0 l 44,-0.2 c 1.3,0 2,-0.7 2.4,-1.2 0.8,-1.1 0.5,-2.5 0.4,-2.7 z M 50,28 c 4.9,0 9,4.8 9,10.7 0,5.9 -4,10.8 -9,10.8 -5,0 -9,-4.8 -9,-10.8 C 41,32.8 45.1,28 50,28 Z M 72,63.6 H 28 c 0,0 0,0 0,0 l 2.5,-9.9 c 0,0 0.3,-1.1 1.3,-1.4 l 10.4,-3.2 c 2.1,2 4.8,3.3 7.7,3.3 2.9,0 5.6,-1.2 7.7,-3.3 l 10.5,3.2 c 0,0 1.1,0.4 1.3,1.4 l 2.6,9.9 c 0,0 0,0 0,0 z"
                 id="path2451" />
            </g>
            <path
               style="fill:#ffffff;stroke:#ffffff;stroke-width:0.43399;stroke-linecap:round;stroke-linejoin:round;stroke-miterlimit:4;stroke-dasharray:none;stroke-opacity:1;paint-order:markers stroke fill;stop-color:#000000"
               d="m -1692.8856,2129.9969 c 10e-4,-0.045 0.2684,-1.1286 0.5942,-2.4085 0.3739,-1.4689 0.665,-2.3997 0.7892,-2.5239 0.1092,-0.1092 1.3094,-0.5394 2.6969,-0.9666 l 2.5001,-0.7698 0.7133,0.4884 c 1.1349,0.7769 1.7878,0.9872 3.066,0.9872 1.214,0 1.8671,-0.1921 2.8155,-0.828 0.2896,-0.1942 0.629,-0.419 0.7542,-0.4997 0.2018,-0.1299 0.5125,-0.059 2.7232,0.6188 1.9063,0.5848 2.5484,0.8268 2.7199,1.025 0.1465,0.1693 0.4222,1.0225 0.7937,2.4558 0.3131,1.208 0.5957,2.2653 0.628,2.3495 0.05,0.1312 -1.4351,0.1532 -10.3686,0.1532 -5.735,0 -10.4266,-0.037 -10.4256,-0.081 z"
               id="path2455" />
            <path
               style="fill:#ffffff;stroke:#ffffff;stroke-width:0.43399;stroke-linecap:round;stroke-linejoin:round;stroke-miterlimit:4;stroke-dasharray:none;stroke-opacity:1;paint-order:markers stroke fill;stop-color:#000000"
               d="m -1683.6325,2123.156 c -1.0896,-0.3892 -1.8862,-1.1241 -2.4619,-2.2711 -1.0821,-2.1562 -0.7067,-4.8307 0.9034,-6.4351 0.8303,-0.8273 1.4612,-1.1125 2.582,-1.1672 0.818,-0.04 0.9531,-0.016 1.6031,0.2886 1.6327,0.764 2.7568,2.6938 2.7638,4.7449 0,0.7401 -0.3646,2.1342 -0.7235,2.7475 -0.4518,0.772 -1.2708,1.5696 -1.9582,1.907 -0.821,0.4031 -1.8938,0.4765 -2.7087,0.1854 z"
               id="path2457" />
          </g>
        </g>
      </g>
    </g>
    <text
       xml:space="preserve"
       style="font-size:2.33987px;line-height:1.25;font-family:Rookie;-inkscape-font-specification:Rookie;word-spacing:0px;stroke-width:0.350981"
       x="68.739136"
       y="28.117451"
       id="text2485"><tspan
         sodipodi:role="line"
         id="tspan2483"
         x="68.739136"
         y="28.117451"
         style="font-style:normal;font-variant:normal;font-weight:600;font-stretch:normal;font-size:2.33987px;font-family:Montserrat;-inkscape-font-specification:'Montserrat Semi-Bold';stroke-width:0.350981">2-4 Players</tspan></text>
    <text
       xml:space="preserve"
       style="font-size:2.33987px;line-height:1.25;font-family:Rookie;-inkscape-font-specification:Rookie;word-spacing:0px;stroke-width:0.350981"
       x="70.132515"
       y="40.385242"
       id="text2497"><tspan
         sodipodi:role="line"
         id="tspan2495"
         x="70.132515"
         y="40.385242"
         style="font-style:normal;font-variant:normal;font-weight:600;font-stretch:normal;font-size:2.33987px;font-family:Montserrat;-inkscape-font-specification:'Montserrat Semi-Bold';stroke-width:0.350981">Ages 14+</tspan></text>
  </g>
</svg>
